<svg xmlns="http://www.w3.org/2000/svg" width="18" height="13.211" viewBox="0 0 18 13.211">
    <g id="prefix__Male-and-Female" transform="translate(3 -3.991)">
        <path id="prefix__Path_2" d="M11.063 13.887l-2.13-.521-.175-.682a3.775 3.775 0 0 0 1.076-2.091.856.856 0 0 0 .61-.707l.14-1.1a.839.839 0 0 0-.2-.656.862.862 0 0 0-.334-.235l.049-1 .2-.2a1.272 1.272 0 0 0 .034-1.744A2.382 2.382 0 0 0 8.2 4a3.763 3.763 0 0 0-2.125.55c-2.394.05-2.72 1.15-2.72 2.216 0 .242.059.778.1 1.114a.859.859 0 0 0-.373.248.839.839 0 0 0-.2.661l.139 1.1a.855.855 0 0 0 .676.724 3.8 3.8 0 0 0 1.022 2.025l-.187.731-2.132.518A3.112 3.112 0 0 0 0 16.9a.3.3 0 0 0 .3.3h12.861a.3.3 0 0 0 .3-.3 3.112 3.112 0 0 0-2.398-3.013zm4.54 0l-2.13-.521-.113-.44a7.2 7.2 0 0 0 2.254-.695.3.3 0 0 0 .031-.5c-.01-.008-1-.812-1-3.6 0-2.38-.571-3.587-1.7-3.587h-.158a1.681 1.681 0 0 0-1.39-.556.268.268 0 0 0-.265.161.308.308 0 0 0-.034.109l-.117.448a.3.3 0 0 0 .023.212 1.8 1.8 0 0 1-.244 2.165.3.3 0 0 0-.08.189l-.008.155a.3.3 0 0 0 .088.228 1.44 1.44 0 0 1 .417 1.2l-.14 1.1a1.453 1.453 0 0 1-.587.986.3.3 0 0 0-.113.165 4.482 4.482 0 0 1-.652 1.4.3.3 0 0 0 .175.464l1.345.329a3.71 3.71 0 0 1 2.855 3.6.3.3 0 0 0 .3.3h3.34a.3.3 0 0 0 .3-.3 3.112 3.112 0 0 0-2.4-3.014z" data-name="Path 2" transform="translate(-3)" style="fill:#00adf9"/>
    </g>
</svg>
