<svg xmlns="http://www.w3.org/2000/svg" width="32.306" height="44" viewBox="0 0 32.306 44">
    <defs>
        <style>
            <!-- .prefix__cls-1{fill:#00aeef} -->
            .prefix__cls-1{fill:#3a3f5c}
        </style>
    </defs>
    <g id="prefix__suitcase" transform="translate(-68.035)">
        <g id="prefix__Group_343" data-name="Group 343" transform="translate(68.035)">
            <path id="prefix__Path_1354" d="M99.441 27.154a.86.86 0 0 0-.9.819c-.072 1.55-.191 3.1-.356 4.606l-.31 2.835a3.6 3.6 0 0 1-1.79 2.824 8.333 8.333 0 0 1-2.785.562 50.979 50.979 0 0 1-9.042.289q-1.262-.072-2.519-.207a11.681 11.681 0 0 1-3.239-.532 3.542 3.542 0 0 1-2.012-2.929l-.311-2.842a86.177 86.177 0 0 1 .311-18.846 3.39 3.39 0 0 1 2.644-3.111 50.935 50.935 0 0 1 15.95-.017l.148.023a3.387 3.387 0 0 1 2.65 3.112l.31 2.835c.138 1.262.245 2.557.318 3.848a.859.859 0 1 0 1.716-.1c-.075-1.321-.184-2.646-.325-3.938l-.31-2.835a5.1 5.1 0 0 0-4.095-4.62l-.148-.023q-1.434-.225-2.874-.371V6.517h1.2a.859.859 0 0 0 .859-.859v-3.8A2.061 2.061 0 0 0 92.282 0H82.063a2.061 2.061 0 0 0-2.25 1.862v3.8a.859.859 0 0 0 .859.859h1.194v2.013q-1.507.152-3.008.391a5.1 5.1 0 0 0-4.082 4.622l-.175 1.6h-1.787a.86.86 0 0 0-.59.235L68.3 19.09a.86.86 0 0 0 0 1.249l3.126 2.955a.868.868 0 0 0 1.181 0l1.457-1.377a75.455 75.455 0 0 0 .4 10.849l.311 2.842a5.351 5.351 0 0 0 2.516 4.054v2.35A2.024 2.024 0 0 0 79.345 44H81.3a2.024 2.024 0 0 0 2.053-1.988V40.75q1.9.138 3.8.138 2.061 0 4.119-.162v1.286A2.024 2.024 0 0 0 93.33 44h1.957a2.024 2.024 0 0 0 2.053-1.988v-2.528a5.4 5.4 0 0 0 2.245-3.884l.31-2.835c.168-1.542.291-3.127.364-4.713a.859.859 0 0 0-.819-.9zm-17.91-25.26a.74.74 0 0 1 .532-.175h10.219a.74.74 0 0 1 .532.175V4.8h-.826l-1.257-1.318a.859.859 0 0 0-.622-.266h-5.874a.859.859 0 0 0-.622.266L82.357 4.8h-.826V1.9zM83.584 6L84.6 4.934h5.138l1.011 1.06v2.4a52.591 52.591 0 0 0-7.168 0V6zm-9.39 13.43l-2.174 2.057-1.875-1.773 3.01-2.846h1.258q-.131 1.28-.219 2.564zm7.442 21.17v1.415a.311.311 0 0 1-.334.269h-1.957a.311.311 0 0 1-.334-.269v-1.762q1.307.205 2.625.347zm13.986 1.415a.311.311 0 0 1-.334.269h-1.957a.311.311 0 0 1-.331-.272v-1.449c.876-.1 1.76-.2 2.626-.361z" class="prefix__cls-1" data-name="Path 1354" transform="translate(-68.035)"/>
            <path id="prefix__Path_1355" d="M222.122 183.176a.87.87 0 0 0 .87-.87v-16.145a.87.87 0 1 0-1.74 0v16.146a.87.87 0 0 0 .87.869z" class="prefix__cls-1" data-name="Path 1355" transform="translate(-208.094 -151.202)"/>
            <path id="prefix__Path_1356" d="M280.82 166.161v19.61a.87.87 0 1 0 1.74 0v-19.61a.87.87 0 1 0-1.74 0z" class="prefix__cls-1" data-name="Path 1356" transform="translate(-262.546 -151.245)"/>
            <path id="prefix__Path_1357" d="M340.388 166.161v19.61a.87.87 0 1 0 1.74 0v-19.61a.87.87 0 1 0-1.74 0z" class="prefix__cls-1" data-name="Path 1357" transform="translate(-316.999 -151.245)"/>
            <path id="prefix__Path_1358" d="M425.337 269.853a.87.87 0 1 0 .334 1.02.876.876 0 0 0-.334-1.02z" class="prefix__cls-1" data-name="Path 1358" transform="translate(-393.416 -246.543)"/>
            <path id="prefix__Path_1359" d="M221.334 391.966a.869.869 0 1 0 .471-1.136.878.878 0 0 0-.471 1.136z" class="prefix__cls-1" data-name="Path 1359" transform="translate(-208.109 -357.2)"/>
        </g>
    </g>
</svg>
