<svg xmlns="http://www.w3.org/2000/svg" width="192" height="115" viewBox="0 0 192 115">
  <g id="Group_4015" data-name="Group 4015" transform="translate(404 -158) rotate(90)" opacity="0.1">
    <circle id="Ellipse_383" data-name="Ellipse 383" cx="8" cy="8" r="8" transform="translate(158 212)" fill="#0e3178"/>
    <circle id="Ellipse_383-2" data-name="Ellipse 383" cx="8" cy="8" r="8" transform="translate(191 212)" fill="#0e3178"/>
    <circle id="Ellipse_383-3" data-name="Ellipse 383" cx="8" cy="8" r="8" transform="translate(224 212)" fill="#0e3178"/>
    <circle id="Ellipse_383-4" data-name="Ellipse 383" cx="8" cy="8" r="8" transform="translate(257 212)" fill="#0e3178"/>
    <circle id="Ellipse_383-5" data-name="Ellipse 383" cx="8" cy="8" r="8" transform="translate(158 256)" fill="#0e3178"/>
    <circle id="Ellipse_383-6" data-name="Ellipse 383" cx="8" cy="8" r="8" transform="translate(191 256)" fill="#0e3178"/>
    <circle id="Ellipse_383-7" data-name="Ellipse 383" cx="8" cy="8" r="8" transform="translate(224 256)" fill="#0e3178"/>
    <circle id="Ellipse_383-8" data-name="Ellipse 383" cx="8" cy="8" r="8" transform="translate(257 256)" fill="#0e3178"/>
    <circle id="Ellipse_383-9" data-name="Ellipse 383" cx="8" cy="8" r="8" transform="translate(158 300)" fill="#0e3178"/>
    <circle id="Ellipse_383-10" data-name="Ellipse 383" cx="8" cy="8" r="8" transform="translate(191 300)" fill="#0e3178"/>
    <circle id="Ellipse_383-11" data-name="Ellipse 383" cx="8" cy="8" r="8" transform="translate(224 300)" fill="#0e3178"/>
    <circle id="Ellipse_383-12" data-name="Ellipse 383" cx="8" cy="8" r="8" transform="translate(257 300)" fill="#0e3178"/>
    <circle id="Ellipse_383-13" data-name="Ellipse 383" cx="8" cy="8" r="8" transform="translate(158 344)" fill="#0e3178"/>
    <circle id="Ellipse_383-14" data-name="Ellipse 383" cx="8" cy="8" r="8" transform="translate(191 344)" fill="#0e3178"/>
    <circle id="Ellipse_383-15" data-name="Ellipse 383" cx="8" cy="8" r="8" transform="translate(224 344)" fill="#0e3178"/>
    <circle id="Ellipse_383-16" data-name="Ellipse 383" cx="8" cy="8" r="8" transform="translate(257 344)" fill="#0e3178"/>
    <circle id="Ellipse_383-17" data-name="Ellipse 383" cx="8" cy="8" r="8" transform="translate(158 388)" fill="#0e3178"/>
    <circle id="Ellipse_383-18" data-name="Ellipse 383" cx="8" cy="8" r="8" transform="translate(191 388)" fill="#0e3178"/>
    <circle id="Ellipse_383-19" data-name="Ellipse 383" cx="8" cy="8" r="8" transform="translate(224 388)" fill="#0e3178"/>
    <circle id="Ellipse_383-20" data-name="Ellipse 383" cx="8" cy="8" r="8" transform="translate(257 388)" fill="#0e3178"/>
  </g>
</svg>
