<svg xmlns="http://www.w3.org/2000/svg" xmlns:xlink="http://www.w3.org/1999/xlink" width="529.273" height="451.96" viewBox="0 0 529.273 451.96">
  <defs>
    <linearGradient id="linear-gradient" x1="0.944" y1="-1.974" x2="0.813" y2="-0.633" gradientUnits="objectBoundingBox">
      <stop offset="0" stop-color="#c9e9fa"/>
      <stop offset="1" stop-color="#fff"/>
    </linearGradient>
    <linearGradient id="linear-gradient-2" x1="1.028" y1="-0.495" x2="1.169" y2="-2.161" xlink:href="#linear-gradient"/>
    <linearGradient id="linear-gradient-3" x1="4.723" y1="0.837" x2="5.723" y2="0.837" xlink:href="#linear-gradient"/>
    <linearGradient id="linear-gradient-4" y1="-0.525" x2="0.998" y2="-0.525" gradientUnits="objectBoundingBox">
      <stop offset="0" stop-color="#c9e9fa"/>
      <stop offset="0.294" stop-color="#b1cae8"/>
      <stop offset="1" stop-color="#fff"/>
    </linearGradient>
    <linearGradient id="linear-gradient-5" x1="5.18" y1="0.442" x2="6.534" y2="0.442" gradientUnits="objectBoundingBox">
      <stop offset="0" stop-color="#00aeef"/>
      <stop offset="1" stop-color="#57f"/>
    </linearGradient>
    <linearGradient id="linear-gradient-8" x1="-0.002" y1="3.373" x2="1.001" y2="3.373" gradientUnits="objectBoundingBox">
      <stop offset="0" stop-color="#30acef"/>
      <stop offset="1" stop-color="#192f77"/>
      <stop offset="1" stop-color="#fff"/>
    </linearGradient>
    <linearGradient id="linear-gradient-9" x1="-0.002" y1="1.563" x2="1" y2="1.563" xlink:href="#linear-gradient-8"/>
    <linearGradient id="linear-gradient-10" x1="-0.006" y1="1.041" x2="0.995" y2="1.041" xlink:href="#linear-gradient"/>
    <linearGradient id="linear-gradient-11" y1="0.5" x2="1" y2="0.5" gradientUnits="objectBoundingBox">
      <stop offset="0" stop-color="#30acef"/>
      <stop offset="1" stop-color="#fff"/>
    </linearGradient>
    <linearGradient id="linear-gradient-16" x1="0" y1="0.5" x2="1" y2="0.5" xlink:href="#linear-gradient-11"/>
    <linearGradient id="linear-gradient-17" x1="0" y1="1.579" x2="1.001" y2="1.579" xlink:href="#linear-gradient-8"/>
    <linearGradient id="linear-gradient-18" x1="-0.038" y1="17.87" x2="0.978" y2="17.87" xlink:href="#linear-gradient-8"/>
    <linearGradient id="linear-gradient-19" x1="-0.016" y1="11.229" x2="0.998" y2="11.229" xlink:href="#linear-gradient-8"/>
    <linearGradient id="linear-gradient-20" x1="79.717" y1="1.558" x2="81.811" y2="1.558" xlink:href="#linear-gradient-8"/>
    <linearGradient id="linear-gradient-21" x1="-0.037" y1="24.823" x2="0.994" y2="24.823" xlink:href="#linear-gradient-8"/>
    <linearGradient id="linear-gradient-23" x1="-0.026" y1="24.774" x2="0.993" y2="24.774" xlink:href="#linear-gradient-8"/>
    <linearGradient id="linear-gradient-24" x1="0.034" y1="52.839" x2="1.034" y2="52.839" xlink:href="#linear-gradient-8"/>
    <clipPath id="clip-path">
      <path id="Path_351" data-name="Path 351" d="M1091.693,452.343c-15.256-19.508-30.637-23.008-64.024-39.265-8.879-4.377-17.007-8.629-24.634-12.754a392.53,392.53,0,0,1-66.277-45.643c-33.012-28.261-46.143-48.144-79.155-51.145-83.408-7.628-191.2,102.039-177.945,190.824,5.252,35.388,29.011,61.9,37.016,70.777,3.75,4.126,7.628,8,11.753,11.755,24.259,21.757,55.9,35.638,104.04,46.643,23.01,5.252,46.018,10.629,68.4,15.006C980.774,654.3,1053.3,658.8,1091.443,612.155,1126.58,569.138,1124.331,493.734,1091.693,452.343Z" transform="translate(-678.544 -303.159)" fill="none"/>
    </clipPath>
    <linearGradient id="linear-gradient-26" x1="0" y1="-8.016" x2="1" y2="-8.016" xlink:href="#linear-gradient-8"/>
    <linearGradient id="linear-gradient-27" x1="0" y1="-16.918" x2="1" y2="-16.918" xlink:href="#linear-gradient-8"/>
    <linearGradient id="linear-gradient-28" x1="0.001" y1="2.656" x2="1.001" y2="2.656" xlink:href="#linear-gradient-8"/>
  </defs>
  <g id="Group_1625" data-name="Group 1625" transform="translate(-678.544 -249.638)">
    <g id="Group_52" data-name="Group 52" transform="translate(785.282 249.638)" opacity="0.1">
      <path id="Path_229" data-name="Path 229" d="M813.176,299.935c1.745-3.221,6.574-5.636,12.21-5.636a16.7,16.7,0,0,1,4.428.536A9.222,9.222,0,0,1,834.779,290c1.476-7.245,11.271-13.016,23.079-13.016,8.991,0,16.64,3.221,20.666,7.917A19.848,19.848,0,0,1,885.9,283.7c8.186,0,14.76,4.16,14.76,9.393a3.717,3.717,0,0,1-.134,1.209h1.343c5.634,0,10.466,2.281,12.21,5.636Z" transform="translate(-725.43 -248.511)" fill="#00aeef"/>
      <path id="Path_231" data-name="Path 231" d="M901.438,378.794c1.743-3.221,6.574-5.636,12.21-5.636a16.631,16.631,0,0,1,4.428.538,9.216,9.216,0,0,1,4.965-4.831c1.476-7.246,11.271-13.015,23.079-13.015,8.99,0,16.64,3.219,20.664,7.916a19.824,19.824,0,0,1,7.381-1.207c8.184,0,14.76,4.16,14.76,9.393a3.706,3.706,0,0,1-.134,1.207h1.341c5.636,0,10.467,2.281,12.212,5.636Z" transform="translate(-901.438 -289.505)" fill="#00aeef"/>
      <path id="Path_232" data-name="Path 232" d="M1025.919,386.867c-1.012-1.947-3.892-3.27-7.162-3.27a10.271,10.271,0,0,0-2.647.311,5.483,5.483,0,0,0-2.881-2.88c-.856-4.282-6.617-7.629-13.623-7.629-5.295,0-9.809,1.869-12.145,4.671a13.9,13.9,0,0,0-4.36-.778c-4.827,0-8.719,2.492-8.719,5.528a2.146,2.146,0,0,0,.078.7h-.779c-3.347,0-6.15,1.4-7.162,3.27Z" transform="translate(-614.025 -203.505)" fill="#00aeef"/>
      <path id="Path_233" data-name="Path 233" d="M917.662,314.347c1.341-2.548,5.233-4.428,9.795-4.428a16.633,16.633,0,0,1,3.624.4,7.846,7.846,0,0,1,3.891-3.891c1.207-5.905,8.99-10.333,18.517-10.333,7.112,0,13.284,2.55,16.505,6.307a17.674,17.674,0,0,1,5.9-1.074c6.576,0,11.809,3.355,11.809,7.514a2.275,2.275,0,0,1-.135.94h1.074c4.562,0,8.319,1.879,9.795,4.429Z" transform="translate(-575.906 -229.998)" fill="#00aeef"/>
      <path id="Path_234" data-name="Path 234" d="M882.776,257.834a4.925,4.925,0,0,1,4.293-2.012,6.518,6.518,0,0,1,1.61.134,3.182,3.182,0,0,1,1.745-1.745c.536-2.55,4.026-4.562,8.184-4.562a9.7,9.7,0,0,1,7.246,2.817,8.463,8.463,0,0,1,2.55-.4c2.952,0,5.233,1.476,5.233,3.355v.4h.536a4.782,4.782,0,0,1,4.295,2.012Z" transform="translate(-666.447 -249.638)" fill="#00aeef"/>
    </g>
    <g id="Group_1461" data-name="Group 1461" transform="translate(679.911 351.727)">
      <path id="Path_300" data-name="Path 300" d="M812.292,602.346c22.883,5.877,45.641,11.755,68.026,16.757L988.234,383.637a395.293,395.293,0,0,1-65.026-47.269L709.376,553.078C733.136,575.461,764.4,590.092,812.292,602.346Z" transform="translate(-661.972 -282.601)" fill="url(#linear-gradient)"/>
      <path id="Path_301" data-name="Path 301" d="M1008.513,580.162c36.014-41.891,35.639-117.295,4.127-159.562-14.755-19.882-30.136-23.759-63.024-40.891-8.753-4.5-16.757-9-24.259-13.379L817.44,601.67C896.97,619.427,969.248,625.8,1008.513,580.162Z" transform="translate(-599.094 -265.167)" fill="url(#linear-gradient-2)"/>
      <path id="Path_302" data-name="Path 302" d="M715.435,560.851a148.392,148.392,0,0,0,11.378,12l213.833-216.71c-32.262-29.011-44.892-49.269-77.78-53.146-83.157-9.754-193.7,97.164-182.7,186.2C684.547,524.712,707.68,551.722,715.435,560.851Z" transform="translate(-679.408 -302.378)" fill="url(#linear-gradient-3)"/>
    </g>
    <g id="Group_1516" data-name="Group 1516" transform="translate(979.373 433.399)">
      <g id="Group_1469" data-name="Group 1469" opacity="0.5">
        <g id="Group_1468" data-name="Group 1468">
          <g id="Group_1467" data-name="Group 1467">
            <g id="Group_1466" data-name="Group 1466">
              <g id="Group_1465" data-name="Group 1465">
                <g id="Group_1464" data-name="Group 1464">
                  <g id="Group_1463" data-name="Group 1463">
                    <g id="Group_1462" data-name="Group 1462">
                      <path id="Path_303" data-name="Path 303" d="M936.567,610.827c-38.479-14.357-56.743-54.887-65.141-93.368-1.368-6.446-3.809-12.99-2.15-19.338,1.563-6.348,7.716-12.013,14.064-10.84,5.274.978,8.79,5.957,12.6,9.864A37.41,37.41,0,0,0,914.5,507.5c4.591,1.076,9.963,1.076,13.381-2.246,4.687-4.492,3.418-12.207,1.757-18.555-3.028-11.818-6.153-23.538-9.181-35.355-1.659-6.348-3.32-12.794-2.832-19.338s3.419-13.283,8.985-16.505,13.966-1.757,16.8,4.2c1.172,2.441,1.368,5.274,2.15,7.813.878,2.539,2.831,5.176,5.469,5.274,2.735.1,4.785-2.344,6.25-4.689,4.883-8.105,7.228-17.481,9.279-26.759s4-18.753,8.105-27.249c4.2-8.5,10.939-16.212,19.923-19.044s20.022.195,24.612,8.5,1.659,18.751-2.148,27.444a147.171,147.171,0,0,1-22.268,35.745c-1.661,1.953-3.418,4.005-3.615,6.544-.293,4.591,4.787,7.715,9.279,8.007,5.078.391,10.157-1.465,15.235-2.148s10.938.1,14.064,4.3c4.2,5.761.585,13.966-3.614,19.825a123.8,123.8,0,0,1-30.568,29.982c-4.2,2.931-8.791,5.665-11.622,9.963-2.931,4.3-3.713,10.548-.391,14.453,3.417,3.907,9.57,3.809,14.259,1.661s8.3-5.957,12.5-8.887c7.911-5.568,19.24-7.911,26.76-1.759,4.883,4.005,7.033,10.842,6.642,17.19s-2.833,12.4-5.665,18.165c-9.766,20.022-24.319,37.8-42.68,50.1-18.653,12.111-36.819,18.85-58.794,16.7" transform="translate(-868.718 -354.008)" fill="url(#linear-gradient-4)"/>
                    </g>
                  </g>
                </g>
              </g>
            </g>
          </g>
        </g>
      </g>
      <g id="Group_1515" data-name="Group 1515" transform="translate(4.856 3.184)" opacity="0.2">
        <g id="Group_1478" data-name="Group 1478" transform="translate(65.826)">
          <g id="Group_1477" data-name="Group 1477">
            <g id="Group_1476" data-name="Group 1476">
              <g id="Group_1475" data-name="Group 1475">
                <g id="Group_1474" data-name="Group 1474">
                  <g id="Group_1473" data-name="Group 1473">
                    <g id="Group_1472" data-name="Group 1472">
                      <g id="Group_1471" data-name="Group 1471">
                        <g id="Group_1470" data-name="Group 1470">
                          <path id="Path_304" data-name="Path 304" d="M913.4,609.754c.683-20.7,4.493-69.929,8.105-93.564.88-5.859,1.857-11.72,2.735-17.481s1.855-11.427,3.028-16.9a295.353,295.353,0,0,1,8.887-31.253c3.322-9.766,6.74-18.947,10.061-27.542s6.543-16.505,9.863-23.538a239.594,239.594,0,0,1,17.873-32.327c2.443-3.613,4.394-6.446,5.665-8.3.683-.878,1.172-1.561,1.563-2.148.391-.489.585-.683.585-.683a2.911,2.911,0,0,1-.487.781c-.391.489-.88,1.269-1.467,2.148-1.269,1.856-3.222,4.689-5.566,8.4a241.317,241.317,0,0,0-17.579,32.425c-3.222,7.129-6.446,15.04-9.766,23.635s-6.739,17.775-9.963,27.542-6.348,20.216-8.789,31.155c-1.172,5.469-2.15,11.133-3.028,16.9s-1.856,11.524-2.735,17.481c-3.613,23.636-7.422,72.761-8.2,93.466" transform="translate(-913.401 -356.021)" fill="#263238"/>
                        </g>
                      </g>
                    </g>
                  </g>
                </g>
              </g>
            </g>
          </g>
        </g>
        <g id="Group_1487" data-name="Group 1487" transform="translate(52.919 58.404)">
          <g id="Group_1486" data-name="Group 1486">
            <g id="Group_1485" data-name="Group 1485">
              <g id="Group_1484" data-name="Group 1484">
                <g id="Group_1483" data-name="Group 1483">
                  <g id="Group_1482" data-name="Group 1482">
                    <g id="Group_1481" data-name="Group 1481">
                      <g id="Group_1480" data-name="Group 1480">
                        <g id="Group_1479" data-name="Group 1479">
                          <path id="Path_305" data-name="Path 305" d="M932.213,460.233a15.912,15.912,0,0,1-1.27-2.539c-.782-1.661-1.758-4.1-3.028-7.13-2.441-6.055-5.665-14.553-9.083-24.027-3.418-9.376-6.739-17.872-9.376-23.829-1.27-3.028-2.344-5.47-3.126-7.129a11.029,11.029,0,0,1-1.074-2.637,15.764,15.764,0,0,1,1.465,2.441c.879,1.661,2.052,4.005,3.418,7.033,2.735,5.957,6.154,14.355,9.67,23.829,3.418,9.279,6.445,17.775,8.789,24.123,1.074,2.93,2.052,5.372,2.735,7.227A16.262,16.262,0,0,1,932.213,460.233Z" transform="translate(-905.242 -392.942)" fill="#263238"/>
                        </g>
                      </g>
                    </g>
                  </g>
                </g>
              </g>
            </g>
          </g>
        </g>
        <g id="Group_1496" data-name="Group 1496" transform="translate(79.987 89.266)">
          <g id="Group_1495" data-name="Group 1495">
            <g id="Group_1494" data-name="Group 1494">
              <g id="Group_1493" data-name="Group 1493">
                <g id="Group_1492" data-name="Group 1492">
                  <g id="Group_1491" data-name="Group 1491">
                    <g id="Group_1490" data-name="Group 1490">
                      <g id="Group_1489" data-name="Group 1489">
                        <g id="Group_1488" data-name="Group 1488">
                          <path id="Path_306" data-name="Path 306" d="M999.8,412.452a4.719,4.719,0,0,1-.78.391,17.922,17.922,0,0,0-2.344.878c-2.052.683-4.981,1.759-8.594,3.126-7.228,2.735-17.19,6.837-27.835,11.915-10.744,5.079-20.218,10.061-26.956,13.966-3.419,1.856-6.055,3.516-8.009,4.591-.878.489-1.561.88-2.148,1.27a4.5,4.5,0,0,1-.781.391s.2-.2.683-.587q.88-.586,2.052-1.465c1.855-1.172,4.492-2.93,7.813-4.883,6.642-4,16.115-9.083,26.858-14.161a292.933,292.933,0,0,1,28.029-11.622c3.615-1.27,6.642-2.246,8.79-2.833.976-.293,1.758-.489,2.441-.683A1.72,1.72,0,0,1,999.8,412.452Z" transform="translate(-922.353 -412.452)" fill="#263238"/>
                        </g>
                      </g>
                    </g>
                  </g>
                </g>
              </g>
            </g>
          </g>
        </g>
        <g id="Group_1505" data-name="Group 1505" transform="translate(0 131.944)">
          <g id="Group_1504" data-name="Group 1504">
            <g id="Group_1503" data-name="Group 1503">
              <g id="Group_1502" data-name="Group 1502">
                <g id="Group_1501" data-name="Group 1501">
                  <g id="Group_1500" data-name="Group 1500">
                    <g id="Group_1499" data-name="Group 1499">
                      <g id="Group_1498" data-name="Group 1498">
                        <g id="Group_1497" data-name="Group 1497">
                          <path id="Path_307" data-name="Path 307" d="M939.177,532.9s-.293-.293-.781-.88c-.587-.683-1.27-1.563-2.148-2.637-1.855-2.246-4.4-5.567-7.52-9.766-6.251-8.3-14.65-20.118-23.636-33.206s-17.286-24.9-23.342-33.3c-3.028-4.1-5.468-7.52-7.324-9.963-.781-1.074-1.465-2.05-1.954-2.733a5.692,5.692,0,0,1-.683-.978s.293.293.781.879c.585.683,1.269,1.563,2.148,2.637,1.855,2.246,4.394,5.566,7.52,9.766,6.252,8.3,14.65,20.118,23.635,33.206s17.287,24.9,23.342,33.3c3.028,4.1,5.47,7.52,7.326,9.963.781,1.074,1.465,2.05,1.954,2.733C938.981,532.507,939.275,532.9,939.177,532.9Z" transform="translate(-871.788 -439.432)" fill="#263238"/>
                        </g>
                      </g>
                    </g>
                  </g>
                </g>
              </g>
            </g>
          </g>
        </g>
        <g id="Group_1514" data-name="Group 1514" transform="translate(67.291 162.391)">
          <g id="Group_1513" data-name="Group 1513">
            <g id="Group_1512" data-name="Group 1512">
              <g id="Group_1511" data-name="Group 1511">
                <g id="Group_1510" data-name="Group 1510">
                  <g id="Group_1509" data-name="Group 1509">
                    <g id="Group_1508" data-name="Group 1508">
                      <g id="Group_1507" data-name="Group 1507">
                        <g id="Group_1506" data-name="Group 1506">
                          <path id="Path_308" data-name="Path 308" d="M1013.75,458.7a4.992,4.992,0,0,1-.978.683c-.781.489-1.659,1.076-2.93,1.855-2.637,1.661-6.25,3.907-10.646,6.74-8.985,5.665-21.29,13.77-34.866,22.657s-25.979,16.9-35.062,22.366c-4.589,2.735-8.2,4.981-10.84,6.446-1.269.683-2.246,1.269-3.028,1.659-.683.391-1.074.587-1.074.489a4.986,4.986,0,0,1,.978-.683c.78-.489,1.659-1.074,2.929-1.855,2.637-1.661,6.25-3.907,10.645-6.739,8.986-5.665,21.292-13.772,34.867-22.659s25.979-16.9,35.062-22.366c4.589-2.733,8.2-4.98,10.84-6.444,1.172-.685,2.246-1.27,3.028-1.661C1013.359,458.8,1013.75,458.608,1013.75,458.7Z" transform="translate(-914.327 -458.68)" fill="#263238"/>
                        </g>
                      </g>
                    </g>
                  </g>
                </g>
              </g>
            </g>
          </g>
        </g>
      </g>
    </g>
    <g id="Group_1568" data-name="Group 1568" transform="translate(982.95 455.095)">
      <g id="Group_1524" data-name="Group 1524" transform="translate(51.089)">
        <g id="Group_1523" data-name="Group 1523">
          <g id="Group_1522" data-name="Group 1522">
            <g id="Group_1521" data-name="Group 1521">
              <g id="Group_1520" data-name="Group 1520">
                <g id="Group_1519" data-name="Group 1519">
                  <g id="Group_1518" data-name="Group 1518">
                    <g id="Group_1517" data-name="Group 1517">
                      <path id="Path_309" data-name="Path 309" d="M937.692,465.375c-7.477,8.287-19.258,3.681-24.2-2.681s-6.168-14.7-7.43-22.685c-2.59-18.25-5.07-37.357.93-54.707,1.864-5.162,4.584-10.217,8.677-13.708,4.263-3.469,10.2-4.989,15.338-2.953,5.954,2.485,8.952,9.127,10.964,15.3a128.526,128.526,0,0,1,5.091,56.678c-1.115,8.911-3.472,18.014-9.365,24.761" transform="translate(-903.277 -367.724)" fill="url(#linear-gradient-5)"/>
                    </g>
                  </g>
                </g>
              </g>
            </g>
          </g>
        </g>
      </g>
      <g id="Group_1532" data-name="Group 1532" transform="translate(0 131.84)">
        <g id="Group_1531" data-name="Group 1531">
          <g id="Group_1530" data-name="Group 1530">
            <g id="Group_1529" data-name="Group 1529">
              <g id="Group_1528" data-name="Group 1528">
                <g id="Group_1527" data-name="Group 1527">
                  <g id="Group_1526" data-name="Group 1526">
                    <g id="Group_1525" data-name="Group 1525">
                      <path id="Path_310" data-name="Path 310" d="M926.747,459.8c-9.6-6.77-21.483-9.127-33.2-8.68-6.3.256-12.853,1.175-17.715,5.266s-6.75,12.209-2.466,16.923c2.613,2.764,6.511,3.6,10.11,4.05,8.911,1.115,19.042.816,25.553,7.2,3.727,3.6,5.632,9.233,10.409,11.4,4.6,2.142,10.26.066,13.389-4.068,3.105-3.961,3.964-9.423,3.385-14.544A22.979,22.979,0,0,0,926.747,459.8Z" transform="translate(-870.98 -451.069)" fill="url(#linear-gradient-5)"/>
                    </g>
                  </g>
                </g>
              </g>
            </g>
          </g>
        </g>
      </g>
      <g id="Group_1540" data-name="Group 1540" transform="translate(96.736 42.1)">
        <g id="Group_1539" data-name="Group 1539">
          <g id="Group_1538" data-name="Group 1538">
            <g id="Group_1537" data-name="Group 1537">
              <g id="Group_1536" data-name="Group 1536">
                <g id="Group_1535" data-name="Group 1535">
                  <g id="Group_1534" data-name="Group 1534">
                    <g id="Group_1533" data-name="Group 1533">
                      <path id="Path_311" data-name="Path 311" d="M936.387,465.227c-5.654-9.061-5.352-21.206-.981-31.1s12.49-17.756,21.252-23.8a100.216,100.216,0,0,1,34.4-14.838c4.818-.963,9.96-1.713,14.694-.6s9.38,4.307,11.051,9.04c2.441,6.919-1.8,14.395-6.193,20.284a239.683,239.683,0,0,1-25.28,29.557c-7.37,7.432-15.725,14.392-25.794,16.961-10.046,2.4-19.92.639-24.032-6.837" transform="translate(-932.133 -394.338)" fill="url(#linear-gradient-5)"/>
                    </g>
                  </g>
                </g>
              </g>
            </g>
          </g>
        </g>
      </g>
      <g id="Group_1549" data-name="Group 1549" transform="translate(31.562 144.792)">
        <g id="Group_1548" data-name="Group 1548">
          <g id="Group_1547" data-name="Group 1547">
            <g id="Group_1546" data-name="Group 1546">
              <g id="Group_1545" data-name="Group 1545">
                <g id="Group_1544" data-name="Group 1544">
                  <g id="Group_1543" data-name="Group 1543">
                    <g id="Group_1542" data-name="Group 1542">
                      <g id="Group_1541" data-name="Group 1541">
                        <path id="Path_312" data-name="Path 312" d="M926.818,549.438c-.171-.021-.149-1.585,0-4.176.043-3.127.343-6.919.388-11.438a144.844,144.844,0,0,0-.32-16.923,126.529,126.529,0,0,0-3.36-20.434,68.742,68.742,0,0,0-7.537-19.044,36.882,36.882,0,0,0-11.008-12.169,35,35,0,0,0-10.022-4.735c-2.528-.664-4.05-1.03-4.028-1.2s1.563.022,4.113.514a31.85,31.85,0,0,1,10.6,4.287,35.9,35.9,0,0,1,11.672,12.426,74.158,74.158,0,0,1,7.836,19.428,126.767,126.767,0,0,1,3.167,20.586,144.232,144.232,0,0,1-.044,17.049c-.258,4.842-.751,8.782-.9,11.375A28.428,28.428,0,0,1,926.818,549.438Z" transform="translate(-890.932 -459.256)" fill="#263238"/>
                      </g>
                    </g>
                  </g>
                </g>
              </g>
            </g>
          </g>
        </g>
      </g>
      <g id="Group_1558" data-name="Group 1558" transform="translate(67.811 36.965)">
        <g id="Group_1557" data-name="Group 1557">
          <g id="Group_1556" data-name="Group 1556">
            <g id="Group_1555" data-name="Group 1555">
              <g id="Group_1554" data-name="Group 1554">
                <g id="Group_1553" data-name="Group 1553">
                  <g id="Group_1552" data-name="Group 1552">
                    <g id="Group_1551" data-name="Group 1551">
                      <g id="Group_1550" data-name="Group 1550">
                        <path id="Path_313" data-name="Path 313" d="M913.872,580.447a8.67,8.67,0,0,1,.065-1.908l.687-5.483c.6-4.8,1.629-11.631,2.529-20.221,1.974-17.157,3.542-40.8,4.209-67s.157-49.93-1-67.131c-.171-4.2-.557-8.075-.813-11.589-.277-3.341-.6-6.34-.833-8.632s-.364-4.048-.535-5.462a7.729,7.729,0,0,1-.107-1.928,12.075,12.075,0,0,1,.451,1.971c.171,1.414.47,3.192.876,5.5s.728,5.314,1.177,8.677.835,7.24,1.155,11.63c1.5,17.244,2.18,41,1.511,67.2s-2.6,49.973-4.744,67.109c-1.071,8.569-2.1,15.4-3.043,20.156-.451,2.207-.857,4.07-1.03,5.44C914.13,579.782,913.872,580.447,913.872,580.447Z" transform="translate(-913.848 -391.092)" fill="#263238"/>
                      </g>
                    </g>
                  </g>
                </g>
              </g>
            </g>
          </g>
        </g>
      </g>
      <g id="Group_1567" data-name="Group 1567" transform="translate(73.845 61.482)">
        <g id="Group_1566" data-name="Group 1566">
          <g id="Group_1565" data-name="Group 1565">
            <g id="Group_1564" data-name="Group 1564">
              <g id="Group_1563" data-name="Group 1563">
                <g id="Group_1562" data-name="Group 1562">
                  <g id="Group_1561" data-name="Group 1561">
                    <g id="Group_1560" data-name="Group 1560">
                      <g id="Group_1559" data-name="Group 1559">
                        <path id="Path_314" data-name="Path 314" d="M917.7,525.89c-.171-.022.258-2.056.9-5.805a156.416,156.416,0,0,1,3.836-15.358c2.015-6.361,4.523-13.879,7.973-21.975A204.748,204.748,0,0,1,943.35,457.22c10.2-17.521,22.9-31.42,33.314-39.515,2.528-2.12,5.163-3.7,7.262-5.182,1.136-.729,2.1-1.479,3.042-2.056a22.28,22.28,0,0,1,2.786-1.392c3.341-1.67,5.184-2.484,5.184-2.484.3.386-7.412,3.6-17.524,12.078-10.091,8.309-22.431,22.081-32.607,39.431a220.064,220.064,0,0,0-12.921,25.359,193.245,193.245,0,0,0-8.294,21.762c-2.014,6.362-3.343,11.416-4.328,15.123C918.3,523.876,917.7,525.89,917.7,525.89Z" transform="translate(-917.662 -406.591)" fill="#263238"/>
                      </g>
                    </g>
                  </g>
                </g>
              </g>
            </g>
          </g>
        </g>
      </g>
    </g>
    <g id="Group_1611" data-name="Group 1611" transform="translate(958.256 300.116)">
      <g id="Group_1570" data-name="Group 1570" transform="translate(78.334)">
        <g id="Group_1569" data-name="Group 1569">
          <path id="Path_315" data-name="Path 315" d="M822.574,361.537a.426.426,0,0,0,.272-.134c.134-.136.406-.272.676-.542a4.761,4.761,0,0,1,1.22-.815,14.671,14.671,0,0,1,1.491-1.22,24.325,24.325,0,0,1,1.9-1.624c.678-.678,1.357-1.357,2.035-2.169a41.6,41.6,0,0,0,4.335-5.692,38.678,38.678,0,0,0,5.828-17.484,29.855,29.855,0,0,0-1.084-10.842,17.547,17.547,0,0,0-11.52-12.6,20.625,20.625,0,0,0-5.692-.812,35.675,35.675,0,0,0-10.841,1.9,77.616,77.616,0,0,0-17.076,7.455,78.97,78.97,0,0,0-10.3,7.182c-1.085.948-2.033,1.76-2.575,2.169-.27.27-.542.406-.678.542a.418.418,0,0,1-.27.134l.27-.27.678-.678c.542-.542,1.49-1.354,2.575-2.3a76.018,76.018,0,0,1,27.377-14.773,40.372,40.372,0,0,1,10.841-1.9,21.6,21.6,0,0,1,5.828.812,13.383,13.383,0,0,1,5.286,2.847,19.34,19.34,0,0,1,6.234,9.893,30.637,30.637,0,0,1,1.084,10.978A38.728,38.728,0,0,1,834.5,349.2a28.346,28.346,0,0,1-4.337,5.692c-.676.812-1.49,1.491-2.033,2.169-.676.678-1.354,1.084-1.9,1.627l-1.627,1.218a6.287,6.287,0,0,1-1.22.815c-.27.27-.543.406-.676.542Z" transform="translate(-780.29 -307.057)" fill="url(#linear-gradient-8)"/>
        </g>
      </g>
      <g id="Group_1572" data-name="Group 1572" transform="translate(0 37.81)">
        <g id="Group_1571" data-name="Group 1571">
          <path id="Path_316" data-name="Path 316" d="M788.658,387.269a36.29,36.29,0,0,1-4.744,1.084,40.25,40.25,0,0,1-13.28-.27,24.6,24.6,0,0,1-4.2-1.221c-1.493-.542-2.847-1.218-4.337-1.9a31.281,31.281,0,0,1-8.267-6.64A29.561,29.561,0,0,1,748,368.3a19.192,19.192,0,0,1-.679-2.983,21.994,21.994,0,0,1-.406-3.117v-3.251c0-.542.136-1.084.136-1.627.133-.542.133-1.084.27-1.627a28.816,28.816,0,0,1,1.763-6.1q.609-1.426,1.218-2.847a6.313,6.313,0,0,0,.678-1.354c.272-.408.542-.95.814-1.356a37.135,37.135,0,0,1,7.588-8.809,43.127,43.127,0,0,1,8.809-5.828,53.081,53.081,0,0,1,8.539-3.387,76.718,76.718,0,0,1,13.01-2.575c1.626-.136,2.845-.273,3.659-.273h.948a2.634,2.634,0,0,0-.948.136c-.812,0-2.033.136-3.659.27a77.216,77.216,0,0,0-13.01,2.575,53.289,53.289,0,0,0-8.539,3.389,48.55,48.55,0,0,0-8.809,5.692,36.242,36.242,0,0,0-7.455,8.809,11.871,11.871,0,0,0-.812,1.356,6.3,6.3,0,0,0-.678,1.354,25.356,25.356,0,0,0-1.218,2.847,28.8,28.8,0,0,0-1.763,6.1c-.136.542-.136,1.084-.272,1.627,0,.542-.133,1.084-.133,1.627V362.2a23.89,23.89,0,0,0,.406,3.117,23.529,23.529,0,0,0,.678,2.983,29.231,29.231,0,0,0,5.692,10.029,30.186,30.186,0,0,0,8.131,6.5,29.706,29.706,0,0,0,4.337,1.9,28.46,28.46,0,0,0,4.2,1.221,36.705,36.705,0,0,0,13.146.406c1.491-.27,2.709-.542,3.523-.676a8.585,8.585,0,0,0,.948-.272A2.125,2.125,0,0,1,788.658,387.269Z" transform="translate(-746.916 -323.166)" fill="url(#linear-gradient-9)"/>
        </g>
      </g>
      <g id="Group_1574" data-name="Group 1574" transform="translate(21.955 12.468)">
        <g id="Group_1573" data-name="Group 1573">
          <path id="Path_317" data-name="Path 317" d="M870.382,375.388c-.54-1.354-.676-2.845-1.082-4.2a3.122,3.122,0,0,0-1.221-1.9c-.406-.272-1.084-.136-1.491-.406-1.762-.542-2.3-2.983-3.931-3.8a6.6,6.6,0,0,0-1.76-.406c-2.305-.272-4.61-1.084-5.964-2.847a15.3,15.3,0,0,0-1.354-1.763,1.639,1.639,0,0,0-2.033-.134,27.488,27.488,0,0,1,1.355,2.845,6.973,6.973,0,0,0,1.626,2.441,2.49,2.49,0,0,0,2.711.54c.27-.134.542-.406.948-.27.27,0,.406.136.542.406,1.218,1.357.812,3.659-.406,5.016a12.053,12.053,0,0,1-4.744,2.845,3.218,3.218,0,0,1-1.9.406c-1.218-.27-1.76-1.491-2.169-2.709-.812-2.575-1.082-5.286-2.709-7.455a19.549,19.549,0,0,1-1.49-2.033,8.18,8.18,0,0,0-.814-2.575c-.542-.814-1.627-1.22-1.763-2.169a1.8,1.8,0,0,1,1.085-1.49c.678-.272,1.357-.408,1.9-.678.27-.136.542-.272.542-.542,0-.406-.542-.542-.678-.948s.272-.815.406-1.22c.406-.948-.542-1.9-1.49-2.3s-2.032-.678-2.575-1.626a4.8,4.8,0,0,1-.27-1.357,2.917,2.917,0,0,0-2.168-2.439,2,2,0,0,0-2.3,2.033,10.175,10.175,0,0,0,.814,1.763c.27.542.134,1.49-.409,1.626-.948.27-2.033-1.493-2.844-.951.406,1.221.676,2.3,1.084,3.525-1.357.676-2.847-.542-3.525-1.9-.542-1.354-.542-2.981-1.219-4.2-.678-1.354-2.441-2.3-3.659-1.354,0,1.763,2.169,2.439,3.117,3.8a2.341,2.341,0,0,1-.406,3.251c-1.084.678-2.711-.406-2.3-1.624.136-.408.542-.678.542-1.22a2.073,2.073,0,0,0-.812-1.357c-.678-.54-1.221-1.082-1.9-1.624a2.8,2.8,0,0,0-1.354-.814c-1.357-.406-2.575.678-3.389,1.9a14.951,14.951,0,0,1-2.033,3.523,3.683,3.683,0,0,1-5.286,0c-1.354-1.49-.676-4.338,1.221-4.88.678-.136,1.627-.136,2.033-.812.678-1.084-1.221-2.575-.542-3.8.542-.814,1.9-.542,2.847-.814s1.491-1.218,2.032-2.167a2.858,2.858,0,0,1,2.439-1.493,2.631,2.631,0,0,1,.136-1.76,1.138,1.138,0,0,1,1.49-.542c-.542.812.136,1.9.948,2.3a5.018,5.018,0,0,0,2.847.136c.948-.136,2.167-.406,2.167-1.354,0-.272-.134-.678,0-.948.408-1.084,2.441.406,3.253-.542.406-.408,0-1.357-.676-1.49a8.309,8.309,0,0,0-1.9.134c-.678,0-1.491-.27-1.491-.948s.678-1.084.812-1.763c.136-1.082-1.624-1.354-2.3-.542s-.406,2.035-.272,3.119.272,2.3-.542,3.117c-.27.542-1.218.27-1.49-.272a4.02,4.02,0,0,1-.27-1.763,1.369,1.369,0,0,0-.948-1.491c-.408-.134-.814.136-1.221.136-1.627.136-2.847-1.9-2.3-3.523s2.033-2.575,3.525-3.389c1.082-.542,2.439-1.084,3.523-.542.542.272.812.814,1.354,1.084.814.542,1.9.272,2.847.272a7.061,7.061,0,0,1,4.2,1.627c.406.406.812,1.084.542,1.49-.408.542-1.357.542-1.22,1.218a2.08,2.08,0,0,0,2.575-1.624,1.629,1.629,0,0,1,.948,1.354,2.98,2.98,0,0,1,4.474.406,3.244,3.244,0,0,0,.812,1.084c.406.272,1.084.136,1.084-.27a.5.5,0,0,0-.136-.408c-.27-.676-.406-1.354-.676-1.9.948-.542,1.9.27,2.575,1.084,2.166,2.981,3.793,1.22,7.046,1.626,2.169.27,3.117,1.627,4.338,3.387,3.659,5.15,8.539,9.217,11.926,14.5a10.125,10.125,0,0,1,.948,1.624c0-.134-.134-.27-.134-.406a61.224,61.224,0,0,0-4.88-9.893q-.609-1.017-1.22-2.032l-.812-1.221c-.406-.542-.678-.948-1.085-1.49a7.534,7.534,0,0,0-.948-1.218c-.272-.272-.409-.542-.679-.814a2.42,2.42,0,0,1-.678-.948l-.812-.948-.272-.272c-.27-.27-.542-.676-.812-.948l-.136-.136-.27-.27a3.592,3.592,0,0,1-.678-.815l-1.22-1.218-1.085-1.084c-.27-.272-.676-.542-.948-.815s-.678-.542-.948-.812a7.323,7.323,0,0,0-1.22-.948h0c-1.218-.948-2.3-1.763-3.523-2.575a5.578,5.578,0,0,0-.948-.678,3.473,3.473,0,0,0-.948-.542c-.272-.136-.678-.406-.948-.542s-.678-.406-.951-.542l-.812-.406c-.136-.136-.272-.136-.406-.272l-1.627-.812-.815-.406c-.406-.136-.676-.406-1.084-.542a.132.132,0,0,1-.134-.136c-.272-.136-.678-.27-.948-.406-.408-.136-.951-.406-1.356-.542-.542-.272-1.085-.406-1.627-.678s-1.218-.406-1.76-.678a9.941,9.941,0,0,0-1.9-.54c-.676-.136-1.218-.408-1.9-.542-1.221-.272-2.439-.678-3.8-.951h0c-.542-.134-.948-.134-1.49-.27h-.136c-.27,0-.406-.136-.676-.136-.951-.136-1.763-.27-2.711-.406h-.272a1.708,1.708,0,0,1-.812-.136c-.678,0-1.22-.136-1.9-.136s-1.354-.134-1.9-.134h-2.032c-1.763,0-3.523.134-5.286.27a3.748,3.748,0,0,0-1.221.136c-.406,0-.812.136-1.354.136-.406,0-.812.134-1.221.134a3.929,3.929,0,0,0-1.218.272c-.408,0-.678.136-1.084.136-.951.134-1.763.406-2.711.542-.406.134-.814.134-1.221.27a3.934,3.934,0,0,1-1.22.272,11.942,11.942,0,0,0-2.033.676h0c-.542.136-1.084.406-1.626.542h0c-.54.136-1.082.406-1.625.542h-.136c-.542.136-.948.406-1.49.542-.542.272-1.22.542-1.763.814s-.948.406-1.491.676a14.688,14.688,0,0,0-1.49.815h0c-.542.27-.948.542-1.49.812s-.948.542-1.491.814h0c-.408.27-.95.542-1.356.812a.7.7,0,0,1-.542.272,11.4,11.4,0,0,0-1.355.948l-1.626,1.218c-.542.408-.948.678-1.49,1.084a46.764,46.764,0,0,0-7.455,7.185c-.812.948-1.626,1.76-2.3,2.709a27.806,27.806,0,0,0-1.76,2.441,20.265,20.265,0,0,0-1.491,2.169c.542-.815.948-1.493,1.491-2.169h.406a5.692,5.692,0,0,0,2.575-.408,18.131,18.131,0,0,0,1.9-1.49c1.624-1.218,4.335-1.354,4.878-3.387a10.383,10.383,0,0,1,.272-2.033c.406-1.221,2.033-1.357,3.387-1.357a1.85,1.85,0,0,1,1.49.542,1.49,1.49,0,0,1,0,1.084,10.682,10.682,0,0,1-4.335,5.422c-1.627.948-3.8,1.76-4.338,3.659.27.678,1.354.542,1.49,1.218,0,.542-.678.814-.812,1.357-.408.678.406,1.49,1.218,1.49a3.725,3.725,0,0,0,2.032-1.084c1.763-1.627,3.525-3.387,4.2-5.692a6.065,6.065,0,0,1,1.084-2.711,1.869,1.869,0,0,1,2.847.948c.812-.406,1.9-.676,2.3,0a2.009,2.009,0,0,1,.136.951c.272,1.218,1.9,1.76,2.032,2.981.136,1.491-1.626,2.169-2.981,2.439a39.559,39.559,0,0,0-3.931.678,3.847,3.847,0,0,0-1.624.542,1.607,1.607,0,0,0-.542,1.491c.134.27.406.406.676.678,1.084,1.085.136,3.251-1.354,3.387-.542,0-1.084-.136-1.49-.136-1.49,0-2.711,1.221-3.525,2.577-.676,1.354-1.219,2.845-2.439,3.793-2.033,1.49-5.42,1.084-6.37,3.389a5.584,5.584,0,0,0,0,2.981,3.5,3.5,0,0,1-.406,2.847c-.542.812-2.033.948-2.438.134a1.868,1.868,0,0,1,0-1.218c.27-1.357.406-2.847.676-4.2a4.873,4.873,0,0,0-.27-3.117c-.812-1.221-2.847-1.084-3.929-.136a6.74,6.74,0,0,0-1.9,3.929,23.115,23.115,0,0,1-1.084,3.8h0c-.137,1.221-.406,2.441-.542,3.659a33.708,33.708,0,0,0-.27,3.8,1.791,1.791,0,0,1,.542-.406c.542-.678,1.76-3.253,2.845-1.9a1.009,1.009,0,0,1,0,1.221c-.27.406-.948.542-1.218.948-.272.542.134,1.221.676,1.627s1.084.542,1.49,1.084c.679.948,0,2.575.679,3.523.542.814,1.762.948,2.847,1.085h.406c.27-2.169,1.221-3.8,4.2-4.472,3.929-.948,9.215,2.439,11.384,5.42,2.439,3.389,3.659,8,7.454,9.759,2.711,1.218,6.64.812,7.861,3.387,1.218,2.441-.815,5.016-1.221,7.724-.136,1.763.406,3.525.542,5.286s-.406,3.8-2.033,4.474c-.948.406-2.033.406-2.711,1.084-1.22,1.218-.27,3.659-1.49,4.877a6.063,6.063,0,0,1-1.627.815c-2.844,1.491-2.844,5.692-1.49,8.537,0,.136.136.136.136.272a55.059,55.059,0,0,0,13.552,5.964,61.825,61.825,0,0,0,17.348,2.575,60.455,60.455,0,0,0,28.323-7.048h0a34.356,34.356,0,0,0,5.286-3.253,53.143,53.143,0,0,0,7.454-5.962c1.627-1.49,3.117-3.117,4.608-4.743.948-1.221,2.033-2.441,2.847-3.659.406-.678.948-1.221,1.354-1.9a54.173,54.173,0,0,0,3.659-5.962,53.582,53.582,0,0,0,3.931-9.487,52.639,52.639,0,0,0,2.3-10.165q.2-2.032.406-4.065a3.388,3.388,0,0,1-2.439,1.084A3.931,3.931,0,0,1,870.382,375.388Z" transform="translate(-756.27 -312.369)" fill="url(#linear-gradient-10)"/>
        </g>
      </g>
      <g id="Group_1576" data-name="Group 1576" transform="translate(111.338 97.249)">
        <g id="Group_1575" data-name="Group 1575">
          <path id="Path_318" data-name="Path 318" d="M802.14,356.543c-.948.136-2.169-.406-2.847.27a3,3,0,0,0-.676,1.493,3.3,3.3,0,0,1-1.357,1.9,2.328,2.328,0,0,1-2.3,0,1.527,1.527,0,0,1-.272-2.169c.272-.27.542-.406.814-.678,1.355-1.218.406-3.523,1.355-4.877.542-.814,1.49-1.763,2.169-2.575.542-.678.678-1.221,1.627-1.357C804.443,347.735,806.206,355.865,802.14,356.543Z" transform="translate(-794.352 -348.49)" fill="#263238"/>
        </g>
      </g>
      <g id="Group_1578" data-name="Group 1578" transform="translate(21.141 71.964)">
        <g id="Group_1577" data-name="Group 1577">
          <path id="Path_319" data-name="Path 319" d="M755.923,337.717v0Z" transform="translate(-755.923 -337.717)" fill="#263238"/>
        </g>
      </g>
      <g id="Group_1580" data-name="Group 1580" transform="translate(47.84 123.192)" opacity="0.6">
        <g id="Group_1579" data-name="Group 1579">
          <path id="Path_320" data-name="Path 320" d="M767.3,359.543c.542.406,1.084.676,1.49.948s.678.406,1.085.678c-.406-.272-.676-.408-1.085-.678A13.842,13.842,0,0,0,767.3,359.543Z" transform="translate(-767.298 -359.543)" fill="#263238"/>
        </g>
      </g>
      <g id="Group_1582" data-name="Group 1582" transform="translate(21.141 70.473)" opacity="0.6">
        <g id="Group_1581" data-name="Group 1581">
          <path id="Path_321" data-name="Path 321" d="M755.923,337.082h0v0Z" transform="translate(-755.923 -337.082)" fill="#263238"/>
        </g>
      </g>
      <g id="Group_1584" data-name="Group 1584" transform="translate(21.141 73.86)" opacity="0.6">
        <g id="Group_1583" data-name="Group 1583">
          <path id="Path_322" data-name="Path 322" d="M755.923,338.525v.948h0Z" transform="translate(-755.923 -338.525)" fill="#263238"/>
        </g>
      </g>
      <g id="Group_1586" data-name="Group 1586" transform="translate(138.102 51.905)" opacity="0.6">
        <g id="Group_1585" data-name="Group 1585">
          <path id="Path_323" data-name="Path 323" d="M805.754,329.171c.27.814.542,1.49.812,2.3-.27-.815-.542-1.49-.812-2.3Z" transform="translate(-805.754 -329.171)" fill="#263238"/>
        </g>
      </g>
      <g id="Group_1598" data-name="Group 1598" transform="translate(21.143 14.07)">
        <g id="Group_1595" data-name="Group 1595">
          <g id="Group_1588" data-name="Group 1588" transform="translate(38.725)">
            <g id="Group_1587" data-name="Group 1587">
              <path id="Path_324" data-name="Path 324" d="M779.639,327.441c-1.218.678-1.9,2.033-2.709,3.117-.951,1.084-2.575,1.763-3.659.948a2.185,2.185,0,0,1-.814-1.76,3.905,3.905,0,0,1,.678-2.711A16.233,16.233,0,0,0,774.9,324.6c.406-.951.406-2.169-.542-2.577-.542-.27-1.084-.134-1.493-.406-.812-.542-.27-1.9.678-2.3a5.066,5.066,0,0,1,2.847,0c3.523.27,6.1-2.033,8.673-3.931,2.033-1.491,6.37-3.253,8.809-1.76.948.54,1.357,2.166.406,2.845-.406.272-.948.406-1.354.678a6.059,6.059,0,0,0-.812,1.627c-.678,1.354-2.575,1.9-3.253,3.387-.406.815-.136,1.9-.814,2.711a3.181,3.181,0,0,1-1.9.948c-1.49.406-2.981.678-4.607,1.084A3.119,3.119,0,0,0,779.639,327.441Z" transform="translate(-772.423 -313.052)" fill="url(#linear-gradient-11)"/>
            </g>
          </g>
          <g id="Group_1590" data-name="Group 1590" transform="translate(48.761 37.593)">
            <g id="Group_1589" data-name="Group 1589">
              <path id="Path_325" data-name="Path 325" d="M814.672,380.132c-1.49,2.3-1.76,5.15-2.167,7.86s-1.084,5.556-3.253,7.318c-2.032,1.76-5.964,1.627-7.048-.814-.676-1.354-.27-2.981-.676-4.335-.408-1.9-1.9-3.389-2.711-5.15a19.3,19.3,0,0,1-.678-4.88c-.27-9.081-2.439-18.432-8.673-25.072a6.18,6.18,0,0,0-2.711-1.9,3.537,3.537,0,0,0-3.523,1.218c-.542.678-.814,1.491-1.357,2.033-1.354,1.221-3.659.408-4.471-1.218a8.264,8.264,0,0,1-.542-5.15c.136-2.169.406-4.338.542-6.642a6.528,6.528,0,0,1,.948-3.253c1.084-1.218,2.981-1.354,4.337-2.3,1.761-1.357,1.9-3.8,2.981-5.558,1.084-1.9,4.471-2.575,5.013-.54,3.525-7.727,11.52,3.793,16.263,2.845,1.357-.27,2.711-.948,4.065-.678,2.441.408,3.659,2.983,4.474,5.286,1.354,3.8,2.711,7.725,4.065,11.52.542,1.491,1.22,3.117,2.711,3.659,1.084.406,2.439.136,3.523.542,2.981,1.084,2.033,5.692-.406,7.861-2.439,2.033-5.692,3.389-6.912,6.37-.812,2.169-.136,4.744-1.084,7.046C816.977,377.557,815.622,378.778,814.672,380.132Z" transform="translate(-776.698 -329.068)" fill="url(#linear-gradient-11)"/>
            </g>
          </g>
          <path id="Path_326" data-name="Path 326" d="M793.87,367.621c.27-2.711,2.439-5.286,1.221-7.724-1.357-2.711-5.152-2.169-7.861-3.389-3.8-1.624-5.016-6.368-7.455-9.757-2.169-2.981-7.454-6.234-11.383-5.422a4.991,4.991,0,0,0-4.2,4.474h-.409c-1.082-.136-2.3-.136-2.844-1.084-.678-1.084,0-2.575-.678-3.523a3.828,3.828,0,0,0-1.491-1.084c-.542-.406-.948-1.084-.678-1.627.272-.406.95-.542,1.221-.948a1.013,1.013,0,0,0,0-1.221c-1.084-1.354-2.3,1.354-2.845,1.9a1.9,1.9,0,0,1-.542.408h0v4.744a62.969,62.969,0,0,0,3.793,19.108,69.695,69.695,0,0,0,3.659,7.86c.542,1.085,1.221,2.169,1.9,3.253a38.183,38.183,0,0,0,2.709,3.793,22.242,22.242,0,0,0,2.847,3.389,43.743,43.743,0,0,0,4.338,4.338,52.8,52.8,0,0,0,4.2,3.523c-3.117-8.267-5.964-16.806-10.978-23.988,5.013,7.182,7.86,15.721,10.978,23.988h0a16.128,16.128,0,0,0,1.9,1.354c.543.408.949.678,1.491,1.084s1.084.678,1.491.948.678.408,1.084.678c0-.136-.136-.136-.136-.27-1.355-2.983-1.355-7.185,1.492-8.539a6.17,6.17,0,0,0,1.627-.812c1.218-1.221.27-3.659,1.49-4.88.676-.678,1.9-.678,2.709-1.084,1.627-.678,2.169-2.847,2.035-4.471A21.189,21.189,0,0,1,793.87,367.621Zm-29.68-15.857v0Zm-3.659-4.335a1.013,1.013,0,0,1-.136-.678c-.136-1.354-1.221-2.169-2.439-2.845,1.082.676,2.3,1.49,2.439,2.845a1.013,1.013,0,0,0,.136.678c.133.136.27.136.406.27C760.665,347.565,760.531,347.565,760.531,347.429Zm.542.27c.812.136,1.49.272,2.3.406C762.564,347.971,761.75,347.835,761.073,347.7Zm2.708,9.351a8.981,8.981,0,0,1,0-1.9v1.9a10.351,10.351,0,0,0,1.763,4.2A10.351,10.351,0,0,1,763.782,357.05Z" transform="translate(-755.924 -282.217)" fill="url(#linear-gradient-11)"/>
          <g id="Group_1592" data-name="Group 1592" transform="translate(0.676 15.067)">
            <g id="Group_1591" data-name="Group 1591">
              <path id="Path_327" data-name="Path 327" d="M759.329,345.761c1.084-.948,3.117-1.082,3.931.136a3.546,3.546,0,0,1,.27,3.117c-.27,1.356-.406,2.847-.678,4.2a3.742,3.742,0,0,0,0,1.221c.408.948,1.9.678,2.441-.136a4.115,4.115,0,0,0,.406-2.845,5.574,5.574,0,0,1,0-2.983c.948-2.3,4.338-1.9,6.37-3.387,1.218-.948,1.761-2.441,2.439-3.8s1.9-2.711,3.523-2.575c.542,0,1.085.27,1.493.136a2.113,2.113,0,0,0,1.354-3.389c-.272-.27-.542-.406-.678-.678a1.141,1.141,0,0,1,.542-1.49,5.786,5.786,0,0,1,1.627-.542c1.354-.27,2.575-.406,3.931-.676,1.49-.272,3.251-.951,2.981-2.441-.136-1.218-1.9-1.76-2.033-2.981a2.3,2.3,0,0,0-.136-.948c-.406-.814-1.626-.406-2.3,0a1.942,1.942,0,0,0-2.845-.948c-.814.676-.814,1.76-1.085,2.709-.678,2.3-2.438,4.067-4.2,5.694a3.033,3.033,0,0,1-2.033,1.082c-.812,0-1.627-.812-1.221-1.49.272-.542.948-.812.815-1.354-.136-.678-1.221-.678-1.49-1.22.406-1.9,2.575-2.711,4.335-3.659a9.584,9.584,0,0,0,4.338-5.42c.136-.408.27-.814,0-1.084-.272-.542-.948-.542-1.49-.542-1.221,0-2.847.136-3.39,1.354-.27.678,0,1.357-.27,2.033-.406,2.033-3.117,2.169-4.88,3.389-.678.406-1.218,1.084-1.9,1.491a5.445,5.445,0,0,1-2.575.406h-.406a20.927,20.927,0,0,0-1.493,2.169,20.091,20.091,0,0,0-1.354,2.3,60.2,60.2,0,0,0-5.286,11.654c-.406,1.49-.948,2.847-1.22,4.337-.406,1.49-.676,2.981-.948,4.471a23.068,23.068,0,0,0,1.084-3.793A8.541,8.541,0,0,1,759.329,345.761Z" transform="translate(-756.212 -319.471)" fill="url(#linear-gradient-11)"/>
            </g>
          </g>
          <g id="Group_1594" data-name="Group 1594" transform="translate(57.293 11.184)">
            <g id="Group_1593" data-name="Group 1593">
              <path id="Path_328" data-name="Path 328" d="M843.659,364.8a16.322,16.322,0,0,0-.136-2.575c0-.812-.136-1.76-.136-2.575a10.593,10.593,0,0,0-.27-2.033c-.136-.678-.136-1.49-.272-2.169-.406-2.169-.813-4.2-1.354-6.234-.273-.812-.406-1.627-.679-2.3-.27-.814-.542-1.493-.812-2.3h0c-.272-.542-.678-1.085-.951-1.627-3.387-5.286-8.267-9.487-11.926-14.5-1.218-1.626-2.169-2.981-4.335-3.389-3.117-.542-4.743,1.357-7.049-1.627a2.271,2.271,0,0,0-2.575-1.084c.27.678.406,1.221.678,1.9,0,.136.134.27.134.406,0,.406-.676.542-1.084.272a3.268,3.268,0,0,1-.812-1.084,2.986,2.986,0,0,0-4.471-.408,1.475,1.475,0,0,0-.951-1.354,2,2,0,0,1-2.575,1.627c-.134-.542.814-.678,1.22-1.221.27-.406,0-1.084-.542-1.49a6.464,6.464,0,0,0-4.2-1.627,6.6,6.6,0,0,1-2.844-.27c-.542-.272-.814-.814-1.357-1.085-1.084-.542-2.439,0-3.523.542a7.153,7.153,0,0,0-3.523,3.387c-.543,1.627.676,3.8,2.3,3.525.406,0,.814-.272,1.22-.136.542.136.813.812.948,1.49a3.989,3.989,0,0,0,.272,1.763c.27.542,1.218.812,1.49.27.812-.678.676-2.033.543-3.117s-.406-2.3.27-3.117,2.441-.542,2.3.542c-.136.678-.814,1.084-.814,1.763s.814.948,1.493.948a9.535,9.535,0,0,1,1.9-.136.99.99,0,0,1,.678,1.49c-.814.948-2.847-.678-3.253.542-.136.272,0,.678,0,.948-.136.948-1.221,1.221-2.169,1.357a6.791,6.791,0,0,1-2.847-.136c-.812-.406-1.491-1.49-.948-2.3a1.037,1.037,0,0,0-1.491.542,3.923,3.923,0,0,0-.136,1.763c-.948-.272-1.9.679-2.439,1.49a5.224,5.224,0,0,1-2.032,2.169c-.948.27-2.305-.136-2.847.812-.676,1.084,1.22,2.575.542,3.8-.406.678-1.354.678-2.033.814-1.9.542-2.575,3.387-1.218,4.877a3.8,3.8,0,0,0,5.284,0,14.9,14.9,0,0,0,2.035-3.523c.676-1.221,2.032-2.305,3.387-1.9a4.519,4.519,0,0,1,1.356.812c.676.542,1.218,1.084,1.9,1.627a2.063,2.063,0,0,1,.812,1.354c0,.408-.406.814-.542,1.22-.406,1.221,1.22,2.3,2.3,1.627a2.228,2.228,0,0,0,.406-3.253c-.948-1.354-3.253-2.033-3.117-3.8,1.084-.948,2.981,0,3.659,1.357s.678,2.845,1.221,4.2,2.169,2.575,3.523,1.9c-.406-1.22-.678-2.3-1.085-3.523.815-.678,1.763,1.221,2.847.948.676-.136.676-1.084.406-1.626a7,7,0,0,1-.815-1.76,2.006,2.006,0,0,1,2.305-2.035A2.737,2.737,0,0,1,809.1,340c.136.406.136.948.27,1.354.409.948,1.627,1.22,2.575,1.626s1.9,1.354,1.492,2.3c-.136.406-.678.812-.408,1.218.136.408.678.542.678.948,0,.272-.27.408-.542.542-.678.272-1.354.408-1.9.678-.678.272-1.22.815-1.084,1.491.136.948,1.22,1.357,1.76,2.169s.408,1.763.814,2.575a7.078,7.078,0,0,0,1.49,2.033c1.626,2.169,1.9,4.88,2.711,7.454.406,1.22.948,2.439,2.169,2.711a3.028,3.028,0,0,0,1.9-.406,10.643,10.643,0,0,0,4.744-2.847c1.221-1.354,1.627-3.659.406-5.013-.136-.136-.406-.408-.542-.408a2.5,2.5,0,0,0-.948.272,2.909,2.909,0,0,1-2.711-.542,7.725,7.725,0,0,1-1.627-2.439c-.406-.951-.948-1.9-1.354-2.847a1.638,1.638,0,0,1,2.032.136,6.067,6.067,0,0,1,1.354,1.76,9.192,9.192,0,0,0,5.964,2.847,4.192,4.192,0,0,1,1.763.406c1.626.814,2.166,3.253,3.929,3.8a4.849,4.849,0,0,1,1.491.406,2.4,2.4,0,0,1,1.22,1.9c.406,1.354.542,2.845,1.085,4.2a3.782,3.782,0,0,0,3.253,2.575,3.4,3.4,0,0,0,2.439-1.084h0a37.893,37.893,0,0,0,.136-3.931A1.471,1.471,0,0,0,843.659,364.8Z" transform="translate(-780.334 -317.816)" fill="url(#linear-gradient-11)"/>
            </g>
          </g>
        </g>
        <g id="Group_1597" data-name="Group 1597" transform="translate(90.098 83.179)">
          <g id="Group_1596" data-name="Group 1596">
            <path id="Path_329" data-name="Path 329" d="M800.569,348.547c-.948.136-1.084.678-1.627,1.357-.678.812-1.49,1.76-2.168,2.575-.948,1.49-.134,3.659-1.354,4.877-.273.272-.542.408-.815.678a1.679,1.679,0,0,0,.272,2.169,2.046,2.046,0,0,0,2.3,0,3.31,3.31,0,0,0,1.354-1.9c.136-.542.27-1.221.678-1.493.676-.676,1.9-.134,2.845-.27C806.261,355.865,804.5,347.735,800.569,348.547Z" transform="translate(-794.31 -348.49)" fill="url(#linear-gradient-16)"/>
          </g>
        </g>
      </g>
      <g id="Group_1600" data-name="Group 1600" transform="translate(41.199 22.089)">
        <g id="Group_1599" data-name="Group 1599">
          <path id="Path_330" data-name="Path 330" d="M764.469,322.432a15.848,15.848,0,0,1,1.49-.948,41.945,41.945,0,0,1,4.338-2.169,37.982,37.982,0,0,1,7.454-2.169c1.491-.272,3.117-.406,4.744-.542a16.294,16.294,0,0,1,2.575-.136h2.845a60.1,60.1,0,0,1,12.334,1.763,44.264,44.264,0,0,1,13.01,5.828A38.027,38.027,0,0,1,830.2,350.891a32.311,32.311,0,0,1-.136,8.133l-.27-.136a22.993,22.993,0,0,1,6.912-3.8,29.16,29.16,0,0,1,7.452-1.49,23.423,23.423,0,0,1,13.689,3.8,24.607,24.607,0,0,1,8.4,9.623,22.979,22.979,0,0,1,.406,19.786A22.726,22.726,0,0,1,863,392.633a21.754,21.754,0,0,1-3.117,3.117c-.406.272-.676.542-.948.678l-.27.272.27-.272a3.585,3.585,0,0,0,.814-.678,22.548,22.548,0,0,0,2.981-3.117,25.4,25.4,0,0,0,3.523-5.826,21.665,21.665,0,0,0,1.9-8.811,22.41,22.41,0,0,0-2.441-10.705,24.275,24.275,0,0,0-8.4-9.487,22.927,22.927,0,0,0-13.553-3.659A28.785,28.785,0,0,0,836.3,355.5a22.292,22.292,0,0,0-6.779,3.793l-.27.272v-.406a32.521,32.521,0,0,0,.136-8.133,37.391,37.391,0,0,0-16.942-26.7,49.228,49.228,0,0,0-12.874-5.828,51.606,51.606,0,0,0-12.2-1.9h-2.711a15.515,15.515,0,0,0-2.575.136,45.116,45.116,0,0,0-4.744.542,38.685,38.685,0,0,0-7.452,2.033,31.2,31.2,0,0,0-4.338,2.169c-.542.27-.814.542-1.084.676C764.605,322.432,764.469,322.432,764.469,322.432Z" transform="translate(-764.469 -316.468)" fill="url(#linear-gradient-17)"/>
        </g>
      </g>
      <g id="Group_1601" data-name="Group 1601" transform="translate(104.335 61.9)">
        <path id="Path_331" data-name="Path 331" d="M795.182,335.09a7.329,7.329,0,0,0-.814-1.084,1.883,1.883,0,0,0-2.575-.136,2.494,2.494,0,0,0-.134,2.575,2.987,2.987,0,0,0,1.76,1.627,1.863,1.863,0,0,0,2.169-.678A3.512,3.512,0,0,0,795.182,335.09Z" transform="translate(-791.368 -333.43)" fill="url(#linear-gradient-18)"/>
      </g>
      <g id="Group_1602" data-name="Group 1602" transform="translate(78.334 11.482)">
        <path id="Path_332" data-name="Path 332" d="M802.987,327.192c.561-2.244-2.8-4.765-5.884-6.166,0,0-1.96-.84-2.8-1.12h0l-3.361-5.6a2.2,2.2,0,0,0-1.122-1.122l-.561-.279c-.279,0-.559,0-.559.279l1.4,5.044h0c-2.8-.84-5.326-1.681-5.326-1.681h0a3.208,3.208,0,0,1-2.241-1.962l-1.12-2.242-.282-.279c-.561-.282-.84,0-.84.559v3.924a1.541,1.541,0,0,0,.84,1.4l1.4.561,6.724,3.361-3.643,1.683c-.279,0-.279.279,0,.279l.282.279a2.113,2.113,0,0,0,1.12.561l5.884-1.12,8.128,3.922C801.867,328.311,802.708,328.032,802.987,327.192Z" transform="translate(-780.29 -311.949)" fill="url(#linear-gradient-19)"/>
      </g>
      <g id="Group_1603" data-name="Group 1603" transform="translate(5.206 58.502)">
        <path id="Path_333" data-name="Path 333" d="M751.735,332.168c-2.3,1.387-2.038,6.1-1.035,9.309a15.3,15.3,0,0,0,1,3.206h0l-2.425,7.011-.143,1.866.26.646c-.023.312.6.359.625.049l3.185-4.76h0l2.365,5.819h0a4.3,4.3,0,0,1,.045,3.446l-1.152,2.727-.024.31c-.049.622.885.695,1.221.408l3.328-2.558c.645-.263.718-1.195.455-1.842l-.5-1.6-2.171-8.307,4.258,1.584c.312.023.312.023.335-.286l.023-.312a1.615,1.615,0,0,0-.526-1.293l-5.307-4.168-2.385-9.574C753.6,332.314,752.718,331.619,751.735,332.168Z" transform="translate(-749.134 -331.982)" fill="url(#linear-gradient-20)"/>
      </g>
      <g id="Group_1610" data-name="Group 1610" transform="translate(38.807 21.413)">
        <g id="Group_1607" data-name="Group 1607">
          <g id="Group_1604" data-name="Group 1604">
            <path id="Path_334" data-name="Path 334" d="M767.739,317.128a2.361,2.361,0,0,0-1.9-.948,2.5,2.5,0,0,0-2.3,1.624,2.664,2.664,0,0,0,.136,1.763c.136.136.136.406.272.678.406.676,1.9,2.575,1.9,2.575h.272a34.186,34.186,0,0,0,1.76-2.981A3.172,3.172,0,0,0,767.739,317.128Zm-1.76,3.117a1.492,1.492,0,1,1,1.49-1.49A1.414,1.414,0,0,1,765.978,320.245Z" transform="translate(-763.45 -316.18)" fill="url(#linear-gradient-21)"/>
          </g>
          <g id="Group_1605" data-name="Group 1605" opacity="0.4">
            <path id="Path_335" data-name="Path 335" d="M767.739,317.128a2.361,2.361,0,0,0-1.9-.948,2.5,2.5,0,0,0-2.3,1.624,2.664,2.664,0,0,0,.136,1.763c.136.136.136.406.272.678.406.676,1.9,2.575,1.9,2.575h.272a34.186,34.186,0,0,0,1.76-2.981A3.172,3.172,0,0,0,767.739,317.128Zm-1.76,3.117a1.492,1.492,0,1,1,1.49-1.49A1.414,1.414,0,0,1,765.978,320.245Z" transform="translate(-763.45 -316.18)" fill="url(#linear-gradient-21)"/>
          </g>
          <g id="Group_1606" data-name="Group 1606" transform="translate(0.27 0.134)">
            <path id="Path_336" data-name="Path 336" d="M767.856,317.185a2.372,2.372,0,0,0-1.9-.948,2.5,2.5,0,0,0-2.3,1.627,2.634,2.634,0,0,0,.136,1.763c.134.136.134.406.27.678.406.676,1.9,2.575,1.9,2.575s1.624-2.3,2.033-2.983A2.727,2.727,0,0,0,767.856,317.185Zm-1.9,2.983a1.492,1.492,0,1,1,1.49-1.49A1.505,1.505,0,0,1,765.959,320.168Z" transform="translate(-763.565 -316.237)" fill="url(#linear-gradient-23)"/>
          </g>
        </g>
        <g id="Group_1608" data-name="Group 1608" transform="translate(1.038 0.948)">
          <path id="Path_337" data-name="Path 337" d="M765.382,316.584a1.583,1.583,0,0,0-1.49,1.084,1.55,1.55,0,0,1,1.218-.814,1.355,1.355,0,1,1,0,2.711,1.236,1.236,0,0,1-1.085-.542,1.675,1.675,0,0,0,1.357.678,1.5,1.5,0,0,0,1.49-1.49A1.4,1.4,0,0,0,765.382,316.584Z" transform="translate(-763.892 -316.584)" fill="url(#linear-gradient-24)"/>
        </g>
        <g id="Group_1609" data-name="Group 1609" transform="translate(1.038 0.948)" opacity="0.4">
          <path id="Path_338" data-name="Path 338" d="M765.382,316.584a1.583,1.583,0,0,0-1.49,1.084,1.55,1.55,0,0,1,1.218-.814,1.355,1.355,0,1,1,0,2.711,1.236,1.236,0,0,1-1.085-.542,1.675,1.675,0,0,0,1.357.678,1.5,1.5,0,0,0,1.49-1.49A1.4,1.4,0,0,0,765.382,316.584Z" transform="translate(-763.892 -316.584)" fill="url(#linear-gradient-24)"/>
        </g>
      </g>
    </g>
    <g id="Group_1624" data-name="Group 1624" transform="translate(678.544 352.962)">
      <g id="Group_1623" data-name="Group 1623" transform="translate(0 0)">
        <g id="Group_1622" data-name="Group 1622" clip-path="url(#clip-path)">
          <g id="Group_1621" data-name="Group 1621" transform="translate(17.826 -23.758)">
            <rect id="Rectangle_746" data-name="Rectangle 746" width="3.376" height="238.967" transform="translate(44.061)" fill="#0e3178"/>
            <rect id="Rectangle_747" data-name="Rectangle 747" width="3.376" height="238.967" transform="translate(242.388)" fill="#0e3178"/>
            <g id="Group_1620" data-name="Group 1620" transform="translate(0 146.806)">
              <g id="Group_1615" data-name="Group 1615" transform="translate(0.125)">
                <g id="Group_1612" data-name="Group 1612">
                  <path id="Path_339" data-name="Path 339" d="M965,446.832H700.276a6.859,6.859,0,0,1-6.878-6.878V391.935a6.858,6.858,0,0,1,6.878-6.878H965.128a6.857,6.857,0,0,1,6.878,6.878v48.019A6.966,6.966,0,0,1,965,446.832Z" transform="translate(-693.398 -374.857)" fill="#cfd3f1" opacity="0.5" style="isolation: isolate"/>
                  <path id="Path_340" data-name="Path 340" d="M966.692,442.721h-259.6a9.5,9.5,0,0,1-9.5-9.5V390.45a9.5,9.5,0,0,1,9.5-9.5H966.817a9.5,9.5,0,0,1,9.5,9.5v42.767A9.69,9.69,0,0,1,966.692,442.721Z" transform="translate(-685.415 -380.946)" fill="#fff"/>
                </g>
                <path id="Path_341" data-name="Path 341" d="M728.572,400.234l-6.751-6.751a.462.462,0,0,0-.376-.125h-8.252a.552.552,0,0,0-.375.875l6.628,6.628a.531.531,0,0,1-.377.875h-15.13a.537.537,0,0,0-.5.5v5.753a.537.537,0,0,0,.5.5h15.13a.552.552,0,0,1,.377.875l-6.628,6.628a.531.531,0,0,0,.375.875h8.127a.462.462,0,0,0,.377-.125l6.751-6.753,4.377-4.5a.57.57,0,0,0,0-.626Z" transform="translate(-682.011 -373.724)" fill="#cfd3f1" opacity="0.5" style="isolation: isolate"/>
                <path id="Path_342" data-name="Path 342" d="M893.688,412.788H807.029a6.724,6.724,0,0,1-6.753-6.753v-4.5a6.725,6.725,0,0,1,6.753-6.753h86.659a6.725,6.725,0,0,1,6.751,6.753v4.5A6.724,6.724,0,0,1,893.688,412.788Z" transform="translate(-625.665 -372.897)" fill="#cfd3f1" opacity="0.5" style="isolation: isolate"/>
                <path id="Path_343" data-name="Path 343" d="M799.735,412.788H770.349a6.724,6.724,0,0,1-6.753-6.753v-4.5a6.725,6.725,0,0,1,6.753-6.753h29.386a6.725,6.725,0,0,1,6.753,6.753v4.5A6.724,6.724,0,0,1,799.735,412.788Z" transform="translate(-647.007 -372.897)" fill="url(#linear-gradient-26)"/>
                <g id="Group_1614" data-name="Group 1614" transform="translate(56.316 15.632)">
                  <rect id="Rectangle_748" data-name="Rectangle 748" width="37.765" height="36.764" fill="#fff"/>
                  <g id="Group_1613" data-name="Group 1613" transform="translate(2.626 8.128)">
                    <path id="Path_344" data-name="Path 344" d="M757.764,395.966h-1.375a5.093,5.093,0,0,0-2.251.625l-5.878,2.877-11-1.876a4.348,4.348,0,0,0-2.751.5l-1,.5,7.128,5-6.627,3.127-4.377-1.251-2,1,5.127,3.876,10.879-5.252,6.253-3,6.128-3a4.487,4.487,0,0,0,1.25-.875l.125-.125h0a3.4,3.4,0,0,0,.876-1C758.89,396.717,758.516,395.966,757.764,395.966Z" transform="translate(-726.878 -395.966)" fill="#263238"/>
                    <rect id="Rectangle_749" data-name="Rectangle 749" width="32.638" height="3.126" transform="translate(0 21.259)" fill="#263238"/>
                  </g>
                </g>
              </g>
              <g id="Group_1619" data-name="Group 1619" transform="translate(0 80.156)">
                <g id="Group_1616" data-name="Group 1616">
                  <path id="Path_345" data-name="Path 345" d="M965.8,497.55H699.572a6.273,6.273,0,0,1-6.253-6.253V441.9a6.272,6.272,0,0,1,6.253-6.253H965.8a6.27,6.27,0,0,1,6.252,6.253V491.3A6.271,6.271,0,0,1,965.8,497.55Z" transform="translate(-693.319 -425.575)" fill="#cfd3f1" opacity="0.5" style="isolation: isolate"/>
                  <path id="Path_346" data-name="Path 346" d="M966.692,493.393h-259.6a9.5,9.5,0,0,1-9.5-9.5V441.122a9.5,9.5,0,0,1,9.5-9.5H966.817a9.5,9.5,0,0,1,9.5,9.5v42.767A9.69,9.69,0,0,1,966.692,493.393Z" transform="translate(-685.29 -431.618)" fill="#fff"/>
                </g>
                <path id="Path_347" data-name="Path 347" d="M708.244,452.251,715,445.5a.459.459,0,0,1,.375-.125h8.253a.553.553,0,0,1,.376.876l-6.628,6.628a.531.531,0,0,0,.375.875h15.131a.538.538,0,0,1,.5.5V460a.538.538,0,0,1-.5.5H717.748a.552.552,0,0,0-.375.875L724,468.008a.531.531,0,0,1-.376.875h-8.253a.459.459,0,0,1-.375-.125L708.244,462l-4.377-4.5a.568.568,0,0,1,0-.625Z" transform="translate(-681.69 -423.615)" fill="#cfd3f1" opacity="0.5" style="isolation: isolate"/>
                <path id="Path_348" data-name="Path 348" d="M893.688,463.46H807.029a6.724,6.724,0,0,1-6.753-6.753v-4.5a6.725,6.725,0,0,1,6.753-6.753h86.659a6.725,6.725,0,0,1,6.751,6.753v4.5A6.724,6.724,0,0,1,893.688,463.46Z" transform="translate(-625.54 -423.569)" fill="#cfd3f1" opacity="0.5" style="isolation: isolate"/>
                <path id="Path_349" data-name="Path 349" d="M799.735,463.46H770.349a6.724,6.724,0,0,1-6.753-6.753v-4.5a6.725,6.725,0,0,1,6.753-6.753h29.386a6.725,6.725,0,0,1,6.753,6.753v4.5A6.724,6.724,0,0,1,799.735,463.46Z" transform="translate(-646.882 -423.569)" fill="url(#linear-gradient-27)"/>
                <g id="Group_1618" data-name="Group 1618" transform="translate(56.441 12.005)">
                  <rect id="Rectangle_750" data-name="Rectangle 750" width="37.765" height="36.764" fill="#fff"/>
                  <g id="Group_1617" data-name="Group 1617" transform="translate(2.626 7.127)">
                    <path id="Path_350" data-name="Path 350" d="M757.134,458.72l-.625-.626-.25-.25h0a6.344,6.344,0,0,0-2-1.125l-6.253-2-6.5-9a5.821,5.821,0,0,0-2.251-1.626l-1.126-.375,1.5,8.629-6.878-2.5-2.251-4-2-.75.876,6.378,11.378,4,6.5,2.251,6.5,2.251a6.275,6.275,0,0,0,1.5.25h.125a5.13,5.13,0,0,0,1.376-.125C757.383,459.845,757.633,459.095,757.134,458.72Z" transform="translate(-726.372 -443.713)" fill="#263238"/>
                    <rect id="Rectangle_751" data-name="Rectangle 751" width="32.638" height="3.126" transform="translate(0 22.259)" fill="#263238"/>
                  </g>
                </g>
              </g>
            </g>
          </g>
        </g>
      </g>
    </g>
    <ellipse id="Ellipse_25" data-name="Ellipse 25" cx="10.254" cy="10.004" rx="10.254" ry="10.004" transform="translate(931.712 338.444)" fill="url(#linear-gradient-28)"/>
    <ellipse id="Ellipse_26" data-name="Ellipse 26" cx="26.76" cy="26.01" rx="26.76" ry="26.01" transform="translate(697.407 300.116)" fill="url(#linear-gradient-4)"/>
  </g>
</svg>
