<svg xmlns="http://www.w3.org/2000/svg" xmlns:xlink="http://www.w3.org/1999/xlink" width="651.924" height="536.349" viewBox="0 0 651.924 536.349">
  <defs>
    <linearGradient id="linear-gradient" x1="0.618" y1="1.467" x2="0.436" y2="0.273" gradientUnits="objectBoundingBox">
      <stop offset="0" stop-color="#c9e9fa"/>
      <stop offset="1" stop-color="#fff"/>
    </linearGradient>
    <linearGradient id="linear-gradient-2" x1="0.372" y1="-0.266" x2="0.647" y2="1.153" xlink:href="#linear-gradient"/>
    <linearGradient id="linear-gradient-3" x1="0.92" y1="1.123" x2="-0.036" y2="0.105" xlink:href="#linear-gradient"/>
    <linearGradient id="linear-gradient-4" x1="5.18" y1="0.442" x2="6.534" y2="0.442" gradientUnits="objectBoundingBox">
      <stop offset="0" stop-color="#00aeef"/>
      <stop offset="1" stop-color="#57f"/>
    </linearGradient>
    <linearGradient id="linear-gradient-5" x1="0.627" y1="-0.403" x2="1.032" y2="-0.403" gradientUnits="objectBoundingBox">
      <stop offset="0" stop-color="#40d5e6"/>
      <stop offset="1" stop-color="#57f"/>
    </linearGradient>
    <linearGradient id="linear-gradient-6" x1="0.041" y1="0.041" x2="0.886" y2="0.886" gradientUnits="objectBoundingBox">
      <stop offset="0" stop-color="#30acef"/>
      <stop offset="1" stop-color="#192f77"/>
      <stop offset="1" stop-color="#fff"/>
    </linearGradient>
    <clipPath id="clip-path">
      <path id="Path_362" data-name="Path 362" d="M1694.5,372.294a212.7,212.7,0,0,0-46.536-44.72c-80.233-55.827-194.212-65.919-287.911-46.591q-6.709,1.382-13.359,3.022c-80.217,19.854-136.781,80.036-146.157,162.6-14.724,129.64,99.85,260.769,232.622,201.738,52.673-23.419,100.123-55.018,159.653-32.918,26.683,9.907,51.625,28.95,80.028,27.086,29.629-1.946,53.507-27.366,63.047-55.488C1759.752,516.654,1740.673,432.062,1694.5,372.294Z" transform="translate(-1199.256 -271.97)" fill="none"/>
    </clipPath>
    <linearGradient id="linear-gradient-7" x1="1.107" y1="-1.127" x2="0.087" y2="1.628" xlink:href="#linear-gradient"/>
  </defs>
  <g id="Group_1650" data-name="Group 1650" transform="translate(10 -232.078)">
    <g id="Group_1649" data-name="Group 1649" transform="translate(-10 232.078)">
      <g id="Group_1626" data-name="Group 1626" transform="translate(39.152 121.964)">
        <path id="Path_352" data-name="Path 352" d="M1549.474,334.624,1428.005,570.05a121.605,121.605,0,0,1,17.846,5.124c26.683,9.907,51.625,28.95,80.028,27.084,29.63-1.945,53.508-27.365,63.047-55.487C1612.454,477.4,1594.23,394.23,1549.474,334.624Z" transform="translate(-1052.298 -231.718)" fill="url(#linear-gradient)"/>
        <path id="Path_353" data-name="Path 353" d="M1662.327,372.294a212.653,212.653,0,0,0-46.536-44.72c-80.233-55.827-194.212-65.919-287.911-46.591q-6.709,1.382-13.36,3.022a207.463,207.463,0,0,0-65.188,28.321l172.111,326.537c39.584-18.794,77.436-37.607,121.349-28.56L1664.26,374.875C1663.614,374.016,1662.984,373.144,1662.327,372.294Z" transform="translate(-1167.084 -271.97)" fill="url(#linear-gradient-2)"/>
        <path id="Path_354" data-name="Path 354" d="M1200.534,430.821c-14.724,129.64,99.85,260.769,232.622,201.738,6.9-3.066,13.7-6.274,20.458-9.482L1281.5,296.54C1236.789,326.247,1207.1,373.04,1200.534,430.821Z" transform="translate(-1199.256 -256.185)" fill="url(#linear-gradient-3)"/>
      </g>
      <g id="Group_1644" data-name="Group 1644" transform="translate(0 236.415)">
        <g id="Group_1628" data-name="Group 1628" transform="translate(46.498 136.85)">
          <g id="Group_1627" data-name="Group 1627">
            <path id="Path_355" data-name="Path 355" d="M1364.593,543.735l-17.812,9.331c-14.127,8.38-27.721,6.473-40.248-.535-3.5-1.967-7.072-4.314-9.271-7.718-5.224-8.028-2.223-19.425-7.34-27.512-6.069-9.523-20.461-9.855-28.27-17.975-6.828-7.125-7.062-18.527-13.263-26.287-3.8-4.75-9.484-7.6-14.587-10.912a85.134,85.134,0,0,1-30.074-33.412,96.976,96.976,0,0,1,43.717,27.416c2.265,2.523,4.482,5.211,7.575,6.7,5.849,2.894,13.037.673,19.134,3.006,10.236,3.939,12.095,18.225,20.777,25.147,5.2,4.242,12.433,5.093,19.05,6.851s13.708,5.359,15.462,11.967Z" transform="translate(-1203.728 -428.713)" fill="url(#linear-gradient-4)"/>
          </g>
        </g>
        <g id="Group_1635" data-name="Group 1635" transform="translate(140.558)">
          <g id="Group_1631" data-name="Group 1631">
            <g id="Group_1630" data-name="Group 1630">
              <g id="Group_1629" data-name="Group 1629">
                <path id="Path_356" data-name="Path 356" d="M1332.88,594.544a19.19,19.19,0,0,0,3.342-2.306,35.673,35.673,0,0,0,4.756-4.789,27.463,27.463,0,0,0,4.609-7.8,11.957,11.957,0,0,0,.563-5.241,21.951,21.951,0,0,0-2.139-5.547,41.359,41.359,0,0,1-2.929-5.946,19.414,19.414,0,0,1-1.173-7.076c.03-4.94,1.416-10.223-.269-15.462-1.52-5.192-5.322-9.943-9.122-14.693s-7.964-10.142-9.183-17.052c-1.266-6.741-.357-13.864-1.91-20.867-1.72-7.048-6.3-13.187-9.773-20.094a29.771,29.771,0,0,1-3.472-11.407c-.477-4.093-.179-8.058-.488-12.1-.619-8.091-4.236-15.759-7.639-23.548-1.678-3.978-3.462-7.9-5.141-11.873s-3.584-8.109-4.514-12.507a121.05,121.05,0,0,1-2.031-13.343,42.252,42.252,0,0,0-1.146-6.529,59.658,59.658,0,0,0-2.774-6.172,73.515,73.515,0,0,0-7.27-11.658c-2.82-3.758-5.854-7.394-8.565-11.21-.181-.322-.409-.475-.529-.688l1.1-.054a29.75,29.75,0,0,0-4.638,12.74,51.37,51.37,0,0,0,.342,13.591c1.329,9.1,4.758,17.434,7.534,25.857,2.883,8.363,5.17,16.92,4.89,25.66-.225,4.346-.842,8.491-1.187,12.624a27.539,27.539,0,0,0,1.25,11.955c2.841,7.542,10.674,11.709,13.79,19.238a28.231,28.231,0,0,1,2.043,11.367c.023,3.786-.4,7.537-.66,11.062a63.221,63.221,0,0,0-.08,10.6,30.923,30.923,0,0,0,2.784,9.685c2.881,6.113,6.862,11.184,9.5,16.87,2.747,5.625,3.591,11.62,3.923,17.2s.1,10.914.283,15.735a59.955,59.955,0,0,0,.458,7.056,29.711,29.711,0,0,0,1.573,6.287,39.038,39.038,0,0,0,5.32,9.943,28.716,28.716,0,0,0,11.964,10,24.157,24.157,0,0,0,5.28,1.386s-.44-.033-1.381-.207a8.823,8.823,0,0,1-1.717-.3,10.845,10.845,0,0,1-2.23-.713,28.059,28.059,0,0,1-12.282-9.819,45.53,45.53,0,0,1-5.548-10.1,30.732,30.732,0,0,1-1.633-6.394c-.335-2.342-.4-4.7-.519-7.163-.243-4.927-.059-10.095-.391-15.674A42.709,42.709,0,0,0,1302,528.245c-2.687-5.519-6.729-10.7-9.61-16.809a30.131,30.131,0,0,1-2.858-10.067,70.886,70.886,0,0,1,.126-10.761c.373-3.586.683-7.276.721-10.955a27.676,27.676,0,0,0-2.016-10.82c-2.983-7.041-10.648-11.162-13.9-19.177a28.342,28.342,0,0,1-1.383-12.443c.284-4.239.9-8.385,1.081-12.565.188-8.4-2.04-16.855-4.923-25.218s-6.266-16.865-7.653-26.07a53.9,53.9,0,0,1-.25-13.925,31.3,31.3,0,0,1,4.884-13.3l.567-.741.588.793c.181.32.409.475.529.688,2.711,3.817,5.684,7.347,8.5,11.1a76.171,76.171,0,0,1,7.391,11.872,67.315,67.315,0,0,1,2.9,6.386,50.693,50.693,0,0,1,1.158,6.8,97.26,97.26,0,0,0,1.971,13.236c.87,4.292,2.656,8.209,4.394,12.294,1.679,3.978,3.464,7.9,5.142,11.873,3.4,7.788,7.079,15.564,7.711,23.929.2,4.1-.035,8.178.322,12.055a29.635,29.635,0,0,0,3.231,10.98c3.41,6.8,8.16,12.985,9.787,20.368,1.567,7.276.49,14.353,1.8,20.928,1.04,6.588,5.141,11.873,8.943,16.623s7.6,9.5,9.194,15.074c1.7,5.514.268,10.962.285,15.734a19.145,19.145,0,0,0,1.053,6.862,59.716,59.716,0,0,0,2.761,5.9,16.233,16.233,0,0,1,2.2,5.653,11.032,11.032,0,0,1-.718,5.468,31.706,31.706,0,0,1-9.638,12.6,14.7,14.7,0,0,1-4.745,2.814S1331.978,595.191,1332.88,594.544Z" transform="translate(-1260.997 -345.392)" fill="#263238"/>
              </g>
            </g>
          </g>
          <g id="Group_1634" data-name="Group 1634" transform="translate(8.166 12.448)">
            <g id="Group_1633" data-name="Group 1633">
              <g id="Group_1632" data-name="Group 1632">
                <path id="Path_357" data-name="Path 357" d="M1266.256,353.232q.2.729.582,1.782c.629,1.614,1.45,3.824,2.314,6.854s1.053,6.862,1.817,11.215c.657,4.412,1.722,9.3,3.086,14.718s3.245,11.254,5.2,17.467c1.846,6.274,4.1,13.021,4.252,20.532a97.51,97.51,0,0,0,.721,11.269,48.89,48.89,0,0,0,3.185,11.146,227.51,227.51,0,0,1,8.4,23.4c4.6,16.4,8.986,31.931,13.035,46.108,3.94,14.237,7.373,27.072,10.318,37.791,2.837,10.781,5.185,19.443,6.8,25.565q1.205,4.385,1.828,6.989c.146.76.34,1.355.475,1.843a4.988,4.988,0,0,1,.087.654,2.162,2.162,0,0,1-.194-.594q-.2-.732-.581-1.782c-.522-1.675-1.238-3.945-2.041-6.869-1.726-6.059-4.182-14.664-7.232-25.323-2.945-10.719-6.591-23.434-10.531-37.671-4.049-14.176-8.437-29.708-13.141-46.048-2.488-8.163-5.284-15.871-8.339-23.293a46.544,46.544,0,0,1-3.2-11.42c-.525-3.925-.547-7.711-.782-11.376-.092-7.4-2.286-14.044-4.132-20.319-1.953-6.213-3.725-12.108-5.091-17.526s-2.323-10.367-2.979-14.779-.739-8.3-1.542-11.228-1.58-5.3-2.041-6.869c-.146-.76-.34-1.355-.475-1.841a5.172,5.172,0,0,1-.087-.655A.97.97,0,0,0,1266.256,353.232Z" transform="translate(-1265.969 -352.971)" fill="#263238"/>
              </g>
            </g>
          </g>
        </g>
        <g id="Group_1637" data-name="Group 1637" transform="translate(0 9.864)">
          <g id="Group_1636" data-name="Group 1636">
            <path id="Path_358" data-name="Path 358" d="M1389.627,589.829c-7.813,5.1-26.537,7.072-32.65-.033-3.729-4.371-5.442-10.157-9.382-14.408-5.044-5.458-12.829-7.542-18.394-12.425-11.295-9.814-10.544-27.958-19.746-39.795-6.56-8.4-17.191-12.54-24.332-20.473-8.364-9.354-11.062-22.884-20.006-31.771-4.73-4.65-10.807-7.7-16.011-11.939-6.746-5.484-11.61-12.87-16.415-20.151-4.924-7.493-9.743-15.048-14.774-22.482-8.3-12.484-21.616-19.893-25.412-25.632-10.5-15.887-12.046-26.128-17.088-39.322,16.782-.171,30.937,11.97,41.513,25,10.41,12.983,19.591,27.785,33.749,36.689,9.344,5.849,20.815,9.232,26.7,18.435,4.712,7.614,4.425,17.341,8.815,25.134,7.759,13.775,26.727,16.733,37.615,28.322,8.05,8.547,10.7,20.982,17.477,30.523,8.907,12.566,23.717,19.131,35.5,28.812,11.948,9.725,20.416,32.244,12.839,45.514" transform="translate(-1175.418 -351.398)" fill="url(#linear-gradient-5)"/>
          </g>
        </g>
        <g id="Group_1640" data-name="Group 1640" transform="translate(10.06 20.233)">
          <g id="Group_1639" data-name="Group 1639">
            <g id="Group_1638" data-name="Group 1638">
              <path id="Path_359" data-name="Path 359" d="M1181.9,358.352c.408.475.982.994,1.57,1.789,1.283,1.528,3.154,3.85,5.658,6.8s6.425,5.665,10.507,9.413a182.473,182.473,0,0,1,13.327,13.171c4.7,5.09,9.706,10.988,14.792,17.267,5.144,6.386,10.635,13.138,18.188,18.307,3.648,2.728,7.675,5.382,11.288,8.552a56.081,56.081,0,0,1,9.659,11.155,274.912,274.912,0,0,0,18.5,24.6c13.795,16,26.9,31.265,38.834,45.216,11.985,13.785,22.808,26.254,31.941,36.723,8.966,10.421,16.24,18.842,21.417,24.788,2.446,2.841,4.423,5.1,5.767,6.739.588.793,1.054,1.373,1.464,1.848a3.421,3.421,0,0,1,.466.58,3.925,3.925,0,0,1-.573-.519c-.348-.368-.816-.948-1.511-1.682-1.449-1.575-3.426-3.837-5.979-6.619-5.177-5.944-12.56-14.3-21.738-24.607-9.133-10.467-20.062-22.878-32.154-36.6-11.939-13.953-25.039-29.217-38.836-45.218a277.021,277.021,0,0,1-18.561-24.709,59.57,59.57,0,0,0-9.432-11c-3.614-3.17-7.473-5.777-11.121-8.5-7.613-5.277-13.225-12.243-18.31-18.522s-9.82-12.19-14.517-17.28a186.507,186.507,0,0,0-13.112-13.291c-3.974-3.809-7.9-6.524-10.461-9.579-2.5-2.95-4.223-5.5-5.506-7.026-.695-.734-1.056-1.375-1.463-1.849a3.507,3.507,0,0,1-.468-.58A1.13,1.13,0,0,1,1181.9,358.352Z" transform="translate(-1181.543 -357.711)" fill="#fff"/>
            </g>
          </g>
        </g>
        <g id="Group_1643" data-name="Group 1643" transform="translate(63.029 153.061)">
          <g id="Group_1642" data-name="Group 1642">
            <g id="Group_1641" data-name="Group 1641">
              <path id="Path_360" data-name="Path 360" d="M1213.984,438.92a8.27,8.27,0,0,1,1.006.834c.81.724,1.974,1.839,3.564,3.232s4.423,2.378,7.205,3.983a67.145,67.145,0,0,1,8.915,5.826,117.351,117.351,0,0,1,9.408,8.13c3.2,3.066,6.634,6.3,12.108,8.16a83.121,83.121,0,0,1,8.028,3.3,18.612,18.612,0,0,1,6.167,5.233,84.114,84.114,0,0,0,11.216,12.055c8.8,7.516,17.134,14.7,24.726,21.271,7.66,6.456,14.575,12.3,20.421,17.2,5.71,4.9,10.351,8.853,13.663,11.637,1.557,1.335,2.823,2.393,3.666,3.173a10.008,10.008,0,0,0,.905.893,1.088,1.088,0,0,1,.29.278,1.615,1.615,0,0,1-.392-.22c-.228-.168-.519-.447-.976-.78-.944-.723-2.211-1.781-3.869-3.058-3.311-2.784-8.055-6.68-13.969-11.464-5.844-4.9-12.86-10.687-20.624-17.088-7.592-6.571-15.93-13.754-24.724-21.271a84.708,84.708,0,0,1-11.249-12.111,19.669,19.669,0,0,0-6-5.179,80.353,80.353,0,0,0-7.9-3.3c-5.505-1.917-9-5.263-12.17-8.271a117.672,117.672,0,0,0-9.173-8.189,67.251,67.251,0,0,0-8.711-5.941c-2.681-1.662-5.515-2.648-7.136-4.1-1.59-1.393-2.582-2.679-3.392-3.4a8.914,8.914,0,0,1-.9-.892,1.071,1.071,0,0,1-.292-.279S1213.959,438.639,1213.984,438.92Z" transform="translate(-1213.793 -438.583)" fill="#fff"/>
            </g>
          </g>
        </g>
      </g>
      <ellipse id="Ellipse_27" data-name="Ellipse 27" cx="25.749" cy="25.42" rx="25.749" ry="25.42" transform="translate(571.093 175.495)" fill="url(#linear-gradient-6)"/>
      <g id="Group_1647" data-name="Group 1647" transform="translate(39.152 119.917)">
        <g id="Group_1646" data-name="Group 1646" clip-path="url(#clip-path)">
          <g id="Group_1645" data-name="Group 1645" transform="translate(150.94 51.183)">
            <path id="Path_361" data-name="Path 361" d="M1354.122,507.439,1408,609.652l67.474-130.774C1431.558,469.832,1393.706,488.644,1354.122,507.439Z" transform="translate(-1250.704 -191.73)" fill="none"/>
            <rect id="Rectangle_752" data-name="Rectangle 752" width="252.982" height="437.439" rx="15.682" fill="#cfd3f1" opacity="0.5" style="isolation: isolate"/>
            <rect id="Rectangle_753" data-name="Rectangle 753" width="233.343" height="403.482" rx="15.682" transform="translate(9.819 10.409)" fill="#fff"/>
          </g>
        </g>
      </g>
      <path id="Rectangle_754" data-name="Rectangle 754" d="M0,0H77.921a0,0,0,0,1,0,0V5.685a4.43,4.43,0,0,1-4.43,4.43H4.43A4.43,4.43,0,0,1,0,5.685V0A0,0,0,0,1,0,0Z" transform="translate(284.835 177.414)" fill="#cfd3f1" opacity="0.5" style="isolation: isolate"/>
      <rect id="Rectangle_755" data-name="Rectangle 755" width="150.472" height="19.114" rx="5.819" transform="translate(248.559 226.512)" fill="#cfd3f1"/>
      <g id="Group_103" data-name="Group 103" transform="translate(212.811 368.534)" opacity="0.3">
        <path id="Path_317-2" data-name="Path 317-2" d="M1316.608,425.833h161.05l3.932,3.464,3.957-3.464h42.539c6.417,0,11.62,6.2,11.62,13.857v42.263c0,7.654-5.2,13.857-11.62,13.857h-41.9l-4.576-3.466-4.427,3.466H1316.608c-6.419,0-11.62-6.2-11.62-13.857V439.69C1304.988,432.036,1310.189,425.833,1316.608,425.833Z" transform="translate(-1304.988 -425.833)" fill="#cfd3f1" opacity="0.5" style="isolation: isolate"/>
        <g id="Path_316" data-name="Path 316" transform="translate(3.566 4.985)">
          <path id="Path_363" data-name="Path 363" d="M1318.424,428.868h156.158l3.812,2.971,3.837-2.971h41.246c6.223,0,11.267,5.32,11.267,11.883v36.242c0,6.563-5.044,11.882-11.267,11.882h-40.629l-4.435-2.97-4.293,2.97h-155.7c-6.221,0-11.265-5.318-11.265-11.882V440.751C1307.159,434.188,1312.2,428.868,1318.424,428.868Z" transform="translate(-1307.159 -428.868)" fill="#fff"/>
          <path id="Path_364" data-name="Path 364" d="M1318.424,428.868h156.158l.164.128h0l.432.337h0l.611.476h0l.7.545h0l.7.545h0l.609.476h0l.432.335h0l.164.128h0l0,0v0h0l.005,0h0v0h0l0,0,0,0h0l.005,0,.005,0,0,0v0l0,0v0l0,0,0,0,0,0v0l0,0h0l0,0v0h0l.015-.012,0,0v0l0,0,.006,0h0l0,0,.005,0,0,0v0l.023-.017,0,0h0l.028-.023,0,0,.005-.005h0l.046-.034.01-.008.02-.015h0l.012-.008v0l.01-.008,0,0,.023-.018.005,0,0,0,0,0,.015-.01.018-.015.007,0,0,0,.007,0,.021-.017,0,0,0-.005,0,0,.011-.008,0,0,.025-.02.023-.016,0,0,.021-.018h0l.031-.023.025-.02.01-.008.01-.008.049-.036.016-.013,0,0,.02-.015v0l.043-.035.038-.028,0,0,.007,0,.012-.01.038-.03.016-.013.01-.007.008-.006.005,0,.021-.018.006,0,.007,0,.005,0,.006-.005,0,0v0l.01-.007.028-.023.01-.007,0,0,.008-.007.052-.041.014-.008.008-.008.016-.012.007,0,0,0,.013-.01h0l.006,0,.008-.007,0,0,.008-.007.033-.025.085-.066.007,0,.008-.006.011-.01h0l.01-.008.007,0,.018-.013.044-.035,0,0,.109-.085.008-.005.035-.028.006,0,.007-.007,0,0,.074-.058.028-.023,0,0,.005,0,.006-.005.006,0,.013-.01.008-.007.02-.016.008-.006.013-.01.031-.025.077-.059v0l.007,0,0-.005.015-.011.009-.007.064-.048,0,0,.02-.015.009-.007.013-.012.062-.048,0,0,.007,0,.008-.008.007,0,.026-.02,0,0,.013-.01,0,0,.077-.059.01-.008,0,0,.014-.011.009-.007.008-.007.01-.007.016-.013,0,0,.007-.007,0,0,.005,0,.006,0,.059-.046.011-.01.046-.035.006,0,0,0,.041-.031v0l.087-.067.008-.007.007,0h0l.1-.082.018-.013,0,0,0,0,0,0,.02-.015.01-.008.01-.007.008-.007.03-.023,0,0,.051-.039.038-.03.059-.046h0l.005,0,.016-.013.025-.02.007,0,.01-.008.011-.008.007,0,.021-.016v0l.007,0,0,0,.008-.006.012-.008,0,0,.156-.12,0,0,.042-.033,0,0,0,0,.008-.007.022-.016,0,0,.007,0,0,0,.007,0,.006,0h0l.007-.005,0,0v0l.009-.007,0,0,.049-.036.011-.01,0,0,0,0,.012-.008.006,0,0,0v0l.013-.01,0,0,.012-.01.011-.008.082-.064v0l0,0,0,0v0l0,0,0,0,.011-.008v0l.023-.016,0,0,0,0,0,0h0l0,0,.035-.026,0,0,.01-.007h0l.03-.025h0l.03-.023.008-.007.007,0h0l.008-.007h0l0,0,.016-.011.006,0,0,0,0,0h0l0,0,.012-.008,0,0h0l.01-.008.007,0,0-.005,0,0,.015-.012,0,0h0l0,0,.006,0v0l0,0,0,0v0h0l.005-.005h0l0,0,0,0h0v0h0l0,0,0,0h0v0h0l.005,0v0l0,0h0l0,0h0l.005,0h0v0h0l0,0h0v0h41.256c.1,0,.189,0,.284,0,.16,0,.318.012.475.023l.028,0a11.054,11.054,0,0,1,7.739,4.1h0l.011.013h0l.012.013v0l.01.012v0l.01.013h0l.01.013h0l.01.012,0,0,.01.011,0,0,.008.011,0,0,.01.011,0,0,.009.012,0,0,.008.011,0,0,.008.01,0,0,.009.011,0,0,.007.01,0,0,.008.01,0,0,.006.01,0,0,.008.01,0,0,.007.008.005,0,.006.008,0,.006.007.008,0,0,.007.008,0,.007.006.007.005.007.005.008,0,.007.007.007,0,.006,0,.008.005.007,0,.007.007.007,0,.008.005.007,0,.007.007.008,0,0,0,.008.005.007.006.008,0,.007.006.007.005.007,0,.008.005,0,.007.01,0,0,.007.008,0,0,.007.01,0,0,.007.008,0,.007.006.008,0,0,.007.01,0,0,.009.012,0,0,.007.01,0,0,.006.01,0,0,.008.012,0,0,.009.01v0l.009.01v0l.008.011,0,0,.008.012,0,0,.009.012v0l.008.011,0,0,.008.011,0,0,.009.013v0l.008.011,0,0,.008.011,0,0,.008.011,0,0,.008.013,0,0,.008.013v0l.009.013v0l.008.013h0l.009.013v0l.009.013,0,0,.008.013,0,0,.008.013v0l.008.013,0,0,.008.013h0l.008.013,0,0,.009.013,0,0,.008.013,0,0,.008.013v0l.01.013v0l.01.013v0l.01.013v0l.009.013v0l.008.013h0l.009.015h0l.008.015h0l.01.015h0l.01.015h0l.01.015h0l.028.044h0l.01.015h0l.018.03h0l.028.046h0l.01.013v0l.01.015h0l.008.015h0l.01.015h0l.008.015h0l.009.015v0l.009.013v0l.009.015h0l.01.015h0l.008.015h0l.009.015h0l.008.015,0,0,.008.013v0l.008.015h0l.009.015v0l.008.013,0,0,.008.013v0l.009.015h0l.008.015h0l.009.015v0l.01.013v0l.008.015v0l.008.013,0,0,.009.013v0l.008.015h0l.008.015,0,0,.008.013v0l.009.015v0l.007.013,0,0,.008.013v0l.008.015v0l.008.013,0,0,.006.013,0,0,.009.015v0l.008.013v0l.008.015,0,0,.007.013v0l.007.013v0l.008.013v0l.009.013v0l.007.013v0l.007.013v0l.007.013v0l.007.013,0,0,.006.013,0,0,.006.013,0,0,.009.013v0l.008.013v0l.009.013v0l.007.013v0l.007.013,0,0,.006.011v0l.007.013,0,0,.006.011,0,0,.005.011,0,0,0,.011,0,0,.005.011,0,0,.005.012,0,0,.005.011,0,0,.006.011,0,0,.007.013,0,0,.006.011,0,0,.006.012,0,0,0,.01,0,0,0,.011,0,.005,0,.011,0,0,.005.01v0l.006.012,0,0,0,.011,0,0,0,.01,0,.007,0,.01,0,.007,0,.01,0,0,.005.012,0,0,.005.01,0,.007,0,.01,0,.007,0,.01v0l.005.012,0,0,0,.01,0,.007,0,.01,0,.007,0,.01,0,.007.005.01v0l0,.011,0,.005.005.011,0,0,.005.01,0,.007,0,.01,0,.007,0,.01,0,.007,0,.01,0,.007,0,.01,0,.007.005.008,0,.008.005.008,0,.007.005.01,0,.007,0,.01,0,.007.005.01,0,.007,0,.01,0,.006.005.01,0,.007,0,.01,0,.007,0,.01,0,.007,0,.01,0,.007,0,.008,0,.008,0,.008,0,.008,0,.008,0,.008,0,.01,0,.007.005.01,0,.006,0,.01,0,.007,0,.01,0,.007.005.01,0,.007,0,.01,0,.007,0,.01,0,.007,0,.01,0,.007,0,.01v.007l0,.01,0,.007,0,.01,0,.007,0,.01,0,.007,0,.01,0,.007.005.01v.008l0,.01,0,.007.005.01v.007l.005.01,0,.007,0,.01,0,.007,0,.01,0,.007,0,.011,0,0,0,.012,0,0,0,.012,0,0,0,.011,0,.007,0,.01,0,.007,0,.01,0,.007,0,.012,0,0,0,.011,0,0,0,.012,0,0,0,.011,0,.007,0,.01,0,.007,0,.01v.007l.005.012,0,0,0,.012,0,.007.005.01,0,.007,0,.012,0,0,0,.011,0,0,0,.012,0,.007,0,.011,0,0,0,.011,0,.005,0,.011,0,0,0,.013,0,0,0,.012,0,0,.005.011v0l0,.013,0,0,0,.011v0l0,.012,0,0,0,.013v0l0,.013,0,0,0,.012,0,0,.005.013v0l0,.012v0l.005.013v0l.005.013v0l0,.013,0,0,0,.013v0l.005.013,0,0,0,.013,0,0,0,.013,0,.005.005.013v0l0,.013,0,.005.005.013,0,0,0,.013,0,0,0,.015v0l.005.013v0l0,.011v0l0,.013,0,0,0,.012v0l0,.013v0l.005.013v0l0,.013,0,0,.005.013v0l0,.013v0l0,.013,0,0,0,.013v0l.005.013,0,0,0,.013v0l0,.013,0,0,0,.015,0,0,0,.013v0l0,.015v0l.005.013,0,0,0,.013,0,0,0,.015,0,0,0,.013,0,.005,0,.013,0,0,.005.013v0l0,.013v0l0,.015v0l.006.013v0l0,.013v0l0,.015,0,0,0,.015v0l.005.013v0l0,.015v0l0,.013v0l.005.013v0l0,.013v0l0,.015v0l0,.013v.005l0,.013v.005l0,.013v0l0,.013v0l0,.013,0,0,0,.013v0l0,.013,0,0,0,.013v0l0,.015,0,0,0,.013v0l.005.015v0l0,.015v0l0,.015v0l0,.015v0l0,.013v0l0,.013,0,0,0,.015v0l0,.015v0l0,.015,0,0,0,.015v0l0,.015,0,0,0,.015v0l0,.015,0,0,0,.015v0l0,.015,0,0,0,.015v0l0,.015v0l0,.015v0l0,.015,0,0,0,.013v0l0,.015v0l0,.015v0l0,.015,0,0,0,.015v0l0,.015v0l0,.015v0l0,.015v0l0,.015v0l0,.015v0l0,.015v0l0,.015v0l0,.015v0l0,.015,0,0,0,.015v0l0,.015v0l0,.015v0l0,.015v0l0,.015v0l0,.015,0,0,0,.015v0l0,.015v0l0,.015v0l0,.015v0l0,.015v0l0,.013v.005l0,.013v0l0,.013v0l0,.015v0l0,.015v0l0,.015v0l0,.015v0l0,.015v0l0,.015v0l0,.015v0l0,.015v0l0,.016v0l0,.015,0,0,0,.015,0,0,0,.015v0l0,.015v0l0,.015v0l0,.016v0l0,.017,0,0v.018l0,.015v0l0,.015v0l0,.016v0l0,.016v0l0,.016v.021l0,.015v0l0,.016v0l0,.016v0l0,.015v.02h0l0,.017v.018l0,0,0,.015v.02l0,0,0,.016v.021l0,.016v0l0,.016v0l0,.016v.022l0,.016v0l0,.016v0l0,.016v0l0,.017v0l0,.016v.022l0,.016v0l0,.016v0l0,.018v.036l0,0v.018h0l0,.018v0l0,.016v0l0,.018v.02l0,.018h0l0,.018v0l0,.016v.021l0,.016v.021l0,.017v0l0,.016v.021l0,.016v.021l0,.016v0l0,.018v0l0,.016v.02h0l0,.018v.02h0l0,.018v.02h0l0,.018v.02h0v.02l0,.018h0l0,.018v.02h0v.02l0,.018h0v.038h0l0,.018v.02h0v.02l0,.018h0v.02h0l0,.018v.02h0l0,.018h0v.018h0v.02h0v.018h0l0,.02h0v.018h0v.02h0v.038h0v.02h0v.038h0v.02h0l0,.018v.02h0v.02h0l0,.018h0v.02h0v.02h0v.018h0v.02h0v.02h0v.018h0v.02h0v.02h0v.018h0v.02h0v.02h0v.018h0v.02h0v36.242a12.447,12.447,0,0,1-.586,3.794h0l0,.016h0l-.007.018h0l0,.017h0l-.006.018h0l-.005.017h0l0,.018h0l-.007.016h0l-.005.016h0l-.006.016h0l-.005.017v0l-.007.016h0l0,.017v0l-.007.015v0l0,.016,0,0,0,.015v0l-.005.015v0l-.005.015v0l0,.015v0l-.005.013,0,0,0,.015v0l-.007.015v0l0,.013,0,0,0,.015v0l0,.015,0,0,0,.013v0l-.005.013,0,0,0,.013v0l0,.013,0,0,0,.013,0,0,0,.013,0,0,0,.013,0,0,0,.013,0,0,0,.012,0,0,0,.012,0,.005-.005.013,0,.005,0,.011,0,0-.005.012v0l-.005.011v.007l0,.01,0,.007,0,.011,0,0,0,.012,0,0,0,.012,0,0,0,.012,0,.007,0,.01,0,.007,0,.01,0,.007,0,.012,0,0,0,.012,0,0,0,.011,0,0,0,.012,0,.007,0,.01,0,.007,0,.01,0,.007-.005.01v.007l-.005.01,0,.007,0,.01v.008l-.005.01,0,.006,0,.01,0,.007,0,.01,0,.007,0,.01,0,.007,0,.01v.006l0,.01,0,.007,0,.01,0,.007,0,.01,0,.006,0,.01,0,.007-.005.01,0,.007,0,.01,0,.006,0,.01,0,.007-.005.01,0,.006,0,.01,0,.008,0,.008,0,.008,0,.008,0,.007,0,.01,0,.007,0,.01,0,.007,0,.01,0,.007,0,.01,0,.007-.005.01,0,.006,0,.01,0,.007-.005.01,0,.006,0,.01,0,.007-.005.01,0,.007-.005.008,0,.007-.005.01,0,.006,0,.01,0,.007,0,.01,0,.007,0,.01,0,.007,0,.01,0,.007-.005.01,0,0-.005.011,0,0,0,.01v.007l-.005.01,0,.007,0,.01,0,.007,0,.01,0,.007,0,.01,0,0-.005.01v.007l0,.01,0,.007,0,.01,0,.007-.005.01,0,0-.005.011,0,0,0,.01,0,.007,0,.01,0,.006,0,.01,0,0,0,.012,0,0-.006.01v.007l-.005.01,0,0,0,.011,0,.005,0,.011,0,.005,0,.01,0,0-.006.011,0,.005-.006.011,0,0-.007.013,0,0-.006.012,0,0-.005.011,0,0-.005.011,0,.005-.005.011,0,0,0,.013,0,0-.005.011,0,.005-.006.011,0,0-.007.013v0l-.006.011,0,0-.007.013v0l-.007.012v0l-.009.013v0l-.008.013v0l-.009.013,0,0-.006.013,0,0-.006.013,0,0-.007.013v0l-.007.013v0l-.007.013v0l-.007.013v0l-.009.013v0l-.008.013v0l-.007.015v0l-.007.013,0,0-.008.015v0l-.008.013v0l-.009.013,0,0-.006.015,0,0-.008.013v0l-.008.015v0l-.008.013,0,0-.007.013v0l-.009.015v0l-.008.013,0,0-.008.015h0l-.008.015v0l-.009.013,0,0-.008.013v0l-.008.015h0l-.01.015v0l-.009.015h0l-.008.015h0l-.009.015v0l-.008.013,0,0-.008.013v0l-.009.015h0l-.008.015v0l-.008.013,0,0-.008.013v0l-.009.015h0l-.008.015h0l-.01.015h0l-.009.015v0l-.009.013v0l-.009.015h0l-.008.015h0l-.01.015h0l-.008.015h0l-.01.015h0l-.01.015h0l-.028.044v0l-.018.03h0l-.01.015h0l-.028.044h0l-.01.015h0l-.01.015h0l-.01.015h0l-.008.013,0,0-.009.013v0l-.008.013v0l-.009.013v0l-.01.013v0l-.01.013v0l-.01.013v0l-.008.013,0,0-.008.013,0,0-.009.013,0,0-.008.013h0l-.008.013,0,0-.008.013v0l-.008.013,0,0-.008.013,0,0-.009.013v0l-.009.013h0l-.008.013v0l-.009.013v0l-.008.013,0,0-.008.013,0,0-.008.011,0,0-.008.012h0l-.008.013v0l-.009.013,0,0-.008.012,0,0-.008.011v0l-.009.01,0,0-.008.011,0,0-.008.011v0l-.009.01v.005l-.009.01,0,0-.008.011,0,0-.006.01,0,.005-.007.01,0,0-.009.01,0,0-.007.01,0,0-.006.008,0,.007-.007.008,0,0-.007.01,0,0-.007.008,0,0-.007.008-.005.007,0,.008-.005.006-.006.007,0,.007-.006.008-.005.007,0,.007,0,.007-.007.008,0,.006-.005.007,0,.007-.007.008,0,.007-.005.006,0,.008,0,.006-.007.007,0,.007-.005.008-.005.005-.006.008,0,.007-.007.008,0,0-.007.008,0,.006-.006.008-.005.005-.007.008,0,0-.008.01,0,0-.006.01,0,.005-.008.01,0,0-.007.01,0,0-.009.011,0,0-.008.01,0,0-.008.01,0,0-.009.011h0l-.01.012,0,0-.008.012,0,0-.01.011,0,0-.01.011v0l-.01.013h0l-.01.013v0l-.01.012v0l-.012.013h0l-.011.013h0a11.627,11.627,0,0,1-1.424,1.462,10.874,10.874,0,0,1-7.112,2.664h-40.629l0,0h0l-.024-.016h0l0,0v0l0,0,0,0,0,0h0l0,0h0l0,0,0,0,0,0h0l0,0h0l0,0,0,0-.034-.023,0,0-.051-.034h0l-.006-.005,0,0h0l0,0-.013-.008,0,0-.007,0-.007,0-.008-.005,0,0-.006,0-.023-.015-.031-.021-.024-.016-.047-.031-.006,0-.021-.015-.013-.01-.008-.005-.008,0,0,0-.006-.005h0l-.005,0,0,0,0,0,0,0-.034-.023-.008,0,0,0-.007,0-.018-.013-.024-.016-.009,0-.006,0-.024-.018-.013-.008,0,0-.024-.018-.01-.007h0l-.011-.008,0,0-.01-.007-.011-.008,0,0-.037-.025-.017-.011,0,0-.007,0-.007,0-.013-.008-.03-.021,0,0-.018-.012h0l-.041-.028-.011-.008-.01-.007,0,0-.018-.011-.008-.007-.008,0,0,0-.028-.018-.021-.015-.015-.01-.008,0-.054-.036-.006,0-.031-.02-.013-.01-.016-.011-.009,0h0l-.025-.016-.039-.026h0l-.025-.016-.023-.015-.067-.046,0,0-.072-.049-.013-.008-.01-.007,0,0-.01-.007h0l-.013-.008-.059-.039-.036-.025-.017-.01-.028-.02,0,0-.041-.028-.012-.008-.087-.057-.024-.017-.015-.01-.01-.006-.005,0-.039-.026-.007,0-.005,0-.006,0-.013-.008-.016-.012-.025-.016-.026-.016-.018-.013,0,0-.008,0-.008-.007,0,0-.006,0-.017-.01-.01-.007,0,0-.023-.015,0,0-.013-.01-.009-.005-.146-.1-.01-.007-.036-.025-.01-.007-.009-.006-.018-.012,0,0-.017-.01-.046-.031v0l-.018-.011h0l-.028-.02-.007-.005-.01-.006h0l-.141-.094-.062-.043-.008-.005,0,0-.008-.007-.008,0-.02-.013v0l-.01-.007-.041-.028-.01-.007-.028-.018-.023-.015,0,0-.021-.013,0,0-.007,0-.018-.013-.033-.021-.006-.005,0,0-.005,0-.209-.14-.011-.008-.014-.01-.018-.01-.035-.025-.008,0-.022-.015h0l-.018-.011-.023-.015,0,0-.021-.013-.005,0,0,0-.027-.018,0,0-.01-.007v0l-.076-.051-.013-.008,0,0,0,0-.008-.007h0l-.023-.015-.035-.025-.006,0-.007-.005v0l-.008,0-.005,0-.007,0-.01,0-.011-.01,0,0-.008-.005,0,0-.046-.031-.012-.008-.01-.007-.008,0,0,0-.005,0,0,0-.089-.061-.008-.005-.009,0-.008,0,0,0-.02-.013-.011-.008-.015-.008v0l-.008-.007-.01,0,0,0-.031-.02,0,0,0,0h-.005l-.028-.02-.016-.011-.026-.016v0l-.033-.021,0,0-.008,0h0l-.015-.011-.013-.008,0,0-.013-.008,0,0-.007,0,0,0-.005,0,0,0-.007,0h0l-.039-.026,0,0-.033-.021-.007,0-.018-.011-.008-.007,0,0-.005,0h0l-.007,0-.006-.005,0,0-.005,0-.041-.028,0,0-.033-.023h0l-.031-.021h0l0,0,0,0-.015-.01h0l0,0h0l0,0,0,0-.007,0-.007-.005h0l0,0h0l-.013-.008v0l0,0-.015-.01h0l-.015-.01,0,0-.024-.016,0,0-.028-.02h0l-.006,0,0,0,0,0h0v0h0v0h0l-4.293,2.97h-155.7c-.136,0-.272,0-.407-.007l-.136-.007a10.965,10.965,0,0,1-7.422-3.467l-.024-.025h0l-.012-.011v0l-.011-.012,0,0-.01-.012v0l-.01-.01v0l-.01-.01,0,0-.008-.01,0,0-.008-.01,0,0-.008-.008-.005-.005-.007-.008,0,0-.007-.008-.005,0-.006-.007-.006-.007-.005-.007-.007-.007,0-.007-.007-.007,0,0-.006-.008-.005,0-.008-.008,0-.005-.009-.008,0,0-.008-.008,0-.005-.008-.008,0,0-.008-.01,0,0-.008-.01,0,0-.01-.01,0,0-.01-.01,0,0-.01-.012v0l-.01-.011,0,0-.01-.011,0,0-.01-.012v0l-.012-.013h0a11.792,11.792,0,0,1-.989-1.312h0l-.01-.015h0l-.009-.013v0l-.008-.013v0l-.01-.013v0l-.008-.013,0,0-.008-.013h0l-.008-.013h0l-.008-.013v0l-.006-.011,0,0-.008-.012v0l-.008-.011,0,0-.007-.012,0,0-.007-.011v0l-.009-.011v0l-.007-.012,0,0-.007-.01,0,0-.007-.01,0,0-.007-.01,0,0,0-.01,0-.007-.007-.01,0,0-.006-.01,0,0-.005-.01,0,0-.006-.01,0-.007,0-.008,0-.007-.005-.008,0-.007-.005-.008-.005-.008,0-.007,0-.008,0-.008,0-.007,0-.008,0-.008-.005-.006,0-.008,0-.007,0-.008,0-.007-.007-.01,0-.005,0-.01,0-.006-.007-.008,0-.007,0-.01,0,0-.007-.01v0l-.007-.012,0,0-.006-.011,0-.005-.006-.011,0,0-.007-.012,0,0-.008-.013v0l-.007-.013,0,0-.006-.013,0,0-.008-.013v0l-.008-.015v0L1308.7,483v0l-.007-.015h0l-.008-.015v0l-.008-.013v0l-.009-.015h0l-.008-.016h0l-.01-.015h0a12.318,12.318,0,0,1-1.491-5.914V440.751h0v-.2l0-.008v-.072h0l0-.01v-.118l0,0v-.01h0V440.3l0,0v-.036l0-.008v-.1l0-.021v-.052l0-.007v-.025l0,0v-.077l0,0v-.021l0,0v-.021h0v-.026l0-.007v-.039l0-.01v-.049l0-.012h0v-.013l0-.008v-.026h0v-.01l0,0v-.035l0-.01v-.012l0,0v-.035l0-.008v0l0-.01v-.013h0v-.013l0-.008v0l0-.033v-.013l0-.012h0v-.021l0,0v-.023l0-.01v-.012l0,0v-.012l0-.021v-.012l0,0v-.012l0-.021v0l0-.008v-.015l0-.021v-.013l0-.008v-.015h0v-.025l0-.007v-.016l0-.008v-.015l0-.008v-.035l0,0v-.021h0l0-.01v-.025h0l0-.012h0v-.011l0-.008v0l0-.008v-.015l0-.01v0l0-.01V439l0-.01v-.025l0-.023h0l0-.01v0l0-.008v0l0-.023v0l0-.008v-.013l0-.012v0l0-.01v-.013l0-.008V438.8l0,0v-.012l0-.01v0l0-.01v-.013l0-.01v-.013l0-.01v-.012l0,0V438.7l0-.01v-.013l0-.01v0l0-.01v0l0-.021v0l0-.01V438.6l0-.01v-.013l0-.01v-.013l0-.021,0,0,0-.008v-.015l0-.021,0,0,0-.008v-.013l0-.023v0l0-.01h0l0-.011h0l0-.021v0l0-.008v0l0-.011h0l0-.021v0l0-.01v0l.006-.033v0l0-.01v0l0-.01h0l0-.021v0l0-.008v0l0-.011h0l.005-.021v-.013l.007-.033,0,0v-.01h0l.005-.023h0l0-.01,0,0v-.01l.005-.021v0l0-.01v0l.01-.043,0,0v-.012l.005-.021v-.011l0,0v-.01h0l.005-.021v0l0-.008v0l0-.01v0l0-.021,0,0V437.9l.008-.031v0l0-.008v-.013h0l.005-.021v0l0-.01v0l.005-.021h0l0-.011v-.01l0,0,0-.01v0l0-.01v0l0-.01h0l0-.008,0,0,0-.021v-.012h0v-.01l.009-.033v0l0-.01h0l.007-.023h0l0-.01v0l0-.008v0l.007-.021h0l0-.01v0l0-.01v0l.007-.021h0l0-.01v0l.008-.033h0l.011-.044h0l0-.01v0l.01-.033h0c.025-.087.05-.176.077-.263h0l.013-.043v0l.01-.031h0l0-.012h0l.014-.043h0c.031-.1.063-.2.1-.292h0a11.838,11.838,0,0,1,4.343-5.839l.342.486a11.462,11.462,0,0,0-4.761,9.4v36.242a11.791,11.791,0,0,0,.843,4.4,11.359,11.359,0,0,0,2.294,3.59,10.322,10.322,0,0,0,7.535,3.295h155.511l4.141-2.866.332-.23.337.225,4.285,2.871h40.448a10.32,10.32,0,0,0,7.536-3.295,11.3,11.3,0,0,0,2.294-3.59,11.752,11.752,0,0,0,.843-4.4V440.751a11.754,11.754,0,0,0-.843-4.4,11.3,11.3,0,0,0-2.294-3.59,10.32,10.32,0,0,0-7.536-3.295h-41.043l-3.677,2.846-.365.282-.363-.284-3.651-2.845H1318.424v-.594Z" transform="translate(-1307.159 -428.868)" fill="#707070"/>
        </g>
        <g id="_10:00" data-name=" 10:00" transform="translate(57.348 23.054)" style="isolation: isolate">
          <text id="_10:00-2" data-name="10:00" transform="translate(0 4)" fill="#0e3178" font-size="4" font-family="Lato-Heavy, Lato" font-weight="800" style="isolation: isolate"><tspan x="0" y="0">10:00</tspan></text>
        </g>
        <g id="EK512" transform="translate(191.842 29.949)" style="isolation: isolate">
          <text id="_369" data-name="$369" transform="translate(0.423 5.865)" fill="#0e3178" font-size="6" font-family="Lato-Heavy, Lato" font-weight="800" style="isolation: isolate"><tspan x="0" y="0">$369</tspan></text>
        </g>
        <g id="_19:00" data-name=" 19:00" transform="translate(135.177 23.054)" style="isolation: isolate">
          <text id="_19:00-2" data-name="19:00" transform="translate(0 4)" fill="#0e3178" font-size="4" font-family="Lato-Heavy, Lato" font-weight="800" style="isolation: isolate"><tspan x="0" y="0">19:00</tspan></text>
        </g>
        <g id="BRA" transform="translate(57.348 37.313)" style="isolation: isolate">
          <text id="BRA-2" data-name="BRA" transform="translate(0 5)" fill="#d0d3dd" font-size="5" font-family="Lato-Heavy, Lato" font-weight="800" style="isolation: isolate"><tspan x="0" y="0">BRA</tspan></text>
        </g>
        <g id="DEN" transform="translate(135.177 37.313)" style="isolation: isolate">
          <text id="DEN-2" data-name="DEN" transform="translate(0 4)" fill="#d0d3dd" font-size="4" font-family="Lato-Heavy, Lato" font-weight="800" style="isolation: isolate"><tspan x="0" y="0">DEN</tspan></text>
        </g>
        <g id="Group_101" data-name="Group 101" transform="translate(85.866 32.612)">
          <line id="Line_10" data-name="Line 10" x2="41.589" transform="translate(1.485 2.377)" fill="none" stroke="#d0d3dd" stroke-width="0.5"/>
          <path id="Path" d="M1382.025,450.24l2.275-2.277-2.275-2.275" transform="translate(-1341.362 -445.689)" fill="none" stroke="#d0d3dd" stroke-width="0.5"/>
          <circle id="Ellipse_10" data-name="Ellipse 10" cx="1.782" cy="1.782" r="1.782" transform="translate(0 0.594)" fill="#fff" stroke="#d0d3dd" stroke-width="0.5"/>
        </g>
        <line id="Line_11" data-name="Line 11" y2="51.689" transform="translate(174.526 9.442)" fill="none" stroke="#7b7b7b" stroke-linecap="round" stroke-width="1" stroke-dasharray="4"/>
        <g id="FlylineSVG_Logotype" data-name="FlylineSVG Logotype" transform="translate(10.411 25.183)">
          <path id="Path_142" data-name="Path 142" d="M1311.327,443.121a3.45,3.45,0,0,0,3.62,3.25h6.107v1.509h-6.274v1.353a3.349,3.349,0,0,0,3.513,3.155h2.761v3.5a3.416,3.416,0,0,0,3.584,3.217h3.089V441.166h-16.4Z" transform="translate(-1311.327 -441.166)" fill="#0e3178"/>
          <path id="Path_143" data-name="Path 143" d="M1334.143,456.632h-5.5v-9.515a3.222,3.222,0,0,0-3.222-3.219h-2.779v17.935H1337.4v-1.95A3.255,3.255,0,0,0,1334.143,456.632Z" transform="translate(-1304.055 -439.411)" fill="#00aeef"/>
        </g>
      </g>
      <g id="Group_104" data-name="Group 104" transform="translate(212.811 271.098)" opacity="0.3">
        <path id="Path_317-3" data-name="Path 317-3" d="M1316.608,366.509h161.05l3.932,3.464,3.957-3.464h42.539c6.417,0,11.62,6.2,11.62,13.857V422.63c0,7.652-5.2,13.857-11.62,13.857h-41.9l-4.576-3.466-4.427,3.466H1316.608c-6.419,0-11.62-6.205-11.62-13.857V380.366C1304.988,372.713,1310.189,366.509,1316.608,366.509Z" transform="translate(-1304.988 -366.509)" fill="#cfd3f1" opacity="0.5" style="isolation: isolate"/>
        <g id="Path_316-2" data-name="Path 316-2" transform="translate(3.566 4.985)">
          <path id="Path_365" data-name="Path 365" d="M1318.424,369.544h156.158l3.812,2.971,3.837-2.971h41.246c6.223,0,11.267,5.32,11.267,11.883v36.242c0,6.561-5.044,11.881-11.267,11.881h-40.629l-4.435-2.97-4.293,2.97h-155.7c-6.221,0-11.265-5.32-11.265-11.881V381.427C1307.159,374.864,1312.2,369.544,1318.424,369.544Z" transform="translate(-1307.159 -369.544)" fill="#fff"/>
          <path id="Path_366" data-name="Path 366" d="M1318.424,369.544h156.158l.164.128h0l.432.337h0l.611.476h0l.7.545h0l.7.545h0l.609.475h0l.432.337h0l.164.128h0l0,0v0h0l.005,0h0v0h0l0,0,0,0h0l.005,0,.005,0,0,0h0l0,0v0l0,0,0,0,0,0v0l0,0h0l0,0v0l0,0,.015-.01,0,0v0l0,0,.006,0v0h0l.005,0,0,0v0l.023-.016,0,0,0,0,.028-.021,0,0,.005,0h0l.046-.035.01-.008.02-.015h0l.012-.008v0l.01-.008,0,0,.023-.018.005,0,0,0,0,0,.015-.01.018-.015.007,0,0,0,.007,0,.021-.016,0,0,0,0,0,0,.011-.008,0,0,.025-.02.023-.016,0,0,.021-.017h0l.031-.023.025-.021.01-.007.01-.008.049-.038.016-.011,0,0,.02-.013v0l.043-.034.038-.028,0,0,.007,0,.012-.008.038-.03.016-.013.01-.007.008-.007.005,0,.021-.016.006,0,.007,0,.005,0,.006,0,0,0v0l.01-.008.028-.021.01-.007,0,0,.008-.007.052-.041.014-.01.008-.007.016-.012.007,0,0,0,.013-.01h0l.006,0,.008-.007,0,0,.008-.007.033-.025.085-.066.007,0,.008-.007.011-.01h0l.01-.008.007-.005.018-.013.044-.036h0l.109-.085.008,0,.035-.028.006,0,.007-.007,0,0,.074-.057.028-.023,0,0,.005,0,.006,0,.006,0,.013-.011.008,0,.02-.016.008-.007.013-.01.031-.025.077-.059v0l.007,0,0,0,.015-.011.009-.007.064-.048,0,0,.02-.015.009-.007.013-.011.062-.048,0,0,.007-.005.008-.008.007,0,.026-.02,0,0,.013-.01,0,0,.077-.059.01-.008,0,0,.014-.012.009-.007.008-.007.01-.008.016-.012,0,0,.007,0,0,0,.005,0,.006,0,.059-.046.011-.01.046-.034.006-.007,0,0,.041-.031h0l.087-.068.008-.007.007,0h0l.1-.082.018-.013,0,0,0,0,0,0,.02-.015.01-.008.01-.008.008,0,.03-.023,0,0,.051-.039.038-.03.059-.046h0l.005,0,.016-.013.025-.02.007,0,.01-.008.011-.008.007-.006.021-.015v0l.007,0,0,0,.008-.007.012-.008,0,0,.156-.12,0,0,.042-.034,0,0,0,0,.008-.007.022-.017,0,0,.007,0,0,0,.007,0,.006,0h0l.007,0,0,0v0l.009-.007,0,0,.049-.038.011-.008,0,0,0,0,.012-.008.006,0,0,0v0l.013-.01,0,0,.012-.01.011-.008.082-.064v0l0,0,0,0v0l0,0,0,0,.011-.008v0l.023-.016,0,0,0,0,0,0h0l0,0,.035-.026,0,0,.01-.007h0l.03-.025h0l.03-.023.008-.007.007,0h0l.008-.007,0,0,0,0,.016-.011.006,0,0,0,0,0v0l0,0,.012-.008,0,0v0l.01-.007.007,0,0,0,0,0,.015-.012,0,0v0l0,0,.006,0v0l0,0h0v0h0l.005,0h0l0,0,0,0h0v0h0l0,0h0v0h0l.005,0v0l0,0h0l0,0v0h0l.005,0v0h0l0,0h0v0h41.256c.1,0,.189,0,.284,0,.16,0,.318.011.475.023l.028,0a11.053,11.053,0,0,1,7.739,4.1h0l.011.013h0l.012.013h0l.01.013v0l.01.011v0l.01.013h0l.01.013,0,0,.01.012,0,0,.008.012,0,0,.01.01,0,0,.009.012,0,0,.008.011,0,0,.008.01,0,0,.009.01,0,.005.007.01,0,0,.008.01,0,0,.006.008,0,0,.008.01,0,0,.007.01.005.005.006.008,0,.007.007.008,0,0,.007.008,0,.007.006.007.005.007.005.008,0,.007.007.007,0,.007,0,.008.005.007,0,.007.007.007,0,.007.005.008,0,.007.007.007,0,.007,0,.008.005.006.006.008,0,0,.006.008.005.007,0,.008.005.005.007.008,0,.007.007.008,0,0,.007.01,0,0,.007.008,0,0,.006.01,0,0,.007.01,0,0,.009.012,0,0,.007.01,0,.005.006.01,0,0,.008.011,0,0,.009.01v0l.009.012v0l.008.012,0,0,.008.01,0,0,.009.011v0l.008.011,0,0,.008.011,0,0,.009.013v0l.008.012,0,0,.008.012,0,0,.008.012,0,0,.008.013,0,0,.008.013v0l.009.011v0l.008.013v0l.009.013v0l.009.013,0,0,.008.013,0,0,.008.013v0l.008.013h0l.008.013v0l.008.013,0,0,.009.013,0,0,.008.013,0,0,.008.013v0l.01.013v0l.01.013v0l.01.013h0l.009.015v0l.008.013h0l.009.015h0l.008.015h0l.01.015h0l.01.015h0l.01.015h0l.028.044h0l.01.015h0l.018.03h0l.028.044v0l.01.013v0l.01.015h0l.008.015h0l.01.015h0l.008.015h0l.009.015h0l.009.015v0l.009.013v0l.01.013v0l.008.015h0l.009.015h0l.008.015,0,0,.008.013v0l.008.013v0l.009.015v0l.008.013,0,0,.008.013v0l.009.015h0l.008.015h0l.009.015v0l.01.013v0l.008.015h0l.008.015,0,0,.009.013v0l.008.015h0l.008.015,0,0,.008.013v0l.009.015h0l.007.015,0,0,.008.013v0l.008.015v0l.008.013,0,0,.006.013,0,0,.009.015v0l.008.013v0l.008.013,0,0,.007.013v0l.007.013v0l.008.013v0l.009.013v0l.007.013v0l.007.013v0l.007.013v0l.007.013,0,0,.006.013,0,0,.006.013,0,0,.009.013v0l.008.013v0l.009.013v0l.007.013v0l.007.013,0,0,.006.011v0l.007.013,0,0,.006.012,0,0,.005.012,0,0,0,.011,0,0,.005.012,0,0,.005.013,0,0,.005.011,0,.005.006.011,0,0,.007.011,0,0,.006.011,0,.005.006.011,0,0,0,.01,0,0,0,.011,0,0,0,.012,0,0,.005.01v0l.006.012,0,0,0,.012,0,0,0,.01,0,.007,0,.01,0,0,0,.012,0,0,.005.01,0,.007.005.01,0,.007,0,.01,0,0,0,.011v.005l.005.01,0,.007,0,.01,0,.007,0,.01,0,.007,0,.01,0,.007.005.01v.005l0,.011,0,0,.005.011,0,0,.005.01,0,.007,0,.01,0,.007,0,.01,0,.007,0,.01,0,.007,0,.01,0,.005.005.01,0,.007.005.01,0,.007.005.01,0,.007,0,.01,0,.007.005.01,0,.007,0,.01,0,.007.005.01,0,.007,0,.01,0,.007,0,.01,0,.007,0,.01,0,.007,0,.008,0,.008,0,.008,0,.008,0,.008,0,.008,0,.008,0,.008.005.01,0,.007,0,.01,0,.007,0,.008,0,.008.005.01,0,.007,0,.01,0,.007,0,.01,0,.007,0,.01,0,.007,0,.01v.007l0,.01,0,.007,0,.01,0,.007,0,.01,0,.007,0,.01,0,.007.005.01v.007l0,.01,0,.007.005.012v.007l.005.01,0,.007,0,.01,0,.006,0,.01,0,.007,0,.01,0,.007,0,.01,0,.007,0,.011,0,0,0,.012,0,0,0,.011,0,.007,0,.01,0,.007,0,.011,0,0,0,.012,0,0,0,.011,0,0,0,.011,0,.007,0,.01,0,.007,0,.01v.007l.005.011,0,0,0,.011,0,0,.005.012,0,.007,0,.011,0,0,0,.011,0,0,0,.011,0,0,0,.013,0,0,0,.012,0,0,0,.012,0,0,0,.012,0,.007,0,.011,0,0,.005.011v.005l0,.011,0,.007,0,.011v.005l0,.012,0,0,0,.013v0l0,.013,0,0,0,.011,0,0,.005.013v.005l0,.011v0l.005.013v0l.005.013v0l0,.012,0,0,0,.013v0l.005.013,0,0,0,.013,0,0,0,.013,0,0,.005.013v0l0,.013,0,0,.005.012,0,0,0,.013,0,0,0,.015v0l.005.013v0l0,.013v0l0,.013,0,0,0,.011v0l0,.013v0l.005.013v0l0,.013,0,0,.005.011v0l0,.013v.005l0,.011,0,0,0,.013v0l.005.012,0,0,0,.013v0l0,.013,0,0,0,.015,0,0,0,.013v0l0,.015v0l.005.013,0,0,0,.013,0,0,0,.013,0,0,0,.013,0,0,0,.013,0,0,.005.013v0l0,.013v0l0,.015v0l.006.013v0l0,.013v0l0,.015,0,0,0,.013v.005l.005.013v0l0,.015v0l0,.013v0l.005.013v0l0,.013v0l0,.013v0l0,.013v0l0,.013v0l0,.013v0l0,.013v0l0,.013,0,0,0,.013v0l0,.013,0,0,0,.013v0l0,.013,0,0,0,.013v0l.005.015v0l0,.015v0l0,.015v0l0,.013v0l0,.013v0l0,.015,0,0,0,.015v0l0,.015v0l0,.015,0,0,0,.015v0l0,.015,0,0,0,.015v0l0,.015,0,0,0,.015v0l0,.015,0,0,0,.015v0l0,.015v0l0,.015v0l0,.013,0,0,0,.015v0l0,.015v0l0,.015v0l0,.015,0,0,0,.015v0l0,.015v0l0,.015v0l0,.015v0l0,.015v0l0,.015v0l0,.015v0l0,.015v0l0,.015v0l0,.015,0,0,0,.015v0l0,.015v0l0,.015v0l0,.015v0l0,.015v0l0,.015,0,0,0,.015v0l0,.015v0l0,.015v0l0,.015v0l0,.015v0l0,.015v0l0,.015v0l0,.013v0l0,.013v0l0,.015v0l0,.015v0l0,.015v0l0,.015v0l0,.015v0l0,.015v0l0,.015v0l0,.015v0l0,.015,0,0,0,.015,0,0,0,.015v0l0,.015v0l0,.015v0l0,.016v0l0,.016,0,0v.02l0,.015v0l0,.015v0l0,.016v0l0,.016v0l0,.016v.021l0,.015v0l0,.016v0l0,.016v0l0,.015v.021l0,.017v.018l0,0,0,.017v.02l0,0,0,.017v.02l0,.016v0l0,.016v0l0,.016v.021l0,.017h0l0,.017v0l0,.016v0l0,.016v0l0,.016v.02l0,.018v0l0,.016v0l0,.016v.038l0,0v.018h0l0,.018v0l0,.017h0l0,.018v.02l0,.016v0l0,.018v0l0,.016v.021l0,.016v.02l0,.018v0l0,.016v.021l0,.016v.021l0,.016v0l0,.018v0l0,.016v.02h0l0,.018v.02h0l0,.018v.02h0l0,.018v.02h0v.02l0,.018h0l0,.018v.02h0v.02l0,.018h0v.038h0l0,.018v.02h0v.02l0,.018h0v.02h0l0,.018h0v.02h0l0,.018v.02h0v.02h0v.018h0l0,.02h0v.018h0v.02h0v.038h0v.02h0v.038h0v.02h0l0,.018h0v.02h0v.02l0,.018h0v.02h0v.038h0v.02h0v.038h0v.02h0v.02h0v.018h0v.02h0v.02h0v.018h0v.02h0v36.242a12.456,12.456,0,0,1-.586,3.794h0l0,.016h0l-.007.018h0l0,.016h0l-.006.016v0l-.005.017h0l0,.016v0l-.007.016h0l-.005.017v0l-.006.016h0l-.005.017v0l-.007.015v0l0,.016h0l-.007.016v0l0,.016h0l0,.016v0l-.005.015v0l-.005.015v0l0,.015v0l-.005.015,0,0,0,.013v0l-.007.015v0l0,.013,0,0,0,.015v0l0,.015,0,0,0,.013v0l-.005.013,0,0,0,.013v0l0,.013,0,0,0,.013,0,0,0,.013,0,0,0,.013,0,0,0,.013,0,0,0,.011,0,0,0,.012,0,0-.005.011,0,.007,0,.012,0,0-.005.011v0l-.005.012v0l0,.012,0,.007,0,.012,0,0,0,.011,0,0,0,.012,0,0,0,.012,0,0,0,.012,0,.007,0,.01,0,.007,0,.012,0,0,0,.012,0,0,0,.011,0,.005,0,.011,0,.007,0,.01,0,.007,0,.01,0,.007-.005.01v.007l-.005.01,0,.007,0,.01v.007l-.005.01,0,.008,0,.01,0,.007,0,.01,0,.007,0,.01,0,.007,0,.01v.007l0,.01,0,.007,0,.01,0,.007,0,.01,0,.007,0,.01,0,.007-.005.01,0,.007,0,.01,0,.007,0,.01,0,.007-.005.01,0,.007,0,.01,0,.007,0,.01,0,.007,0,.01,0,.007,0,.01,0,.007,0,.01,0,.007,0,.01,0,.007,0,.01,0,.007-.005.01,0,.007,0,.01,0,.007-.005.01,0,.007,0,.008,0,.008-.005.008,0,.007-.005.01,0,.007-.005.01,0,.007,0,.01,0,.007,0,.01,0,.007,0,.01,0,.007,0,.01,0,0-.005.012,0,0-.005.011,0,0,0,.01v.007l-.005.01,0,.007,0,.01,0,.007,0,.01,0,.007,0,.01,0,0-.005.01v.007l0,.01,0,.007,0,.01,0,0-.005.011,0,0-.005.011,0,.005,0,.01,0,.007,0,.01,0,0,0,.011,0,.005,0,.011,0,0-.006.01v.007l-.005.01,0,0,0,.011,0,0,0,.012,0,0,0,.011,0,0-.006.012,0,0-.006.011,0,0-.007.012,0,.005-.006.011,0,0-.005.011,0,0-.005.012,0,0-.005.011,0,0,0,.013,0,0-.005.012,0,0-.006.011,0,0-.007.013v0l-.006.011,0,0-.007.013v0l-.007.012v0l-.009.013v0l-.008.011v0l-.009.013,0,0-.006.011,0,0-.006.013,0,0-.007.013v0l-.007.013v0l-.007.013v0l-.007.013v0l-.009.015v0l-.008.013v0l-.007.015v0l-.007.013,0,0-.008.013v0l-.008.013v0l-.009.013,0,0-.006.015,0,0-.008.013v0l-.008.015h0l-.008.015,0,0-.007.013v0l-.009.015h0l-.008.015,0,0-.008.013v0l-.008.015v0l-.009.013,0,0-.008.013v0l-.008.015h0l-.01.015h0l-.009.015v0l-.008.015h0l-.009.015h0l-.008.015,0,0-.008.013v0l-.009.013v0l-.008.015h0l-.008.015,0,0-.008.013v0l-.009.013v0l-.008.015h0l-.01.015h0l-.009.015h0l-.009.015v0l-.009.013,0,0-.008.015h0l-.01.015h0l-.008.015h0l-.01.015h0l-.01.015h0l-.028.044h0l-.018.029v0l-.01.015h0l-.028.044h0l-.01.015h0l-.01.015h0l-.01.015h0l-.008.013,0,0-.009.013v0l-.008.013v0l-.009.013v0l-.01.013v0l-.01.013v0l-.01.013v0l-.008.013,0,0-.008.013,0,0-.009.013h0l-.008.015h0l-.008.013,0,0-.008.013v0l-.008.013,0,0-.008.013,0,0-.009.013v0l-.009.013h0l-.008.013v0l-.009.013v0l-.008.013,0,0-.008.011,0,0-.008.011,0,0-.008.012,0,0-.008.013v0l-.009.011,0,0-.008.011,0,0-.008.011v0l-.009.011,0,0-.008.011,0,0-.008.011v0l-.009.01v0l-.009.011,0,0-.008.011,0,0-.006.01,0,0-.007.012,0,0-.009.01,0,.005-.007.01,0,0-.006.008,0,0-.007.01,0,0-.007.008,0,.007-.007.008,0,0-.007.008-.005.007,0,.008-.005.007-.006.007,0,.007-.006.008-.005.007,0,.007,0,.007-.007.008,0,.007-.005.007,0,.007-.007.008,0,.007-.005.007,0,.008,0,.007-.007.007,0,.007-.005.008-.005.005-.006.008,0,.007-.007.008,0,0-.007.008,0,0-.006.01-.005,0-.007.008,0,0-.008.01,0,0-.006.01,0,0-.008.01,0,0-.007.01,0,0-.009.01,0,0-.008.01,0,0-.008.01,0,0-.009.012,0,0-.01.011,0,0-.008.012,0,0-.01.011,0,0-.01.012v0l-.01.013h0l-.01.013h0l-.01.013v0l-.012.013h0l-.011.013h0a11.739,11.739,0,0,1-1.424,1.462,10.874,10.874,0,0,1-7.112,2.664h-40.629l0,0h0l-.024-.016h0l0,0v0l0,0,0,0,0,0,0,0,0,0h0l0,0h0l0,0h0l0,0h0l0,0,0,0-.034-.021,0,0-.051-.033h0l-.006,0,0,0,0,0,0,0-.013-.008,0,0-.007,0-.007,0-.008,0,0,0-.006,0-.023-.015-.031-.021-.024-.017-.047-.031-.006,0-.021-.015-.013-.01-.008,0-.008-.005,0,0-.006,0h0l-.005,0,0,0,0,0,0,0-.034-.023-.008,0,0,0-.007-.005-.018-.012-.024-.016-.009,0-.006,0-.024-.016-.013-.01h0l-.024-.018-.01-.007h0l-.011-.008,0,0-.01-.007-.011-.008,0,0-.037-.025-.017-.011,0,0-.007,0-.007,0-.013-.01-.03-.02,0,0-.018-.011h0l-.041-.03-.011-.007-.01-.007,0,0-.018-.012-.008-.007-.008,0,0,0-.028-.018-.021-.015-.015-.01-.008,0-.054-.036-.006-.005-.031-.02-.013-.01-.016-.012-.009,0h0l-.025-.016-.039-.026h0l-.025-.016-.023-.016-.067-.044,0,0-.072-.049-.013-.008-.01-.007,0,0-.01-.007h0l-.013-.008-.059-.039-.036-.025-.017-.012-.028-.018,0,0-.041-.026-.012-.008-.087-.057-.024-.016-.015-.01-.01-.007-.005,0-.039-.028-.007,0-.005,0-.006,0-.013-.008-.016-.011-.025-.017-.026-.016-.018-.013,0,0-.008,0-.008-.007,0,0-.006,0-.017-.01-.01-.007,0,0-.023-.015,0,0-.013-.008-.009-.005-.146-.1-.01-.008-.036-.023-.01-.007-.009-.007-.018-.011,0,0-.017-.01-.046-.031v0l-.018-.011v0l-.028-.018-.007,0-.01-.007h0l-.141-.094-.062-.043-.008-.005,0,0-.008-.007-.008,0-.02-.013v0l-.01-.007-.041-.028-.01-.007-.028-.018-.023-.015,0,0-.021-.013,0,0-.007,0-.018-.013-.033-.021-.006,0,0,0-.005,0-.209-.14-.011-.008-.014-.01-.018-.011-.035-.023-.008,0-.022-.015h0l-.018-.012-.023-.016,0,0-.021-.013-.005,0,0,0-.027-.018,0,0-.01-.007h0l-.076-.051-.013-.008,0,0,0,0-.008-.007h0l-.023-.016-.035-.023-.006,0-.007,0v0l-.008,0-.005,0-.007-.005-.01-.007-.011-.008,0,0-.008,0,0,0-.046-.031-.012-.008-.01-.007-.008,0,0,0-.005,0,0,0-.089-.061-.008-.005-.009,0-.008-.007,0,0-.02-.013-.011-.008-.015-.008v0l-.008-.007-.01,0,0,0-.031-.021,0,0,0,0-.005,0-.028-.02-.016-.012-.026-.016v0l-.033-.021,0,0-.008,0h0l-.015-.011-.013-.008,0,0-.013-.008,0,0-.007,0,0,0-.005,0,0,0-.007,0v0l-.039-.025,0,0-.033-.021-.007,0-.018-.012-.008-.007,0,0-.005,0h0l-.007,0-.006-.005,0,0-.005,0-.041-.028,0,0-.033-.021h0l-.031-.021h0l0,0,0,0-.015-.01h0l0,0h0l0,0,0,0-.007,0-.007,0h0l0,0h0l-.013-.008v0l0,0-.015-.01h0l-.015-.01,0,0-.024-.016,0,0-.028-.02h0l-.006,0,0,0,0,0h0v0h0l0,0v0h0l-4.293,2.97h-155.7c-.136,0-.272,0-.407-.007l-.136-.007a10.965,10.965,0,0,1-7.422-3.467l-.024-.025h0l-.012-.012v0l-.011-.012,0,0-.01-.012v0l-.01-.01v0l-.01-.01,0,0-.008-.008,0,0-.008-.01,0,0-.008-.01-.005,0-.007-.008,0-.005-.007-.008-.005,0-.006-.007-.006-.007-.005-.007-.007-.006,0-.007-.007-.007,0,0-.006-.008-.005-.005-.008-.008,0,0-.009-.008,0,0-.008-.008,0-.005-.008-.008,0,0-.008-.01,0,0-.008-.01,0,0-.01-.01,0,0-.01-.01,0,0-.01-.01v0l-.01-.011,0,0-.01-.011,0,0-.01-.013h0l-.012-.013h0a11.792,11.792,0,0,1-.989-1.312h0l-.01-.015h0l-.009-.015h0l-.008-.013v0l-.01-.013v0l-.008-.013,0,0-.008-.013,0,0-.008-.013,0,0-.008-.011v0l-.006-.011,0,0-.008-.012v0l-.008-.011,0,0-.007-.011,0,0-.007-.012v0l-.009-.01v0l-.007-.01,0,0-.007-.01,0,0-.007-.01,0,0-.007-.01,0-.007,0-.01,0,0-.007-.01,0-.005-.006-.01,0,0-.005-.01,0,0-.006-.01,0-.007,0-.008,0-.007-.005-.008,0-.007-.005-.008-.005-.008,0-.008,0-.007,0-.008,0-.007,0-.008,0-.008-.005-.007,0-.008,0-.007,0-.008,0-.007-.007-.01,0-.005,0-.01,0-.007-.007-.008,0-.007,0-.01,0,0-.007-.01v0l-.007-.011,0-.005-.006-.01,0,0-.006-.011,0,0-.007-.012,0,0-.008-.013v0l-.007-.012,0,0-.006-.013,0,0-.008-.013v0l-.008-.015v0l-.008-.013v0l-.007-.015h0l-.008-.015v0l-.008-.015h0l-.009-.015h0l-.008-.016h0l-.01-.015h0a12.319,12.319,0,0,1-1.491-5.914V381.427h0v-.2l0-.008v-.074l0-.011V381.1h0v-.08l0,0v-.01h0v-.034l0,0v-.036l0-.008v-.1l0-.021v-.052l0-.007v-.025l0,0v-.079l0,0v-.021l0,0v-.021h0v-.026l0-.007v-.04l0-.01v-.049l0-.011h0v-.013l0-.008V380.4h0v-.01l0,0v-.021h0v-.013l0-.01v-.011l0,0v-.035l0-.008v0l0-.01v-.026l0-.008v0l0-.033v-.015l0-.01h0v-.021l0,0v-.023l0-.01v-.011l0,0v-.011l0-.021v-.011l0,0v-.011l0-.021v0l0-.008V380l0-.021v-.015l0-.007v-.015h0v-.025l0-.008v-.015l0-.008v-.015l0-.008v-.035l0,0V379.8h0l0-.01v-.025h0l0-.011v-.013l0-.008v0l0-.01v-.013l0-.01v0l0-.01v-.013l0-.01v-.025l0-.023h0l0-.01v0l0-.008v0l0-.023v0l0-.008v-.015l0-.01v0l0-.01h0v-.011l0-.008v-.025l0,0v-.011l0-.01v0l0-.01v-.013l0-.01v-.013l0-.012h0v-.01l0,0v-.011l0-.01v-.015l0-.008v0l0-.01v0l0-.021v0l0-.01v-.013l0-.01v-.013l0-.01v-.013l0-.021,0,0,0-.008v-.013l0-.021,0,0,0-.008v-.013l0-.021v0l0-.01v0l0-.01h0l0-.023v0l0-.008v0l0-.012h0l0-.023h0l0-.01v0l.006-.033v0l0-.01v0l0-.01h0l0-.023v0l0-.008v0l0-.011h0l.005-.021v-.013l.007-.033,0,0v-.011l.005-.021h0l0-.01,0,0v-.01l.005-.021v0l0-.01v0l.01-.043,0,0V378.7l.005-.021v-.011l0,0v-.01h0l.005-.023v0l0-.008v0l0-.008v0l0-.021,0,0v-.011l.008-.031v0l0-.01v-.011h0l.005-.021v0l0-.01v0l.005-.021h0l0-.012v-.01l0,0,0-.008v0l0-.01v0l0-.01v0l0-.008,0,0,0-.021h0v-.01l0,0v-.012l.009-.031v0l0-.01h0l.007-.023h0l0-.01v0l0-.008v0l.007-.021h0l0-.01v0l0-.01v0l.007-.021h0l0-.01v0l.008-.033h0l.011-.044h0l0-.01v0l.01-.033h0c.025-.087.05-.176.077-.263h0l.013-.044h0l.01-.031v0l0-.01h0l.014-.044h0c.031-.1.063-.194.1-.291h0a11.837,11.837,0,0,1,4.343-5.839l.342.486a11.462,11.462,0,0,0-4.761,9.4v36.242a11.792,11.792,0,0,0,.843,4.4,11.332,11.332,0,0,0,2.294,3.589,10.318,10.318,0,0,0,7.535,3.3h155.511l4.141-2.866.332-.23.337.225,4.285,2.871h40.448a10.316,10.316,0,0,0,7.536-3.3,11.272,11.272,0,0,0,2.294-3.589,11.753,11.753,0,0,0,.843-4.4V381.427a11.753,11.753,0,0,0-.843-4.4,11.28,11.28,0,0,0-2.294-3.59,10.321,10.321,0,0,0-7.536-3.295h-41.043l-3.677,2.846-.365.282-.363-.284-3.651-2.845H1318.424v-.595Z" transform="translate(-1307.159 -369.544)" fill="#707070"/>
        </g>
        <g id="_18:00" data-name=" 18:00" transform="translate(57.348 23.054)" style="isolation: isolate">
          <text id="_18:00-2" data-name="18:00" transform="translate(0 4)" fill="#0e3178" font-size="4" font-family="Lato-Heavy, Lato" font-weight="800" style="isolation: isolate"><tspan x="0" y="0">18:00</tspan></text>
        </g>
        <g id="BR092" transform="translate(190.432 31.232)" style="isolation: isolate">
          <text id="_394" data-name="$394" transform="translate(0 3)" fill="#0e3178" font-size="3" font-family="Lato-Heavy, Lato" font-weight="800" style="isolation: isolate"><tspan x="0" y="0">$394</tspan></text>
        </g>
        <g id="_21:00" data-name=" 21:00" transform="translate(135.177 23.054)" style="isolation: isolate">
          <text id="_21:00-2" data-name="21:00" transform="translate(0 4)" fill="#0e3178" font-size="4" font-family="Lato-Heavy, Lato" font-weight="800" style="isolation: isolate"><tspan x="0" y="0">21:00</tspan></text>
        </g>
        <g id="LGW" transform="translate(57.348 37.313)" style="isolation: isolate">
          <text id="LGW-2" data-name="LGW" transform="translate(0 5)" fill="#d0d3dd" font-size="5" font-family="Lato-Heavy, Lato" font-weight="800" style="isolation: isolate"><tspan x="0" y="0">LGW</tspan></text>
        </g>
        <g id="JFK" transform="translate(135.177 37.313)" style="isolation: isolate">
          <text id="JFK-2" data-name="JFK" transform="translate(0 4)" fill="#d0d3dd" font-size="4" font-family="Lato-Heavy, Lato" font-weight="800" style="isolation: isolate"><tspan x="0" y="0">JFK</tspan></text>
        </g>
        <g id="Group_101-2" data-name="Group 101-2" transform="translate(85.866 32.612)">
          <line id="Line_10-2" data-name="Line 10-2" x2="41.589" transform="translate(1.485 2.376)" fill="none" stroke="#d0d3dd" stroke-width="0.5"/>
          <path id="Path-2" d="M1382.025,390.916l2.275-2.276-2.275-2.275" transform="translate(-1341.362 -386.365)" fill="none" stroke="#d0d3dd" stroke-width="0.5"/>
          <circle id="Ellipse_10-2" data-name="Ellipse 10-2" cx="1.782" cy="1.782" r="1.782" transform="translate(0 0.594)" fill="#fff" stroke="#d0d3dd" stroke-width="1.5"/>
        </g>
        <line id="Line_11-2" data-name="Line 11-2" y2="51.689" transform="translate(174.526 9.441)" fill="none" stroke="#7b7b7b" stroke-linecap="round" stroke-width="1" stroke-dasharray="4"/>
        <g id="FlylineSVG_Logotype-2" data-name="FlylineSVG Logotype-2" transform="translate(10.411 25.184)">
          <path id="Path_142-2" data-name="Path 142-2" d="M1311.327,383.8a3.45,3.45,0,0,0,3.62,3.25h6.107v1.509h-6.274v1.352a3.349,3.349,0,0,0,3.513,3.157h2.761v3.5a3.416,3.416,0,0,0,3.584,3.217h3.089V381.842h-16.4Z" transform="translate(-1311.327 -381.842)" fill="#0e3178"/>
          <path id="Path_143-2" data-name="Path 143-2" d="M1334.143,397.308h-5.5v-9.515a3.222,3.222,0,0,0-3.222-3.219h-2.779v17.935H1337.4v-1.95A3.255,3.255,0,0,0,1334.143,397.308Z" transform="translate(-1304.055 -380.087)" fill="#00aeef"/>
        </g>
      </g>
      <g id="Group_102" data-name="Group 102" transform="translate(196.156 331.377) rotate(-17)">
        <g id="Group_1648" data-name="Group 1648" transform="translate(0 0)">
          <path id="Path_317-4" data-name="Path 317-4" d="M23.729.094,229.074,25.218l4.472,5.031,5.586-3.8,54.24,6.635c8.181,1,13.847,9.723,12.654,19.481l-6.593,53.887c-1.194,9.758-8.8,16.856-16.978,15.856l-53.427-6.537-5.292-5.131-6.186,3.727L12.814,89.318c-8.183-1-13.848-9.723-12.655-19.481L6.753,15.95C7.947,6.192,15.546-.906,23.729.094Z" fill="#cfd3f1" opacity="0.5" style="isolation: isolate"/>
        </g>
        <g id="Path_316-3" data-name="Path 316-3" transform="translate(5.057 6.848)">
          <path id="Path_367" data-name="Path 367" d="M21.995.1,221.1,24.465l4.4,4.382,5.356-3.19,52.593,6.435c7.933.971,13.535,8.541,12.512,16.907L290.3,95.21c-1.025,8.368-8.286,14.363-16.221,13.393l-51.8-6.338-5.192-4.479-5.935,3.117L12.633,76.614C4.7,75.644-.9,68.074.121,59.706L5.774,13.5C6.8,5.129,14.06-.868,21.995.1Z" transform="translate(0 0)" fill="#fff"/>
          <path id="Path_368" data-name="Path 368" d="M21.993,0l78.029,9.548L221.1,24.362h0l.188.187h0l.5.5h0l.7.7h0l.809.8h0l.807.8h0l.7.7h0l.5.5h0l.189.189h0l0,0,0,0h0v0l.008,0v0h0v0h0l0,0h0l.006,0,.006,0,.008,0h0l.005,0h0l0,0,.007,0,0,0,0,0,0,0h0l0,0h0l0,0,.019-.011.005,0,0,0,0,0,.008,0,0,0,0,0,.008,0,0,0h0l.032-.02.006,0v0l.042-.025,0,0,.008,0h0l.064-.038.013-.008.026-.015,0,0,.016-.008v0l.015-.008,0,0,.033-.02.006,0,.005,0,.006,0,.018-.013.028-.015.008-.005v0l.008,0,.031-.018,0,0,.008,0,0,0,.015-.01,0,0,.035-.02.031-.02.005,0,.029-.018v0l.041-.025.038-.021.011-.008.015-.008.067-.039.023-.013,0,0,.027-.015v0l.063-.036.052-.031,0,0,.008,0,.017-.01.054-.031.022-.013.015-.008.012-.008.006,0,.03-.018.01-.007.008,0,.008,0,.008,0,.006,0v0l.014-.008.039-.023.014-.008,0,0,.012-.007.075-.044.017-.01.012-.007.021-.013.01-.007.008,0,.018-.01h0l.009,0,.012-.007,0,0,.011-.007.045-.026.121-.072.007,0,.013-.008.016-.01h0l.015-.01.008,0,.025-.015.062-.036,0,0,.153-.09.01-.007.049-.03.008,0,.01,0,0,0,.1-.061.04-.025,0,0,.008,0,.008,0,.006,0,.018-.012.012-.007.028-.016.011-.007.018-.011.045-.026.107-.064h0l.01-.007.008,0,.021-.011.011-.008.087-.053h0l.026-.016.011-.007.02-.011.087-.053.007,0,.008-.007.013-.007.008,0,.037-.021,0,0,.019-.012,0,0,.107-.062.015-.01.005,0,.019-.013.014-.007.01-.007.015-.008.023-.015.007,0,.01,0,.005,0,.008,0,.007,0,.084-.051.016-.01.063-.038.01,0,0,0,.056-.033,0,0,.121-.072.012-.007.01-.007h0l.146-.087.025-.015,0,0,.008,0,.005,0,.028-.018.013-.007.013-.008.011-.008.041-.023.008,0,.071-.043.054-.031.082-.049,0,0,.007,0,.023-.015.034-.02.01-.007.015-.008.015-.008.009-.007.028-.016,0,0,.009-.007.005,0,.012-.008.016-.008,0,0,.216-.128.005,0,.06-.036,0,0,0,0,.012-.007.03-.018.008,0,.008,0,.008,0,.008-.007.008,0h0l.01,0,0,0,0,0,.012-.007.008,0,.068-.041.016-.008.006,0,0,0,.017-.01.008,0,.006,0h0l.02-.011.006,0,.017-.01.015-.01.115-.067,0,0,.005,0,.006,0h0l.008,0v0l.017-.01v0l.031-.018.006,0,.007,0,0,0v0l0,0,.048-.03,0,0,.013-.008h0l.042-.026h0l.043-.025.011-.008.006,0h0l.014-.008,0,0v0l.023-.013.008,0,.005,0,.005,0v0l.005,0,.015-.01,0,0h0l.013-.008.01,0,.008,0,0,0,.019-.013.009,0h0l0,0,.008-.007h0l.005,0,0,0,0,0h0l.007,0h0l.005,0,0,0h0l0,0v0l0,0h0l0,0h0v0l0,0,0,0h0v0l0,0,0,0h0l0,0,0,0h0v0h0v0h0l52.591,6.435.012,0c.121.015.241.031.361.049q.306.044.6.1l.037.007a14.189,14.189,0,0,1,9.227,6.432h0l.013.018v0l.011.018h0l.011.018v0l.012.018,0,0,.01.016,0,0,.01.018,0,0,.01.016,0,0,.01.016v0l.01.015v0l.01.016,0,0,.009.015v0l.01.015,0,.005.008.013,0,0,.008.015,0,0,.008.013,0,.007.008.013,0,.007.008.013,0,.007.008.011,0,.008.008.011,0,.008.006.011,0,.007.007.012.005.008.006.012,0,.008.007.011.005.008.006.01,0,.01.007.01.005.01,0,.01.007.01,0,.01.007.01,0,.008.007.011.005.008.006.012,0,.008.007.011.005.008,0,.01,0,.01.007.01,0,.008.007.011,0,.008.006.011,0,.008.006.013.005.007.006.011.005.008.006.013,0,0,.008.015,0,0,.006.015,0,0,.008.015,0,0,.008.015,0,0,.008.015,0,0,.008.015,0,0,.008.015,0,.005.008.015,0,0,.008.015,0,0,.008.016,0,0,.008.016v0l.009.016v0l.01.016v0l.008.016,0,0,.009.016,0,0,.008.016,0,0,.008.018v0l.01.018v0l.008.018,0,0,.009.02h0l.01.018v0l.008.018,0,0,.009.018v0l.01.018v0l.009.018,0,0,.009.018v0l.009.018v0l.01.018v0l.01.018,0,0,.008.018,0,0,.008.018v0l.008.02h0l.01.02v0l.01.018v0l.01.02h0l.009.02v0l.01.02h0l.01.02h0l.009.02h0l.01.021h0l.029.061h0l.01.02v0l.02.039h0l.028.062h0l.01.02v0l.009.018v0l.008.02h0l.009.021h0l.009.02h0l.01.021h0l.008.02v0l.01.02h0l.009.02v0l.008.02h0l.008.02v0l.01.02v0l.008.018v0l.01.02v0l.008.02v0l.008.018v0l.008.02,0,0,.008.02h0l.008.021h0l.008.02v0l.008.02,0,0,.008.018v0l.008.02v0l.006.02,0,0,.008.02h0l.008.02,0,0,.008.02v0l.008.02v0l.008.018,0,0,.006.018,0,0,.008.02v0l.008.02,0,0,.006.018v0l.007.018v0l.009.018v0l.008.018v0l.008.018v0l.007.018v0l.007.018v0l.007.018v0l.006.018,0,0,.007.018v0l.008.018v0l.008.018v0l.008.016v0l.008.016v0l.008.016v0l.006.016,0,0,.007.016,0,0,.006.017,0,0,.007.016,0,0,.006.016v0l.006.016,0,0,.007.016v0l.006.016,0,0,0,.016,0,0,.005.016v0l.006.016,0,0,.006.016,0,0,.006.017v0l.005.016,0,0,0,.016,0,.007.007.015v.007l.005.015,0,.007,0,.015,0,.007,0,.015,0,.007.005.015,0,.007.005.015,0,.007,0,.015,0,.008.005.013,0,.008.005.013,0,.008,0,.015,0,.007.005.015,0,.007,0,.015,0,.008,0,.013,0,.008.005.013,0,.008,0,.013,0,.008,0,.013,0,.01.005.013,0,.008,0,.013,0,.008,0,.013,0,.008.005.015,0,.007,0,.015,0,.008.005.013v.008l.005.013,0,.008,0,.015,0,.008,0,.013,0,.008,0,.013,0,.008,0,.013,0,.01,0,.013,0,.008,0,.013,0,.008,0,.013,0,.01,0,.013,0,.008,0,.013,0,.01.005.011,0,.01,0,.011,0,.01,0,.013,0,.01,0,.011,0,.01,0,.012,0,.011,0,.011,0,.01,0,.011,0,.012,0,.012,0,.01,0,.011,0,.01,0,.013,0,.01.005.011v.01l0,.013,0,.008,0,.013,0,.01,0,.013,0,.008,0,.013,0,.01,0,.013,0,.008,0,.013,0,.01,0,.013,0,.008,0,.013,0,.01,0,.013,0,.008,0,.013,0,.01,0,.013,0,.008,0,.013,0,.01.005.013v.008l0,.015,0,.008,0,.013v.008l.005.015v.008l0,.013v.008l.005.015v.008l0,.015,0,.007,0,.015,0,.008,0,.015V43l.005.017,0,.007,0,.015v.008l.005.015v.007l0,.016v.007l.005.015,0,.008,0,.015v.008l0,.013,0,.008,0,.015,0,.008,0,.015,0,.007,0,.016v.007l.005.015,0,.008,0,.015v.007l0,.016v.007l0,.016,0,.007.005.015v.007l0,.016,0,.007,0,.016,0,.007,0,.016V43.4l0,.015,0,.007,0,.016,0,.007,0,.017v.007l.005.016v0l.005.018v0l.005.016v.007l.005.016v.007l0,.016v.007l.005.016v0l0,.018v0l.005.018v0l0,.018,0,0,0,.016V43.7l0,.016v0l0,.018,0,0,0,.018,0,0,0,.018v0l0,.018v0l0,.018v0l0,.016,0,.007,0,.016v.006l0,.017,0,.007,0,.016,0,.007,0,.016v0l0,.018v0l0,.018v0l0,.018v0l0,.018,0,0,0,.018v0l0,.016,0,.007,0,.016,0,.007v.023l0,.018,0,0,0,.018v0l0,.018v0l0,.018v0l0,.018v.005l0,.018,0,0,0,.018v0l0,.018v0l0,.018,0,0,0,.018v0l0,.018v0l0,.018,0,.005,0,.018v0l0,.018v0l0,.018v0l0,.018v0l0,.018v0l0,.018v0l0,.018,0,0v.018l0,.007,0,.018v0l0,.018v0l0,.018v0l0,.018v0l0,.018v0l0,.018v.007l0,.016v.007l0,.016V44.8l0,.007,0,.018v0l0,.018,0,0,0,.018v0l0,.02v0l0,.02v0l0,.02v0l0,.018v0l0,.018v0l0,.02v0l0,.02v0l0,.018v0l0,.018v0l0,.018v0l0,.02v0l0,.02v0l0,.02v0l0,.02v0l0,.02v0l0,.02v0l0,.018v0l0,.02v0l0,.02v0l0,.018v.025l0,0,0,.02v.028l0,.018v.028l0,.02v0l0,.018,0,0v.023l0,.02v.048l0,0,0,.02v0l0,.02v.026l0,.02v.053l0,.02v0l0,.02v.025l0,0v.02l0,0v.048l0,.02v.028l0,.02v0l0,.018V46l0,.018V46.1l0,.02v.023l0,0v.067l0,0v.071l0,.02v.025l0,0v.092l0,0v.12l0,.02v.053l0,.02v.075l0,.02V47.1l0,.023v.1l0,.021v.051l0,.021v.1l0,.021v.076l0,.021v.026l0,.021v.051l0,.023V47.7l0,.023v0l0,.023v.025h0V47.8h0v.025l0,.023v.025h0l0,.025h0l0,.025h0v.049l0,.023h0v.025h0l0,.025h0l0,.023v.025l0,0,0,.023v.025h0v.025h0l0,.025h0v.025h0l0,.023v0l0,.023h0v.025h0v.025h0l0,.025h0l0,.025h0l0,.023v0l0,.023v0l0,.023v0l0,.023h0l0,.025h0l0,.025h0v.025h0v.025h0l0,.025h0V48.6l0,.023h0v.025h0l0,.025h0V48.7h0l0,.025h0l0,.025h0v.025h0l0,.025h0l0,.025h0l0,.025h0l0,.023h0l0,.025h0L290.3,95.107a16.015,16.015,0,0,1-1.339,4.745h0l-.01.021h0l-.01.021h0l-.009.021h0l-.01.021h0l-.009.021h0l-.01.02v0l-.009.02v0l-.01.02h0l-.01.02v0l-.009.02v0l-.01.02,0,0-.008.02h0l-.008.021h0l-.009.02v0l-.01.02v0l-.009.018,0,0-.008.018,0,0-.009.016v0l-.008.018v0l-.01.018,0,0-.008.016,0,0-.008.018v0l-.008.016,0,0-.008.016,0,0-.008.015,0,0-.008.016,0,0-.008.015v0l-.008.016,0,0-.008.016,0,0-.008.016,0,0-.008.015,0,.007-.008.015,0,.006-.007.013,0,.007-.009.015,0,0-.007.015,0,.007-.008.013,0,.008-.006.013,0,.007-.008.013,0,.007-.007.015,0,.007-.008.013,0,.007-.008.015,0,.007-.006.013,0,.007-.008.013,0,.007-.006.015-.005.007-.006.013,0,.007-.008.013,0,.008-.008.013,0,.007-.006.013-.005.007-.006.013,0,.008-.008.012,0,.008-.006.013,0,.007-.007.013-.005.008-.006.011,0,.008-.007.011-.005.008-.006.013-.005.007-.006.013,0,.008-.008.011,0,.008-.007.011,0,.008-.007.011,0,.008-.007.011,0,.01-.007.011,0,.008-.007.012,0,.008-.007.012,0,.008-.007.012,0,.008-.006.011-.005.008-.007.011,0,.008-.006.011-.005.01-.007.01-.006.01-.005.01-.006.01-.005.01-.006.01-.006.01-.005.01-.006.01-.005.01-.006.01-.005.01-.006.01-.005.01-.006.01-.005.01-.008.01-.005.008-.006.011-.005.008-.006.011-.005.008-.006.011-.005.008-.008.012,0,.008-.007.012,0,.008-.007.011,0,.008-.008.011,0,.008-.009.011,0,.007-.007.013,0,.007-.008.013,0,.007-.008.013-.005.007-.006.011-.005.008-.008.012,0,.008-.007.011-.005.007-.008.013-.005.007-.006.012-.005.008-.008.011,0,.008-.008.011,0,.007-.008.013,0,.007-.008.013-.005.007-.008.011-.005.007-.006.013-.005.007-.008.013-.005.007-.008.012,0,.007-.008.013,0,.007-.008.013,0,.007-.01.012,0,.007-.008.013-.005.007-.008.013,0,0-.01.013,0,.007-.008.013,0,0-.008.015,0,0-.01.013,0,0-.01.015,0,0-.01.013,0,0-.008.015,0,0-.01.013,0,0-.01.015,0,0-.009.013,0,0-.01.015,0,0-.01.015v0l-.012.015v0l-.012.015,0,0-.012.016v0l-.01.015,0,0-.01.015,0,0-.009.016,0,0-.01.015,0,0-.009.015,0,0-.01.015,0,0-.01.015,0,0-.011.016,0,0-.012.016v0l-.012.016,0,0-.012.015,0,0-.012.016v0l-.012.016,0,0-.012.016,0,0-.012.016,0,0-.013.016v0l-.014.016v0l-.012.016,0,0-.012.016v0l-.012.016,0,0-.013.017v0l-.013.018h0l-.011.018,0,0-.011.016,0,0-.013.016v0l-.013.016,0,0-.012.016v0l-.014.016v0l-.013.016h0l-.014.018h0l-.013.018v0l-.013.017v0l-.014.016v0l-.013.016,0,0-.012.015,0,0-.013.015,0,0-.013.018h0l-.013.017v0l-.015.016v0l-.013.016,0,0-.013.016h0l-.013.018h0l-.015.018h0l-.013.018h0l-.013.016h0l-.015.018h0l-.014.018h0l-.013.016v0l-.013.016,0,0-.043.051v0l-.027.034h0l-.015.016h0l-.042.053h0l-.015.018h0l-.015.016h0l-.014.018h0l-.013.016,0,0-.013.016h0l-.013.016v0l-.015.016h0l-.014.016v0l-.015.016h0l-.014.016v0l-.013.015,0,0-.013.016,0,0-.013.015,0,0-.013.016h0l-.013.016,0,0-.013.015,0,0-.013.016,0,0-.013.015,0,0-.014.015v0l-.013.016h0l-.014.016v0l-.013.015,0,0-.012.015,0,0-.012.013,0,0-.012.013,0,0-.013.015v0l-.013.015,0,0-.013.013,0,0-.012.013,0,0-.011.013,0,0-.012.013,0,0-.013.013,0,0-.012.013,0,0-.011.013,0,0-.012.013-.005,0-.011.013,0,0-.012.013,0,0-.012.013-.005,0-.009.013,0,0-.012.011-.005,0-.01.01-.005.007-.009.01-.006.007-.008.01-.006.007-.01.01,0,.007-.01.01-.006.007-.008.01-.008.007-.008.008-.006.008-.008.008-.007.008-.009.008-.007.008-.008.008-.008.008-.007.008-.008.008-.008.008-.008.008-.007.007-.008.008-.008.008-.008.008-.006.008-.01.008-.006.008-.008.008-.006.007-.009.01-.007.007-.008.01-.006.007-.01.008-.007.007-.01.01,0,.007-.012.01-.006,0-.009.011-.005,0-.012.011,0,0-.012.012-.005,0-.012.012,0,0-.014.013,0,0-.012.013,0,0-.013.013,0,0-.013.013,0,0-.013.013v0l-.015.013v0l-.015.015,0,0-.015.013v0l-.016.015h0l-.015.015v0l-.015.015h0l-.016.016h0a15.129,15.129,0,0,1-2.045,1.641,13.965,13.965,0,0,1-9.483,2.288l-51.8-6.338h0l0,0h0l-.029-.025h0l-.007-.007h0v0l0,0,0,0,0,0-.005,0v0l0,0,0,0-.005-.005v0l0,0v0l0,0-.006,0-.039-.035-.006-.007-.059-.049v0l-.009-.007,0,0,0,0,0,0-.015-.013,0,0-.006-.007-.008-.007-.01-.008,0,0-.007-.007-.028-.023-.038-.033-.028-.023-.054-.048-.007-.007-.024-.021-.017-.013-.008-.008-.01-.008-.005,0-.006-.007h0l-.008-.007,0,0-.006,0,0,0-.039-.034-.01-.008,0,0-.008-.008-.02-.016-.029-.026-.008-.007-.009-.007-.029-.026-.016-.015,0,0-.029-.026-.012-.01h0l-.014-.011,0,0-.012-.011-.015-.011h0l-.045-.039-.019-.016-.006,0-.006-.007-.008-.007-.015-.013-.036-.03-.005,0-.02-.018,0,0-.049-.043-.011-.01-.012-.012-.007,0-.021-.018-.01-.008-.008-.008,0,0-.033-.028-.025-.021-.018-.016-.008-.008-.064-.054-.006-.007-.038-.031-.017-.015-.019-.016-.008-.007v0l-.028-.025-.045-.038v0l-.029-.025-.028-.023-.079-.069,0,0-.085-.072-.014-.013-.011-.01,0,0-.009-.008h0l-.015-.013-.07-.059-.042-.036-.019-.018-.034-.028-.007-.007-.047-.039-.013-.013-.1-.087-.028-.025-.018-.016-.012-.01,0,0-.048-.041-.007,0-.006-.007-.008-.007-.015-.013-.018-.016-.03-.025-.031-.026-.022-.02,0,0-.009-.008-.01-.008,0,0-.008-.008L220,100.2l-.012-.01-.006-.007-.028-.023,0,0-.017-.013-.009-.008-.169-.146-.011-.011-.043-.036-.011-.01-.01-.01-.02-.016,0,0-.02-.015-.052-.048,0,0-.022-.018v0l-.035-.028-.006-.007-.012-.01h0l-.164-.143-.072-.062-.01-.01,0,0-.01-.008-.009-.008-.023-.021,0,0-.012-.01-.048-.041-.012-.01-.033-.028-.026-.023,0,0-.023-.02-.008-.007-.007,0-.021-.02-.038-.033-.008-.007,0,0-.006-.007-.245-.21-.013-.011-.018-.015-.02-.016-.041-.036L218.616,99l-.026-.021h0l-.02-.018-.028-.023,0,0-.023-.02-.006,0,0,0-.031-.026-.005,0-.011-.01h0l-.089-.077-.017-.013-.005,0,0,0-.012-.008,0,0-.026-.023-.041-.034-.006-.007-.01-.008v0l-.01-.008-.006,0-.007-.007-.011-.008-.015-.015,0,0-.009-.008-.005,0-.054-.046-.014-.011-.011-.01-.01-.008,0,0-.006-.007,0,0-.1-.09-.01-.008-.008-.007-.009-.008-.007-.007-.022-.02-.015-.011-.016-.015,0,0-.009-.008-.012-.01,0,0-.036-.031,0,0,0,0-.005,0-.033-.028-.019-.018-.031-.026h0l-.038-.033,0,0-.009-.008h0l-.018-.015-.015-.013,0,0-.015-.013-.005,0-.005,0-.006,0,0,0-.005,0-.006-.007,0,0-.044-.038,0,0-.039-.034-.007,0-.023-.02-.01-.008,0,0-.007,0h0l-.006-.007-.008-.007-.006,0-.005,0-.047-.041-.005,0-.038-.033,0,0-.038-.031h0l0,0,0,0-.017-.015h0l0,0,0,0-.005,0,0,0-.008-.008-.01-.008h0l-.005,0h0l-.015-.013,0,0,0,0-.016-.015h0l-.018-.016,0,0-.028-.025,0,0-.032-.03h0l-.008-.008v0l0,0h0v0h0v0l0,0h0v0h0l-5.937,3.117h0L12.633,76.511c-.174-.021-.348-.046-.519-.074-.057-.008-.117-.018-.172-.028A14.1,14.1,0,0,1,3.018,70.83L2.992,70.8v0l-.013-.016,0,0-.012-.016,0,0-.011-.016,0,0-.011-.015,0,0-.01-.015,0,0-.01-.013,0,0-.01-.013,0,0-.009-.012-.005-.007-.008-.011-.005-.008-.006-.01-.007-.008-.006-.01-.007-.008-.007-.01-.006-.01-.005-.008-.008-.01,0-.008-.009-.01,0-.008-.009-.012,0-.007L2.778,70.5l0-.007-.008-.011,0-.007-.008-.011-.005-.007-.008-.013,0,0-.01-.013,0,0-.01-.015,0,0L2.7,70.387l0,0-.011-.015v0l-.011-.016,0,0-.011-.016,0,0-.011-.016v0l-.014-.018h0a15.219,15.219,0,0,1-1.054-1.828h0l-.009-.02h0l-.01-.02v0l-.01-.018v0l-.01-.02v0l-.01-.018,0,0-.008-.018v0l-.009-.018v0L1.505,68.3l0,0L1.5,68.285l0,0-.009-.016v0l-.009-.016,0,0-.008-.015,0,0L1.457,68.2l0,0-.007-.015,0,0-.006-.016,0,0-.006-.015,0-.007-.007-.013,0-.007L1.41,68.1l0-.007L1.4,68.081l0-.008,0-.013,0-.007-.006-.013,0-.008-.006-.013,0-.008L1.364,68l0-.008-.005-.013,0-.008-.005-.011,0-.01,0-.011-.005-.008,0-.011,0-.01,0-.011,0-.01,0-.01,0-.011-.005-.01-.005-.011,0-.008-.007-.012,0-.01L1.277,67.8l0-.008-.006-.013,0-.008,0-.013,0-.008-.006-.013,0-.007-.006-.015,0-.007L1.232,67.7l0-.007-.006-.015,0-.007-.006-.015,0,0L1.2,67.632l0,0L1.2,67.611l0,0-.006-.016,0,0-.008-.018,0,0-.006-.018,0,0-.007-.02,0,0-.009-.02v0l-.008-.02v0l-.008-.018,0,0-.006-.018,0,0-.008-.02v0l-.008-.02v0l-.008-.02h0a15.576,15.576,0,0,1-.573-1.739A15.95,15.95,0,0,1,.121,59.6L5.774,13.394h0l0-.015,0,0,0-.01v0l0-.011v0l0-.015v-.018l0-.01,0,0v-.01l0,0,0-.015v0l0-.01v0l0-.01v-.015l0,0,0-.013v0l0-.011v0l0-.008v-.007l0-.008,0,0v-.018l0-.01v0l0-.01v0l0-.011v0l0-.015v0l0-.01,0,0v-.01l0,0,0-.012v0l0-.015,0,0,0-.011v0l0-.01v0l0-.013h0l0-.015v-.015l0,0v-.01l0,0v-.015l0-.013,0,0,0-.008v-.007l0-.008v0l0-.013h0l0-.015,0,0v-.01l0,0,0-.011v0l.005-.028v-.015l0,0,0-.012v0l.005-.028v0l0-.01v0l0-.01v0l0-.013v0l0-.01,0-.007,0-.008V12.63L5.89,12.6l0,0,0-.01v0l0-.01,0,0v-.013l0,0,0-.01v0l0-.008,0-.007v-.013l0-.013v0l0-.008,0-.007,0-.008v0l0-.01,0,0,0-.013v0l0-.01,0,0v-.01l0,0v-.008l0,0,0-.013,0,0,0-.008v-.007l0-.008,0,0V12.33h0l0-.015,0,0,0-.008v0l0-.01,0,0,0-.028v0l0-.011v0l0-.011v0l0-.028,0,0,0-.01v0l0-.01v0l0-.015h0l0-.013v0l0-.011,0,0v-.011l0,0,0-.013h0l0-.013v0l0-.01v0l0-.011v0l0-.013v0l0-.013v0l0-.01v0l0-.012,0,0,0-.013,0,0,0-.013,0,0,0-.01,0,0,0-.011v0l0-.015v0l0-.011,0,0,0-.011v0l.01-.041v0l0-.01v0l0-.013h0l0-.015v0l0-.012v0l0-.01v-.005l0-.013h0l0-.013,0,0,0-.01,0,0,0-.01,0,0,.006-.026v0l0-.011v0l0-.01v0l.007-.026,0,0V11.6l0,0,0-.01,0,0,.006-.026v0l0-.01v0l0-.01v0l0-.013v0l0-.013,0,0,0-.01,0,0,0-.008,0,0,0-.013v0l0-.01,0,0,0-.01,0,0,0-.01v0l0-.013v0l0-.011v0l0-.01,0,0,0-.01,0,0,0-.013v0l0-.011,0,0,0-.01,0,0,0-.013h0l0-.015v0l0-.011,0,0,0-.012v0l0-.011v0l0-.013,0,0,0-.011v0l0-.011v0l0-.013h0l0-.015v0l0-.011,0,0,0-.011,0,0,.006-.028,0,0,0-.011v0l0-.011v0l.008-.028v0l0-.01,0,0,0-.01v0l0-.013,0,0,0-.011v0l0-.01,0,0,0-.01v0l0-.013h0l.005-.015v0l0-.012,0,0,0-.012v0l0-.013,0,0,0-.013v0l0-.011,0,0,0-.011v0l0-.013v0l0-.013v0l0-.011v0l0-.011v0l.005-.013v0l0-.011,0,0,0-.011v0l.008-.026v0l.005-.011v0l0-.011,0,0,0-.011v0l.005-.013v0l0-.011,0,0,0-.01v0l.008-.028,0,0,0-.012v0l0-.01,0,0,.008-.026,0,0,0-.012v0l0-.011v0l.008-.028v0l0-.013v0l0-.011,0,0,.008-.028v0l0-.012h0l0-.013h0l.009-.03h0l0-.013h0l.014-.043,0,0,0-.012,0,0,0-.013h0l.01-.028v0l0-.01,0,0,0-.013h0L6.5,10.2l0,0,0-.012v0l.015-.041v0l0-.011v0l.01-.028h0l0-.011,0,0,0-.01,0,0,.01-.028h0l0-.013,0,0,.018-.054,0,0,0-.013h0l.009-.028v0l0-.011,0,0,0-.011h0l.01-.028v0l0-.01,0,0,.005-.01v0l.01-.028v0l0-.01,0,0,.013-.041,0,0,0-.01,0,0,.005-.013h0l.01-.026v0l.005-.01v0l.01-.026h0l0-.013v0l0-.011,0,0,0-.011h0l.005-.015h0l0-.013,0,0,0-.01,0,0,.009-.026v0l0-.011,0,0,0-.011,0,0,.015-.041h0l.006-.013v0l.009-.026h0l.005-.013v0l0-.011,0,0L6.794,9.4h0L6.8,9.383h0l0-.013v0l.011-.026h0l.005-.013v0l.016-.039h0l.023-.054v0l0-.012v0l.018-.039v0c.044-.108.091-.215.138-.322v0L7.045,8.8h0l.018-.041h0l0-.013h0L7.092,8.7h0c.054-.12.11-.24.168-.356h0a15.207,15.207,0,0,1,6.448-6.767l.361.672A14.727,14.727,0,0,0,6.532,13.486L.878,59.7a15.142,15.142,0,0,0,.388,5.747,14.544,14.544,0,0,0,2.365,4.934,13.263,13.263,0,0,0,9.094,5.377l198.283,24.259,5.725-3.007.462-.241.392.34,5.017,4.328,51.574,6.31a13.258,13.258,0,0,0,10.122-3.026,14.566,14.566,0,0,0,3.486-4.219,15.127,15.127,0,0,0,1.76-5.482l5.654-46.21a15.136,15.136,0,0,0-.386-5.747,14.528,14.528,0,0,0-2.367-4.934,13.251,13.251,0,0,0-9.095-5.377l-52.331-6.4L225.889,29.4l-.51.3-.42-.419-4.212-4.2L99.928,10.3,21.9.759,21.993,0Z" transform="translate(0 0.103)" fill="#707070"/>
        </g>
        <g id="_18:00-2-2" data-name=" 18:00-2" transform="translate(76.931 37.866)" style="isolation: isolate">
          <text id="_18:00-3" data-name="18:00" transform="translate(0.364 7.941) rotate(6.976)" fill="#0e3178" font-size="8" font-family="Lato-Heavy, Lato" font-weight="800" style="isolation: isolate"><tspan x="0" y="0">18:00</tspan></text>
        </g>
        <g id="EK679" transform="translate(242.621 66.989)" style="isolation: isolate">
          <text id="_325" data-name="$325" transform="translate(0.4 10.919) rotate(6.976)" fill="#0e3178" font-size="11" font-family="Lato-Heavy, Lato" font-weight="800" style="isolation: isolate"><tspan x="0" y="0">$325</tspan></text>
        </g>
        <g id="_21:00-2-2" data-name=" 21:00-2" transform="translate(176.165 50.008)" style="isolation: isolate">
          <text id="_21:00-3" data-name="21:00" transform="translate(0.364 7.941) rotate(6.976)" fill="#0e3178" font-size="8" font-family="Lato-Heavy, Lato" font-weight="800" style="isolation: isolate"><tspan x="0" y="0">21:00</tspan></text>
        </g>
        <g id="LGW-2-2" data-name="LGW-2" transform="translate(74.706 56.049)" style="isolation: isolate">
          <text id="LGW-3" data-name="LGW" transform="translate(0.364 7.941) rotate(6.976)" fill="#d0d3dd" font-size="8" font-family="Lato-Heavy, Lato" font-weight="800" style="isolation: isolate"><tspan x="0" y="0">LGW</tspan></text>
        </g>
        <g id="JFK-2-2" data-name="JFK-2" transform="translate(173.94 68.191)" style="isolation: isolate">
          <text id="JFK-3" data-name="JFK" transform="translate(0.364 7.941) rotate(6.976)" fill="#d0d3dd" font-size="8" font-family="Lato-Heavy, Lato" font-weight="800" style="isolation: isolate"><tspan x="0" y="0">JFK</tspan></text>
        </g>
        <g id="Group_101-3" data-name="Group 101-3" transform="translate(112.925 54.277)">
          <line id="Line_10-3" data-name="Line 10-3" x2="53.027" y2="6.488" transform="translate(1.911 2.243)" fill="none" stroke="#d0d3dd" stroke-width="0.5"/>
          <path id="Path-3" d="M0,5.8,3.257,3.257.71,0" transform="translate(51.524 5.324)" fill="none" stroke="#d0d3dd" stroke-linecap="round" stroke-linejoin="round" stroke-width="0.5"/>
          <circle id="Ellipse_10-3" data-name="Ellipse 10-3" cx="2.29" cy="2.29" r="2.29" fill="#fff" stroke="#d0d3dd" stroke-width="0.5"/>
        </g>
        <line id="Line_11-3" data-name="Line 11-3" x1="8.064" y2="65.905" transform="translate(221.909 37.546)" fill="none" stroke="#7b7b7b" stroke-linecap="round" stroke-width="0.5" stroke-dasharray="4"/>
        <g id="FlylineSVG_Logotype-3" data-name="FlylineSVG Logotype-3" transform="translate(17.933 32.016)">
          <path id="Path_142-3" data-name="Path 142-3" d="M.028,2.49A4.432,4.432,0,0,0,4.134,7.2l7.787.953-.235,1.923-8-.979-.212,1.726A4.3,4.3,0,0,0,7.462,15.4l3.521.43-.545,4.456A4.387,4.387,0,0,0,14.5,24.944l3.939.483,2.8-22.869L.332,0Z" transform="translate(0 0)" fill="#0e3178"/>
          <path id="Path_143-3" data-name="Path 143-3" d="M15.47,18.031l-7.007-.857L9.948,5.041A4.137,4.137,0,0,0,6.341.434h0L2.8,0,0,22.869l18.809,2.3.3-2.488A4.179,4.179,0,0,0,15.47,18.031Z" transform="translate(20.537 8.621)" fill="#00aeef"/>
        </g>
      </g>
      <path id="Path_369" data-name="Path 369" d="M1543,517.321a9.469,9.469,0,0,0-2.313-4.867c-2.751-3.142-7.173-5.2-11.625-6.943-26.667-10.459-58.05-12.814-88.544-9.928a301.667,301.667,0,0,0-45.7,8.033c-13.276,3.374-30.324,7.347-41.679,13.824-7.777,4.439-11.313,11.374-5.276,17.411,3.536,3.538,9.089,5.586,14.644,7.174,28.025,8.01,65.964,12.772,93.179-2.216,9.976-5.494,17.833-11.735,30.461-12.872,14.182-1.276,27.928,2.345,42.132,1.068,4.8-.432,9.984-1.652,12.814-4.684A7.14,7.14,0,0,0,1543,517.321Z" transform="translate(-1066.591 -13.22)" fill="url(#linear-gradient-7)"/>
      <g id="Group_52" data-name="Group 52" transform="translate(49.819 0)" opacity="0.1">
        <path id="Path_229" data-name="Path 229" d="M1354.277,289.593c1.812-3.344,6.828-5.852,12.678-5.852a17.29,17.29,0,0,1,4.6.558,9.561,9.561,0,0,1,5.154-5.016c1.532-7.524,11.7-13.514,23.963-13.514,9.335,0,17.276,3.342,21.457,8.219a20.583,20.583,0,0,1,7.662-1.253c8.5,0,15.326,4.32,15.326,9.753a3.886,3.886,0,0,1-.138,1.253h1.393c5.852,0,10.866,2.368,12.678,5.852Z" transform="translate(-1226.008 -265.769)" fill="#00aeef"/>
        <path id="Path_230" data-name="Path 230" d="M1205.75,310.352c1.811-3.344,6.828-5.852,12.678-5.852a17.278,17.278,0,0,1,4.6.558,9.564,9.564,0,0,1,5.154-5.016c1.532-7.524,11.7-13.514,23.965-13.514,9.333,0,17.275,3.342,21.455,8.219a20.584,20.584,0,0,1,7.663-1.253c8.5,0,15.326,4.32,15.326,9.753a3.838,3.838,0,0,1-.14,1.253h1.393c5.852,0,10.868,2.368,12.678,5.852Z" transform="translate(-1205.75 -146.794)" fill="#00aeef"/>
        <path id="Path_232" data-name="Path 232" d="M1613.923,386.281c-1.81-3.482-6.966-5.85-12.818-5.85a18.3,18.3,0,0,0-4.736.557,9.813,9.813,0,0,0-5.154-5.156c-1.532-7.662-11.844-13.654-24.382-13.654-9.473,0-17.554,3.344-21.734,8.36a24.871,24.871,0,0,0-7.8-1.393c-8.639,0-15.6,4.458-15.6,9.891a3.854,3.854,0,0,0,.14,1.255h-1.393c-5.992,0-11.008,2.508-12.819,5.85Z" transform="translate(-1011.817 -98.193)" fill="#00aeef"/>
        <path id="Path_233" data-name="Path 233" d="M1458.763,303.827c1.393-2.648,5.433-4.6,10.172-4.6a17.261,17.261,0,0,1,3.761.417,8.147,8.147,0,0,1,4.041-4.04c1.253-6.13,9.334-10.728,19.226-10.728,7.384,0,13.793,2.648,17.137,6.548a18.348,18.348,0,0,1,6.129-1.114c6.828,0,12.261,3.482,12.261,7.8a2.366,2.366,0,0,1-.14.976h1.115c4.736,0,8.637,1.95,10.17,4.6Z" transform="translate(-1018.95 -173.975)" fill="#00aeef"/>
        <path id="Path_234" data-name="Path 234" d="M1423.877,246.928a5.115,5.115,0,0,1,4.458-2.089,6.843,6.843,0,0,1,1.672.138,3.3,3.3,0,0,1,1.812-1.81c.557-2.648,4.18-4.738,8.5-4.738a10.075,10.075,0,0,1,7.524,2.927,8.732,8.732,0,0,1,2.647-.419c3.065,0,5.433,1.532,5.433,3.484v.419h.557a4.965,4.965,0,0,1,4.46,2.089Z" transform="translate(-1065.617 -177.702)" fill="#00aeef"/>
      </g>
    </g>
  </g>
</svg>
