<svg xmlns="http://www.w3.org/2000/svg" width="14.909" height="14.909" viewBox="0 0 14.909 14.909">
    <g id="prefix__american-airlines">
        <path id="prefix__Path_1429" d="M212.175 260.344l2.715 4.59a.06.06 0 0 0 .051.029h5.9a.06.06 0 0 0 .046-.1l-6.034-7.311-2.482.435z" data-name="Path 1429" transform="translate(-205.997 -250.054)" style="fill:#e82934"/>
        <path id="prefix__Path_1430" d="M291.2 264.865l-6.034-7.311-.574.1 5.433 7.21a.06.06 0 0 1-.046.1h1.175a.06.06 0 0 0 .046-.099z" data-name="Path 1430" transform="translate(-276.3 -250.054)" style="fill:#c7232c"/>
        <path id="prefix__Path_1431" d="M.009.091l2.8 4.588A2.142 2.142 0 0 0 4.64 5.707h2.8a.06.06 0 0 0 .047-.1L3.544.8a2.15 2.15 0 0 0-1.67-.8H.06a.06.06 0 0 0-.051.091z" data-name="Path 1431" style="fill:#2ee3ff"/>
        <path id="prefix__Path_1432" d="M45.583 5.61L41.639.8a2.15 2.15 0 0 0-1.671-.8h-.731a2.15 2.15 0 0 1 1.671.8l3.6 4.813a.06.06 0 0 1-.047.1h1.077a.06.06 0 0 0 .045-.103z" data-name="Path 1432" transform="translate(-38.094)" style="fill:#1fa2d1"/>
        <path id="prefix__Path_1433" d="M171.6 219.419a6.46 6.46 0 0 0-2.661.234c-1.728.5-2.143 2.835-2.143 2.835l-1.019-1.756-.254-.438-.136-.234a1.139 1.139 0 0 1-.157-.514c-.032-.677.526-1.247 3.074-1.334 2.448-.084 3.176.8 3.357 1.117a.06.06 0 0 1-.061.09z" data-name="Path 1433" transform="translate(-160.415 -211.854)" style="fill:#ccc"/>
        <path id="prefix__Path_1434" d="M189.876 244.306a6.46 6.46 0 0 0-2.661.234c-1.728.5-2.143 2.835-2.143 2.835l-1.019-1.756a3.438 3.438 0 0 1 2.025-1.565 5.073 5.073 0 0 1 3.798.252z" data-name="Path 1434" transform="translate(-178.693 -236.74)" style="fill:#a6a6a6"/>
    </g>
</svg>
