<svg id="Apple_logo" data-name="Apple logo" xmlns="http://www.w3.org/2000/svg" width="26" height="26" viewBox="0 0 26 26">
  <rect id="Rectangle_709" data-name="Rectangle 709" width="26" height="26" fill="none"/>
  <g id="apple" transform="translate(2)">
    <path id="Path_195" data-name="Path 195" d="M53.054,137.983c-3.849-.022-7.032-7.927-7.032-11.953,0-6.576,4.9-8.016,6.792-8.016a7.777,7.777,0,0,1,2.563.634,5.7,5.7,0,0,0,1.463.422,4.534,4.534,0,0,0,1.05-.342,8.372,8.372,0,0,1,3.164-.77h.007a6.47,6.47,0,0,1,5.427,2.758l.4.6-.57.433a4.827,4.827,0,0,0-2.3,3.978,4.49,4.49,0,0,0,2.49,4.15c.357.216.726.438.726.925,0,.318-2.521,7.144-6.183,7.144a4.948,4.948,0,0,1-2.088-.51,4.213,4.213,0,0,0-1.858-.45,4.757,4.757,0,0,0-1.472.4,7.171,7.171,0,0,1-2.552.6Z" transform="translate(-46.022 -112.562)" fill="#fff"/>
    <path id="Path_196" data-name="Path 196" d="M259.554,0c.086,3.114-2.141,5.274-4.365,5.139C254.823,2.654,257.413,0,259.554,0Z" transform="translate(-244.296)" fill="#fff"/>
  </g>
</svg>
