<svg xmlns="http://www.w3.org/2000/svg" width="21.372" height="24" viewBox="0 0 21.372 24">
  <g id="playstore" transform="translate(-0.5 -12)">
    <path id="Path_197" data-name="Path 197" d="M.943,18.855A2.194,2.194,0,0,0,.5,20.187V39.754a2.2,2.2,0,0,0,.385,1.251L11.538,29.9Zm0,0" transform="translate(0 -5.971)" fill="#fff"/>
    <path id="Path_198" data-name="Path 198" d="M45.519,10.919l3.456-3.605L36.826.3a2.189,2.189,0,0,0-1.7-.218Zm0,0" transform="translate(-33.005 12)" fill="#fff"/>
    <path id="Path_199" data-name="Path 199" d="M43.385,276.18,32.891,287.126a2.18,2.18,0,0,0,.695.114,2.209,2.209,0,0,0,1.107-.3l12.236-7.065Zm0,0" transform="translate(-30.871 -251.241)" fill="#fff"/>
    <path id="Path_200" data-name="Path 200" d="M284.726,173.445l-3.552-2.051-3.737,3.9,3.824,3.989,3.465-2a2.214,2.214,0,0,0,0-3.835Zm0,0" transform="translate(-263.961 -151.363)" fill="#fff"/>
  </g>
</svg>
