<svg xmlns="http://www.w3.org/2000/svg" width="16.706" height="20.173" viewBox="0 0 16.706 20.173">
    <g id="prefix__business-and-finance_1_" data-name="business-and-finance (1)" style="opacity:.4">
        <path id="prefix__Path_126" d="M65.4 34.658v-10.72A3.934 3.934 0 0 1 69.332 20H66.94A3.94 3.94 0 0 0 63 23.94v10.717a3.94 3.94 0 0 0 3.94 3.94h2.392a3.934 3.934 0 0 1-3.932-3.939z" data-name="Path 126" transform="translate(-62.251 -19.212)" style="fill:#d4ebf7"/>
        <path id="prefix__Path_127" d="M55.978 20.173h-7.25A4.733 4.733 0 0 1 44 15.445V4.728A4.733 4.733 0 0 1 48.728 0h7.25a4.733 4.733 0 0 1 4.728 4.728v10.717a4.733 4.733 0 0 1-4.728 4.728zm-7.25-18.6a3.156 3.156 0 0 0-3.152 3.152v10.72a3.156 3.156 0 0 0 3.152 3.155h7.25a3.156 3.156 0 0 0 3.152-3.152V4.728a3.156 3.156 0 0 0-3.152-3.152zm8.786 5.677a.788.788 0 0 0-.788-.788h-1.34A1.183 1.183 0 0 1 54.2 5.28V3.94a.788.788 0 0 0-1.576 0v1.34a2.761 2.761 0 0 0 2.758 2.758h1.34a.788.788 0 0 0 .792-.788z" data-name="Path 127" transform="translate(-44)" style="fill:#192f77"/>
        <path id="prefix__Path_138" d="M357.873 269.935a2.222 2.222 0 0 0-2.343-2.072c-.549 0-.948-.256-.948-.609a.618.618 0 0 1 .624-.609 4.052 4.052 0 0 1 1.52.308.765.765 0 0 0 .979-.416.724.724 0 0 0-.431-.947 6.842 6.842 0 0 0-.991-.295v-.563a.757.757 0 0 0-1.513 0v.494a2.092 2.092 0 0 0-1.7 2.029 2.24 2.24 0 0 0 2.46 2.072c.45 0 .83.279.83.609a.658.658 0 0 1-.668.609 5.454 5.454 0 0 1-1.662-.363.765.765 0 0 0-.982.409.724.724 0 0 0 .423.95 7.6 7.6 0 0 0 1.3.365v.431a.757.757 0 0 0 1.513 0v-.408a2.219 2.219 0 0 0 .932-.518 2 2 0 0 0 .657-1.476z" data-name="Path 138" transform="translate(-349.051 -256.321)" style="fill:#30acef"/>
    </g>
</svg>
