<svg xmlns="http://www.w3.org/2000/svg" width="283.681" height="45.195" viewBox="0 0 283.681 45.195">
    <defs>
        <style>
            .prefix__cls-1{fill:#00aeef}.prefix__cls-2{fill:#0e3178}
        </style>
    </defs>
    <g id="prefix__FlylineSVG_Logotype" transform="translate(-215 -454.595)">
        <path id="prefix__Rectangle_21" d="M0 0H14.911V45.187H0z" class="prefix__cls-1" data-name="Rectangle 21" transform="translate(385.436 454.601)"/>
        <path id="prefix__Path_139" d="M630.022 474.617l-1.937-2.518-16.267-17.494H599.1v45.187h14.652V478.3l1.937 2.518 17.559 18.978h11.3v-45.19h-14.526z" class="prefix__cls-1" data-name="Path 139" transform="translate(-192.939 -.006)"/>
        <path id="prefix__Path_140" d="M508.509 486.7v13.1h-36.923v-45.179H486.5V486.7z" class="prefix__cls-1" data-name="Path 140" transform="translate(-128.887 -.013)"/>
        <path id="prefix__Path_141" d="M385.834 468.679l-1.485 3.357-1.484-3.357-7.165-14.073h-16.009l16.783 32.923v12.264h14.654v-12.264l16.783-32.923H393z" class="prefix__cls-2" data-name="Path 141" transform="translate(-72.68 -.006)"/>
        <path id="prefix__Path_142" d="M215 459.519c0 4.523 4.077 8.19 9.106 8.19h15.367v3.809h-15.789v3.409c0 4.392 3.959 7.953 8.842 7.953h6.947v8.8c0 4.479 4.037 8.109 9.017 8.109h7.778v-45.184H215z" class="prefix__cls-2" data-name="Path 142" transform="translate(0 -.005)"/>
        <path id="prefix__Path_143" d="M338.528 486.689h-13.822v-23.973a8.11 8.11 0 0 0-8.109-8.11h-7v45.188h37.118v-4.914a8.191 8.191 0 0 0-8.187-8.191z" class="prefix__cls-2" data-name="Path 143" transform="translate(-47.519 -.006)"/>
        <path id="prefix__Path_144" d="M702.1 454.6v45.193h41.26v-13.116h-26.81v-3.8h18.14V471.47h-18.14v-3.763h26.806V454.6z" class="prefix__cls-1" data-name="Path 144" transform="translate(-244.676)"/>
    </g>
</svg>
