<svg xmlns="http://www.w3.org/2000/svg" width="16" height="16" viewBox="0 0 16 16">
    <path d="M6 0H.667A.666.666 0 0 0 0 .667V6a.666.666 0 0 0 .667.667H6A.666.666 0 0 0 6.667 6V.667A.666.666 0 0 0 6 0z" data-name="Path 10"/>
    <path d="M15.333 0H10a.666.666 0 0 0-.667.667V6a.666.666 0 0 0 .667.667h5.333A.666.666 0 0 0 16 6V.667A.666.666 0 0 0 15.333 0z" data-name="Path 11"/>
    <path d="M6 9.333H.667A.666.666 0 0 0 0 10v5.333A.666.666 0 0 0 .667 16H6a.666.666 0 0 0 .667-.667V10A.666.666 0 0 0 6 9.333z" data-name="Path 12"/>
    <path d="M15.333 9.333H10a.666.666 0 0 0-.667.667v5.333A.666.666 0 0 0 10 16h5.333a.666.666 0 0 0 .667-.667V10a.666.666 0 0 0-.667-.667z" data-name="Path 13"/>
</svg>
