<svg width="161" height="26" xmlns="http://www.w3.org/2000/svg">
    <g fill-rule="nonzero" fill="none">
        <path fill="#00AEEF" d="M97 0h8v26h-8zM125.69 11.514l-1.108-1.448L115.275 0H108v26h8.383V13.631l1.108 1.45L127.537 26H134V0h-8.31zM93 18.458V26H72V0h8.48v18.458z"/>
        <path fill="#0E3178" d="M55.638 8.097l-.831 1.932-.83-1.932L49.963 0H41l9.397 18.943V26h8.206v-7.057L68 0h-8.35zM0 2.827C0 5.43 2.272 7.54 5.075 7.54h8.565v2.192h-8.8v1.96c0 2.528 2.206 4.577 4.928 4.577h3.872v5.065c0 2.577 2.25 4.666 5.025 4.666H23V0H0v2.827zM43.366 18.46h-7.82V4.666C35.546 2.09 33.492 0 30.958 0H27v26h21v-2.827c0-2.603-2.075-4.713-4.634-4.713z"/>
        <path fill="#00AEEF" d="M138 0v26h23V18.457h-14.943v-2.185h10.112V9.708h-10.112V7.543H161V0z"/>
    </g>
</svg>
