<svg xmlns="http://www.w3.org/2000/svg" width="16" height="16" viewBox="0 0 16 16">
    <path d="M15.333 2h-8v1.333h8a.667.667 0 0 0 0-1.333z" data-name="Path 14"/>
    <path d="M.667 3.333H2v1.334a.667.667 0 0 0 .667.667h2.666A.667.667 0 0 0 6 4.667v-4A.667.667 0 0 0 5.333 0H2.667A.667.667 0 0 0 2 .667V2H.667a.667.667 0 0 0 0 1.333z" data-name="Path 15"/>
    <path d="M15.333 7.333H14v1.333h1.333a.667.667 0 0 0 0-1.333z" data-name="Path 16"/>
    <path d="M.667 8.666h8v1.333a.667.667 0 0 0 .667.667H12a.667.667 0 0 0 .667-.667v-4A.667.667 0 0 0 12 5.333H9.333A.667.667 0 0 0 8.666 6v1.333h-8a.667.667 0 1 0 0 1.333z" data-name="Path 17"/>
    <path d="M15.333 12.667h-8V14h8a.667.667 0 0 0 0-1.333z" data-name="Path 18"/>
    <path d="M5.333 10.667H2.667a.667.667 0 0 0-.667.667v1.333H.667a.667.667 0 0 0 0 1.333H2v1.333a.667.667 0 0 0 .667.667h2.666A.667.667 0 0 0 6 15.334v-4a.667.667 0 0 0-.667-.667z" data-name="Path 19"/>
</svg>
