<svg xmlns="http://www.w3.org/2000/svg" id="prefix__surface1" width="10.184" height="12" viewBox="0 0 10.184 12">
    <path id="prefix__Path_8" d="M12.12 2.389a.507.507 0 0 0-.362-.171C10.69 2.19 9.335 1.047 8.441.6A5.355 5.355 0 0 0 7.249.091a.645.645 0 0 0-.167 0A5.345 5.345 0 0 0 5.891.6C5 1.047 3.643 2.19 2.573 2.218a.507.507 0 0 0-.362.171.55.55 0 0 0-.137.39c.226 4.67 1.906 7.561 4.846 9.24a.482.482 0 0 0 .492 0c2.94-1.678 4.615-4.569 4.846-9.24a.55.55 0 0 0-.138-.39zM9.057 7.542L8.6 8a.217.217 0 0 1-.3 0L7.165 6.86 6.031 8a.215.215 0 0 1-.3 0l-.455-.451a.219.219 0 0 1 0-.3L6.408 6.1 5.274 4.97a.217.217 0 0 1 0-.3l.453-.453a.215.215 0 0 1 .3 0l1.138 1.132L8.3 4.215a.213.213 0 0 1 .3 0l.455.453a.217.217 0 0 1 0 .3L7.921 6.1l1.136 1.138a.219.219 0 0 1 0 .304z" data-name="Path 8" transform="translate(-2.073 -.086)" style="fill:#818181"/>
</svg>
