<svg xmlns="http://www.w3.org/2000/svg" xmlns:xlink="http://www.w3.org/1999/xlink" width="251.263" height="209.581" viewBox="0 0 251.263 209.581">
  <defs>
    <linearGradient id="linear-gradient" x1="0.065" y1="0.96" x2="0.835" y2="0.146" gradientUnits="objectBoundingBox">
      <stop offset="0" stop-color="#30acef"/>
      <stop offset="1" stop-color="#fff"/>
    </linearGradient>
    <clipPath id="clip-path">
      <circle id="Ellipse_419" data-name="Ellipse 419" cx="84.869" cy="84.869" r="84.869" transform="matrix(0.973, -0.23, 0.23, 0.973, 0, 38.998)" fill="url(#linear-gradient)"/>
    </clipPath>
    <linearGradient id="linear-gradient-3" x1="-0.562" y1="1.603" x2="0.63" y2="0.265" xlink:href="#linear-gradient"/>
    <linearGradient id="linear-gradient-4" x1="-0.888" y1="-64.836" x2="-0.087" y2="-66.331" xlink:href="#linear-gradient"/>
    <linearGradient id="linear-gradient-5" x1="-0.561" y1="-1.071" x2="2.857" y2="3.773" xlink:href="#linear-gradient"/>
  </defs>
  <g id="Group_4705" data-name="Group 4705" transform="translate(-5733.973 -5198.7)">
    <g id="Group_12-2" data-name="Group 12-2" transform="translate(5795.971 5213.203)" opacity="0.2">
      <path id="Fill_10" data-name="Fill 10" d="M5806.095,5212.3a2.15,2.15,0,0,0,.352-1.4c-.128-.782-.889-1.252-2.029-1.384a2.406,2.406,0,0,0,.2-1.309c-.338-2.075-4.172-2.449-8.563-.836a18.478,18.478,0,0,0-4.166,2.148,1.683,1.683,0,0,0-.007-.75c-.4-1.544-3.373-1.255-6.642.651a16.942,16.942,0,0,0-2.212,1.534c-.251-.609-1.542-.574-2.977.106a6.369,6.369,0,0,0-1.857,1.3l-11.43.951h50.722Z" transform="translate(-5766.761 -5206.371)" fill="#00aeef"/>
    </g>
    <g id="Group_4689" data-name="Group 4689" transform="translate(5745.448 5198.7)">
      <circle id="Ellipse_418" data-name="Ellipse 418" cx="84.869" cy="84.869" r="84.869" transform="matrix(0.973, -0.23, 0.23, 0.973, 0, 38.998)" fill="url(#linear-gradient)"/>
      <g id="Group_4688" data-name="Group 4688" transform="translate(0 0)" clip-path="url(#clip-path)">
        <path id="Path_3642" data-name="Path 3642" d="M5814.25,5253.391l8.058,3.627,2.216,3.625,3.625,1.41.4,3.828-1.407,2.214-2.822.6-6.041-2.418v-.805l3.422-1.411-1.208-4.229-5.439-2.014-2.416-3.223Zm50.758,93.058-6.446-2.617-7.854-2.821h-6.245l-5.839-1.209-6.446,1.41-3.628.2h-2.216l-4.229,2.417-4.027,1.61-5.438-3.423,1.408-5.638-3.423-1.412H5806.6l-.6-1.813.4-3.625-1.41-2.016-2.822.405-.806,2.014-3.425.2-3.019-3.625-1.21-4.835,3.022-5.64,5.842.4,1.611,1.409h2.416l3.022-1.813,2.619.808,3.624,6.242,1.411-.2-.4-4.632-1.208-2.417.4-3.827,7.454-3.222,1.007-7.454,3.222-2.619,2.619-4.632,2.013-.4,4.633-3.022.2-1.61-3.224.2-.6-1.613h-2.216l-3.424.808,1.611-2.62,7.051-2.015,1.61-1.812,2.819,4.43,1.813,1.814,2.82-.807-1.208-2.619-4.229-3.021-4.833-5.437-5.038-3.425-4.832-.8-2.417-2.417-3.225-.805-.4.805-.4,5.839.8,2.015-1.813,6.445-4.026-3.222.6-2.82-4.232-2.014-1.812-2.217,1.008-5.034,5.842-4.231.4-4.833-2.216.2-1.412-1.813-.6-3.022-1.41-.2-.806,3.222-2.216.4-1.007-7.05-1.612-1.008-2.818-1.208-3.225,1.612,4.03,3.827.8,3.424-7.251-5.437-5.035-5.438-.4-5.439-5.238-1.611-4.027,2.618a31.1,31.1,0,0,1-3.022,1.613,33.884,33.884,0,0,1-4.835.8l-.806,3.424-4.632.2.4,2.217,7.454,1.207,3.828,4.231v7.049l-2.216,6.246.4,6.646-5.639,9.869-1.209,14.7,1.813,8.459,2.619,6.446,3.022.4-1.007-3.221-1.612-2.419-1.009-4.43,1.815-.4,2.819,7.253,2.013,6.443v5.237l3.827,4.634,6.85,5.035,10.474,2.821,3.223,3.022,2.416,3.222,3.626,2.216,4.431,1.208,4.432-.2s-.2,2.018-.2,3.022-2.82,4.433-2.82,4.433l-2.216,4.026,1.611,4.432,4.432,1.812,6.244,6.446,2.819,1.208v3.021l.353,1.406a84.552,84.552,0,0,0,42.246-19.885l.1-1.462,5.439-9.868-2.618-1.813Zm20.684-78.982a1.228,1.228,0,0,0-.056-1.129l-1.9-3.277-2.673-4.2a1.23,1.23,0,0,1-.182-.5l-.548-4.113a1.233,1.233,0,0,1,1.428-1.382l.956.158a.969.969,0,0,0,1.122-.858h0a.968.968,0,0,0-.889-1.062l-1.63-.125,2.157-.981a1.214,1.214,0,0,0,.112-.058l1.748-1.021a1.234,1.234,0,0,0,.614-1.068v-.893a1.233,1.233,0,0,0-.248-.741l-1.97-2.627a1.228,1.228,0,0,1-.239-.6l-.432-3.64a1.265,1.265,0,0,0-.278-.653,84.932,84.932,0,0,0-97.11-24.793,1.239,1.239,0,0,0-.289,2.141c.645.489,1.322,1.029,1.832,1.441a1.219,1.219,0,0,1,.286,1.6,7.7,7.7,0,0,1-5.125,3.393,1.235,1.235,0,0,0-1.042,1.123l-.269,3.6a1.242,1.242,0,0,1-.755,1.044,5.072,5.072,0,0,0-2.682,6.2,5.36,5.36,0,0,0,1.585.291,1.235,1.235,0,0,1,.978,1.755l-.017.033a1.236,1.236,0,0,0,1.119,1.765h1.126a1.239,1.239,0,0,0,.974-.476l5.282-6.74a1.2,1.2,0,0,0,.242-.536l.374-1.988a1.237,1.237,0,0,1,1.129-1.005l4.037-.287a1.248,1.248,0,0,0,.98-.61l.763-1.313a1.239,1.239,0,0,1,.941-.606l4.29-.444a1.236,1.236,0,0,0,1.091-1.016l.27-1.531a1.239,1.239,0,0,1,1.16-1.021l2.967-.14a1.206,1.206,0,0,0,.51-.139,17.891,17.891,0,0,1,3.388-1.486,21.023,21.023,0,0,1,3.23.939,1.155,1.155,0,0,1,.36.2l2.518,2.016a1.241,1.241,0,0,0,.772.27h3.449a1.226,1.226,0,0,0,.645-.182l2.983-1.82a1.231,1.231,0,0,1,.752-.179l3.938.343a1.2,1.2,0,0,1,.5.156,4.518,4.518,0,0,0,2,.675,13.593,13.593,0,0,0,3.438-1.144,1.237,1.237,0,0,1,1.15.079l5.234,3.251a.909.909,0,0,1,.091.062l1.88,1.408a1.245,1.245,0,0,1,.493.99v1.322a1.239,1.239,0,0,0,1.073,1.225l1.114.147a1.237,1.237,0,0,0,1.245-.624l.039-.074a1.238,1.238,0,0,1,1.6-.522l.935.431a.966.966,0,0,1,.554,1l-.032.262a.976.976,0,0,1-.711.816l-3.616.964a1.235,1.235,0,0,0-.66,1.949l2.132,2.758a1.222,1.222,0,0,0,.378.325l6.8,3.776a1.24,1.24,0,0,1,.389.341l2.535,3.378a1.237,1.237,0,0,0,.877.489l3.041.276a1.234,1.234,0,0,0,1.218-.678l.376-.751a1.245,1.245,0,0,1,.806-.647l1.059-.264-4.969-3.823a1.23,1.23,0,0,0-.6-.247l-2.891-.36.989-.306a1.235,1.235,0,0,0,.647-1.894l-.151-.215a1.237,1.237,0,0,1,.937-1.947l.851-.05a1.229,1.229,0,0,1,.665.15l3.619,1.974a1.234,1.234,0,0,1,.618.832l.825,3.969a1.256,1.256,0,0,0,.267.547l1.852,2.186a1.244,1.244,0,0,1,.236.432l1.617,5.21a1.251,1.251,0,0,0,.453.634l3.589,2.61a1.23,1.23,0,0,1,.51,1v5.35a1.234,1.234,0,0,0,.561,1.033l3.449,2.251a1.236,1.236,0,0,1,.556,1.147l-.125,1.39c-.006.057-.016.112-.027.167l-.509,2.2a1.254,1.254,0,0,0,.032.669l1.078,3.235a.6.6,0,0,1,.035.124l.21.943a1.238,1.238,0,0,0,.993.95l1.682.3a1.236,1.236,0,0,0,1.332-.692l1.209-2.569Zm2.883-20.871v1.02a.9.9,0,0,1-.042.268l-.9,2.867a.9.9,0,0,0-.021.456l.451,2.1a.9.9,0,0,0,.571.656l1.157.421a.9.9,0,0,1,.592.843v1.849a.9.9,0,0,1-1.247.829h0a.9.9,0,0,0-1.241.782l-.522,9.4a.9.9,0,0,1-.11.38l-.194.359a10.822,10.822,0,0,0-.906,8.159l.324,1.133a.889.889,0,0,0,.253.414l2.144,1.979a.893.893,0,0,1,.29.661v10.347a.886.886,0,0,0,.042.267l2.562,8.279.036.1,2.625,6a.9.9,0,0,0,.6.509l3.444.9a.9.9,0,0,0,1.061-.535l1.318-3.292.656-.515a85.522,85.522,0,0,0,.652-10.553A84.463,84.463,0,0,0,5888.575,5246.6Zm-46.53-1.261-13.293-5.84-5.841.2-1.41,3.828-2.417-2.617-4.431,1.006-.4,6.647,3.625,2.617,2.62-3.827,3.022,3.021,6.242,5.44,1.21,5.84,5.236,6.646,8.46-1.411-.2-3.019-1.813-3.425-.4-8.058,2.013-3.423Zm10.878,4.433-3.022-.806-2.619,2.213,1.411,5.843h2.619Zm18.732,3.827-6.848-3.627-1.412-2.417-1.61.606,1.41,4.026,1.208,5.238,3.021,1.208.6-.806-1.814-3.021,5.237,2.014Zm-58.816,72.713-.806.8,6.044,1.813,2.417,2.821,3.826.4,1.412-2.215-4.633-.806Zm17.927,3.827-4.23,1.208.605,1.612h5.235l1.008-1.612-1.814.2Z" transform="translate(-5715.206 -5190.583)" fill="url(#linear-gradient-3)"/>
        <path id="Path_3643" data-name="Path 3643" d="M5854.865,5314.741a85.232,85.232,0,0,1-85.232-85.233q0-3.273.243-6.487a85.233,85.233,0,1,0,149.188,62.547A85.03,85.03,0,0,1,5854.865,5314.741Z" transform="translate(-5732.202 -5177.036)" opacity="0.05"/>
      </g>
    </g>
    <g id="Group_4690" data-name="Group 4690" transform="translate(5733.973 5278.23)">
      <g id="Group_12-2-2" data-name="Group 12-2" transform="translate(171.501)" opacity="0.2">
        <path id="Fill_10-2" data-name="Fill 10" d="M5886.529,5250.089a3.392,3.392,0,0,0,.552-2.2c-.2-1.228-1.4-1.964-3.19-2.178a3.763,3.763,0,0,0,.309-2.054c-.528-3.268-6.558-3.854-13.464-1.315a28.852,28.852,0,0,0-6.55,3.378,2.71,2.71,0,0,0-.012-1.182c-.624-2.428-5.3-1.973-10.447,1.026a26.634,26.634,0,0,0-3.475,2.413c-.4-.962-2.426-.905-4.682.167a10.051,10.051,0,0,0-2.921,2.041l-17.975,1.5h79.762Z" transform="translate(-5824.674 -5240.761)" fill="#00aeef"/>
      </g>
      <g id="Group_12-2-3" data-name="Group 12-2" transform="translate(0 76.658)" opacity="0.2">
        <path id="Fill_10-3" data-name="Fill 10" d="M5773.308,5287.235a2.148,2.148,0,0,0,.35-1.4c-.126-.781-.888-1.251-2.026-1.387a2.415,2.415,0,0,0,.2-1.307c-.337-2.076-4.17-2.451-8.564-.835a18.273,18.273,0,0,0-4.165,2.15,1.7,1.7,0,0,0-.008-.755c-.395-1.544-3.37-1.251-6.641.654a16.671,16.671,0,0,0-2.21,1.534c-.252-.613-1.542-.576-2.979.106a6.367,6.367,0,0,0-1.856,1.3l-11.431.954H5784.7Z" transform="translate(-5733.973 -5281.302)" fill="#00aeef"/>
      </g>
    </g>
    <g id="Group_4691" data-name="Group 4691" transform="translate(5800.953 5292.218)">
      <path id="Path_3644" data-name="Path 3644" d="M5781.917,5257.151c0,.769-2.789,1.393-6.229,1.393s-6.229-.625-6.229-1.393,2.789-1.395,6.229-1.395S5781.917,5256.381,5781.917,5257.151Z" transform="translate(-5769.342 -5241.389)" fill-rule="evenodd" opacity="0.05"/>
      <path id="Path_3645" data-name="Path 3645" d="M5775.136,5251.953a1.9,1.9,0,0,0-1.916,1.995,2.116,2.116,0,0,0,2.093,2,1.906,1.906,0,0,0,1.923-2A2.115,2.115,0,0,0,5775.136,5251.953Zm-.166-3.795a5.52,5.52,0,0,0-5.569,5.79c.165,4.011,6.255,10.008,6.255,10.008s5.583-6,5.4-10.008A6.141,6.141,0,0,0,5774.97,5248.158Zm.4,9.186a3.594,3.594,0,0,1-3.539-3.4,3.223,3.223,0,0,1,3.244-3.374,3.581,3.581,0,0,1,3.546,3.374A3.23,3.23,0,0,1,5775.37,5257.344Z" transform="translate(-5769.396 -5248.158)" fill="#007eb8"/>
    </g>
    <g id="Group_4692" data-name="Group 4692" transform="translate(5887.472 5344.258)">
      <path id="Path_3646" data-name="Path 3646" d="M5823.583,5281.735c0,.518-1.877.938-4.193.938s-4.195-.419-4.195-.937,1.878-.939,4.195-.939S5823.583,5281.217,5823.583,5281.735Z" transform="translate(-5815.115 -5271.125)" fill-rule="evenodd" opacity="0.05"/>
      <path id="Path_3647" data-name="Path 3647" d="M5819.018,5278.234a1.281,1.281,0,0,0-1.29,1.346,1.422,1.422,0,0,0,1.408,1.348,1.281,1.281,0,0,0,1.295-1.348A1.425,1.425,0,0,0,5819.018,5278.234Zm-.112-2.553a3.718,3.718,0,0,0-3.749,3.9c.111,2.7,4.21,6.736,4.21,6.736s3.758-4.037,3.636-6.736A4.137,4.137,0,0,0,5818.906,5275.681Zm.268,6.182a2.417,2.417,0,0,1-2.381-2.284,2.169,2.169,0,0,1,2.183-2.271,2.41,2.41,0,0,1,2.389,2.271A2.175,2.175,0,0,1,5819.174,5281.863Z" transform="translate(-5815.154 -5275.681)" fill="#007eb8"/>
    </g>
    <g id="Group_4693" data-name="Group 4693" transform="translate(5866.467 5221.79)" opacity="0.5">
      <path id="Path_3648" data-name="Path 3648" d="M5810.422,5215.49c0,.392-1.419.709-3.172.709s-3.173-.317-3.173-.709,1.419-.71,3.173-.71S5810.422,5215.1,5810.422,5215.49Z" transform="translate(-5804.017 -5207.464)" fill-rule="evenodd" opacity="0.05"/>
      <path id="Path_3649" data-name="Path 3649" d="M5806.969,5212.843a.966.966,0,0,0-.975,1.018,1.073,1.073,0,0,0,1.066,1.018.971.971,0,0,0,.98-1.018A1.079,1.079,0,0,0,5806.969,5212.843Zm-.086-1.932a2.815,2.815,0,0,0-2.836,2.95c.086,2.041,3.187,5.1,3.187,5.1s2.842-3.055,2.75-5.1A3.13,3.13,0,0,0,5806.883,5210.911Zm.2,4.677a1.827,1.827,0,0,1-1.8-1.728,1.641,1.641,0,0,1,1.651-1.72,1.822,1.822,0,0,1,1.8,1.72A1.643,1.643,0,0,1,5807.088,5215.588Z" transform="translate(-5804.044 -5210.911)" fill="#007eb8"/>
    </g>
    <g id="Group_4695" data-name="Group 4695" transform="translate(5751.809 5324.787)">
      <circle id="Ellipse_420" data-name="Ellipse 420" cx="29.97" cy="29.97" r="29.97" transform="translate(0 49.07) rotate(-54.949)" fill="url(#linear-gradient-4)"/>
      <path id="Path_3650" data-name="Path 3650" d="M5757.346,5283.8a25.588,25.588,0,1,0,35.909-4.479A25.587,25.587,0,0,0,5757.346,5283.8Z" transform="translate(-5735.793 -5257.77)" fill="#fff" opacity="0.5"/>
      <path id="Path_3651" data-name="Path 3651" d="M5757.654,5283.94a24.619,24.619,0,1,0,34.547-4.309A24.621,24.621,0,0,0,5757.654,5283.94Z" transform="translate(-5735.335 -5257.313)" fill="url(#linear-gradient-5)"/>
      <path id="Path_3652" data-name="Path 3652" d="M5757.653,5283.943a24.624,24.624,0,0,0,29.2,37.722,24.628,24.628,0,0,1-5.844-46.913A24.618,24.618,0,0,0,5757.653,5283.943Z" transform="translate(-5735.338 -5257.314)" fill="#fff" opacity="0.1"/>
      <g id="Group_4694" data-name="Group 4694" transform="translate(33.58 26.367)" opacity="0.8">
        <path id="Path_3653" data-name="Path 3653" d="M5772.65,5299.932a3.267,3.267,0,0,0-.992-2.4,8.59,8.59,0,0,0-3.295-1.777,11.339,11.339,0,0,1-4.771-2.55,5.719,5.719,0,0,1-1.613-4.254,6,6,0,0,1,1.486-4.209,6.416,6.416,0,0,1,4.085-1.956v-3.457h2.472v3.474a5.97,5.97,0,0,1,4.06,2.143,7.464,7.464,0,0,1,1.446,4.818h-3.065a5.005,5.005,0,0,0-.988-3.222,3.287,3.287,0,0,0-2.721-1.236,3.292,3.292,0,0,0-3.693,3.6,3.289,3.289,0,0,0,.955,2.457,9.32,9.32,0,0,0,3.426,1.782,11.849,11.849,0,0,1,4.74,2.574,5.633,5.633,0,0,1,1.55,4.184,5.736,5.736,0,0,1-1.612,4.28,7.168,7.168,0,0,1-4.429,1.885v3h-2.455v-2.988a7.176,7.176,0,0,1-4.412-1.963,6.412,6.412,0,0,1-1.658-4.934l.032-.08h2.973a4.263,4.263,0,0,0,1.218,3.433,4.464,4.464,0,0,0,2.973,1.026,4.716,4.716,0,0,0,3.153-.964A3.3,3.3,0,0,0,5772.65,5299.932Z" transform="translate(-5761.165 -5279.327)" fill="#fff"/>
      </g>
    </g>
    <path id="Path_3654" data-name="Path 3654" stroke="#00aeef" d="M5776.264,5254.119c34.684-23.484,71.9,10.423,73.038,46.382" fill="none" transform="translate(37.675 42.447)" stroke-linecap="round" stroke-linejoin="round" stroke-width="0.347" stroke-dasharray="4.168"/>
    <g id="Group_4704" data-name="Group 4704" transform="translate(5756.162 5235.804)">
      <g id="Group_4696" data-name="Group 4696" transform="translate(7.854 7.19)">
        <path id="Path_3655" data-name="Path 3655" d="M5769.41,5222.489l-1.9,5.923a.19.19,0,0,1-.109.118l-15.343,5.963.076-1.371c2.774-1.813,14.075-9.142,16.883-10.962C5769.2,5222.038,5769.48,5222.274,5769.41,5222.489Z" transform="translate(-5747.907 -5222.126)" fill="#192f77"/>
        <path id="Path_3656" data-name="Path 3656" d="M5750.542,5227.86l2.1.41a1.937,1.937,0,0,0,1.447-.246l-.076,1.371a2.554,2.554,0,0,1-2.074-.146l-2.075-1.022A.566.566,0,0,1,5750.542,5227.86Z" transform="translate(-5749.862 -5217.028)" fill="#192f77"/>
      </g>
      <g id="Group_4703" data-name="Group 4703">
        <g id="Group_4702" data-name="Group 4702">
          <g id="Group_4701" data-name="Group 4701">
            <path id="Path_3657" data-name="Path 3657" d="M5779.286,5222.745l-.5,1.127-.068.155-1.971,4.4-.069.153-.644,1.432-6.763-2.246,8.066-5.16.013-.012a.833.833,0,0,1,.891-.216Z" transform="translate(-5724.722 -5214.752)" fill="#192f77"/>
            <path id="Path_3658" data-name="Path 3658" d="M5800.752,5235.942a1.546,1.546,0,0,1-1.155,1.007l-3.6.755a26.295,26.295,0,0,1-9.466.641c-.314-.039-.626-.08-.935-.132-.132-.02-.264-.043-.4-.065s-.265-.043-.4-.075c-.266-.046-.529-.1-.792-.162l-.394-.091c-.157-.037-.315-.073-.469-.121-.234-.059-.475-.125-.711-.2-.39-.115-.771-.241-1.158-.375l-13.222-4.7-7.36-2.61-8.562-3.037c-.34-.122-.675-.256-1-.4-.138-.058-.27-.121-.4-.187a11.29,11.29,0,0,1-1.05-.561c-.293-.176-.579-.355-.848-.542s-.544-.392-.794-.592l-.185-.154c-.181-.15-.346-.306-.507-.457-.07-.065-.135-.128-.2-.2a6.9,6.9,0,0,1-.96-1.187,1.055,1.055,0,0,1-.1-.155,1.839,1.839,0,0,1-.244-1.792c.683-1.22,3.689-1.157,3.689-1.157l.007,0,.006,0h.006a2.127,2.127,0,0,1,.244-.1c.117-.048.272-.111.44-.175.083-.031.168-.066.262-.1.031-.012.063-.026.1-.036.339-.125.713-.253,1.051-.354a.482.482,0,0,1,.047-.013c.158-.049.306-.083.436-.113a10.175,10.175,0,0,1,4.927.291.4.4,0,0,0,.059.02l.271.1c1.394.49,7.041,2.49,12.7,4.492.084.032.171.063.257.1,6.468,2.292,12.863,4.56,12.863,4.56l6.7,2.378.186.063.122.045.15.055,9.429,3.349a1.523,1.523,0,0,1,.8.646c.031.052.057.1.083.153A1.557,1.557,0,0,1,5800.752,5235.942Z" transform="translate(-5745.708 -5218.323)" fill="#fcfcfc"/>
            <g id="Group_4699" data-name="Group 4699" transform="translate(16.552 3.995)" opacity="0.11">
              <g id="Group_4697" data-name="Group 4697" transform="translate(11.154 4.141)">
                <path id="Path_3659" data-name="Path 3659" d="M5760.653,5223.719a.4.4,0,0,0,.484-.277l.055-.318a.395.395,0,1,0-.763-.205l-.055.317A.394.394,0,0,0,5760.653,5223.719Z" transform="translate(-5760.361 -5222.625)" fill="#192f77"/>
                <path id="Path_3660" data-name="Path 3660" d="M5761.33,5223.965a.4.4,0,0,0,.482-.278l.056-.318a.394.394,0,1,0-.761-.2l-.057.318A.4.4,0,0,0,5761.33,5223.965Z" transform="translate(-5759.759 -5222.406)" fill="#192f77"/>
                <path id="Path_3661" data-name="Path 3661" d="M5762.007,5224.209a.393.393,0,0,0,.482-.277l.055-.318a.39.39,0,0,0-.278-.481.4.4,0,0,0-.483.278l-.054.317A.391.391,0,0,0,5762.007,5224.209Z" transform="translate(-5759.156 -5222.187)" fill="#192f77"/>
                <path id="Path_3662" data-name="Path 3662" d="M5762.682,5224.458a.394.394,0,0,0,.482-.279l.058-.317a.395.395,0,0,0-.763-.2l-.055.318A.393.393,0,0,0,5762.682,5224.458Z" transform="translate(-5758.553 -5221.967)" fill="#192f77"/>
                <path id="Path_3663" data-name="Path 3663" d="M5763.361,5224.705a.4.4,0,0,0,.482-.281l.056-.315a.4.4,0,0,0-.763-.206l-.056.318A.4.4,0,0,0,5763.361,5224.705Z" transform="translate(-5757.951 -5221.749)" fill="#192f77"/>
                <path id="Path_3664" data-name="Path 3664" d="M5764.044,5224.958a.4.4,0,0,0,.484-.278l.024-.328a.395.395,0,1,0-.762-.207l-.025.332A.4.4,0,0,0,5764.044,5224.958Z" transform="translate(-5757.341 -5221.532)" fill="#192f77"/>
                <path id="Path_3665" data-name="Path 3665" d="M5764.721,5225.205a.394.394,0,0,0,.482-.278l.026-.331a.394.394,0,1,0-.761-.2l-.028.329A.4.4,0,0,0,5764.721,5225.205Z" transform="translate(-5756.737 -5221.313)" fill="#192f77"/>
                <path id="Path_3666" data-name="Path 3666" d="M5765.4,5225.45a.4.4,0,0,0,.484-.278l.026-.329a.394.394,0,1,0-.762-.2l-.026.329A.393.393,0,0,0,5765.4,5225.45Z" transform="translate(-5756.135 -5221.093)" fill="#192f77"/>
                <path id="Path_3667" data-name="Path 3667" d="M5766.074,5225.7a.393.393,0,0,0,.481-.28l.026-.329a.392.392,0,0,0-.276-.482.4.4,0,0,0-.486.278l-.023.329A.394.394,0,0,0,5766.074,5225.7Z" transform="translate(-5755.531 -5220.873)" fill="#192f77"/>
                <path id="Path_3668" data-name="Path 3668" d="M5766.75,5225.943a.4.4,0,0,0,.485-.279l.026-.329a.394.394,0,0,0-.761-.2l-.028.329A.4.4,0,0,0,5766.75,5225.943Z" transform="translate(-5754.93 -5220.654)" fill="#192f77"/>
              </g>
              <g id="Group_4698" data-name="Group 4698">
                <path id="Path_3669" data-name="Path 3669" d="M5754.721,5221.528a.4.4,0,0,0,.5-.237l.055-.326a.395.395,0,1,0-.742-.27l-.054.325A.4.4,0,0,0,5754.721,5221.528Z" transform="translate(-5754.461 -5220.436)" fill="#192f77"/>
                <path id="Path_3670" data-name="Path 3670" d="M5755.515,5221.813a.394.394,0,0,0,.484-.277l.026-.329a.394.394,0,1,0-.761-.207l-.026.33A.394.394,0,0,0,5755.515,5221.813Z" transform="translate(-5753.784 -5220.192)" fill="#192f77"/>
                <path id="Path_3671" data-name="Path 3671" d="M5756.269,5222.088a.4.4,0,0,0,.485-.278l.026-.329a.395.395,0,1,0-.763-.206l-.026.33A.4.4,0,0,0,5756.269,5222.088Z" transform="translate(-5753.112 -5219.948)" fill="#192f77"/>
                <path id="Path_3672" data-name="Path 3672" d="M5757.025,5222.361a.39.39,0,0,0,.481-.277l.026-.329a.395.395,0,0,0-.763-.206l-.023.33A.392.392,0,0,0,5757.025,5222.361Z" transform="translate(-5752.439 -5219.704)" fill="#192f77"/>
                <path id="Path_3673" data-name="Path 3673" d="M5757.779,5222.636a.4.4,0,0,0,.484-.278l.027-.329a.394.394,0,1,0-.762-.2l-.027.329A.4.4,0,0,0,5757.779,5222.636Z" transform="translate(-5751.767 -5219.459)" fill="#192f77"/>
              </g>
              <path id="Path_3674" data-name="Path 3674" d="M5759.293,5223.277a.412.412,0,0,0,.5-.289l.067-.362a.41.41,0,1,0-.792-.211l-.068.358A.412.412,0,0,0,5759.293,5223.277Z" transform="translate(-5750.43 -5218.944)" fill="#192f77"/>
            </g>
            <path id="Path_3675" data-name="Path 3675" d="M5770.253,5226.551l.14.252a3.382,3.382,0,0,0,1.837,1.558,5.2,5.2,0,0,0,2.844.187l5.456-1.173-.785-.45a3.29,3.29,0,0,0-1.478-.437Z" transform="translate(-5723.844 -5211.05)" fill="#192f77"/>
            <g id="Group_4700" data-name="Group 4700" transform="translate(3.84 0.274)" opacity="0.112" style="isolation: isolate">
              <path id="Path_3676" data-name="Path 3676" d="M5753.234,5220.6a.413.413,0,0,1-.577.371l-.375-.13v-.01l-.013.016-2.243-.791v.006l-2.287-.789a19.62,19.62,0,0,1,2.241-.8l.57.157h0l.01-.007.379.1,1.479.409.006.009.154.042a1,1,0,0,1,.664.952Z" transform="translate(-5747.739 -5218.468)" fill="#192f77"/>
            </g>
            <path id="Path_3677" data-name="Path 3677" d="M5745.917,5220.456a12.008,12.008,0,0,0,6.038,4.433l29.142,10.345a24.773,24.773,0,0,0,8.469,1.386c-4.32-2.62-13.3-6.549-23.906-10.315A164.131,164.131,0,0,0,5745.917,5220.456Z" transform="translate(-5745.523 -5216.424)" fill="#30acef"/>
            <path id="Path_3678" data-name="Path 3678" d="M5758.975,5226.3l6.93,2.439a.271.271,0,0,0,.195-.006l18.107-7.709-1.3-.841c-3.937.913-19.93,4.668-23.9,5.6A.269.269,0,0,0,5758.975,5226.3Z" transform="translate(-5734.052 -5216.669)" fill="#192f77"/>
            <path id="Path_3679" data-name="Path 3679" d="M5774.333,5218.854l-1.369,1.857a2.452,2.452,0,0,1-1.42.934l1.3.841a2.824,2.824,0,0,0,1.585-1.667l.795-2.239A.786.786,0,0,0,5774.333,5218.854Z" transform="translate(-5722.692 -5218.134)" fill="#192f77"/>
          </g>
        </g>
      </g>
    </g>
    <path id="Path_3680" data-name="Path 3680" stroke="#00aeef" d="M5772.3,5280.374s51.66-108.992,62.889-61.354" fill="none" transform="translate(34.139 7.366)" stroke-linecap="round" stroke-linejoin="round" stroke-width="0.347" stroke-dasharray="4.168"/>
    <path id="Path_3681" data-name="Path 3681" stroke="#00aeef" d="M5808.682,5214.792s37-19.034,16.668,113.246" fill="none" transform="translate(66.554 13.488)" stroke-linecap="round" stroke-linejoin="round" stroke-width="0.347" stroke-dasharray="4.168"/>
  </g>
</svg>
