<svg xmlns="http://www.w3.org/2000/svg" xmlns:xlink="http://www.w3.org/1999/xlink" width="306" height="191.608" viewBox="0 0 306 191.608">
  <defs>
    <linearGradient id="linear-gradient" x1="-0.035" y1="1.074" x2="0.939" y2="0.029" gradientUnits="objectBoundingBox">
      <stop offset="0" stop-color="#30acef"/>
      <stop offset="1" stop-color="#fff"/>
    </linearGradient>
    <linearGradient id="linear-gradient-2" x1="0.392" y1="2.705" x2="0.534" y2="-0.202" xlink:href="#linear-gradient"/>
    <linearGradient id="linear-gradient-3" x1="-0.123" y1="0.877" x2="1.098" y2="0.138" xlink:href="#linear-gradient"/>
  </defs>
  <g id="Group_4547" data-name="Group 4547" transform="translate(439.728 -2163.748)">
    <g id="Group_12-2" data-name="Group 12-2" transform="translate(-222.464 2302.365)" opacity="0.2">
      <path id="Fill_10" data-name="Fill 10" d="M-222.235,2268.986a3.753,3.753,0,0,0,.614-2.452c-.224-1.366-1.555-2.186-3.548-2.423a4.207,4.207,0,0,0,.345-2.285c-.589-3.635-7.3-4.288-14.981-1.463a32.023,32.023,0,0,0-7.286,3.76,3.025,3.025,0,0,0-.013-1.315c-.694-2.7-5.9-2.195-11.622,1.141a29.449,29.449,0,0,0-3.868,2.685c-.438-1.072-2.7-1.009-5.208.184a11.217,11.217,0,0,0-3.25,2.272l-20,1.665h88.736Z" transform="translate(291.048 -2258.608)" fill="#00aeef"/>
    </g>
    <g id="Group_4546" data-name="Group 4546" transform="translate(-398.712 2185.192)">
      <g id="Group_4498" data-name="Group 4498" transform="translate(154.118)">
        <path id="Path_3381" data-name="Path 3381" d="M-233.48,2241.06c1.238.852,1.907,4.088,2.027,5.662l-5.217,5.414c-1.577-.062-4.837-.611-5.734-1.816l-7.121,4.061c.582,1.386-.6,4.471-1.355,5.86l-7.317,1.735c-1.293-.9-3.739-3.129-3.842-4.63l-8.186-.432c-.26,1.48-2.927,3.434-4.308,4.2l-7.093-2.5c-.6-1.46-1.454-4.654-.729-5.97l-6.652-4.791c-1.02,1.1-4.32,1.306-5.895,1.2l-4.616-5.934c.285-1.552,1.293-4.7,2.614-5.419l-3.006-7.625c-1.455.379-4.34-1.236-5.608-2.176l-.675-7.489c1.08-1.152,3.63-3.256,5.129-3.143l1.593-8.042c-1.428-.469-2.982-3.385-3.541-4.862l3.481-6.665c1.53-.386,4.812-.777,6.015.128l5.687-5.9c-.948-1.166-.68-4.461-.351-6l6.532-3.725c1.495.5,4.469,1.948,4.989,3.358l7.977-1.889c-.168-1.495,1.841-4.121,2.952-5.241l7.508.4c.986,1.232,2.706,4.055,2.382,5.524l7.732,2.721c.668-1.347,3.777-2.469,5.318-2.812l6.1,4.394c.164,1.569.085,4.875-.982,5.934l5.033,6.471c1.29-.773,4.512-.036,5.994.507l2.757,7c-.712,1.409-2.565,4.145-4.035,4.461l.735,8.164c1.5.047,3.817,2.408,4.768,3.668l-1.461,7.375c-1.36.8-4.4,2.1-5.807,1.571Zm-16.191-35.723a20.918,20.918,0,0,0-29.578.548,20.918,20.918,0,0,0,.548,29.578,20.918,20.918,0,0,0,29.576-.548A20.919,20.919,0,0,0-249.671,2205.337Z" transform="translate(306.192 -2178.423)" fill="#192f77"/>
      </g>
      <g id="Group_4507" data-name="Group 4507" transform="translate(0 2.001)">
        <g id="Group_4505" data-name="Group 4505">
          <g id="Group_4499" data-name="Group 4499">
            <rect id="Rectangle_1815" data-name="Rectangle 1815" width="180.626" height="144.145" rx="4.384" fill="url(#linear-gradient)"/>
          </g>
          <g id="Group_4500" data-name="Group 4500" transform="translate(24.191 27.323)">
            <rect id="Rectangle_1816" data-name="Rectangle 1816" width="119.231" height="60.505" rx="4.319" fill="url(#linear-gradient-2)"/>
          </g>
          <g id="Group_4501" data-name="Group 4501" transform="translate(20.465 13.347)">
            <circle id="Ellipse_399" data-name="Ellipse 399" cx="4.004" cy="4.004" r="4.004" fill="#42a1d8"/>
          </g>
          <g id="Group_4502" data-name="Group 4502" transform="translate(32.922 13.347)">
            <path id="Path_3382" data-name="Path 3382" d="M-381.122,2192.93a4,4,0,0,1-4,4,4,4,0,0,1-4-4,4,4,0,0,1,4-4A4,4,0,0,1-381.122,2192.93Z" transform="translate(389.13 -2188.926)" fill="#42a1d8"/>
          </g>
          <g id="Group_4503" data-name="Group 4503" transform="translate(44.935 12.903)">
            <path id="Path_3383" data-name="Path 3383" d="M-376.461,2197.52a4.453,4.453,0,0,1-4.448-4.449,4.452,4.452,0,0,1,4.448-4.448,4.452,4.452,0,0,1,4.448,4.448A4.453,4.453,0,0,1-376.461,2197.52Zm0-8.009a3.564,3.564,0,0,0-3.56,3.56,3.564,3.564,0,0,0,3.56,3.56,3.564,3.564,0,0,0,3.56-3.56A3.564,3.564,0,0,0-376.461,2189.51Z" transform="translate(380.909 -2188.622)" fill="#42a1d8"/>
          </g>
          <g id="Group_4504" data-name="Group 4504" transform="translate(0 114.782)" opacity="0.05">
            <path id="Path_3384" data-name="Path 3384" d="M-231.033,2258.341V2281.3a6.426,6.426,0,0,1-6.406,6.407H-405.253a6.426,6.426,0,0,1-6.406-6.407v-22.956Z" transform="translate(411.659 -2258.341)"/>
          </g>
        </g>
        <g id="Group_4506" data-name="Group 4506" transform="translate(64.954 13.347)" opacity="0.8">
          <path id="Path_3385" data-name="Path 3385" d="M-261.77,2196.934H-363.205a4.015,4.015,0,0,1-4-4h0a4.016,4.016,0,0,1,4-4H-261.77a4.016,4.016,0,0,1,4,4h0A4.015,4.015,0,0,1-261.77,2196.934Z" transform="translate(367.209 -2188.926)" fill="#192f77"/>
        </g>
      </g>
      <g id="Group_4532" data-name="Group 4532" transform="translate(56.269 56.333)">
        <g id="Group_4508" data-name="Group 4508">
          <rect id="Rectangle_1817" data-name="Rectangle 1817" width="150.192" height="113.83" rx="3.709" fill="url(#linear-gradient-3)"/>
        </g>
        <g id="Group_4509" data-name="Group 4509" transform="translate(27.766)">
          <rect id="Rectangle_1818" data-name="Rectangle 1818" width="0.791" height="113.83" fill="#c1e7f7"/>
        </g>
        <g id="Group_4513" data-name="Group 4513" transform="translate(5.534 3.162)">
          <g id="Group_4510" data-name="Group 4510" transform="translate(0 0)">
            <path id="Path_3386" data-name="Path 3386" d="M-366.2,2220.719a1.581,1.581,0,0,1-1.581,1.58,1.58,1.58,0,0,1-1.581-1.58,1.581,1.581,0,0,1,1.581-1.582A1.582,1.582,0,0,1-366.2,2220.719Z" transform="translate(369.366 -2219.137)" fill="#42a1d8"/>
          </g>
          <g id="Group_4511" data-name="Group 4511" transform="translate(7.114)">
            <circle id="Ellipse_400" data-name="Ellipse 400" cx="1.581" cy="1.581" r="1.581" fill="#42a1d8"/>
          </g>
          <g id="Group_4512" data-name="Group 4512" transform="translate(13.438)">
            <circle id="Ellipse_401" data-name="Ellipse 401" cx="1.581" cy="1.581" r="1.581" fill="#f3eede"/>
          </g>
        </g>
        <g id="Group_4522" data-name="Group 4522" transform="translate(5.214 27.667)" opacity="0.2">
          <g id="Group_4517" data-name="Group 4517">
            <g id="Group_4514" data-name="Group 4514">
              <path id="Path_3387" data-name="Path 3387" d="M-362.076,2238.279H-368.4a1.186,1.186,0,0,1-1.187-1.185h0a1.187,1.187,0,0,1,1.187-1.187h6.323a1.186,1.186,0,0,1,1.187,1.187h0A1.185,1.185,0,0,1-362.076,2238.279Z" transform="translate(369.585 -2235.907)" fill="#fff"/>
            </g>
            <g id="Group_4515" data-name="Group 4515" transform="translate(0 3.953)">
              <path id="Path_3388" data-name="Path 3388" d="M-357.332,2240.984H-368.4a1.187,1.187,0,0,1-1.187-1.187h0a1.186,1.186,0,0,1,1.187-1.185h11.066a1.186,1.186,0,0,1,1.187,1.185h0A1.187,1.187,0,0,1-357.332,2240.984Z" transform="translate(369.585 -2238.612)" fill="#fff"/>
            </g>
            <g id="Group_4516" data-name="Group 4516" transform="translate(0 7.905)">
              <path id="Path_3389" data-name="Path 3389" d="M-354.17,2243.689H-368.4a1.188,1.188,0,0,1-1.187-1.187h0a1.186,1.186,0,0,1,1.187-1.185h14.229a1.185,1.185,0,0,1,1.185,1.185h0A1.186,1.186,0,0,1-354.17,2243.689Z" transform="translate(369.585 -2241.317)" fill="#fff"/>
            </g>
          </g>
          <g id="Group_4521" data-name="Group 4521" transform="translate(0 45.19)">
            <g id="Group_4518" data-name="Group 4518">
              <path id="Path_3390" data-name="Path 3390" d="M-362.076,2269.2H-368.4a1.187,1.187,0,0,1-1.187-1.187h0a1.186,1.186,0,0,1,1.187-1.185h6.323a1.185,1.185,0,0,1,1.187,1.185h0A1.186,1.186,0,0,1-362.076,2269.2Z" transform="translate(369.585 -2266.832)" fill="#fff"/>
            </g>
            <g id="Group_4519" data-name="Group 4519" transform="translate(0 3.951)">
              <path id="Path_3391" data-name="Path 3391" d="M-357.332,2271.908H-368.4a1.186,1.186,0,0,1-1.187-1.185h0a1.187,1.187,0,0,1,1.187-1.187h11.066a1.188,1.188,0,0,1,1.187,1.187h0A1.186,1.186,0,0,1-357.332,2271.908Z" transform="translate(369.585 -2269.536)" fill="#fff"/>
            </g>
            <g id="Group_4520" data-name="Group 4520" transform="translate(0 7.904)">
              <path id="Path_3392" data-name="Path 3392" d="M-354.17,2274.613H-368.4a1.186,1.186,0,0,1-1.187-1.185h0a1.187,1.187,0,0,1,1.187-1.187h14.229a1.186,1.186,0,0,1,1.185,1.187h0A1.185,1.185,0,0,1-354.17,2274.613Z" transform="translate(369.585 -2272.241)" fill="#fff"/>
            </g>
          </g>
        </g>
        <g id="Group_4523" data-name="Group 4523" transform="translate(98.014 16.031)" opacity="0.5">
          <path id="Path_3393" data-name="Path 3393" d="M-267.884,2304.486h-33.7c-2.48,0-4.491-2.994-4.491-6.689v-63.163c0-3.694,2.011-6.689,4.491-6.689h33.7c2.48,0,4.491,3,4.491,6.689V2297.8C-263.393,2301.492-265.4,2304.486-267.884,2304.486Z" transform="translate(306.079 -2227.944)" fill="#fff"/>
        </g>
        <g id="Group_4524" data-name="Group 4524" transform="translate(37.943 98.021)" opacity="0.2">
          <path id="Path_3394" data-name="Path 3394" d="M-246,2288.8h-98.811a2.372,2.372,0,0,1-2.372-2.372h0a2.373,2.373,0,0,1,2.372-2.372H-246a2.373,2.373,0,0,1,2.372,2.372h0A2.372,2.372,0,0,1-246,2288.8Z" transform="translate(347.187 -2284.052)" fill="#192f77" opacity="0.2"/>
        </g>
        <g id="Group_4525" data-name="Group 4525" transform="translate(41.949 7.219)" opacity="0.8">
          <path id="Path_3395" data-name="Path 3395" d="M-247.293,2226.657h-94.875a2.326,2.326,0,0,1-2.278-2.372h0a2.327,2.327,0,0,1,2.278-2.372h94.875a2.326,2.326,0,0,1,2.277,2.372h0A2.325,2.325,0,0,1-247.293,2226.657Z" transform="translate(344.446 -2221.914)" fill="#192f77"/>
        </g>
        <g id="Group_4526" data-name="Group 4526" transform="translate(42.658 20.503)">
          <rect id="Rectangle_1819" data-name="Rectangle 1819" width="9.206" height="8.716" rx="1.963" fill="#c1e7f7"/>
          <rect id="Rectangle_1820" data-name="Rectangle 1820" width="9.206" height="8.716" rx="1.963" transform="translate(14.204)" fill="#c1e7f7"/>
          <rect id="Rectangle_1821" data-name="Rectangle 1821" width="9.206" height="8.716" rx="1.963" transform="translate(28.407)" fill="#c1e7f7"/>
        </g>
        <g id="Group_4527" data-name="Group 4527" transform="translate(42.658 32.997)">
          <rect id="Rectangle_1822" data-name="Rectangle 1822" width="9.206" height="8.716" rx="1.963" fill="#c1e7f7"/>
          <rect id="Rectangle_1823" data-name="Rectangle 1823" width="9.206" height="8.716" rx="1.963" transform="translate(14.204)" fill="#c1e7f7"/>
          <rect id="Rectangle_1824" data-name="Rectangle 1824" width="9.206" height="8.716" rx="1.963" transform="translate(28.407)" fill="#c1e7f7"/>
        </g>
        <g id="Group_4528" data-name="Group 4528" transform="translate(42.658 45.491)">
          <rect id="Rectangle_1825" data-name="Rectangle 1825" width="9.206" height="8.716" rx="1.963" fill="#c1e7f7"/>
          <rect id="Rectangle_1826" data-name="Rectangle 1826" width="9.206" height="8.716" rx="1.963" transform="translate(14.204)" fill="#42a1d8"/>
          <rect id="Rectangle_1827" data-name="Rectangle 1827" width="9.206" height="8.716" rx="1.963" transform="translate(28.407)" fill="#c1e7f7"/>
        </g>
        <g id="Group_4529" data-name="Group 4529" transform="translate(42.658 57.985)">
          <rect id="Rectangle_1828" data-name="Rectangle 1828" width="9.206" height="8.716" rx="1.963" fill="#c1e7f7"/>
          <rect id="Rectangle_1829" data-name="Rectangle 1829" width="9.206" height="8.716" rx="1.963" transform="translate(14.204)" fill="#c1e7f7"/>
          <rect id="Rectangle_1830" data-name="Rectangle 1830" width="9.206" height="8.716" rx="1.963" transform="translate(28.407)" fill="#c1e7f7"/>
        </g>
        <g id="Group_4530" data-name="Group 4530" transform="translate(42.658 70.479)">
          <rect id="Rectangle_1831" data-name="Rectangle 1831" width="9.206" height="8.716" rx="1.963" fill="#c1e7f7"/>
          <rect id="Rectangle_1832" data-name="Rectangle 1832" width="9.206" height="8.716" rx="1.963" transform="translate(14.204)" fill="#c1e7f7"/>
          <rect id="Rectangle_1833" data-name="Rectangle 1833" width="9.206" height="8.716" rx="1.963" transform="translate(28.407)" fill="#c1e7f7"/>
        </g>
        <g id="Group_4531" data-name="Group 4531" transform="translate(42.658 82.972)">
          <rect id="Rectangle_1834" data-name="Rectangle 1834" width="9.206" height="8.716" rx="1.963" fill="#c1e7f7"/>
          <rect id="Rectangle_1835" data-name="Rectangle 1835" width="9.206" height="8.716" rx="1.963" transform="translate(14.204)" fill="#c1e7f7"/>
          <rect id="Rectangle_1836" data-name="Rectangle 1836" width="9.206" height="8.716" rx="1.963" transform="translate(28.407)" fill="#c1e7f7"/>
        </g>
      </g>
      <g id="Group_4545" data-name="Group 4545" transform="translate(166.762 75.827)" opacity="0.7">
        <g id="Group_4544" data-name="Group 4544">
          <g id="Group_4534" data-name="Group 4534" transform="translate(0 61.561)">
            <g id="Group_4533" data-name="Group 4533">
              <path id="Path_3396" data-name="Path 3396" d="M-289.537,2277.272l-.941.157-7.061,1.189v-.958a1.793,1.793,0,0,1,.87-1.491l5.3-3.179.91-.548Z" transform="translate(297.539 -2272.442)" fill="#192f77"/>
              <path id="Path_3397" data-name="Path 3397" d="M-282.521,2278.7l-6.975-1.241-1.016-.181.973-4.822.97.6,5.2,3.195a1.786,1.786,0,0,1,.845,1.369,1.013,1.013,0,0,1,.009.164v.164Z" transform="translate(300.781 -2272.436)" fill="#192f77"/>
            </g>
          </g>
          <path id="Path_3398" data-name="Path 3398" d="M-285.065,2278.436c0,.858-.418,7.482-.718,9.347l-1.892,8.972-.263,1.244a1.92,1.92,0,0,1-1.2,1.4,1.89,1.89,0,0,1-.69.123,1.881,1.881,0,0,1-.7-.135,1.924,1.924,0,0,1-1.176-1.406l-.251-1.248-1.818-8.988c-.286-1.9-.633-8.275-.628-8.985,0,0,.225-41.692.241-41.853a8.9,8.9,0,0,1,2.715-5.822,2.787,2.787,0,0,1,1.944-.77,2.786,2.786,0,0,1,1.936.789,8.86,8.86,0,0,1,2,2.928,8.848,8.848,0,0,1,.678,2.918C-284.873,2237.113-285.065,2278.436-285.065,2278.436Z" transform="translate(298.988 -2230.314)" fill="#fcfcfc"/>
          <path id="Path_3399" data-name="Path 3399" d="M-288.44,2287.676a58.855,58.855,0,0,0,.656-8.484s.215-44.023.216-44.106a3.161,3.161,0,0,0-.891-2.232,2.668,2.668,0,0,0-.32-.236,2.587,2.587,0,0,0-1.184-.395c-.063,0-.127-.007-.194-.007-.042,0-.085,0-.126,0a2.58,2.58,0,0,0-1.187.343,2.219,2.219,0,0,0-.322.221,2.606,2.606,0,0,0-.989,2.034c0,.055.009.244.009.244l-.219,44.105a59.128,59.128,0,0,0,.574,8.49l1.257,6.44,1.388.006Z" transform="translate(299.637 -2229.436)" fill="#f9f9f9"/>
          <path id="Path_3400" data-name="Path 3400" d="M-291.075,2280.706a.7.7,0,0,1-.69-.7l.05-10.422a.7.7,0,0,1,.7-.69.7.7,0,0,1,.691.7l-.051,10.422A.7.7,0,0,1-291.075,2280.706Z" transform="translate(300.202 -2212.516)" fill="#192f77"/>
          <g id="Group_4543" data-name="Group 4543" transform="translate(5.937 12.328)" opacity="0.7">
            <g id="Group_4535" data-name="Group 4535">
              <rect id="Rectangle_1837" data-name="Rectangle 1837" width="2.055" height="2.055" rx="0.351" fill="#cacadd"/>
              <rect id="Rectangle_1838" data-name="Rectangle 1838" width="2.055" height="2.055" rx="0.351" transform="translate(2.568)" fill="#cacadd"/>
              <rect id="Rectangle_1839" data-name="Rectangle 1839" width="2.055" height="2.055" rx="0.351" transform="translate(5.137)" fill="#cacadd"/>
            </g>
            <g id="Group_4536" data-name="Group 4536" transform="translate(0 5.342)">
              <rect id="Rectangle_1840" data-name="Rectangle 1840" width="2.055" height="2.055" rx="0.351" fill="#cacadd"/>
              <rect id="Rectangle_1841" data-name="Rectangle 1841" width="2.055" height="2.055" rx="0.351" transform="translate(2.568)" fill="#cacadd"/>
              <rect id="Rectangle_1842" data-name="Rectangle 1842" width="2.055" height="2.055" rx="0.351" transform="translate(5.137)" fill="#cacadd"/>
            </g>
            <g id="Group_4537" data-name="Group 4537" transform="translate(0 10.685)">
              <rect id="Rectangle_1843" data-name="Rectangle 1843" width="2.055" height="2.055" rx="0.351" fill="#cacadd"/>
              <rect id="Rectangle_1844" data-name="Rectangle 1844" width="2.055" height="2.055" rx="0.351" transform="translate(2.568)" fill="#42a1d8"/>
              <rect id="Rectangle_1845" data-name="Rectangle 1845" width="2.055" height="2.055" rx="0.351" transform="translate(5.137)" fill="#cacadd"/>
            </g>
            <g id="Group_4538" data-name="Group 4538" transform="translate(0 16.027)">
              <rect id="Rectangle_1846" data-name="Rectangle 1846" width="2.055" height="2.055" rx="0.351" fill="#cacadd"/>
              <rect id="Rectangle_1847" data-name="Rectangle 1847" width="2.055" height="2.055" rx="0.351" transform="translate(2.568)" fill="#cacadd"/>
              <rect id="Rectangle_1848" data-name="Rectangle 1848" width="2.055" height="2.055" rx="0.351" transform="translate(5.137)" fill="#cacadd"/>
            </g>
            <g id="Group_4539" data-name="Group 4539" transform="translate(0 21.369)">
              <rect id="Rectangle_1849" data-name="Rectangle 1849" width="2.055" height="2.055" rx="0.351" fill="#cacadd"/>
              <rect id="Rectangle_1850" data-name="Rectangle 1850" width="2.055" height="2.055" rx="0.351" transform="translate(2.568)" fill="#cacadd"/>
              <rect id="Rectangle_1851" data-name="Rectangle 1851" width="2.055" height="2.055" rx="0.351" transform="translate(5.137)" fill="#cacadd"/>
            </g>
            <g id="Group_4540" data-name="Group 4540" transform="translate(0 26.711)">
              <rect id="Rectangle_1852" data-name="Rectangle 1852" width="2.055" height="2.055" rx="0.351" fill="#cacadd"/>
              <rect id="Rectangle_1853" data-name="Rectangle 1853" width="2.055" height="2.055" rx="0.351" transform="translate(2.568)" fill="#cacadd"/>
              <rect id="Rectangle_1854" data-name="Rectangle 1854" width="2.055" height="2.055" rx="0.351" transform="translate(5.137)" fill="#cacadd"/>
            </g>
            <g id="Group_4541" data-name="Group 4541" transform="translate(0 32.054)">
              <rect id="Rectangle_1855" data-name="Rectangle 1855" width="2.055" height="2.055" rx="0.351" fill="#cacadd"/>
              <rect id="Rectangle_1856" data-name="Rectangle 1856" width="2.055" height="2.055" rx="0.351" transform="translate(2.568)" fill="#cacadd"/>
              <rect id="Rectangle_1857" data-name="Rectangle 1857" width="2.055" height="2.055" rx="0.351" transform="translate(5.137)" fill="#cacadd"/>
            </g>
            <g id="Group_4542" data-name="Group 4542" transform="translate(0 37.396)">
              <rect id="Rectangle_1858" data-name="Rectangle 1858" width="2.055" height="2.055" rx="0.351" fill="#cacadd"/>
              <rect id="Rectangle_1859" data-name="Rectangle 1859" width="2.055" height="2.055" rx="0.351" transform="translate(2.568)" fill="#cacadd"/>
              <rect id="Rectangle_1860" data-name="Rectangle 1860" width="2.055" height="2.055" rx="0.351" transform="translate(5.137)" fill="#cacadd"/>
            </g>
          </g>
        </g>
      </g>
    </g>
    <g id="Group_12-2-2" data-name="Group 12-2" transform="translate(-439.728 2163.748)" opacity="0.2">
      <path id="Fill_10-2" data-name="Fill 10" d="M-370.915,2174.126a3.755,3.755,0,0,0,.614-2.452c-.224-1.366-1.555-2.186-3.548-2.423a4.208,4.208,0,0,0,.345-2.286c-.589-3.634-7.3-4.287-14.981-1.462a32.062,32.062,0,0,0-7.286,3.76,3.025,3.025,0,0,0-.013-1.315c-.694-2.7-5.9-2.195-11.622,1.142a29.493,29.493,0,0,0-3.868,2.684c-.438-1.071-2.7-1.008-5.208.184a11.215,11.215,0,0,0-3.25,2.272l-20,1.665h88.736Z" transform="translate(439.728 -2163.748)" fill="#00aeef"/>
    </g>
  </g>
</svg>
