<svg xmlns="http://www.w3.org/2000/svg" width="623.063" height="347.782" viewBox="0 0 623.063 347.782">
    <defs>
        <filter id="prefix__Path_317" width="623.063" height="345.782" x="0" y="2" filterUnits="userSpaceOnUse">
            <feOffset dx="20" dy="40"/>
            <feGaussianBlur result="blur" stdDeviation="38"/>
            <feFlood flood-color="#6f82a7" flood-opacity=".2"/>
            <feComposite in2="blur" operator="in"/>
            <feComposite in="SourceGraphic"/>
        </filter>
        <style>
            .prefix__cls-1{opacity:.2}.prefix__cls-2,.prefix__cls-3,.prefix__cls-9{fill:#fff}.prefix__cls-3{stroke-dasharray:930}.prefix__cls-11,.prefix__cls-4,.prefix__cls-5{fill:#0e3178}.prefix__cls-4,.prefix__cls-6{font-size:16px}.prefix__cls-4,.prefix__cls-5,.prefix__cls-6{font-family:Lato-Regular,Lato}.prefix__cls-5{font-size:14px}.prefix__cls-6{fill:#d0d3dd}.prefix__cls-10,.prefix__cls-7,.prefix__cls-8{fill:none}.prefix__cls-7,.prefix__cls-8,.prefix__cls-9{stroke:#d0d3dd;stroke-width:1.5px}.prefix__cls-8{stroke-linecap:round;stroke-linejoin:round;stroke-miterlimit:10}.prefix__cls-10{stroke:#7b7b7b;stroke-dasharray:10}.prefix__cls-12{fill:#00aeef}.prefix__cls-13,.prefix__cls-14{stroke:none}.prefix__cls-14{fill:#707070}
        </style>
    </defs>
    <g id="prefix__Illustration_01" data-name="Illustration 01" transform="translate(-182 -1798.609)">
        <g id="prefix__Group_103" class="prefix__cls-1" data-name="Group 103" transform="translate(-5019.475 2327)">
            <path id="prefix__Path_317-2" d="M19.558 0h271.071l6.617 5.831L303.906 0h71.6c10.8 0 19.558 10.442 19.558 23.323v71.136c0 12.881-8.756 23.323-19.558 23.323h-70.528l-7.7-5.831-7.451 5.831H19.558C8.756 117.783 0 107.34 0 94.459V23.323C0 10.442 8.756 0 19.558 0z" class="prefix__cls-2" data-name="Path 317" transform="translate(5217.475 -364.391)"/>
            <g id="prefix__Path_316" class="prefix__cls-3" data-name="Path 316">
                <path d="M18.964 0H281.8l6.416 5 6.458-5H364.1c10.473 0 18.964 8.954 18.964 20v61c0 11.046-8.49 20-18.964 20h-68.386l-7.465-5-7.224 5H18.964C8.49 101 0 92.046 0 81V20C0 8.954 8.49 0 18.964 0z" class="prefix__cls-13" transform="translate(5223.475 -356)"/>
                <path d="M18.964 0H281.8l.276.215.727.566 1.027.801 1.178.918 1.178.918 1.028.8.726.567.276.215.003-.002.003-.003h.001l.001-.001.01-.007v-.001l.003-.002h.001v-.001l.002-.002.004-.003h.001l.01-.008.007-.005.01-.008.005-.004.003-.002.003-.003.009-.007.004-.003.004-.003.003-.002.004-.003.002-.002.002-.002.024-.018.006-.004.003-.003.005-.004.01-.008.002-.001.003-.003.01-.008.004-.003.002-.001.038-.029.008-.007.003-.002.048-.037.007-.005.01-.008c.024-.019.05-.038.076-.06l.016-.012.033-.025.001-.001.02-.014V4.67l.018-.013.003-.003.04-.03.008-.006.006-.005.008-.006.023-.018.032-.025.01-.009h.002l.011-.01.038-.028.004-.003.008-.007c.002 0 .003-.002.005-.003l.018-.014.006-.005.042-.033.037-.028.006-.004.036-.028.001-.002c.017-.012.034-.025.05-.039l.045-.034.015-.011.018-.014.081-.063.027-.021.005-.004.031-.024.003-.002.074-.057.063-.05.004-.003.01-.008.02-.015.065-.05.027-.02.016-.014.015-.011.008-.006.036-.028.012-.01.01-.007.008-.007.01-.007.008-.006.003-.002.016-.013.047-.036.016-.013.002-.002.015-.01.09-.07.02-.015.014-.012.026-.02.012-.01.01-.007.021-.016.01-.008.014-.011.004-.003.014-.01.053-.042.146-.113.01-.007.015-.012.02-.016h.001l.017-.014.011-.009.03-.022c.024-.02.05-.039.075-.058l.002-.002.185-.143.011-.009.06-.047.009-.006.012-.01.006-.004.124-.096.048-.038c.002 0 .004-.002.005-.003l.008-.007.011-.008.007-.006.022-.017.014-.01c.011-.01.023-.018.034-.026l.015-.012.022-.017.052-.04.13-.1.001-.002.012-.01.01-.007.025-.02.014-.01.106-.082.003-.003.033-.025.013-.01.024-.019.106-.082.006-.005.012-.008.015-.012.01-.008.043-.034.006-.004.022-.017.003-.003.13-.1.017-.014.006-.004.025-.019.014-.011.013-.01.018-.014.027-.02.008-.007.011-.009.007-.005.01-.007.01-.009.1-.077.02-.016.076-.059.013-.01.004-.003.068-.052.005-.004.145-.113.014-.01.012-.01h.001l.176-.137.03-.022.006-.005.008-.007.007-.005.034-.026.015-.012.017-.013.014-.011.05-.038.01-.008.085-.066.064-.05.1-.077.002-.001.007-.006.029-.022.04-.032.013-.01.017-.013.018-.014.012-.009.034-.026.004-.003.01-.009.007-.005.014-.01.02-.015.005-.005.26-.201.006-.005.072-.055.004-.004.006-.004.014-.011.036-.028.009-.007.01-.007.009-.008.01-.008c.004-.003.008-.005.01-.008l.012-.009.007-.005.004-.003.014-.01.01-.008.08-.063.02-.015.007-.006.007-.005.02-.015.01-.007.007-.006.001-.001.024-.019.007-.005.02-.015.018-.014.138-.108.005-.003.005-.004.008-.006.002-.002.01-.008.003-.002.02-.015.002-.002.037-.028.007-.006.008-.006.004-.003.003-.003.006-.005.058-.044.005-.004.017-.013.051-.04.002-.001.05-.04.015-.01.008-.007.015-.012.004-.003.002-.001.027-.021.011-.009.006-.004.005-.004.006-.005.019-.014.002-.002.002-.002.016-.012.01-.008.01-.008.004-.003.026-.02.009-.006.006-.005.01-.008.003-.002.006-.005.003-.002.003-.002V.056l.009-.006.005-.005.007-.005.003-.002.002-.002.003-.002.001-.001.002-.002.003-.001.007-.006.003-.003.003-.002.005-.003.002-.002.002-.002.007-.005.001-.001.002-.001V.003l.003-.002h.001V0h.001V0h69.441c.16 0 .32.002.479.007.268.007.534.02.8.039l.047.003c5.2.383 9.821 2.977 13.026 6.897l.019.022.018.023.018.022.001.002.017.02.002.003.017.02.001.003.017.02.002.003.016.02.003.003.015.02.003.003.015.02c.002 0 .003.002.004.003l.015.019.003.004.014.019.005.005.013.017.005.006.013.017.005.007.014.016.005.007.012.016.006.007.013.016.005.007.012.016.006.008.012.015.007.009.01.014.008.01.01.013.008.01.01.013.008.01.01.013.008.01.01.014.008.01.01.013.008.011.01.012.008.012.009.011.009.013.009.01c.002.005.006.009.009.013l.008.011.01.013.008.01.01.013.007.01.01.014.008.01.01.014.007.01.01.013c.002.003.005.008.008.01l.01.014.007.01.01.014.007.01.011.014.007.009.01.015.007.009.011.015.006.008.012.016.005.008.013.017.004.006.013.018.004.006.013.017.005.007.012.018.005.006.013.018.004.006.013.018.004.005.013.02.004.004.013.02.004.004.013.02.004.004.014.02c0 .002.001.002.003.004l.014.02.003.004.014.02.002.004.015.02.002.004.014.02.003.005.014.02.003.004.014.02.003.004.014.02.002.004.015.021.002.003.015.022.001.002.015.022.003.003.014.022.002.002.015.022c0 .001 0 .002.002.003l.014.022.002.002.015.022.002.002.015.023.001.002.015.022.002.002.014.023.002.002.015.022.001.003.015.022.002.002.015.023v.002l.016.023.001.001.016.024.015.024.002.002.015.023v.001l.016.024.001.001.015.024.017.025.016.025.016.025.048.075.015.025.032.05.047.075.016.025v.001l.015.024.001.001.015.024v.001l.016.025.015.025.016.025.015.026.016.025.015.025v.002c.006.007.01.015.015.023l.001.002.015.024.015.025v.001l.015.024.001.002.014.024.002.002.013.023.002.003.014.023v.002l.015.024v.001l.015.024v.002l.015.024v.001l.015.025.015.025v.002l.015.023.001.003.014.023v.003l.014.023.002.002.013.024.001.002.014.024.001.002.014.024.001.002.013.023.002.003.013.023.002.003.013.023.001.003.013.023.002.003.013.023.002.003.012.023.002.003.013.023c0 .001 0 .002.002.003l.012.023.002.003.013.022.002.004.012.023.002.003.012.023.002.003.013.023.002.004.012.022.002.004.012.022.002.004.012.022.003.004.012.022.002.005.012.021.002.005.012.022.002.004.012.022.002.005.012.021.002.005.012.022.002.004.012.022.002.005.012.021.002.005.011.021.003.006.011.021.003.006.01.02.004.006.01.02.004.007.01.02.004.007.01.02.003.006.01.02.004.007.01.02.004.007.01.02.003.006.01.02.004.007.01.02.004.007.01.019.003.008.01.018c0 .003.002.006.004.008l.009.02.004.007.01.019c0 .003.002.005.003.008l.01.018.004.01.009.017.004.009.01.018.003.009.01.018c0 .003.002.005.004.009l.008.018.005.009.009.017.004.01.009.017.004.01.009.017.004.01.009.017.004.01.009.017.004.01.009.017.004.01.008.017.005.01.008.017.005.01.008.017.005.01.008.017.005.01.008.017.005.01.008.018.004.01.008.017.005.01.008.017.004.01.009.017.004.01.008.018.005.01.008.017.004.01.008.017.005.01.007.017.006.011.007.016.005.011.007.017.005.01.008.017.005.011.007.016.005.012.007.016.005.011.007.016.006.012.006.015.006.013.007.015.005.012.007.015.005.013.007.015.005.013.007.014.005.013.007.015.005.013.007.015.005.012.007.016.005.011.007.016.005.012.006.016.006.012.006.016.006.012.006.015.005.013.007.015.005.012.007.016.005.012.006.016.005.011.007.017.005.011.007.017.004.011.007.017.005.01.007.018.004.01.007.017.005.012.007.016.004.012.007.017.005.01.006.018.005.01.007.018.004.01.007.018.004.01.008.019.003.009.008.018.004.01.007.019.004.01.007.017.004.01.007.018.004.01.007.02.004.008.007.02.004.008.007.02.004.009.007.019.004.009.007.019.004.01.007.018.004.01.006.018.004.01.007.018.004.01.007.019.004.01.007.018.003.01.007.019.004.01.007.018.003.01.008.019.003.009.007.02.003.008.008.02c0 .003.002.006.003.008l.007.02.003.009.008.02.003.008.007.02.003.009.007.02.003.008.007.02.004.009.007.02c0 .003.002.006.003.008l.007.021.003.008.007.02.003.008.007.021.003.008.007.02.003.01.007.02.003.008.007.02.003.008.007.021.003.008.008.022.002.006.007.022.003.007.007.022.002.006.008.023.002.007.008.022.002.006.007.022.003.007.007.022.002.007.008.022.002.007.007.022.003.007.007.022.002.007.007.022.003.007.007.022.002.007.007.022.003.007.007.022.002.007.007.022.002.007.007.022.003.007.007.022.002.007.007.022.002.007.007.022.002.007.007.022.002.008.007.021c0 .003.002.006.003.008l.006.021.003.008.006.021c0 .003.002.006.003.008l.006.022.002.007.007.023.002.006.007.023.002.006.007.023.002.006.007.024.002.006.007.023.001.006.007.023.002.007.007.022.002.007.007.023c0 .002 0 .004.002.006l.006.023.002.007.007.022.002.007.006.023.002.006.007.023c0 .003 0 .004.002.007l.006.023.002.006.007.023.001.007.007.023.002.006.006.024.002.006.007.023.001.006.007.024.002.006.006.023.002.007.006.022.002.007.006.023.002.007.006.023.002.006.006.023.002.007.006.023.002.007.006.022.002.008.006.022.002.007.006.023.002.007.006.023.001.007.006.022.002.008.006.022.002.008.006.023.001.005.007.025.001.005.006.024.002.006.006.024.001.006.006.024.002.006.006.024.001.006.006.024.002.006.005.024.002.006.006.024.001.006.006.024.001.006.006.024.002.006.006.024v.005l.007.025v.005l.007.025.001.005.006.025.001.005.006.025.001.005.006.025.001.006.006.024.001.006.006.024.001.006.006.025v.005c.003.008.005.017.006.025l.002.005.005.025.001.005.006.025.001.006.006.024v.006l.006.024.001.006.006.025.001.005.005.025.002.005.005.025.001.006.005.025.002.005.005.025.001.005.005.025.001.006.006.025v.005l.006.025v.005l.006.026.001.005.005.025.001.005.006.025v.005l.006.026v.005l.006.025v.005l.006.026v.005l.006.025v.005l.006.026v.005l.006.025v.006l.005.025.001.005.005.025.001.006.005.025.001.005.005.025v.006l.005.024.002.007.004.024.001.006.005.025v.006l.005.024.001.007.005.024v.006l.005.025.001.006.005.025v.006l.005.024.001.006.004.025.001.006.005.025v.006l.005.025v.005l.005.026v.005l.005.025.001.006.004.025.001.006.004.025.001.006.004.025.001.005.004.026.001.005.004.026.001.005.004.026.001.005.004.026v.005l.005.026v.005l.005.026v.004l.004.027.001.004.004.027v.004l.005.027v.005l.004.026v.005l.005.026v.005l.004.026v.005l.005.026v.005l.004.026v.005l.004.026v.005l.005.026v.005l.004.027v.004l.004.027v.004l.004.027v.004l.004.027v.004l.004.028v.003l.004.028v.003l.004.028v.003l.004.028v.004l.004.027v.004l.004.027v.004l.004.028v.004l.004.027v.004l.003.028v.003l.004.028v.003l.004.028v.003l.003.029v.003l.004.028v.003l.003.029v.002l.004.03v.002l.003.029v.002l.003.03v.001l.004.03v.002c0 .01.002.02.003.029v.003l.003.028v.003l.003.029v.002l.003.03v.002l.003.029v.002l.004.03v.002l.002.029v.003l.003.028v.003l.003.029v.003l.003.029v.002l.003.03v.002c0 .01.002.019.003.028v.004l.002.028v.003l.003.029v.003l.002.029v.002l.003.03v.002l.003.03v.002l.002.029v.002l.002.03v.002l.003.03v.002l.002.03v.001l.002.03v.002l.003.03v.002l.002.03v.001l.002.03v.002l.002.03v.002l.002.03v.001l.002.031v.001l.002.031v.001l.002.031.002.032.002.032.001.031v.002l.002.03v.002l.002.03v.002l.001.03v.001l.002.031v.001l.001.031v.001l.002.031v.001l.001.031v.001l.002.031v.033l.002.032.001.032.002.032v.032l.002.032v.032l.002.032v.032l.002.032v.033l.001.031v.001l.001.032v.032l.001.032.001.032v.033l.001.032v.032l.001.032v.097l.001.033V81c0 2.233-.346 4.38-.987 6.385l-.009.03-.01.028-.009.03-.009.028-.01.03-.009.028-.01.029v.001l-.009.028v.001l-.01.027v.002l-.01.027v.002l-.009.027v.002l-.01.027v.002l-.01.027v.001l-.01.027v.003l-.009.026v.002l-.01.026v.004l-.01.025-.001.004-.008.024-.002.005-.008.024-.002.004-.008.024-.002.005-.009.024-.001.005-.009.024-.001.004-.009.024-.002.005-.008.023-.002.006-.008.023-.002.006-.008.022-.003.007-.008.021-.002.007-.008.022-.002.006-.009.023-.002.006-.008.022-.002.007-.008.02-.003.009-.008.02-.003.008-.007.02-.003.009-.008.02-.003.008-.008.02-.003.009-.007.019-.004.01-.007.018-.004.01-.007.018c0 .004-.002.006-.003.01l-.008.019-.003.009-.007.02-.004.008-.007.02-.004.008-.007.02-.004.009-.007.019-.004.009-.007.018-.004.01-.007.019-.004.01-.007.018-.004.01-.007.018-.004.01-.008.018-.003.01-.008.018-.004.01-.007.018-.004.01-.007.017-.005.011-.006.018-.005.01-.007.017-.004.012-.007.016-.005.012-.007.016-.004.011-.007.017-.005.011-.007.017-.004.011-.007.017-.005.01-.007.018-.005.01-.006.017-.005.012-.007.016-.005.012-.007.015-.005.013-.006.015-.006.012-.006.016-.006.012-.006.016-.005.012-.007.016-.005.011-.007.016-.005.012-.007.015-.005.013-.007.015-.005.013-.007.014-.005.013-.007.015-.005.013-.007.015-.005.012-.007.015-.006.013-.006.015-.006.012-.007.016-.005.011-.007.016-.005.012-.007.016-.005.011-.008.016-.005.011-.007.017-.005.01-.007.017-.006.011-.007.016-.005.011-.008.017-.004.01-.008.017-.005.01-.008.018-.004.01-.009.017-.004.01-.008.017-.005.01-.008.017-.004.01-.008.017-.005.01-.008.018-.005.01-.008.016-.005.01-.008.018-.005.01-.008.017-.005.01-.008.017-.004.01-.009.017-.004.01-.009.017-.004.01-.009.017-.004.01-.009.017-.004.01-.009.017-.004.01-.01.017c0 .004-.002.006-.004.01l-.008.017-.005.01-.009.017-.004.009-.009.018-.004.009-.01.018-.003.009-.01.018c0 .003-.002.005-.004.008l-.009.019-.004.008-.01.019-.003.008-.01.018-.004.008-.01.02-.003.007-.01.02-.004.006-.01.02-.003.007-.01.02-.004.006-.01.02-.003.007-.01.02-.004.007-.01.02-.004.006-.01.02-.003.007-.01.02-.004.006-.01.02-.004.006-.01.02-.004.007-.01.02-.003.006-.012.021-.002.005-.012.022-.002.004-.012.022-.002.005-.012.021-.002.005-.012.022-.002.004-.012.022-.002.005-.012.021-.002.005-.012.022-.003.004-.012.022-.002.004-.012.022-.002.004-.012.022-.002.004-.013.023-.002.003-.012.023-.002.003-.012.023-.002.004-.013.022-.002.003-.012.023-.002.003-.013.023c0 .001 0 .002-.002.003l-.012.023-.002.003-.013.023-.002.003-.013.023-.001.003-.013.023-.002.003-.013.023c0 .001 0 .002-.002.003l-.013.023-.001.002-.014.024v.002l-.015.024v.002l-.014.024-.002.002-.013.023-.001.003-.014.023-.001.003-.014.023-.001.002-.014.024v.001c-.006.008-.01.017-.015.025l-.015.025-.001.002-.014.024-.001.001-.014.024-.001.002-.014.023-.002.003-.013.023-.002.002-.014.024-.001.002c-.005.008-.01.015-.014.024h-.001l-.015.025v.001l-.015.024v.002l-.015.023-.001.002-.015.024v.001l-.015.025-.016.025-.015.025v.001l-.016.025-.015.025-.016.025v.001l-.015.024-.001.001-.015.024v.001l-.048.075-.031.05-.016.025-.048.075-.016.025-.016.025-.016.024v.001l-.016.024-.001.001-.015.024-.001.001-.015.023-.002.002c-.004.008-.01.016-.015.023v.001l-.016.024v.001l-.016.023-.001.002-.015.023-.002.002-.015.022-.001.003-.015.022-.002.002-.014.023-.002.002-.015.022-.001.002-.015.023-.002.002-.015.022-.002.002-.014.022-.002.003-.015.022-.002.002-.014.022-.003.003-.015.022v.002l-.016.022-.002.003-.015.021-.002.003-.014.021-.003.004-.014.02-.003.004-.014.02c0 .002-.002.003-.003.005l-.014.02-.002.004-.015.02-.002.004-.014.02-.003.004-.014.02-.003.004-.014.02-.004.005-.013.019-.004.005-.013.019-.004.005-.013.019-.004.005-.013.018-.004.006-.013.018-.005.006-.012.018-.005.007-.013.017-.004.006-.013.018-.004.006-.013.017-.005.008-.012.016-.006.008-.011.015-.006.009-.011.015-.007.009-.01.015-.007.009-.011.014-.007.01-.01.013-.008.01-.01.014-.007.01-.01.013-.008.01-.01.014-.008.01c-.003.005-.006.01-.01.013l-.007.011-.01.013-.008.011-.01.012-.008.011-.01.013-.008.011-.009.012-.009.012-.008.011-.01.013-.008.01-.01.013-.008.01-.01.014-.008.01-.01.013-.007.01-.011.014-.007.009-.011.014-.007.009-.012.015-.006.008-.012.016-.005.007-.013.016-.006.007-.012.016-.005.007-.014.016-.005.007-.013.017-.005.006-.013.017-.005.005-.014.019-.003.004-.015.019-.004.004-.015.019-.003.004-.015.019-.003.003-.016.02-.002.003-.017.02-.001.003-.017.02-.002.002-.017.021v.002l-.018.021-.001.001-.018.023-.019.022c-.73.893-1.532 1.716-2.399 2.46-3.264 2.805-7.43 4.486-11.968 4.486h-68.386l-.005-.004-.042-.027-.001-.001-.009-.006-.002-.001-.004-.003-.004-.003-.005-.003-.005-.003-.006-.005h-.002l-.003-.003-.004-.002-.008-.006-.004-.003-.003-.001-.005-.004-.007-.005-.057-.038-.01-.006-.084-.057-.012-.008-.004-.003-.003-.001-.005-.004-.022-.014-.005-.004-.01-.007-.012-.008-.014-.01-.006-.003-.01-.006-.039-.027-.053-.035-.04-.027-.079-.053-.01-.007-.036-.024-.023-.015-.012-.008-.013-.01-.007-.003-.01-.008-.01-.007-.008-.004-.008-.006-.004-.003-.058-.038-.013-.009-.005-.004-.012-.007-.029-.02-.043-.028-.012-.009-.01-.007-.044-.029-.023-.015-.003-.003-.044-.029-.016-.01-.002-.002-.019-.012-.005-.004-.017-.012-.02-.013-.002-.001-.064-.043-.027-.018-.01-.006-.01-.007-.012-.008-.021-.015c-.017-.01-.033-.022-.05-.033l-.008-.006-.03-.02-.002-.001-.071-.047-.018-.012-.017-.012-.009-.006-.03-.02-.015-.01-.012-.008-.007-.005-.046-.03-.036-.025-.026-.017-.013-.009-.09-.06-.012-.008-.052-.035-.024-.016-.028-.019-.011-.007-.003-.002-.04-.027-.065-.043-.043-.029-.039-.026-.113-.076-.006-.004-.121-.081-.02-.014-.018-.011-.005-.004-.014-.01h-.002l-.02-.014-.1-.067-.06-.04-.028-.02-.048-.031-.01-.007-.068-.045-.02-.014-.147-.098-.04-.027-.026-.017-.017-.012c-.002 0-.004-.002-.006-.004l-.068-.046-.01-.006-.01-.007-.01-.007-.021-.014-.028-.018-.042-.028-.044-.03-.032-.021-.003-.003-.014-.009-.014-.01-.005-.003-.013-.008-.026-.018-.016-.01-.01-.007-.04-.026-.005-.004-.022-.015-.014-.01-.244-.162-.017-.012-.06-.04-.018-.012-.014-.01-.03-.02c-.002 0-.004-.003-.006-.004l-.027-.018-.077-.052-.004-.002-.03-.02-.002-.002c-.016-.01-.032-.02-.048-.032l-.01-.007-.017-.01-.001-.002-.237-.158-.105-.07-.014-.01-.004-.003-.014-.01-.014-.008-.034-.023-.003-.002-.016-.011-.07-.047-.017-.01-.046-.032-.039-.026-.007-.005-.033-.022-.01-.007-.01-.006-.032-.022-.055-.036-.012-.009-.007-.004-.01-.007-.35-.235-.02-.013-.025-.016-.028-.02c-.02-.012-.04-.026-.059-.039l-.013-.009-.037-.025-.029-.019-.04-.026-.004-.003-.034-.023-.009-.006-.005-.004-.044-.029-.006-.004-.017-.011-.002-.001-.126-.085-.024-.016-.007-.005-.008-.005-.015-.01-.003-.002-.038-.025-.058-.04-.01-.007-.014-.008-.002-.002-.014-.01-.007-.004-.01-.007-.017-.011-.022-.015-.005-.003-.013-.009-.008-.006-.078-.051-.019-.013-.016-.011-.014-.009-.007-.005-.01-.007-.005-.003-.151-.101-.013-.01-.012-.007-.015-.01-.009-.006-.033-.022-.02-.014-.024-.015-.002-.002-.015-.01-.016-.01-.003-.003-.051-.034-.006-.004-.007-.005-.007-.004-.046-.031-.03-.02-.044-.03-.055-.036-.006-.005-.013-.008-.026-.018-.022-.015-.003-.002-.021-.013-.007-.005-.009-.006-.008-.005-.006-.005-.006-.003-.01-.007-.002-.002-.065-.043-.002-.002-.057-.038-.01-.006-.03-.021-.015-.01-.008-.005-.01-.006-.01-.007-.012-.008-.007-.005-.007-.005-.07-.047-.007-.004-.054-.037-.003-.002-.053-.035-.006-.004-.004-.003-.025-.016-.002-.001-.007-.005-.002-.001-.006-.005-.004-.003-.012-.007-.013-.01h-.002l-.007-.005-.022-.015-.003-.002-.003-.002-.024-.016-.026-.018-.006-.003-.04-.028-.005-.003-.05-.033-.012-.008-.003-.002-.005-.004h-.001l-.002-.002h-.001l-.002-.001-.004-.003-.002-.002-7.225 5H18.964c-.23 0-.46-.004-.688-.013l-.228-.01c-4.873-.244-9.263-2.428-12.494-5.835l-.04-.042-.02-.021v-.001l-.019-.02-.002-.002-.018-.019-.002-.003-.017-.017-.004-.005-.015-.017-.005-.005-.015-.016-.005-.005-.014-.016-.007-.006-.013-.015-.007-.007-.012-.014-.008-.008-.011-.013-.01-.01-.01-.01-.01-.012-.009-.01-.01-.012-.01-.01-.01-.012-.009-.009-.011-.013-.008-.008-.012-.014-.007-.008-.013-.014-.007-.007-.013-.015-.006-.007-.014-.015-.005-.006-.014-.016-.006-.006-.014-.016-.005-.005-.015-.018-.004-.004-.016-.018-.003-.004-.016-.018-.003-.003-.017-.02-.002-.002-.017-.02-.002-.002-.018-.02-.001-.002-.019-.02v-.001c-.602-.693-1.158-1.431-1.663-2.209l-.016-.024v-.001l-.016-.024v-.001l-.016-.024v-.001l-.016-.023-.001-.002-.014-.023-.002-.003-.014-.022-.002-.003-.014-.021-.002-.004-.014-.021-.002-.004-.013-.02-.003-.006-.013-.02-.003-.005-.013-.02-.003-.006-.012-.018-.004-.007-.012-.018-.004-.007-.012-.019-.003-.006-.012-.019-.004-.006-.011-.019-.005-.007-.01-.018c-.003-.002-.004-.005-.006-.008l-.01-.016-.006-.01-.01-.016-.005-.009-.01-.016-.006-.009-.01-.016-.005-.01-.01-.016-.006-.01-.009-.015-.006-.01-.009-.015-.007-.01-.008-.015-.007-.011-.008-.014-.007-.012-.008-.014-.007-.012-.009-.013-.007-.013-.007-.012-.008-.013-.007-.013-.008-.013-.007-.012-.009-.014-.006-.011-.009-.015-.006-.01-.009-.016-.006-.01-.009-.016-.006-.01-.01-.016-.004-.009-.01-.017-.005-.008-.01-.018-.005-.008-.01-.018-.004-.007-.011-.02-.004-.006-.011-.02-.003-.005-.012-.02-.003-.006-.012-.02-.002-.006-.013-.021-.002-.004-.012-.023-.002-.003-.013-.023s0-.002-.002-.003l-.013-.023v-.002l-.014-.024-.001-.002-.014-.024v-.002l-.014-.025-.001-.001-.014-.025v-.001l-.014-.026-.014-.026c-.381-.698-.723-1.422-1.023-2.17C.53 86.392 0 83.76 0 81V20v-.019-.005-.013-.007-.013-.005-.019-.003-.016-.005-.014-.005-.015-.004-.019-.004-.014-.007-.013l.001-.006v-.013-.006-.018-.004-.015-.006-.012-.007l.001-.013v-.006-.018-.005-.013-.007l.001-.012v-.007-.015-.003-.019-.004l.001-.015v-.005-.014-.005l.001-.017v-.002-.018-.005-.014l.001-.005v-.015-.005-.017l.001-.001v-.019-.005-.014l.001-.006v-.012-.007l.001-.014v-.005-.017-.008l.001-.01v-.008-.012l.001-.007v-.017l.001-.019v-.006-.013l.001-.006v-.014-.004l.002-.037v-.006-.014l.001-.005v-.014-.005l.002-.037v-.006l.001-.013v-.006l.001-.013v-.005l.001-.019v-.003-.015l.001-.007v-.011l.001-.007v-.013-.006l.003-.036v-.006-.013-.006l.001-.014v-.005l.002-.018v-.005-.013l.001-.007v-.012l.001-.007v-.012l.001-.006.001-.018v-.006l.001-.012v-.007l.001-.011v-.008l.001-.011v-.007l.002-.018v-.005-.013l.001-.007v-.011l.001-.008.001-.012v-.006l.001-.018v-.006l.002-.011v-.008-.011l.001-.008.001-.015v-.002l.002-.018v-.007-.011l.001-.008.001-.012v-.006l.003-.037v-.003l.002-.016v-.004-.015l.001-.004.003-.037v-.004l.001-.014v-.006l.002-.014v-.005l.002-.018.001-.02v-.002l.002-.015v-.005l.001-.015v-.004l.002-.019.001-.018v-.005l.002-.013v-.006l.002-.015v-.003l.002-.02.001-.017v-.006l.002-.013v-.005l.002-.016v-.002l.001-.02v-.001l.002-.017v-.004l.002-.014v-.006l.002-.015v-.003l.002-.019v-.002l.001-.016v-.005l.002-.014v-.004l.006-.056v-.005l.002-.013v-.006l.002-.017.002-.02v-.003l.002-.015v-.005l.002-.014v-.005l.002-.017.002-.02v-.004l.002-.013v-.006l.002-.013v-.006l.004-.036v-.004l.002-.015v-.005l.002-.013v-.006l.005-.036v-.005l.002-.013v-.006l.002-.012v-.006l.005-.036v-.006l.002-.012v-.007l.002-.012v-.006l.003-.018v-.001l.002-.017v-.006l.002-.012v-.006l.002-.013.001-.006.002-.017v-.004l.002-.014.001-.006.002-.013v-.006l.002-.013v-.005l.003-.018v-.003l.002-.015v-.005l.003-.013V17.3l.002-.013v-.005l.003-.018v-.002l.002-.016.001-.005.002-.014v-.004l.003-.017v-.002l.002-.019v-.001l.003-.016v-.006l.002-.013v-.005l.003-.015v-.003l.003-.019v-.002l.002-.016.001-.004.002-.015v-.003l.003-.018v-.001l.003-.018v-.003l.002-.016v-.004c.002-.005.002-.01.003-.016v-.002l.006-.038c0-.007.002-.012.003-.018v-.004l.002-.015v-.003c.003-.012.004-.025.006-.037v-.004l.003-.014v-.005l.003-.015v-.003l.003-.018v-.002l.003-.017v-.004l.003-.014v-.005l.003-.014v-.004l.003-.018v-.001l.003-.018v-.002l.003-.016v-.004l.003-.016v-.002l.003-.019v-.001l.003-.017v-.004l.003-.014.001-.005.002-.015V16.6l.004-.019.003-.018v-.003l.003-.015v-.004l.003-.017v-.001l.004-.018V16.5l.003-.015v-.004l.003-.014v-.004l.007-.037v-.002l.003-.016v-.004l.003-.015v-.004l.004-.016v-.002l.003-.018v-.003l.003-.015.001-.004.003-.015v-.004l.007-.036v-.004l.003-.014v-.005c.002-.004.002-.009.003-.014l.001-.004.006-.035.001-.005.003-.014v-.004l.003-.015v-.003l.008-.037v-.003L.36 16.1v-.002l.004-.017v-.002l.007-.036v-.004l.004-.015v-.003l.004-.018.007-.038.004-.019.01-.057.002-.003.003-.015v-.003l.004-.018.007-.037.001-.004.003-.015v-.003l.004-.018.008-.037v-.002l.004-.016v-.003l.012-.055v-.003l.004-.016v-.002l.008-.037.004-.017v-.005l.004-.014v-.003l.008-.037v-.001l.004-.017v-.003l.017-.073v-.003l.004-.016v-.002l.009-.037v-.001l.004-.017v-.003l.004-.016v-.002l.009-.036v-.003l.004-.014v-.005l.004-.015v-.003l.01-.036v-.002l.003-.015.001-.005.013-.053v-.003l.004-.015.001-.004.004-.017.009-.036v-.003l.004-.016.001-.003.009-.036.004-.018v-.003l.004-.014.001-.005.004-.015v-.002l.005-.018v-.001l.005-.017v-.003l.004-.015v-.003l.01-.036v-.001l.004-.017.001-.003.004-.015v-.003l.015-.055.004-.018v-.001l.01-.037.005-.018v-.003l.004-.014.001-.004.01-.036.004-.018v-.002l.005-.016v-.002l.01-.036v-.002l.005-.017v-.001l.016-.055.02-.075.005-.018.015-.056c.042-.149.085-.296.13-.443l.022-.074.017-.055.006-.018.023-.073c.052-.165.106-.328.161-.491C2.516 9.146 5.104 5.71 8.438 3.36l.577.817C3.996 7.716 1 13.631 1 20v61c0 2.572.477 5.066 1.418 7.413.908 2.264 2.208 4.296 3.862 6.041C9.67 98.03 14.175 100 18.964 100h261.749l6.967-4.822.56-.388.566.38 7.212 4.83H364.1c4.788 0 9.293-1.97 12.684-5.546 1.654-1.745 2.953-3.777 3.861-6.041.941-2.347 1.418-4.841 1.418-7.413V20c0-2.572-.477-5.066-1.418-7.413-.908-2.264-2.207-4.296-3.861-6.041C373.393 2.97 368.888 1 364.1 1h-69.083l-6.188 4.79-.614.476-.613-.477L281.458 1H18.964V0z" class="prefix__cls-14" transform="translate(5223.475 -356)"/>
            </g>
            <text id="prefix___10:00" class="prefix__cls-4" data-name="10:00" transform="translate(5314 -309)">
                <tspan x="0" y="0">10:00</tspan>
            </text>
            <text id="prefix___222" class="prefix__cls-5" data-name="$222" transform="translate(5534 -298)">
                <tspan x="0" y="0">$222</tspan>
            </text>
            <text id="prefix___19:00" class="prefix__cls-4" data-name="19:00" transform="translate(5445 -309)">
                <tspan x="0" y="0">19:00</tspan>
            </text>
            <text id="prefix__BRA" class="prefix__cls-6" transform="translate(5314 -285)">
                <tspan x="0" y="0">BRA</tspan>
            </text>
            <text id="prefix__DEN" class="prefix__cls-6" transform="translate(5445 -285)">
                <tspan x="0" y="0">DEN</tspan>
            </text>
            <g id="prefix__Group_101" data-name="Group 101" transform="translate(14)">
                <path id="prefix__Line_10" d="M0 0L70 0" class="prefix__cls-7" data-name="Line 10" transform="translate(5350.5 -305.5)"/>
                <path id="prefix__Path" d="M0 0l3.83 3.83L7.66 0" class="prefix__cls-8" transform="rotate(-90 2557.3 -2859.14)"/>
                <circle id="prefix__Ellipse_10" cx="3" cy="3" r="3" class="prefix__cls-9" data-name="Ellipse 10" transform="translate(5348 -308.5)"/>
            </g>
            <path id="prefix__Line_11" d="M0 0L0 87" class="prefix__cls-10" data-name="Line 11" transform="translate(5511.229 -348.5)"/>
            <g id="prefix__FlylineSVG_Logotype" transform="translate(5020 -776.595)">
                <path id="prefix__Path_142" d="M215 457.888c0 3.022 2.727 5.472 6.091 5.472h10.279v2.54h-10.561v2.277c0 2.934 2.648 5.313 5.915 5.313h4.647v5.881c0 2.992 2.7 5.417 6.031 5.417h5.2V454.6H215z" class="prefix__cls-11" data-name="Path 142" transform="translate(0 -.008)"/>
                <path id="prefix__Path_143" d="M328.95 476.039h-9.25v-16.015a5.421 5.421 0 0 0-5.424-5.418H309.6v30.188h24.828v-3.283a5.476 5.476 0 0 0-5.478-5.472z" class="prefix__cls-12" data-name="Path 143" transform="translate(-63.309 7.539)"/>
            </g>
        </g>
        <g id="prefix__Group_104" class="prefix__cls-1" data-name="Group 104" transform="translate(-4971.475 2163)">
            <path id="prefix__Path_317-3" d="M19.558 0h271.071l6.617 5.831L303.906 0h71.6c10.8 0 19.558 10.442 19.558 23.323v71.136c0 12.881-8.756 23.323-19.558 23.323h-70.528l-7.7-5.831-7.451 5.831H19.558C8.756 117.783 0 107.34 0 94.459V23.323C0 10.442 8.756 0 19.558 0z" class="prefix__cls-2" data-name="Path 317" transform="translate(5217.475 -364.391)"/>
            <g id="prefix__Path_316-2" class="prefix__cls-3" data-name="Path 316">
                <path d="M18.964 0H281.8l6.416 5 6.458-5H364.1c10.473 0 18.964 8.954 18.964 20v61c0 11.046-8.49 20-18.964 20h-68.386l-7.465-5-7.224 5H18.964C8.49 101 0 92.046 0 81V20C0 8.954 8.49 0 18.964 0z" class="prefix__cls-13" transform="translate(5223.475 -356)"/>
                <path d="M18.964 0H281.8l.276.215.727.566 1.027.801 1.178.918 1.178.918 1.028.8.726.567.276.215.003-.002.003-.003h.001l.001-.001.01-.007v-.001l.003-.002h.001v-.001l.002-.002.004-.003h.001l.01-.008.007-.005.01-.008.005-.004.003-.002.003-.003.009-.007.004-.003.004-.003.003-.002.004-.003.002-.002.002-.002.024-.018.006-.004.003-.003.005-.004.01-.008.002-.001.003-.003.01-.008.004-.003.002-.001.038-.029.008-.007.003-.002.048-.037.007-.005.01-.008c.024-.019.05-.038.076-.06l.016-.012.033-.025.001-.001.02-.014V4.67l.018-.013.003-.003.04-.03.008-.006.006-.005.008-.006.023-.018.032-.025.01-.009h.002l.011-.01.038-.028.004-.003.008-.007c.002 0 .003-.002.005-.003l.018-.014.006-.005.042-.033.037-.028.006-.004.036-.028.001-.002c.017-.012.034-.025.05-.039l.045-.034.015-.011.018-.014.081-.063.027-.021.005-.004.031-.024.003-.002.074-.057.063-.05.004-.003.01-.008.02-.015.065-.05.027-.02.016-.014.015-.011.008-.006.036-.028.012-.01.01-.007.008-.007.01-.007.008-.006.003-.002.016-.013.047-.036.016-.013.002-.002.015-.01.09-.07.02-.015.014-.012.026-.02.012-.01.01-.007.021-.016.01-.008.014-.011.004-.003.014-.01.053-.042.146-.113.01-.007.015-.012.02-.016h.001l.017-.014.011-.009.03-.022c.024-.02.05-.039.075-.058l.002-.002.185-.143.011-.009.06-.047.009-.006.012-.01.006-.004.124-.096.048-.038c.002 0 .004-.002.005-.003l.008-.007.011-.008.007-.006.022-.017.014-.01c.011-.01.023-.018.034-.026l.015-.012.022-.017.052-.04.13-.1.001-.002.012-.01.01-.007.025-.02.014-.01.106-.082.003-.003.033-.025.013-.01.024-.019.106-.082.006-.005.012-.008.015-.012.01-.008.043-.034.006-.004.022-.017.003-.003.13-.1.017-.014.006-.004.025-.019.014-.011.013-.01.018-.014.027-.02.008-.007.011-.009.007-.005.01-.007.01-.009.1-.077.02-.016.076-.059.013-.01.004-.003.068-.052.005-.004.145-.113.014-.01.012-.01h.001l.176-.137.03-.022.006-.005.008-.007.007-.005.034-.026.015-.012.017-.013.014-.011.05-.038.01-.008.085-.066.064-.05.1-.077.002-.001.007-.006.029-.022.04-.032.013-.01.017-.013.018-.014.012-.009.034-.026.004-.003.01-.009.007-.005.014-.01.02-.015.005-.005.26-.201.006-.005.072-.055.004-.004.006-.004.014-.011.036-.028.009-.007.01-.007.009-.008.01-.008c.004-.003.008-.005.01-.008l.012-.009.007-.005.004-.003.014-.01.01-.008.08-.063.02-.015.007-.006.007-.005.02-.015.01-.007.007-.006.001-.001.024-.019.007-.005.02-.015.018-.014.138-.108.005-.003.005-.004.008-.006.002-.002.01-.008.003-.002.02-.015.002-.002.037-.028.007-.006.008-.006.004-.003.003-.003.006-.005.058-.044.005-.004.017-.013.051-.04.002-.001.05-.04.015-.01.008-.007.015-.012.004-.003.002-.001.027-.021.011-.009.006-.004.005-.004.006-.005.019-.014.002-.002.002-.002.016-.012.01-.008.01-.008.004-.003.026-.02.009-.006.006-.005.01-.008.003-.002.006-.005.003-.002.003-.002V.056l.009-.006.005-.005.007-.005.003-.002.002-.002.003-.002.001-.001.002-.002.003-.001.007-.006.003-.003.003-.002.005-.003.002-.002.002-.002.007-.005.001-.001.002-.001V.003l.003-.002h.001V0h.001V0h69.441c.16 0 .32.002.479.007.268.007.534.02.8.039l.047.003c5.2.383 9.821 2.977 13.026 6.897l.019.022.018.023.018.022.001.002.017.02.002.003.017.02.001.003.017.02.002.003.016.02.003.003.015.02.003.003.015.02c.002 0 .003.002.004.003l.015.019.003.004.014.019.005.005.013.017.005.006.013.017.005.007.014.016.005.007.012.016.006.007.013.016.005.007.012.016.006.008.012.015.007.009.01.014.008.01.01.013.008.01.01.013.008.01.01.013.008.01.01.014.008.01.01.013.008.011.01.012.008.012.009.011.009.013.009.01c.002.005.006.009.009.013l.008.011.01.013.008.01.01.013.007.01.01.014.008.01.01.014.007.01.01.013c.002.003.005.008.008.01l.01.014.007.01.01.014.007.01.011.014.007.009.01.015.007.009.011.015.006.008.012.016.005.008.013.017.004.006.013.018.004.006.013.017.005.007.012.018.005.006.013.018.004.006.013.018.004.005.013.02.004.004.013.02.004.004.013.02.004.004.014.02c0 .002.001.002.003.004l.014.02.003.004.014.02.002.004.015.02.002.004.014.02.003.005.014.02.003.004.014.02.003.004.014.02.002.004.015.021.002.003.015.022.001.002.015.022.003.003.014.022.002.002.015.022c0 .001 0 .002.002.003l.014.022.002.002.015.022.002.002.015.023.001.002.015.022.002.002.014.023.002.002.015.022.001.003.015.022.002.002.015.023v.002l.016.023.001.001.016.024.015.024.002.002.015.023v.001l.016.024.001.001.015.024.017.025.016.025.016.025.048.075.015.025.032.05.047.075.016.025v.001l.015.024.001.001.015.024v.001l.016.025.015.025.016.025.015.026.016.025.015.025v.002c.006.007.01.015.015.023l.001.002.015.024.015.025v.001l.015.024.001.002.014.024.002.002.013.023.002.003.014.023v.002l.015.024v.001l.015.024v.002l.015.024v.001l.015.025.015.025v.002l.015.023.001.003.014.023v.003l.014.023.002.002.013.024.001.002.014.024.001.002.014.024.001.002.013.023.002.003.013.023.002.003.013.023.001.003.013.023.002.003.013.023.002.003.012.023.002.003.013.023c0 .001 0 .002.002.003l.012.023.002.003.013.022.002.004.012.023.002.003.012.023.002.003.013.023.002.004.012.022.002.004.012.022.002.004.012.022.003.004.012.022.002.005.012.021.002.005.012.022.002.004.012.022.002.005.012.021.002.005.012.022.002.004.012.022.002.005.012.021.002.005.011.021.003.006.011.021.003.006.01.02.004.006.01.02.004.007.01.02.004.007.01.02.003.006.01.02.004.007.01.02.004.007.01.02.003.006.01.02.004.007.01.02.004.007.01.019.003.008.01.018c0 .003.002.006.004.008l.009.02.004.007.01.019c0 .003.002.005.003.008l.01.018.004.01.009.017.004.009.01.018.003.009.01.018c0 .003.002.005.004.009l.008.018.005.009.009.017.004.01.009.017.004.01.009.017.004.01.009.017.004.01.009.017.004.01.009.017.004.01.008.017.005.01.008.017.005.01.008.017.005.01.008.017.005.01.008.017.005.01.008.018.004.01.008.017.005.01.008.017.004.01.009.017.004.01.008.018.005.01.008.017.004.01.008.017.005.01.007.017.006.011.007.016.005.011.007.017.005.01.008.017.005.011.007.016.005.012.007.016.005.011.007.016.006.012.006.015.006.013.007.015.005.012.007.015.005.013.007.015.005.013.007.014.005.013.007.015.005.013.007.015.005.012.007.016.005.011.007.016.005.012.006.016.006.012.006.016.006.012.006.015.005.013.007.015.005.012.007.016.005.012.006.016.005.011.007.017.005.011.007.017.004.011.007.017.005.01.007.018.004.01.007.017.005.012.007.016.004.012.007.017.005.01.006.018.005.01.007.018.004.01.007.018.004.01.008.019.003.009.008.018.004.01.007.019.004.01.007.017.004.01.007.018.004.01.007.02.004.008.007.02.004.008.007.02.004.009.007.019.004.009.007.019.004.01.007.018.004.01.006.018.004.01.007.018.004.01.007.019.004.01.007.018.003.01.007.019.004.01.007.018.003.01.008.019.003.009.007.02.003.008.008.02c0 .003.002.006.003.008l.007.02.003.009.008.02.003.008.007.02.003.009.007.02.003.008.007.02.004.009.007.02c0 .003.002.006.003.008l.007.021.003.008.007.02.003.008.007.021.003.008.007.02.003.01.007.02.003.008.007.02.003.008.007.021.003.008.008.022.002.006.007.022.003.007.007.022.002.006.008.023.002.007.008.022.002.006.007.022.003.007.007.022.002.007.008.022.002.007.007.022.003.007.007.022.002.007.007.022.003.007.007.022.002.007.007.022.003.007.007.022.002.007.007.022.002.007.007.022.003.007.007.022.002.007.007.022.002.007.007.022.002.007.007.022.002.008.007.021c0 .003.002.006.003.008l.006.021.003.008.006.021c0 .003.002.006.003.008l.006.022.002.007.007.023.002.006.007.023.002.006.007.023.002.006.007.024.002.006.007.023.001.006.007.023.002.007.007.022.002.007.007.023c0 .002 0 .004.002.006l.006.023.002.007.007.022.002.007.006.023.002.006.007.023c0 .003 0 .004.002.007l.006.023.002.006.007.023.001.007.007.023.002.006.006.024.002.006.007.023.001.006.007.024.002.006.006.023.002.007.006.022.002.007.006.023.002.007.006.023.002.006.006.023.002.007.006.023.002.007.006.022.002.008.006.022.002.007.006.023.002.007.006.023.001.007.006.022.002.008.006.022.002.008.006.023.001.005.007.025.001.005.006.024.002.006.006.024.001.006.006.024.002.006.006.024.001.006.006.024.002.006.005.024.002.006.006.024.001.006.006.024.001.006.006.024.002.006.006.024v.005l.007.025v.005l.007.025.001.005.006.025.001.005.006.025.001.005.006.025.001.006.006.024.001.006.006.024.001.006.006.025v.005c.003.008.005.017.006.025l.002.005.005.025.001.005.006.025.001.006.006.024v.006l.006.024.001.006.006.025.001.005.005.025.002.005.005.025.001.006.005.025.002.005.005.025.001.005.005.025.001.006.006.025v.005l.006.025v.005l.006.026.001.005.005.025.001.005.006.025v.005l.006.026v.005l.006.025v.005l.006.026v.005l.006.025v.005l.006.026v.005l.006.025v.006l.005.025.001.005.005.025.001.006.005.025.001.005.005.025v.006l.005.024.002.007.004.024.001.006.005.025v.006l.005.024.001.007.005.024v.006l.005.025.001.006.005.025v.006l.005.024.001.006.004.025.001.006.005.025v.006l.005.025v.005l.005.026v.005l.005.025.001.006.004.025.001.006.004.025.001.006.004.025.001.005.004.026.001.005.004.026.001.005.004.026.001.005.004.026v.005l.005.026v.005l.005.026v.004l.004.027.001.004.004.027v.004l.005.027v.005l.004.026v.005l.005.026v.005l.004.026v.005l.005.026v.005l.004.026v.005l.004.026v.005l.005.026v.005l.004.027v.004l.004.027v.004l.004.027v.004l.004.027v.004l.004.028v.003l.004.028v.003l.004.028v.003l.004.028v.004l.004.027v.004l.004.027v.004l.004.028v.004l.004.027v.004l.003.028v.003l.004.028v.003l.004.028v.003l.003.029v.003l.004.028v.003l.003.029v.002l.004.03v.002l.003.029v.002l.003.03v.001l.004.03v.002c0 .01.002.02.003.029v.003l.003.028v.003l.003.029v.002l.003.03v.002l.003.029v.002l.004.03v.002l.002.029v.003l.003.028v.003l.003.029v.003l.003.029v.002l.003.03v.002c0 .01.002.019.003.028v.004l.002.028v.003l.003.029v.003l.002.029v.002l.003.03v.002l.003.03v.002l.002.029v.002l.002.03v.002l.003.03v.002l.002.03v.001l.002.03v.002l.003.03v.002l.002.03v.001l.002.03v.002l.002.03v.002l.002.03v.001l.002.031v.001l.002.031v.001l.002.031.002.032.002.032.001.031v.002l.002.03v.002l.002.03v.002l.001.03v.001l.002.031v.001l.001.031v.001l.002.031v.001l.001.031v.001l.002.031v.033l.002.032.001.032.002.032v.032l.002.032v.032l.002.032v.032l.002.032v.033l.001.031v.001l.001.032v.032l.001.032.001.032v.033l.001.032v.032l.001.032v.097l.001.033V81c0 2.233-.346 4.38-.987 6.385l-.009.03-.01.028-.009.03-.009.028-.01.03-.009.028-.01.029v.001l-.009.028v.001l-.01.027v.002l-.01.027v.002l-.009.027v.002l-.01.027v.002l-.01.027v.001l-.01.027v.003l-.009.026v.002l-.01.026v.004l-.01.025-.001.004-.008.024-.002.005-.008.024-.002.004-.008.024-.002.005-.009.024-.001.005-.009.024-.001.004-.009.024-.002.005-.008.023-.002.006-.008.023-.002.006-.008.022-.003.007-.008.021-.002.007-.008.022-.002.006-.009.023-.002.006-.008.022-.002.007-.008.02-.003.009-.008.02-.003.008-.007.02-.003.009-.008.02-.003.008-.008.02-.003.009-.007.019-.004.01-.007.018-.004.01-.007.018c0 .004-.002.006-.003.01l-.008.019-.003.009-.007.02-.004.008-.007.02-.004.008-.007.02-.004.009-.007.019-.004.009-.007.018-.004.01-.007.019-.004.01-.007.018-.004.01-.007.018-.004.01-.008.018-.003.01-.008.018-.004.01-.007.018-.004.01-.007.017-.005.011-.006.018-.005.01-.007.017-.004.012-.007.016-.005.012-.007.016-.004.011-.007.017-.005.011-.007.017-.004.011-.007.017-.005.01-.007.018-.005.01-.006.017-.005.012-.007.016-.005.012-.007.015-.005.013-.006.015-.006.012-.006.016-.006.012-.006.016-.005.012-.007.016-.005.011-.007.016-.005.012-.007.015-.005.013-.007.015-.005.013-.007.014-.005.013-.007.015-.005.013-.007.015-.005.012-.007.015-.006.013-.006.015-.006.012-.007.016-.005.011-.007.016-.005.012-.007.016-.005.011-.008.016-.005.011-.007.017-.005.01-.007.017-.006.011-.007.016-.005.011-.008.017-.004.01-.008.017-.005.01-.008.018-.004.01-.009.017-.004.01-.008.017-.005.01-.008.017-.004.01-.008.017-.005.01-.008.018-.005.01-.008.016-.005.01-.008.018-.005.01-.008.017-.005.01-.008.017-.004.01-.009.017-.004.01-.009.017-.004.01-.009.017-.004.01-.009.017-.004.01-.009.017-.004.01-.01.017c0 .004-.002.006-.004.01l-.008.017-.005.01-.009.017-.004.009-.009.018-.004.009-.01.018-.003.009-.01.018c0 .003-.002.005-.004.008l-.009.019-.004.008-.01.019-.003.008-.01.018-.004.008-.01.02-.003.007-.01.02-.004.006-.01.02-.003.007-.01.02-.004.006-.01.02-.003.007-.01.02-.004.007-.01.02-.004.006-.01.02-.003.007-.01.02-.004.006-.01.02-.004.006-.01.02-.004.007-.01.02-.003.006-.012.021-.002.005-.012.022-.002.004-.012.022-.002.005-.012.021-.002.005-.012.022-.002.004-.012.022-.002.005-.012.021-.002.005-.012.022-.003.004-.012.022-.002.004-.012.022-.002.004-.012.022-.002.004-.013.023-.002.003-.012.023-.002.003-.012.023-.002.004-.013.022-.002.003-.012.023-.002.003-.013.023c0 .001 0 .002-.002.003l-.012.023-.002.003-.013.023-.002.003-.013.023-.001.003-.013.023-.002.003-.013.023c0 .001 0 .002-.002.003l-.013.023-.001.002-.014.024v.002l-.015.024v.002l-.014.024-.002.002-.013.023-.001.003-.014.023-.001.003-.014.023-.001.002-.014.024v.001c-.006.008-.01.017-.015.025l-.015.025-.001.002-.014.024-.001.001-.014.024-.001.002-.014.023-.002.003-.013.023-.002.002-.014.024-.001.002c-.005.008-.01.015-.014.024h-.001l-.015.025v.001l-.015.024v.002l-.015.023-.001.002-.015.024v.001l-.015.025-.016.025-.015.025v.001l-.016.025-.015.025-.016.025v.001l-.015.024-.001.001-.015.024v.001l-.048.075-.031.05-.016.025-.048.075-.016.025-.016.025-.016.024v.001l-.016.024-.001.001-.015.024-.001.001-.015.023-.002.002c-.004.008-.01.016-.015.023v.001l-.016.024v.001l-.016.023-.001.002-.015.023-.002.002-.015.022-.001.003-.015.022-.002.002-.014.023-.002.002-.015.022-.001.002-.015.023-.002.002-.015.022-.002.002-.014.022-.002.003-.015.022-.002.002-.014.022-.003.003-.015.022v.002l-.016.022-.002.003-.015.021-.002.003-.014.021-.003.004-.014.02-.003.004-.014.02c0 .002-.002.003-.003.005l-.014.02-.002.004-.015.02-.002.004-.014.02-.003.004-.014.02-.003.004-.014.02-.004.005-.013.019-.004.005-.013.019-.004.005-.013.019-.004.005-.013.018-.004.006-.013.018-.005.006-.012.018-.005.007-.013.017-.004.006-.013.018-.004.006-.013.017-.005.008-.012.016-.006.008-.011.015-.006.009-.011.015-.007.009-.01.015-.007.009-.011.014-.007.01-.01.013-.008.01-.01.014-.007.01-.01.013-.008.01-.01.014-.008.01c-.003.005-.006.01-.01.013l-.007.011-.01.013-.008.011-.01.012-.008.011-.01.013-.008.011-.009.012-.009.012-.008.011-.01.013-.008.01-.01.013-.008.01-.01.014-.008.01-.01.013-.007.01-.011.014-.007.009-.011.014-.007.009-.012.015-.006.008-.012.016-.005.007-.013.016-.006.007-.012.016-.005.007-.014.016-.005.007-.013.017-.005.006-.013.017-.005.005-.014.019-.003.004-.015.019-.004.004-.015.019-.003.004-.015.019-.003.003-.016.02-.002.003-.017.02-.001.003-.017.02-.002.002-.017.021v.002l-.018.021-.001.001-.018.023-.019.022c-.73.893-1.532 1.716-2.399 2.46-3.264 2.805-7.43 4.486-11.968 4.486h-68.386l-.005-.004-.042-.027-.001-.001-.009-.006-.002-.001-.004-.003-.004-.003-.005-.003-.005-.003-.006-.005h-.002l-.003-.003-.004-.002-.008-.006-.004-.003-.003-.001-.005-.004-.007-.005-.057-.038-.01-.006-.084-.057-.012-.008-.004-.003-.003-.001-.005-.004-.022-.014-.005-.004-.01-.007-.012-.008-.014-.01-.006-.003-.01-.006-.039-.027-.053-.035-.04-.027-.079-.053-.01-.007-.036-.024-.023-.015-.012-.008-.013-.01-.007-.003-.01-.008-.01-.007-.008-.004-.008-.006-.004-.003-.058-.038-.013-.009-.005-.004-.012-.007-.029-.02-.043-.028-.012-.009-.01-.007-.044-.029-.023-.015-.003-.003-.044-.029-.016-.01-.002-.002-.019-.012-.005-.004-.017-.012-.02-.013-.002-.001-.064-.043-.027-.018-.01-.006-.01-.007-.012-.008-.021-.015c-.017-.01-.033-.022-.05-.033l-.008-.006-.03-.02-.002-.001-.071-.047-.018-.012-.017-.012-.009-.006-.03-.02-.015-.01-.012-.008-.007-.005-.046-.03-.036-.025-.026-.017-.013-.009-.09-.06-.012-.008-.052-.035-.024-.016-.028-.019-.011-.007-.003-.002-.04-.027-.065-.043-.043-.029-.039-.026-.113-.076-.006-.004-.121-.081-.02-.014-.018-.011-.005-.004-.014-.01h-.002l-.02-.014-.1-.067-.06-.04-.028-.02-.048-.031-.01-.007-.068-.045-.02-.014-.147-.098-.04-.027-.026-.017-.017-.012c-.002 0-.004-.002-.006-.004l-.068-.046-.01-.006-.01-.007-.01-.007-.021-.014-.028-.018-.042-.028-.044-.03-.032-.021-.003-.003-.014-.009-.014-.01-.005-.003-.013-.008-.026-.018-.016-.01-.01-.007-.04-.026-.005-.004-.022-.015-.014-.01-.244-.162-.017-.012-.06-.04-.018-.012-.014-.01-.03-.02c-.002 0-.004-.003-.006-.004l-.027-.018-.077-.052-.004-.002-.03-.02-.002-.002c-.016-.01-.032-.02-.048-.032l-.01-.007-.017-.01-.001-.002-.237-.158-.105-.07-.014-.01-.004-.003-.014-.01-.014-.008-.034-.023-.003-.002-.016-.011-.07-.047-.017-.01-.046-.032-.039-.026-.007-.005-.033-.022-.01-.007-.01-.006-.032-.022-.055-.036-.012-.009-.007-.004-.01-.007-.35-.235-.02-.013-.025-.016-.028-.02c-.02-.012-.04-.026-.059-.039l-.013-.009-.037-.025-.029-.019-.04-.026-.004-.003-.034-.023-.009-.006-.005-.004-.044-.029-.006-.004-.017-.011-.002-.001-.126-.085-.024-.016-.007-.005-.008-.005-.015-.01-.003-.002-.038-.025-.058-.04-.01-.007-.014-.008-.002-.002-.014-.01-.007-.004-.01-.007-.017-.011-.022-.015-.005-.003-.013-.009-.008-.006-.078-.051-.019-.013-.016-.011-.014-.009-.007-.005-.01-.007-.005-.003-.151-.101-.013-.01-.012-.007-.015-.01-.009-.006-.033-.022-.02-.014-.024-.015-.002-.002-.015-.01-.016-.01-.003-.003-.051-.034-.006-.004-.007-.005-.007-.004-.046-.031-.03-.02-.044-.03-.055-.036-.006-.005-.013-.008-.026-.018-.022-.015-.003-.002-.021-.013-.007-.005-.009-.006-.008-.005-.006-.005-.006-.003-.01-.007-.002-.002-.065-.043-.002-.002-.057-.038-.01-.006-.03-.021-.015-.01-.008-.005-.01-.006-.01-.007-.012-.008-.007-.005-.007-.005-.07-.047-.007-.004-.054-.037-.003-.002-.053-.035-.006-.004-.004-.003-.025-.016-.002-.001-.007-.005-.002-.001-.006-.005-.004-.003-.012-.007-.013-.01h-.002l-.007-.005-.022-.015-.003-.002-.003-.002-.024-.016-.026-.018-.006-.003-.04-.028-.005-.003-.05-.033-.012-.008-.003-.002-.005-.004h-.001l-.002-.002h-.001l-.002-.001-.004-.003-.002-.002-7.225 5H18.964c-.23 0-.46-.004-.688-.013l-.228-.01c-4.873-.244-9.263-2.428-12.494-5.835l-.04-.042-.02-.021v-.001l-.019-.02-.002-.002-.018-.019-.002-.003-.017-.017-.004-.005-.015-.017-.005-.005-.015-.016-.005-.005-.014-.016-.007-.006-.013-.015-.007-.007-.012-.014-.008-.008-.011-.013-.01-.01-.01-.01-.01-.012-.009-.01-.01-.012-.01-.01-.01-.012-.009-.009-.011-.013-.008-.008-.012-.014-.007-.008-.013-.014-.007-.007-.013-.015-.006-.007-.014-.015-.005-.006-.014-.016-.006-.006-.014-.016-.005-.005-.015-.018-.004-.004-.016-.018-.003-.004-.016-.018-.003-.003-.017-.02-.002-.002-.017-.02-.002-.002-.018-.02-.001-.002-.019-.02v-.001c-.602-.693-1.158-1.431-1.663-2.209l-.016-.024v-.001l-.016-.024v-.001l-.016-.024v-.001l-.016-.023-.001-.002-.014-.023-.002-.003-.014-.022-.002-.003-.014-.021-.002-.004-.014-.021-.002-.004-.013-.02-.003-.006-.013-.02-.003-.005-.013-.02-.003-.006-.012-.018-.004-.007-.012-.018-.004-.007-.012-.019-.003-.006-.012-.019-.004-.006-.011-.019-.005-.007-.01-.018c-.003-.002-.004-.005-.006-.008l-.01-.016-.006-.01-.01-.016-.005-.009-.01-.016-.006-.009-.01-.016-.005-.01-.01-.016-.006-.01-.009-.015-.006-.01-.009-.015-.007-.01-.008-.015-.007-.011-.008-.014-.007-.012-.008-.014-.007-.012-.009-.013-.007-.013-.007-.012-.008-.013-.007-.013-.008-.013-.007-.012-.009-.014-.006-.011-.009-.015-.006-.01-.009-.016-.006-.01-.009-.016-.006-.01-.01-.016-.004-.009-.01-.017-.005-.008-.01-.018-.005-.008-.01-.018-.004-.007-.011-.02-.004-.006-.011-.02-.003-.005-.012-.02-.003-.006-.012-.02-.002-.006-.013-.021-.002-.004-.012-.023-.002-.003-.013-.023s0-.002-.002-.003l-.013-.023v-.002l-.014-.024-.001-.002-.014-.024v-.002l-.014-.025-.001-.001-.014-.025v-.001l-.014-.026-.014-.026c-.381-.698-.723-1.422-1.023-2.17C.53 86.392 0 83.76 0 81V20v-.019-.005-.013-.007-.013-.005-.019-.003-.016-.005-.014-.005-.015-.004-.019-.004-.014-.007-.013l.001-.006v-.013-.006-.018-.004-.015-.006-.012-.007l.001-.013v-.006-.018-.005-.013-.007l.001-.012v-.007-.015-.003-.019-.004l.001-.015v-.005-.014-.005l.001-.017v-.002-.018-.005-.014l.001-.005v-.015-.005-.017l.001-.001v-.019-.005-.014l.001-.006v-.012-.007l.001-.014v-.005-.017-.008l.001-.01v-.008-.012l.001-.007v-.017l.001-.019v-.006-.013l.001-.006v-.014-.004l.002-.037v-.006-.014l.001-.005v-.014-.005l.002-.037v-.006l.001-.013v-.006l.001-.013v-.005l.001-.019v-.003-.015l.001-.007v-.011l.001-.007v-.013-.006l.003-.036v-.006-.013-.006l.001-.014v-.005l.002-.018v-.005-.013l.001-.007v-.012l.001-.007v-.012l.001-.006.001-.018v-.006l.001-.012v-.007l.001-.011v-.008l.001-.011v-.007l.002-.018v-.005-.013l.001-.007v-.011l.001-.008.001-.012v-.006l.001-.018v-.006l.002-.011v-.008-.011l.001-.008.001-.015v-.002l.002-.018v-.007-.011l.001-.008.001-.012v-.006l.003-.037v-.003l.002-.016v-.004-.015l.001-.004.003-.037v-.004l.001-.014v-.006l.002-.014v-.005l.002-.018.001-.02v-.002l.002-.015v-.005l.001-.015v-.004l.002-.019.001-.018v-.005l.002-.013v-.006l.002-.015v-.003l.002-.02.001-.017v-.006l.002-.013v-.005l.002-.016v-.002l.001-.02v-.001l.002-.017v-.004l.002-.014v-.006l.002-.015v-.003l.002-.019v-.002l.001-.016v-.005l.002-.014v-.004l.006-.056v-.005l.002-.013v-.006l.002-.017.002-.02v-.003l.002-.015v-.005l.002-.014v-.005l.002-.017.002-.02v-.004l.002-.013v-.006l.002-.013v-.006l.004-.036v-.004l.002-.015v-.005l.002-.013v-.006l.005-.036v-.005l.002-.013v-.006l.002-.012v-.006l.005-.036v-.006l.002-.012v-.007l.002-.012v-.006l.003-.018v-.001l.002-.017v-.006l.002-.012v-.006l.002-.013.001-.006.002-.017v-.004l.002-.014.001-.006.002-.013v-.006l.002-.013v-.005l.003-.018v-.003l.002-.015v-.005l.003-.013V17.3l.002-.013v-.005l.003-.018v-.002l.002-.016.001-.005.002-.014v-.004l.003-.017v-.002l.002-.019v-.001l.003-.016v-.006l.002-.013v-.005l.003-.015v-.003l.003-.019v-.002l.002-.016.001-.004.002-.015v-.003l.003-.018v-.001l.003-.018v-.003l.002-.016v-.004c.002-.005.002-.01.003-.016v-.002l.006-.038c0-.007.002-.012.003-.018v-.004l.002-.015v-.003c.003-.012.004-.025.006-.037v-.004l.003-.014v-.005l.003-.015v-.003l.003-.018v-.002l.003-.017v-.004l.003-.014v-.005l.003-.014v-.004l.003-.018v-.001l.003-.018v-.002l.003-.016v-.004l.003-.016v-.002l.003-.019v-.001l.003-.017v-.004l.003-.014.001-.005.002-.015V16.6l.004-.019.003-.018v-.003l.003-.015v-.004l.003-.017v-.001l.004-.018V16.5l.003-.015v-.004l.003-.014v-.004l.007-.037v-.002l.003-.016v-.004l.003-.015v-.004l.004-.016v-.002l.003-.018v-.003l.003-.015.001-.004.003-.015v-.004l.007-.036v-.004l.003-.014v-.005c.002-.004.002-.009.003-.014l.001-.004.006-.035.001-.005.003-.014v-.004l.003-.015v-.003l.008-.037v-.003L.36 16.1v-.002l.004-.017v-.002l.007-.036v-.004l.004-.015v-.003l.004-.018.007-.038.004-.019.01-.057.002-.003.003-.015v-.003l.004-.018.007-.037.001-.004.003-.015v-.003l.004-.018.008-.037v-.002l.004-.016v-.003l.012-.055v-.003l.004-.016v-.002l.008-.037.004-.017v-.005l.004-.014v-.003l.008-.037v-.001l.004-.017v-.003l.017-.073v-.003l.004-.016v-.002l.009-.037v-.001l.004-.017v-.003l.004-.016v-.002l.009-.036v-.003l.004-.014v-.005l.004-.015v-.003l.01-.036v-.002l.003-.015.001-.005.013-.053v-.003l.004-.015.001-.004.004-.017.009-.036v-.003l.004-.016.001-.003.009-.036.004-.018v-.003l.004-.014.001-.005.004-.015v-.002l.005-.018v-.001l.005-.017v-.003l.004-.015v-.003l.01-.036v-.001l.004-.017.001-.003.004-.015v-.003l.015-.055.004-.018v-.001l.01-.037.005-.018v-.003l.004-.014.001-.004.01-.036.004-.018v-.002l.005-.016v-.002l.01-.036v-.002l.005-.017v-.001l.016-.055.02-.075.005-.018.015-.056c.042-.149.085-.296.13-.443l.022-.074.017-.055.006-.018.023-.073c.052-.165.106-.328.161-.491C2.516 9.146 5.104 5.71 8.438 3.36l.577.817C3.996 7.716 1 13.631 1 20v61c0 2.572.477 5.066 1.418 7.413.908 2.264 2.208 4.296 3.862 6.041C9.67 98.03 14.175 100 18.964 100h261.749l6.967-4.822.56-.388.566.38 7.212 4.83H364.1c4.788 0 9.293-1.97 12.684-5.546 1.654-1.745 2.953-3.777 3.861-6.041.941-2.347 1.418-4.841 1.418-7.413V20c0-2.572-.477-5.066-1.418-7.413-.908-2.264-2.207-4.296-3.861-6.041C373.393 2.97 368.888 1 364.1 1h-69.083l-6.188 4.79-.614.476-.613-.477L281.458 1H18.964V0z" class="prefix__cls-14" transform="translate(5223.475 -356)"/>
            </g>
            <text id="prefix___18:00" class="prefix__cls-4" data-name="18:00" transform="translate(5314 -309)">
                <tspan x="0" y="0">18:00</tspan>
            </text>
            <text id="prefix___230" class="prefix__cls-5" data-name="$230" transform="translate(5538 -298)">
                <tspan x="0" y="0">$230</tspan>
            </text>
            <text id="prefix___21:00" class="prefix__cls-4" data-name="21:00" transform="translate(5445 -309)">
                <tspan x="0" y="0">21:00</tspan>
            </text>
            <text id="prefix__LGW" class="prefix__cls-6" transform="translate(5314 -285)">
                <tspan x="0" y="0">LGW</tspan>
            </text>
            <text id="prefix__JFK" class="prefix__cls-6" transform="translate(5445 -285)">
                <tspan x="0" y="0">JFK</tspan>
            </text>
            <g id="prefix__Group_101-2" data-name="Group 101" transform="translate(14)">
                <path id="prefix__Line_10-2" d="M0 0L70 0" class="prefix__cls-7" data-name="Line 10" transform="translate(5350.5 -305.5)"/>
                <path id="prefix__Path-2" d="M0 0l3.83 3.83L7.66 0" class="prefix__cls-8" data-name="Path" transform="rotate(-90 2557.3 -2859.14)"/>
                <circle id="prefix__Ellipse_10-2" cx="3" cy="3" r="3" class="prefix__cls-9" data-name="Ellipse 10" transform="translate(5348 -308.5)"/>
            </g>
            <path id="prefix__Line_11-2" d="M0 0L0 87" class="prefix__cls-10" data-name="Line 11" transform="translate(5511.229 -348.5)"/>
            <g id="prefix__FlylineSVG_Logotype-2" data-name="FlylineSVG_Logotype" transform="translate(5020 -776.595)">
                <path id="prefix__Path_142-2" d="M215 457.888c0 3.022 2.727 5.472 6.091 5.472h10.279v2.54h-10.561v2.277c0 2.934 2.648 5.313 5.915 5.313h4.647v5.881c0 2.992 2.7 5.417 6.031 5.417h5.2V454.6H215z" class="prefix__cls-11" data-name="Path 142" transform="translate(0 -.008)"/>
                <path id="prefix__Path_143-2" d="M328.95 476.039h-9.25v-16.015a5.421 5.421 0 0 0-5.424-5.418H309.6v30.188h24.828v-3.283a5.476 5.476 0 0 0-5.478-5.472z" class="prefix__cls-12" data-name="Path 143" transform="translate(-63.309 7.539)"/>
            </g>
        </g>
        <g id="prefix__Group_102" data-name="Group 102" transform="translate(-4941.475 2239)">
            <g transform="translate(5123.47 -440.39)">
                <path id="prefix__Path_317-4" d="M19.558 0h271.071l6.617 5.831L303.906 0h71.6c10.8 0 19.558 10.442 19.558 23.323v71.136c0 12.881-8.756 23.323-19.558 23.323h-70.528l-7.7-5.831-7.451 5.831H19.558C8.756 117.783 0 107.34 0 94.459V23.323C0 10.442 8.756 0 19.558 0z" class="prefix__cls-2" data-name="Path 317" transform="translate(94 76)"/>
            </g>
            <g id="prefix__Path_316-3" class="prefix__cls-3" data-name="Path 316">
                <path d="M18.964 0H281.8l6.416 5 6.458-5H364.1c10.473 0 18.964 8.954 18.964 20v61c0 11.046-8.49 20-18.964 20h-68.386l-7.465-5-7.224 5H18.964C8.49 101 0 92.046 0 81V20C0 8.954 8.49 0 18.964 0z" class="prefix__cls-13" transform="translate(5223.475 -356)"/>
                <path d="M18.964 0H281.8l.276.215.727.566 1.027.801 1.178.918 1.178.918 1.028.8.726.567.276.215.003-.002.003-.003h.001l.001-.001.01-.007v-.001l.003-.002h.001v-.001l.002-.002.004-.003h.001l.01-.008.007-.005.01-.008.005-.004.003-.002.003-.003.009-.007.004-.003.004-.003.003-.002.004-.003.002-.002.002-.002.024-.018.006-.004.003-.003.005-.004.01-.008.002-.001.003-.003.01-.008.004-.003.002-.001.038-.029.008-.007.003-.002.048-.037.007-.005.01-.008c.024-.019.05-.038.076-.06l.016-.012.033-.025.001-.001.02-.014V4.67l.018-.013.003-.003.04-.03.008-.006.006-.005.008-.006.023-.018.032-.025.01-.009h.002l.011-.01.038-.028.004-.003.008-.007c.002 0 .003-.002.005-.003l.018-.014.006-.005.042-.033.037-.028.006-.004.036-.028.001-.002c.017-.012.034-.025.05-.039l.045-.034.015-.011.018-.014.081-.063.027-.021.005-.004.031-.024.003-.002.074-.057.063-.05.004-.003.01-.008.02-.015.065-.05.027-.02.016-.014.015-.011.008-.006.036-.028.012-.01.01-.007.008-.007.01-.007.008-.006.003-.002.016-.013.047-.036.016-.013.002-.002.015-.01.09-.07.02-.015.014-.012.026-.02.012-.01.01-.007.021-.016.01-.008.014-.011.004-.003.014-.01.053-.042.146-.113.01-.007.015-.012.02-.016h.001l.017-.014.011-.009.03-.022c.024-.02.05-.039.075-.058l.002-.002.185-.143.011-.009.06-.047.009-.006.012-.01.006-.004.124-.096.048-.038c.002 0 .004-.002.005-.003l.008-.007.011-.008.007-.006.022-.017.014-.01c.011-.01.023-.018.034-.026l.015-.012.022-.017.052-.04.13-.1.001-.002.012-.01.01-.007.025-.02.014-.01.106-.082.003-.003.033-.025.013-.01.024-.019.106-.082.006-.005.012-.008.015-.012.01-.008.043-.034.006-.004.022-.017.003-.003.13-.1.017-.014.006-.004.025-.019.014-.011.013-.01.018-.014.027-.02.008-.007.011-.009.007-.005.01-.007.01-.009.1-.077.02-.016.076-.059.013-.01.004-.003.068-.052.005-.004.145-.113.014-.01.012-.01h.001l.176-.137.03-.022.006-.005.008-.007.007-.005.034-.026.015-.012.017-.013.014-.011.05-.038.01-.008.085-.066.064-.05.1-.077.002-.001.007-.006.029-.022.04-.032.013-.01.017-.013.018-.014.012-.009.034-.026.004-.003.01-.009.007-.005.014-.01.02-.015.005-.005.26-.201.006-.005.072-.055.004-.004.006-.004.014-.011.036-.028.009-.007.01-.007.009-.008.01-.008c.004-.003.008-.005.01-.008l.012-.009.007-.005.004-.003.014-.01.01-.008.08-.063.02-.015.007-.006.007-.005.02-.015.01-.007.007-.006.001-.001.024-.019.007-.005.02-.015.018-.014.138-.108.005-.003.005-.004.008-.006.002-.002.01-.008.003-.002.02-.015.002-.002.037-.028.007-.006.008-.006.004-.003.003-.003.006-.005.058-.044.005-.004.017-.013.051-.04.002-.001.05-.04.015-.01.008-.007.015-.012.004-.003.002-.001.027-.021.011-.009.006-.004.005-.004.006-.005.019-.014.002-.002.002-.002.016-.012.01-.008.01-.008.004-.003.026-.02.009-.006.006-.005.01-.008.003-.002.006-.005.003-.002.003-.002V.056l.009-.006.005-.005.007-.005.003-.002.002-.002.003-.002.001-.001.002-.002.003-.001.007-.006.003-.003.003-.002.005-.003.002-.002.002-.002.007-.005.001-.001.002-.001V.003l.003-.002h.001V0h.001V0h69.441c.16 0 .32.002.479.007.268.007.534.02.8.039l.047.003c5.2.383 9.821 2.977 13.026 6.897l.019.022.018.023.018.022.001.002.017.02.002.003.017.02.001.003.017.02.002.003.016.02.003.003.015.02.003.003.015.02c.002 0 .003.002.004.003l.015.019.003.004.014.019.005.005.013.017.005.006.013.017.005.007.014.016.005.007.012.016.006.007.013.016.005.007.012.016.006.008.012.015.007.009.01.014.008.01.01.013.008.01.01.013.008.01.01.013.008.01.01.014.008.01.01.013.008.011.01.012.008.012.009.011.009.013.009.01c.002.005.006.009.009.013l.008.011.01.013.008.01.01.013.007.01.01.014.008.01.01.014.007.01.01.013c.002.003.005.008.008.01l.01.014.007.01.01.014.007.01.011.014.007.009.01.015.007.009.011.015.006.008.012.016.005.008.013.017.004.006.013.018.004.006.013.017.005.007.012.018.005.006.013.018.004.006.013.018.004.005.013.02.004.004.013.02.004.004.013.02.004.004.014.02c0 .002.001.002.003.004l.014.02.003.004.014.02.002.004.015.02.002.004.014.02.003.005.014.02.003.004.014.02.003.004.014.02.002.004.015.021.002.003.015.022.001.002.015.022.003.003.014.022.002.002.015.022c0 .001 0 .002.002.003l.014.022.002.002.015.022.002.002.015.023.001.002.015.022.002.002.014.023.002.002.015.022.001.003.015.022.002.002.015.023v.002l.016.023.001.001.016.024.015.024.002.002.015.023v.001l.016.024.001.001.015.024.017.025.016.025.016.025.048.075.015.025.032.05.047.075.016.025v.001l.015.024.001.001.015.024v.001l.016.025.015.025.016.025.015.026.016.025.015.025v.002c.006.007.01.015.015.023l.001.002.015.024.015.025v.001l.015.024.001.002.014.024.002.002.013.023.002.003.014.023v.002l.015.024v.001l.015.024v.002l.015.024v.001l.015.025.015.025v.002l.015.023.001.003.014.023v.003l.014.023.002.002.013.024.001.002.014.024.001.002.014.024.001.002.013.023.002.003.013.023.002.003.013.023.001.003.013.023.002.003.013.023.002.003.012.023.002.003.013.023c0 .001 0 .002.002.003l.012.023.002.003.013.022.002.004.012.023.002.003.012.023.002.003.013.023.002.004.012.022.002.004.012.022.002.004.012.022.003.004.012.022.002.005.012.021.002.005.012.022.002.004.012.022.002.005.012.021.002.005.012.022.002.004.012.022.002.005.012.021.002.005.011.021.003.006.011.021.003.006.01.02.004.006.01.02.004.007.01.02.004.007.01.02.003.006.01.02.004.007.01.02.004.007.01.02.003.006.01.02.004.007.01.02.004.007.01.019.003.008.01.018c0 .003.002.006.004.008l.009.02.004.007.01.019c0 .003.002.005.003.008l.01.018.004.01.009.017.004.009.01.018.003.009.01.018c0 .003.002.005.004.009l.008.018.005.009.009.017.004.01.009.017.004.01.009.017.004.01.009.017.004.01.009.017.004.01.009.017.004.01.008.017.005.01.008.017.005.01.008.017.005.01.008.017.005.01.008.017.005.01.008.018.004.01.008.017.005.01.008.017.004.01.009.017.004.01.008.018.005.01.008.017.004.01.008.017.005.01.007.017.006.011.007.016.005.011.007.017.005.01.008.017.005.011.007.016.005.012.007.016.005.011.007.016.006.012.006.015.006.013.007.015.005.012.007.015.005.013.007.015.005.013.007.014.005.013.007.015.005.013.007.015.005.012.007.016.005.011.007.016.005.012.006.016.006.012.006.016.006.012.006.015.005.013.007.015.005.012.007.016.005.012.006.016.005.011.007.017.005.011.007.017.004.011.007.017.005.01.007.018.004.01.007.017.005.012.007.016.004.012.007.017.005.01.006.018.005.01.007.018.004.01.007.018.004.01.008.019.003.009.008.018.004.01.007.019.004.01.007.017.004.01.007.018.004.01.007.02.004.008.007.02.004.008.007.02.004.009.007.019.004.009.007.019.004.01.007.018.004.01.006.018.004.01.007.018.004.01.007.019.004.01.007.018.003.01.007.019.004.01.007.018.003.01.008.019.003.009.007.02.003.008.008.02c0 .003.002.006.003.008l.007.02.003.009.008.02.003.008.007.02.003.009.007.02.003.008.007.02.004.009.007.02c0 .003.002.006.003.008l.007.021.003.008.007.02.003.008.007.021.003.008.007.02.003.01.007.02.003.008.007.02.003.008.007.021.003.008.008.022.002.006.007.022.003.007.007.022.002.006.008.023.002.007.008.022.002.006.007.022.003.007.007.022.002.007.008.022.002.007.007.022.003.007.007.022.002.007.007.022.003.007.007.022.002.007.007.022.003.007.007.022.002.007.007.022.002.007.007.022.003.007.007.022.002.007.007.022.002.007.007.022.002.007.007.022.002.008.007.021c0 .003.002.006.003.008l.006.021.003.008.006.021c0 .003.002.006.003.008l.006.022.002.007.007.023.002.006.007.023.002.006.007.023.002.006.007.024.002.006.007.023.001.006.007.023.002.007.007.022.002.007.007.023c0 .002 0 .004.002.006l.006.023.002.007.007.022.002.007.006.023.002.006.007.023c0 .003 0 .004.002.007l.006.023.002.006.007.023.001.007.007.023.002.006.006.024.002.006.007.023.001.006.007.024.002.006.006.023.002.007.006.022.002.007.006.023.002.007.006.023.002.006.006.023.002.007.006.023.002.007.006.022.002.008.006.022.002.007.006.023.002.007.006.023.001.007.006.022.002.008.006.022.002.008.006.023.001.005.007.025.001.005.006.024.002.006.006.024.001.006.006.024.002.006.006.024.001.006.006.024.002.006.005.024.002.006.006.024.001.006.006.024.001.006.006.024.002.006.006.024v.005l.007.025v.005l.007.025.001.005.006.025.001.005.006.025.001.005.006.025.001.006.006.024.001.006.006.024.001.006.006.025v.005c.003.008.005.017.006.025l.002.005.005.025.001.005.006.025.001.006.006.024v.006l.006.024.001.006.006.025.001.005.005.025.002.005.005.025.001.006.005.025.002.005.005.025.001.005.005.025.001.006.006.025v.005l.006.025v.005l.006.026.001.005.005.025.001.005.006.025v.005l.006.026v.005l.006.025v.005l.006.026v.005l.006.025v.005l.006.026v.005l.006.025v.006l.005.025.001.005.005.025.001.006.005.025.001.005.005.025v.006l.005.024.002.007.004.024.001.006.005.025v.006l.005.024.001.007.005.024v.006l.005.025.001.006.005.025v.006l.005.024.001.006.004.025.001.006.005.025v.006l.005.025v.005l.005.026v.005l.005.025.001.006.004.025.001.006.004.025.001.006.004.025.001.005.004.026.001.005.004.026.001.005.004.026.001.005.004.026v.005l.005.026v.005l.005.026v.004l.004.027.001.004.004.027v.004l.005.027v.005l.004.026v.005l.005.026v.005l.004.026v.005l.005.026v.005l.004.026v.005l.004.026v.005l.005.026v.005l.004.027v.004l.004.027v.004l.004.027v.004l.004.027v.004l.004.028v.003l.004.028v.003l.004.028v.003l.004.028v.004l.004.027v.004l.004.027v.004l.004.028v.004l.004.027v.004l.003.028v.003l.004.028v.003l.004.028v.003l.003.029v.003l.004.028v.003l.003.029v.002l.004.03v.002l.003.029v.002l.003.03v.001l.004.03v.002c0 .01.002.02.003.029v.003l.003.028v.003l.003.029v.002l.003.03v.002l.003.029v.002l.004.03v.002l.002.029v.003l.003.028v.003l.003.029v.003l.003.029v.002l.003.03v.002c0 .01.002.019.003.028v.004l.002.028v.003l.003.029v.003l.002.029v.002l.003.03v.002l.003.03v.002l.002.029v.002l.002.03v.002l.003.03v.002l.002.03v.001l.002.03v.002l.003.03v.002l.002.03v.001l.002.03v.002l.002.03v.002l.002.03v.001l.002.031v.001l.002.031v.001l.002.031.002.032.002.032.001.031v.002l.002.03v.002l.002.03v.002l.001.03v.001l.002.031v.001l.001.031v.001l.002.031v.001l.001.031v.001l.002.031v.033l.002.032.001.032.002.032v.032l.002.032v.032l.002.032v.032l.002.032v.033l.001.031v.001l.001.032v.032l.001.032.001.032v.033l.001.032v.032l.001.032v.097l.001.033V81c0 2.233-.346 4.38-.987 6.385l-.009.03-.01.028-.009.03-.009.028-.01.03-.009.028-.01.029v.001l-.009.028v.001l-.01.027v.002l-.01.027v.002l-.009.027v.002l-.01.027v.002l-.01.027v.001l-.01.027v.003l-.009.026v.002l-.01.026v.004l-.01.025-.001.004-.008.024-.002.005-.008.024-.002.004-.008.024-.002.005-.009.024-.001.005-.009.024-.001.004-.009.024-.002.005-.008.023-.002.006-.008.023-.002.006-.008.022-.003.007-.008.021-.002.007-.008.022-.002.006-.009.023-.002.006-.008.022-.002.007-.008.02-.003.009-.008.02-.003.008-.007.02-.003.009-.008.02-.003.008-.008.02-.003.009-.007.019-.004.01-.007.018-.004.01-.007.018c0 .004-.002.006-.003.01l-.008.019-.003.009-.007.02-.004.008-.007.02-.004.008-.007.02-.004.009-.007.019-.004.009-.007.018-.004.01-.007.019-.004.01-.007.018-.004.01-.007.018-.004.01-.008.018-.003.01-.008.018-.004.01-.007.018-.004.01-.007.017-.005.011-.006.018-.005.01-.007.017-.004.012-.007.016-.005.012-.007.016-.004.011-.007.017-.005.011-.007.017-.004.011-.007.017-.005.01-.007.018-.005.01-.006.017-.005.012-.007.016-.005.012-.007.015-.005.013-.006.015-.006.012-.006.016-.006.012-.006.016-.005.012-.007.016-.005.011-.007.016-.005.012-.007.015-.005.013-.007.015-.005.013-.007.014-.005.013-.007.015-.005.013-.007.015-.005.012-.007.015-.006.013-.006.015-.006.012-.007.016-.005.011-.007.016-.005.012-.007.016-.005.011-.008.016-.005.011-.007.017-.005.01-.007.017-.006.011-.007.016-.005.011-.008.017-.004.01-.008.017-.005.01-.008.018-.004.01-.009.017-.004.01-.008.017-.005.01-.008.017-.004.01-.008.017-.005.01-.008.018-.005.01-.008.016-.005.01-.008.018-.005.01-.008.017-.005.01-.008.017-.004.01-.009.017-.004.01-.009.017-.004.01-.009.017-.004.01-.009.017-.004.01-.009.017-.004.01-.01.017c0 .004-.002.006-.004.01l-.008.017-.005.01-.009.017-.004.009-.009.018-.004.009-.01.018-.003.009-.01.018c0 .003-.002.005-.004.008l-.009.019-.004.008-.01.019-.003.008-.01.018-.004.008-.01.02-.003.007-.01.02-.004.006-.01.02-.003.007-.01.02-.004.006-.01.02-.003.007-.01.02-.004.007-.01.02-.004.006-.01.02-.003.007-.01.02-.004.006-.01.02-.004.006-.01.02-.004.007-.01.02-.003.006-.012.021-.002.005-.012.022-.002.004-.012.022-.002.005-.012.021-.002.005-.012.022-.002.004-.012.022-.002.005-.012.021-.002.005-.012.022-.003.004-.012.022-.002.004-.012.022-.002.004-.012.022-.002.004-.013.023-.002.003-.012.023-.002.003-.012.023-.002.004-.013.022-.002.003-.012.023-.002.003-.013.023c0 .001 0 .002-.002.003l-.012.023-.002.003-.013.023-.002.003-.013.023-.001.003-.013.023-.002.003-.013.023c0 .001 0 .002-.002.003l-.013.023-.001.002-.014.024v.002l-.015.024v.002l-.014.024-.002.002-.013.023-.001.003-.014.023-.001.003-.014.023-.001.002-.014.024v.001c-.006.008-.01.017-.015.025l-.015.025-.001.002-.014.024-.001.001-.014.024-.001.002-.014.023-.002.003-.013.023-.002.002-.014.024-.001.002c-.005.008-.01.015-.014.024h-.001l-.015.025v.001l-.015.024v.002l-.015.023-.001.002-.015.024v.001l-.015.025-.016.025-.015.025v.001l-.016.025-.015.025-.016.025v.001l-.015.024-.001.001-.015.024v.001l-.048.075-.031.05-.016.025-.048.075-.016.025-.016.025-.016.024v.001l-.016.024-.001.001-.015.024-.001.001-.015.023-.002.002c-.004.008-.01.016-.015.023v.001l-.016.024v.001l-.016.023-.001.002-.015.023-.002.002-.015.022-.001.003-.015.022-.002.002-.014.023-.002.002-.015.022-.001.002-.015.023-.002.002-.015.022-.002.002-.014.022-.002.003-.015.022-.002.002-.014.022-.003.003-.015.022v.002l-.016.022-.002.003-.015.021-.002.003-.014.021-.003.004-.014.02-.003.004-.014.02c0 .002-.002.003-.003.005l-.014.02-.002.004-.015.02-.002.004-.014.02-.003.004-.014.02-.003.004-.014.02-.004.005-.013.019-.004.005-.013.019-.004.005-.013.019-.004.005-.013.018-.004.006-.013.018-.005.006-.012.018-.005.007-.013.017-.004.006-.013.018-.004.006-.013.017-.005.008-.012.016-.006.008-.011.015-.006.009-.011.015-.007.009-.01.015-.007.009-.011.014-.007.01-.01.013-.008.01-.01.014-.007.01-.01.013-.008.01-.01.014-.008.01c-.003.005-.006.01-.01.013l-.007.011-.01.013-.008.011-.01.012-.008.011-.01.013-.008.011-.009.012-.009.012-.008.011-.01.013-.008.01-.01.013-.008.01-.01.014-.008.01-.01.013-.007.01-.011.014-.007.009-.011.014-.007.009-.012.015-.006.008-.012.016-.005.007-.013.016-.006.007-.012.016-.005.007-.014.016-.005.007-.013.017-.005.006-.013.017-.005.005-.014.019-.003.004-.015.019-.004.004-.015.019-.003.004-.015.019-.003.003-.016.02-.002.003-.017.02-.001.003-.017.02-.002.002-.017.021v.002l-.018.021-.001.001-.018.023-.019.022c-.73.893-1.532 1.716-2.399 2.46-3.264 2.805-7.43 4.486-11.968 4.486h-68.386l-.005-.004-.042-.027-.001-.001-.009-.006-.002-.001-.004-.003-.004-.003-.005-.003-.005-.003-.006-.005h-.002l-.003-.003-.004-.002-.008-.006-.004-.003-.003-.001-.005-.004-.007-.005-.057-.038-.01-.006-.084-.057-.012-.008-.004-.003-.003-.001-.005-.004-.022-.014-.005-.004-.01-.007-.012-.008-.014-.01-.006-.003-.01-.006-.039-.027-.053-.035-.04-.027-.079-.053-.01-.007-.036-.024-.023-.015-.012-.008-.013-.01-.007-.003-.01-.008-.01-.007-.008-.004-.008-.006-.004-.003-.058-.038-.013-.009-.005-.004-.012-.007-.029-.02-.043-.028-.012-.009-.01-.007-.044-.029-.023-.015-.003-.003-.044-.029-.016-.01-.002-.002-.019-.012-.005-.004-.017-.012-.02-.013-.002-.001-.064-.043-.027-.018-.01-.006-.01-.007-.012-.008-.021-.015c-.017-.01-.033-.022-.05-.033l-.008-.006-.03-.02-.002-.001-.071-.047-.018-.012-.017-.012-.009-.006-.03-.02-.015-.01-.012-.008-.007-.005-.046-.03-.036-.025-.026-.017-.013-.009-.09-.06-.012-.008-.052-.035-.024-.016-.028-.019-.011-.007-.003-.002-.04-.027-.065-.043-.043-.029-.039-.026-.113-.076-.006-.004-.121-.081-.02-.014-.018-.011-.005-.004-.014-.01h-.002l-.02-.014-.1-.067-.06-.04-.028-.02-.048-.031-.01-.007-.068-.045-.02-.014-.147-.098-.04-.027-.026-.017-.017-.012c-.002 0-.004-.002-.006-.004l-.068-.046-.01-.006-.01-.007-.01-.007-.021-.014-.028-.018-.042-.028-.044-.03-.032-.021-.003-.003-.014-.009-.014-.01-.005-.003-.013-.008-.026-.018-.016-.01-.01-.007-.04-.026-.005-.004-.022-.015-.014-.01-.244-.162-.017-.012-.06-.04-.018-.012-.014-.01-.03-.02c-.002 0-.004-.003-.006-.004l-.027-.018-.077-.052-.004-.002-.03-.02-.002-.002c-.016-.01-.032-.02-.048-.032l-.01-.007-.017-.01-.001-.002-.237-.158-.105-.07-.014-.01-.004-.003-.014-.01-.014-.008-.034-.023-.003-.002-.016-.011-.07-.047-.017-.01-.046-.032-.039-.026-.007-.005-.033-.022-.01-.007-.01-.006-.032-.022-.055-.036-.012-.009-.007-.004-.01-.007-.35-.235-.02-.013-.025-.016-.028-.02c-.02-.012-.04-.026-.059-.039l-.013-.009-.037-.025-.029-.019-.04-.026-.004-.003-.034-.023-.009-.006-.005-.004-.044-.029-.006-.004-.017-.011-.002-.001-.126-.085-.024-.016-.007-.005-.008-.005-.015-.01-.003-.002-.038-.025-.058-.04-.01-.007-.014-.008-.002-.002-.014-.01-.007-.004-.01-.007-.017-.011-.022-.015-.005-.003-.013-.009-.008-.006-.078-.051-.019-.013-.016-.011-.014-.009-.007-.005-.01-.007-.005-.003-.151-.101-.013-.01-.012-.007-.015-.01-.009-.006-.033-.022-.02-.014-.024-.015-.002-.002-.015-.01-.016-.01-.003-.003-.051-.034-.006-.004-.007-.005-.007-.004-.046-.031-.03-.02-.044-.03-.055-.036-.006-.005-.013-.008-.026-.018-.022-.015-.003-.002-.021-.013-.007-.005-.009-.006-.008-.005-.006-.005-.006-.003-.01-.007-.002-.002-.065-.043-.002-.002-.057-.038-.01-.006-.03-.021-.015-.01-.008-.005-.01-.006-.01-.007-.012-.008-.007-.005-.007-.005-.07-.047-.007-.004-.054-.037-.003-.002-.053-.035-.006-.004-.004-.003-.025-.016-.002-.001-.007-.005-.002-.001-.006-.005-.004-.003-.012-.007-.013-.01h-.002l-.007-.005-.022-.015-.003-.002-.003-.002-.024-.016-.026-.018-.006-.003-.04-.028-.005-.003-.05-.033-.012-.008-.003-.002-.005-.004h-.001l-.002-.002h-.001l-.002-.001-.004-.003-.002-.002-7.225 5H18.964c-.23 0-.46-.004-.688-.013l-.228-.01c-4.873-.244-9.263-2.428-12.494-5.835l-.04-.042-.02-.021v-.001l-.019-.02-.002-.002-.018-.019-.002-.003-.017-.017-.004-.005-.015-.017-.005-.005-.015-.016-.005-.005-.014-.016-.007-.006-.013-.015-.007-.007-.012-.014-.008-.008-.011-.013-.01-.01-.01-.01-.01-.012-.009-.01-.01-.012-.01-.01-.01-.012-.009-.009-.011-.013-.008-.008-.012-.014-.007-.008-.013-.014-.007-.007-.013-.015-.006-.007-.014-.015-.005-.006-.014-.016-.006-.006-.014-.016-.005-.005-.015-.018-.004-.004-.016-.018-.003-.004-.016-.018-.003-.003-.017-.02-.002-.002-.017-.02-.002-.002-.018-.02-.001-.002-.019-.02v-.001c-.602-.693-1.158-1.431-1.663-2.209l-.016-.024v-.001l-.016-.024v-.001l-.016-.024v-.001l-.016-.023-.001-.002-.014-.023-.002-.003-.014-.022-.002-.003-.014-.021-.002-.004-.014-.021-.002-.004-.013-.02-.003-.006-.013-.02-.003-.005-.013-.02-.003-.006-.012-.018-.004-.007-.012-.018-.004-.007-.012-.019-.003-.006-.012-.019-.004-.006-.011-.019-.005-.007-.01-.018c-.003-.002-.004-.005-.006-.008l-.01-.016-.006-.01-.01-.016-.005-.009-.01-.016-.006-.009-.01-.016-.005-.01-.01-.016-.006-.01-.009-.015-.006-.01-.009-.015-.007-.01-.008-.015-.007-.011-.008-.014-.007-.012-.008-.014-.007-.012-.009-.013-.007-.013-.007-.012-.008-.013-.007-.013-.008-.013-.007-.012-.009-.014-.006-.011-.009-.015-.006-.01-.009-.016-.006-.01-.009-.016-.006-.01-.01-.016-.004-.009-.01-.017-.005-.008-.01-.018-.005-.008-.01-.018-.004-.007-.011-.02-.004-.006-.011-.02-.003-.005-.012-.02-.003-.006-.012-.02-.002-.006-.013-.021-.002-.004-.012-.023-.002-.003-.013-.023s0-.002-.002-.003l-.013-.023v-.002l-.014-.024-.001-.002-.014-.024v-.002l-.014-.025-.001-.001-.014-.025v-.001l-.014-.026-.014-.026c-.381-.698-.723-1.422-1.023-2.17C.53 86.392 0 83.76 0 81V20v-.019-.005-.013-.007-.013-.005-.019-.003-.016-.005-.014-.005-.015-.004-.019-.004-.014-.007-.013l.001-.006v-.013-.006-.018-.004-.015-.006-.012-.007l.001-.013v-.006-.018-.005-.013-.007l.001-.012v-.007-.015-.003-.019-.004l.001-.015v-.005-.014-.005l.001-.017v-.002-.018-.005-.014l.001-.005v-.015-.005-.017l.001-.001v-.019-.005-.014l.001-.006v-.012-.007l.001-.014v-.005-.017-.008l.001-.01v-.008-.012l.001-.007v-.017l.001-.019v-.006-.013l.001-.006v-.014-.004l.002-.037v-.006-.014l.001-.005v-.014-.005l.002-.037v-.006l.001-.013v-.006l.001-.013v-.005l.001-.019v-.003-.015l.001-.007v-.011l.001-.007v-.013-.006l.003-.036v-.006-.013-.006l.001-.014v-.005l.002-.018v-.005-.013l.001-.007v-.012l.001-.007v-.012l.001-.006.001-.018v-.006l.001-.012v-.007l.001-.011v-.008l.001-.011v-.007l.002-.018v-.005-.013l.001-.007v-.011l.001-.008.001-.012v-.006l.001-.018v-.006l.002-.011v-.008-.011l.001-.008.001-.015v-.002l.002-.018v-.007-.011l.001-.008.001-.012v-.006l.003-.037v-.003l.002-.016v-.004-.015l.001-.004.003-.037v-.004l.001-.014v-.006l.002-.014v-.005l.002-.018.001-.02v-.002l.002-.015v-.005l.001-.015v-.004l.002-.019.001-.018v-.005l.002-.013v-.006l.002-.015v-.003l.002-.02.001-.017v-.006l.002-.013v-.005l.002-.016v-.002l.001-.02v-.001l.002-.017v-.004l.002-.014v-.006l.002-.015v-.003l.002-.019v-.002l.001-.016v-.005l.002-.014v-.004l.006-.056v-.005l.002-.013v-.006l.002-.017.002-.02v-.003l.002-.015v-.005l.002-.014v-.005l.002-.017.002-.02v-.004l.002-.013v-.006l.002-.013v-.006l.004-.036v-.004l.002-.015v-.005l.002-.013v-.006l.005-.036v-.005l.002-.013v-.006l.002-.012v-.006l.005-.036v-.006l.002-.012v-.007l.002-.012v-.006l.003-.018v-.001l.002-.017v-.006l.002-.012v-.006l.002-.013.001-.006.002-.017v-.004l.002-.014.001-.006.002-.013v-.006l.002-.013v-.005l.003-.018v-.003l.002-.015v-.005l.003-.013V17.3l.002-.013v-.005l.003-.018v-.002l.002-.016.001-.005.002-.014v-.004l.003-.017v-.002l.002-.019v-.001l.003-.016v-.006l.002-.013v-.005l.003-.015v-.003l.003-.019v-.002l.002-.016.001-.004.002-.015v-.003l.003-.018v-.001l.003-.018v-.003l.002-.016v-.004c.002-.005.002-.01.003-.016v-.002l.006-.038c0-.007.002-.012.003-.018v-.004l.002-.015v-.003c.003-.012.004-.025.006-.037v-.004l.003-.014v-.005l.003-.015v-.003l.003-.018v-.002l.003-.017v-.004l.003-.014v-.005l.003-.014v-.004l.003-.018v-.001l.003-.018v-.002l.003-.016v-.004l.003-.016v-.002l.003-.019v-.001l.003-.017v-.004l.003-.014.001-.005.002-.015V16.6l.004-.019.003-.018v-.003l.003-.015v-.004l.003-.017v-.001l.004-.018V16.5l.003-.015v-.004l.003-.014v-.004l.007-.037v-.002l.003-.016v-.004l.003-.015v-.004l.004-.016v-.002l.003-.018v-.003l.003-.015.001-.004.003-.015v-.004l.007-.036v-.004l.003-.014v-.005c.002-.004.002-.009.003-.014l.001-.004.006-.035.001-.005.003-.014v-.004l.003-.015v-.003l.008-.037v-.003L.36 16.1v-.002l.004-.017v-.002l.007-.036v-.004l.004-.015v-.003l.004-.018.007-.038.004-.019.01-.057.002-.003.003-.015v-.003l.004-.018.007-.037.001-.004.003-.015v-.003l.004-.018.008-.037v-.002l.004-.016v-.003l.012-.055v-.003l.004-.016v-.002l.008-.037.004-.017v-.005l.004-.014v-.003l.008-.037v-.001l.004-.017v-.003l.017-.073v-.003l.004-.016v-.002l.009-.037v-.001l.004-.017v-.003l.004-.016v-.002l.009-.036v-.003l.004-.014v-.005l.004-.015v-.003l.01-.036v-.002l.003-.015.001-.005.013-.053v-.003l.004-.015.001-.004.004-.017.009-.036v-.003l.004-.016.001-.003.009-.036.004-.018v-.003l.004-.014.001-.005.004-.015v-.002l.005-.018v-.001l.005-.017v-.003l.004-.015v-.003l.01-.036v-.001l.004-.017.001-.003.004-.015v-.003l.015-.055.004-.018v-.001l.01-.037.005-.018v-.003l.004-.014.001-.004.01-.036.004-.018v-.002l.005-.016v-.002l.01-.036v-.002l.005-.017v-.001l.016-.055.02-.075.005-.018.015-.056c.042-.149.085-.296.13-.443l.022-.074.017-.055.006-.018.023-.073c.052-.165.106-.328.161-.491C2.516 9.146 5.104 5.71 8.438 3.36l.577.817C3.996 7.716 1 13.631 1 20v61c0 2.572.477 5.066 1.418 7.413.908 2.264 2.208 4.296 3.862 6.041C9.67 98.03 14.175 100 18.964 100h261.749l6.967-4.822.56-.388.566.38 7.212 4.83H364.1c4.788 0 9.293-1.97 12.684-5.546 1.654-1.745 2.953-3.777 3.861-6.041.941-2.347 1.418-4.841 1.418-7.413V20c0-2.572-.477-5.066-1.418-7.413-.908-2.264-2.207-4.296-3.861-6.041C373.393 2.97 368.888 1 364.1 1h-69.083l-6.188 4.79-.614.476-.613-.477L281.458 1H18.964V0z" class="prefix__cls-14" transform="translate(5223.475 -356)"/>
            </g>
            <text id="prefix___18:00-2" class="prefix__cls-4" data-name="18:00" transform="translate(5314 -309)">
                <tspan x="0" y="0">18:00</tspan>
            </text>
            <text id="prefix___234" class="prefix__cls-5" data-name="$234" transform="translate(5538 -297)">
                <tspan x="0" y="0">$234</tspan>
            </text>
            <text id="prefix___21:00-2" class="prefix__cls-4" data-name="21:00" transform="translate(5445 -309)">
                <tspan x="0" y="0">21:00</tspan>
            </text>
            <text id="prefix__LGW-2" class="prefix__cls-6" data-name="LGW" transform="translate(5314 -285)">
                <tspan x="0" y="0">LGW</tspan>
            </text>
            <text id="prefix__JFK-2" class="prefix__cls-6" data-name="JFK" transform="translate(5445 -285)">
                <tspan x="0" y="0">JFK</tspan>
            </text>
            <g id="prefix__Group_101-3" data-name="Group 101" transform="translate(14)">
                <path id="prefix__Line_10-3" d="M0 0L70 0" class="prefix__cls-7" data-name="Line 10" transform="translate(5350.5 -305.5)"/>
                <path id="prefix__Path-3" d="M0 0l3.83 3.83L7.66 0" class="prefix__cls-8" data-name="Path" transform="rotate(-90 2557.3 -2859.14)"/>
                <circle id="prefix__Ellipse_10-3" cx="3" cy="3" r="3" class="prefix__cls-9" data-name="Ellipse 10" transform="translate(5348 -308.5)"/>
            </g>
            <path id="prefix__Line_11-3" d="M0 0L0 87" class="prefix__cls-10" data-name="Line 11" transform="translate(5511.229 -348.5)"/>
            <g id="prefix__FlylineSVG_Logotype-3" data-name="FlylineSVG_Logotype" transform="translate(5020 -776.595)">
                <path id="prefix__Path_142-3" d="M215 457.888c0 3.022 2.727 5.472 6.091 5.472h10.279v2.54h-10.561v2.277c0 2.934 2.648 5.313 5.915 5.313h4.647v5.881c0 2.992 2.7 5.417 6.031 5.417h5.2V454.6H215z" class="prefix__cls-11" data-name="Path 142" transform="translate(0 -.008)"/>
                <path id="prefix__Path_143-3" d="M328.95 476.039h-9.25v-16.015a5.421 5.421 0 0 0-5.424-5.418H309.6v30.188h24.828v-3.283a5.476 5.476 0 0 0-5.478-5.472z" class="prefix__cls-12" data-name="Path 143" transform="translate(-63.309 7.539)"/>
            </g>
        </g>
    </g>
</svg>
