<svg xmlns="http://www.w3.org/2000/svg" xmlns:xlink="http://www.w3.org/1999/xlink" width="339.255" height="238.587" viewBox="0 0 339.255 238.587">
  <defs>
    <linearGradient id="linear-gradient" x1="0.065" y1="0.96" x2="0.835" y2="0.146" gradientUnits="objectBoundingBox">
      <stop offset="0" stop-color="#30acef"/>
      <stop offset="1" stop-color="#fff"/>
    </linearGradient>
    <clipPath id="clip-path">
      <circle id="Ellipse_384" data-name="Ellipse 384" cx="104.249" cy="104.249" r="104.249" transform="translate(0 32.665) rotate(-9.014)" fill="url(#linear-gradient)"/>
    </clipPath>
    <linearGradient id="linear-gradient-3" x1="-0.562" y1="1.603" x2="0.63" y2="0.265" xlink:href="#linear-gradient"/>
  </defs>
  <g id="Group_4445" data-name="Group 4445" transform="translate(-120 -561.365)">
    <g id="Group_4348" data-name="Group 4348" transform="translate(79.95 -1243.033)">
      <g id="Group_12-2" data-name="Group 12-2" transform="translate(146.818 1816.093)" opacity="0.2">
        <path id="Fill_10" data-name="Fill 10" d="M154.542,1818.933a2.632,2.632,0,0,0,.431-1.722c-.157-.958-1.091-1.534-2.491-1.7a2.951,2.951,0,0,0,.242-1.605c-.413-2.551-5.124-3.011-10.518-1.026a22.446,22.446,0,0,0-5.116,2.64,2.121,2.121,0,0,0-.01-.923c-.487-1.9-4.143-1.541-8.161.8a20.856,20.856,0,0,0-2.715,1.886c-.308-.754-1.893-.708-3.656.129a7.871,7.871,0,0,0-2.283,1.6l-14.04,1.168h62.307Z" transform="translate(-106.225 -1811.646)" fill="#00aeef"/>
      </g>
      <g id="Group_4337" data-name="Group 4337" transform="translate(90.877 1804.398)">
        <circle id="Ellipse_383" data-name="Ellipse 383" cx="104.249" cy="104.249" r="104.249" transform="translate(0 32.665) rotate(-9.014)" fill="url(#linear-gradient)"/>
        <g id="Group_4336" data-name="Group 4336" transform="translate(0 0)" clip-path="url(#clip-path)">
          <path id="Path_3211" data-name="Path 3211" d="M164.8,1869.71l9.9,4.453,2.722,4.453,4.453,1.733.5,4.7-1.733,2.72-3.464.742-7.422-2.969v-.989l4.206-1.733-1.484-5.2-6.681-2.475-2.969-3.958Zm62.349,114.307-7.917-3.217-9.65-3.464h-7.67l-7.175-1.484-7.917,1.733-4.453.247h-2.722l-5.2,2.969-4.948,1.98-6.681-4.206,1.731-6.928-4.206-1.731H155.4l-.744-2.227.5-4.454-1.731-2.473-3.464.5-.991,2.474-4.206.247-3.711-4.453-1.484-5.937,3.711-6.928,7.175.5,1.98,1.731h2.97l3.711-2.227,3.216.989,4.455,7.67,1.731-.247-.5-5.69-1.484-2.969.5-4.7,9.154-3.959,1.237-9.154,3.958-3.216,3.217-5.691,2.473-.5,5.691-3.711.248-1.979-3.959.247-.742-1.98h-2.722l-4.206.991,1.98-3.217,8.659-2.473,1.98-2.226,3.464,5.442,2.226,2.227,3.464-.989-1.484-3.216-5.2-3.712-5.939-6.68-6.184-4.206-5.939-.991-2.969-2.969-3.959-.989-.494.989-.5,7.175.989,2.475-2.227,7.917-4.948-3.959.742-3.463-5.2-2.475-2.227-2.722,1.236-6.186,7.176-5.195.494-5.937-2.722.247-1.731-2.226-.742-3.711-1.733-.248-.989,3.959-2.722.5-1.238-8.661L152.681,1866l-3.464-1.486-3.959,1.98,4.948,4.7.991,4.206-8.908-6.681-6.186-6.68-.5-6.681-6.433-1.978-4.948,3.216a38.307,38.307,0,0,1-3.711,1.979,41.264,41.264,0,0,1-5.937.989l-.991,4.206-5.69.248.5,2.722,9.155,1.484,4.7,5.2v8.659l-2.722,7.67.494,8.166-6.926,12.123-1.486,18.062,2.228,10.39,3.216,7.919,3.711.494-1.236-3.958-1.98-2.97-1.237-5.442,2.227-.5,3.464,8.908,2.475,7.917v6.433l4.7,5.69,8.412,6.186,12.865,3.464,3.959,3.711,2.969,3.959,4.455,2.72,5.442,1.486,5.444-.248s-.247,2.475-.247,3.711-3.464,5.444-3.464,5.444l-2.722,4.948,1.98,5.444,5.442,2.227,7.67,7.917,3.464,1.484v3.712l.432,1.728a103.865,103.865,0,0,0,51.892-24.429l.129-1.794,6.68-12.123-3.216-2.227ZM252.561,1887a1.52,1.52,0,0,0-.068-1.389l-2.33-4.024-3.285-5.161a1.547,1.547,0,0,1-.224-.615l-.673-5.053a1.518,1.518,0,0,1,1.755-1.7l1.175.2a1.188,1.188,0,0,0,1.378-1.055h0a1.19,1.19,0,0,0-1.092-1.3l-2-.153,2.651-1.205c.047-.023.092-.045.137-.071l2.149-1.254a1.521,1.521,0,0,0,.753-1.312v-1.1a1.512,1.512,0,0,0-.3-.912l-2.42-3.227a1.515,1.515,0,0,1-.292-.732l-.532-4.469a1.543,1.543,0,0,0-.342-.8,104.329,104.329,0,0,0-119.285-30.456,1.522,1.522,0,0,0-.355,2.63c.791.6,1.623,1.263,2.251,1.768a1.5,1.5,0,0,1,.35,1.964,9.442,9.442,0,0,1-6.3,4.166,1.522,1.522,0,0,0-1.279,1.381l-.328,4.421a1.534,1.534,0,0,1-.931,1.282,6.227,6.227,0,0,0-3.293,7.612,6.558,6.558,0,0,0,1.946.356,1.518,1.518,0,0,1,1.2,2.156l-.019.042a1.516,1.516,0,0,0,1.371,2.167h1.386a1.518,1.518,0,0,0,1.2-.581l6.491-8.28a1.524,1.524,0,0,0,.3-.658l.458-2.441a1.519,1.519,0,0,1,1.384-1.236l4.96-.353a1.523,1.523,0,0,0,1.2-.751l.939-1.61a1.517,1.517,0,0,1,1.155-.745l5.268-.545a1.519,1.519,0,0,0,1.341-1.247l.332-1.881a1.518,1.518,0,0,1,1.423-1.254l3.646-.173a1.524,1.524,0,0,0,.628-.169,21.749,21.749,0,0,1,4.163-1.826,25.983,25.983,0,0,1,3.967,1.152,1.523,1.523,0,0,1,.439.245l3.095,2.475a1.519,1.519,0,0,0,.949.334h4.237a1.517,1.517,0,0,0,.791-.222l3.664-2.24a1.507,1.507,0,0,1,.923-.216l4.839.419a1.487,1.487,0,0,1,.616.192,5.553,5.553,0,0,0,2.46.829,16.644,16.644,0,0,0,4.221-1.405,1.515,1.515,0,0,1,1.412.1l6.434,3.993c.037.024.074.048.11.076l2.309,1.731a1.514,1.514,0,0,1,.607,1.215v1.622a1.517,1.517,0,0,0,1.318,1.505l1.368.183a1.517,1.517,0,0,0,1.528-.768l.05-.091a1.518,1.518,0,0,1,1.964-.64l1.147.529a1.189,1.189,0,0,1,.682,1.228l-.04.321a1.189,1.189,0,0,1-.874,1l-4.44,1.184a1.519,1.519,0,0,0-.812,2.4l2.619,3.388a1.534,1.534,0,0,0,.465.4l8.351,4.64a1.514,1.514,0,0,1,.478.417l3.112,4.15a1.514,1.514,0,0,0,1.076.6l3.74.34a1.52,1.52,0,0,0,1.5-.834l.46-.921a1.518,1.518,0,0,1,.991-.794l1.3-.326-6.105-4.7a1.529,1.529,0,0,0-.737-.3l-3.55-.444,1.215-.374a1.518,1.518,0,0,0,.794-2.327l-.186-.263a1.52,1.52,0,0,1,1.152-2.393l1.044-.061a1.525,1.525,0,0,1,.816.182l4.445,2.425a1.512,1.512,0,0,1,.76,1.025l1.015,4.873a1.514,1.514,0,0,0,.328.671l2.273,2.686a1.544,1.544,0,0,1,.292.531l1.985,6.4a1.526,1.526,0,0,0,.558.779l4.409,3.206a1.517,1.517,0,0,1,.626,1.229v6.568a1.513,1.513,0,0,0,.689,1.271l4.235,2.764a1.515,1.515,0,0,1,.682,1.409l-.155,1.708a1.467,1.467,0,0,1-.032.2l-.623,2.7a1.517,1.517,0,0,0,.039.823l1.325,3.974c.016.05.031.1.042.15l.258,1.16a1.515,1.515,0,0,0,1.218,1.166l2.064.365a1.519,1.519,0,0,0,1.639-.849l1.484-3.156Zm3.54-25.637v1.252a1.086,1.086,0,0,1-.05.329l-1.1,3.521a1.118,1.118,0,0,0-.026.56l.553,2.583a1.106,1.106,0,0,0,.7.807l1.42.516a1.1,1.1,0,0,1,.726,1.037v2.272a1.1,1.1,0,0,1-1.528,1.02h0a1.1,1.1,0,0,0-1.526.958l-.642,11.554a1.1,1.1,0,0,1-.134.466l-.24.442a13.3,13.3,0,0,0-1.112,10.022l.4,1.391a1.114,1.114,0,0,0,.313.507l2.633,2.432a1.1,1.1,0,0,1,.355.811v12.71a1.111,1.111,0,0,0,.05.326l3.148,10.172c.013.04.027.079.044.116l3.225,7.37a1.1,1.1,0,0,0,.732.626l4.23,1.1a1.1,1.1,0,0,0,1.3-.658l1.618-4.045.807-.631a105.408,105.408,0,0,0,.8-12.961A103.75,103.75,0,0,0,256.1,1861.362Zm-57.154-1.549-16.329-7.175-7.175.247-1.733,4.7-2.969-3.217-5.442,1.238-.5,8.164,4.453,3.217,3.217-4.7,3.711,3.713,7.67,6.679,1.484,7.175,6.433,8.166,10.392-1.733-.248-3.711-2.227-4.206-.494-9.9,2.473-4.206Zm13.361,5.443-3.711-.99-3.217,2.722,1.733,7.175h3.216Zm23.011,4.7-8.412-4.453-1.733-2.969-1.978.742,1.731,4.948,1.484,6.433,3.711,1.484.742-.991-2.227-3.711,6.433,2.475Zm-72.247,89.319-.989.989,7.423,2.226,2.969,3.464,4.7.5,1.733-2.722-5.691-.989Zm22.021,4.7-5.2,1.486.742,1.978h6.433l1.237-1.978-2.227.247Z" transform="translate(-49.259 -1798.678)" fill="url(#linear-gradient-3)"/>
          <path id="Path_3212" data-name="Path 3212" d="M210.662,1948.281a104.7,104.7,0,0,1-104.7-104.7q0-4.023.3-7.969a104.7,104.7,0,1,0,183.256,76.829A104.447,104.447,0,0,1,210.662,1948.281Z" transform="translate(-66.107 -1785.248)" opacity="0.05"/>
        </g>
      </g>
      <g id="Group_4346" data-name="Group 4346" transform="translate(40.05 1852.762)">
        <g id="Group_4338" data-name="Group 4338" transform="translate(24.52 22.446)">
          <path id="Path_3213" data-name="Path 3213" d="M117.448,1849.424l-5.941,18.487a.574.574,0,0,1-.339.363l-47.894,18.619.232-4.28c8.661-5.658,43.945-28.541,52.709-34.224C116.794,1848.013,117.665,1848.747,117.448,1849.424Z" transform="translate(-50.323 -1848.286)" fill="#192f77"/>
          <path id="Path_3214" data-name="Path 3214" d="M57.365,1869.262l6.55,1.276a6.061,6.061,0,0,0,4.514-.766l-.232,4.28a7.971,7.971,0,0,1-6.478-.456l-6.473-3.19A1.757,1.757,0,0,1,57.365,1869.262Z" transform="translate(-55.247 -1835.447)" fill="#192f77"/>
        </g>
        <g id="Group_4345" data-name="Group 4345">
          <g id="Group_4344" data-name="Group 4344">
            <g id="Group_4343" data-name="Group 4343">
              <path id="Path_3215" data-name="Path 3215" d="M157.515,1850.33l-1.578,3.519-.211.481-6.157,13.741-.213.481-2,4.466-21.118-7.012,25.181-16.105.04-.036a2.585,2.585,0,0,1,1.723-.819,2.616,2.616,0,0,1,1.062.142Z" transform="translate(12.818 -1825.379)" fill="#192f77"/>
              <path id="Path_3216" data-name="Path 3216" d="M211.884,1889.375a4.856,4.856,0,0,1-3.609,3.149l-11.247,2.351a81.763,81.763,0,0,1-19.5,2.533,80.861,80.861,0,0,1-10.055-.532c-.979-.116-1.949-.242-2.911-.406-.419-.062-.829-.131-1.237-.2s-.829-.142-1.239-.231c-.829-.15-1.651-.319-2.47-.508-.411-.1-.812-.189-1.233-.287-.487-.116-.983-.231-1.462-.374-.736-.182-1.481-.392-2.218-.621-1.215-.355-2.412-.747-3.62-1.168l-41.27-14.661-22.983-8.145-26.725-9.49c-1.063-.377-2.11-.8-3.13-1.252q-.634-.273-1.242-.579c-1.136-.537-2.227-1.133-3.272-1.759-.918-.546-1.81-1.11-2.644-1.694q-1.312-.905-2.48-1.844l-.576-.481c-.566-.473-1.086-.955-1.584-1.429-.216-.2-.423-.4-.629-.612a21.538,21.538,0,0,1-2.991-3.709,2.882,2.882,0,0,1-.3-.483c-1.233-2.152-1.586-4.117-.758-5.6,2.126-3.806,11.515-3.611,11.515-3.611s0,0,.019-.007l.019,0a.025.025,0,0,0,.018-.01,7.057,7.057,0,0,1,.765-.311c.365-.145.85-.342,1.373-.55.261-.1.523-.2.813-.3.1-.04.2-.082.308-.114,1.055-.387,2.225-.789,3.274-1.1a1.53,1.53,0,0,1,.15-.042c.5-.15.957-.261,1.36-.352a31.764,31.764,0,0,1,15.379.91s.068.026.182.06c.173.06.45.163.844.3,4.353,1.531,21.986,7.775,39.656,14.027.269.105.537.2.807.294,20.184,7.157,40.156,14.235,40.156,14.235l20.913,7.425.574.2.384.139.47.173,29.437,10.452a4.741,4.741,0,0,1,2.506,2.023c.1.156.182.314.263.473A4.867,4.867,0,0,1,211.884,1889.375Z" transform="translate(-40.05 -1834.374)" fill="#fcfcfc"/>
              <g id="Group_4341" data-name="Group 4341" transform="translate(51.668 12.471)" opacity="0.11">
                <g id="Group_4339" data-name="Group 4339" transform="translate(34.821 12.93)">
                  <path id="Path_3217" data-name="Path 3217" d="M94.568,1853.529a1.236,1.236,0,0,0,1.509-.87l.173-.991a1.231,1.231,0,0,0-2.378-.639l-.173.991A1.236,1.236,0,0,0,94.568,1853.529Z" transform="translate(-93.656 -1850.118)" fill="#192f77"/>
                  <path id="Path_3218" data-name="Path 3218" d="M97.043,1854.429a1.233,1.233,0,0,0,1.509-.87l.174-.991a1.231,1.231,0,1,0-2.378-.639l-.174.991A1.235,1.235,0,0,0,97.043,1854.429Z" transform="translate(-92.138 -1849.566)" fill="#192f77"/>
                  <path id="Path_3219" data-name="Path 3219" d="M99.519,1855.33a1.235,1.235,0,0,0,1.509-.869l.173-.991a1.231,1.231,0,0,0-2.378-.639l-.173.991A1.234,1.234,0,0,0,99.519,1855.33Z" transform="translate(-90.619 -1849.013)" fill="#192f77"/>
                  <path id="Path_3220" data-name="Path 3220" d="M101.994,1856.231a1.235,1.235,0,0,0,1.509-.87l.174-.991a1.231,1.231,0,1,0-2.378-.639l-.174.991A1.236,1.236,0,0,0,101.994,1856.231Z" transform="translate(-89.101 -1848.46)" fill="#192f77"/>
                  <path id="Path_3221" data-name="Path 3221" d="M104.47,1857.131a1.234,1.234,0,0,0,1.509-.87l.173-.991a1.231,1.231,0,1,0-2.378-.639l-.173.991A1.234,1.234,0,0,0,104.47,1857.131Z" transform="translate(-87.582 -1847.908)" fill="#192f77"/>
                  <path id="Path_3222" data-name="Path 3222" d="M106.974,1858.058a1.237,1.237,0,0,0,1.509-.87l.081-1.029a1.231,1.231,0,0,0-2.378-.639l-.081,1.029A1.234,1.234,0,0,0,106.974,1858.058Z" transform="translate(-86.046 -1847.362)" fill="#192f77"/>
                  <path id="Path_3223" data-name="Path 3223" d="M109.449,1858.958a1.233,1.233,0,0,0,1.509-.869l.082-1.028a1.231,1.231,0,0,0-2.378-.639l-.082,1.028A1.234,1.234,0,0,0,109.449,1858.958Z" transform="translate(-84.528 -1846.811)" fill="#192f77"/>
                  <path id="Path_3224" data-name="Path 3224" d="M111.925,1859.859a1.236,1.236,0,0,0,1.509-.869l.081-1.028a1.231,1.231,0,1,0-2.378-.639l-.081,1.028A1.234,1.234,0,0,0,111.925,1859.859Z" transform="translate(-83.009 -1846.258)" fill="#192f77"/>
                  <path id="Path_3225" data-name="Path 3225" d="M114.4,1860.76a1.236,1.236,0,0,0,1.509-.87l.082-1.029a1.231,1.231,0,0,0-2.378-.637l-.082,1.028A1.235,1.235,0,0,0,114.4,1860.76Z" transform="translate(-81.491 -1845.705)" fill="#192f77"/>
                  <path id="Path_3226" data-name="Path 3226" d="M116.876,1861.66a1.234,1.234,0,0,0,1.509-.87l.081-1.028a1.231,1.231,0,0,0-2.378-.639l-.081,1.028A1.234,1.234,0,0,0,116.876,1861.66Z" transform="translate(-79.972 -1845.153)" fill="#192f77"/>
                </g>
                <g id="Group_4340" data-name="Group 4340">
                  <path id="Path_3227" data-name="Path 3227" d="M72.882,1845.508a1.235,1.235,0,0,0,1.58-.734l.171-1.018a1.231,1.231,0,0,0-2.314-.844l-.171,1.018A1.234,1.234,0,0,0,72.882,1845.508Z" transform="translate(-72.074 -1842.104)" fill="#192f77"/>
                  <path id="Path_3228" data-name="Path 3228" d="M75.774,1846.551a1.234,1.234,0,0,0,1.509-.87l.081-1.028a1.231,1.231,0,0,0-2.378-.639l-.081,1.028A1.233,1.233,0,0,0,75.774,1846.551Z" transform="translate(-70.364 -1841.491)" fill="#192f77"/>
                  <path id="Path_3229" data-name="Path 3229" d="M78.534,1847.554a1.236,1.236,0,0,0,1.509-.87l.081-1.028a1.231,1.231,0,1,0-2.378-.639l-.081,1.028A1.236,1.236,0,0,0,78.534,1847.554Z" transform="translate(-68.671 -1840.876)" fill="#192f77"/>
                  <path id="Path_3230" data-name="Path 3230" d="M81.294,1848.557a1.235,1.235,0,0,0,1.509-.869l.082-1.028a1.231,1.231,0,1,0-2.378-.639l-.082,1.028A1.235,1.235,0,0,0,81.294,1848.557Z" transform="translate(-66.978 -1840.261)" fill="#192f77"/>
                  <path id="Path_3231" data-name="Path 3231" d="M84.054,1849.559a1.234,1.234,0,0,0,1.509-.87l.082-1.028a1.231,1.231,0,1,0-2.378-.639l-.082,1.028A1.235,1.235,0,0,0,84.054,1849.559Z" transform="translate(-65.285 -1839.646)" fill="#192f77"/>
                </g>
                <path id="Path_3232" data-name="Path 3232" d="M89.583,1851.874a1.288,1.288,0,0,0,1.571-.907l.208-1.124a1.282,1.282,0,1,0-2.477-.665l-.21,1.125A1.287,1.287,0,0,0,89.583,1851.874Z" transform="translate(-61.916 -1838.348)" fill="#192f77"/>
              </g>
              <path id="Path_3233" data-name="Path 3233" d="M129.842,1864.443l.437.791a10.613,10.613,0,0,0,5.739,4.865,16.32,16.32,0,0,0,8.88.578l17.028-3.658-2.448-1.409a10.367,10.367,0,0,0-4.619-1.365Z" transform="translate(15.03 -1816.051)" fill="#192f77"/>
              <g id="Group_4342" data-name="Group 4342" transform="translate(11.987 0.858)" opacity="0.112" style="isolation: isolate">
                <path id="Path_3234" data-name="Path 3234" d="M64.631,1841.552a1.285,1.285,0,0,1-1.8,1.153l-1.173-.4,0-.029-.04.045-7-2.465-.01.02-7.135-2.464a60.813,60.813,0,0,1,7-2.5l1.775.486,0,.01.04-.028,1.176.321,4.621,1.275a.1.1,0,0,1,.018.029l.486.131a3.12,3.12,0,0,1,2.065,2.974Z" transform="translate(-47.479 -1834.906)" fill="#192f77"/>
              </g>
              <path id="Path_3235" data-name="Path 3235" d="M40.809,1842.175c2.822,4.937,10.3,10.8,18.853,13.838l90.974,32.294a77.427,77.427,0,0,0,26.441,4.329c-13.487-8.18-41.516-20.447-74.627-32.2C76.669,1851.284,57.372,1845.834,40.809,1842.175Z" transform="translate(-39.584 -1829.589)" fill="#30acef"/>
              <path id="Path_3236" data-name="Path 3236" d="M88.485,1860.263l21.636,7.612a.832.832,0,0,0,.608-.019l56.521-24.064-4.063-2.628c-12.293,2.851-62.218,14.576-74.619,17.488A.841.841,0,0,0,88.485,1860.263Z" transform="translate(-10.684 -1830.21)" fill="#192f77"/>
              <path id="Path_3237" data-name="Path 3237" d="M143.28,1836.141l-4.274,5.8a7.653,7.653,0,0,1-4.434,2.917l4.063,2.628a8.819,8.819,0,0,0,4.953-5.2l2.481-6.993A2.45,2.45,0,0,0,143.28,1836.141Z" transform="translate(17.932 -1833.901)" fill="#192f77"/>
            </g>
          </g>
        </g>
      </g>
      <g id="Group_4347" data-name="Group 4347" transform="translate(70.665 1895.971)">
        <g id="Group_12-2-2" data-name="Group 12-2" transform="translate(210.665)" opacity="0.2">
          <path id="Fill_10-2" data-name="Fill 10" d="M265.573,1872.614a4.154,4.154,0,0,0,.678-2.707c-.247-1.508-1.717-2.414-3.917-2.675a4.645,4.645,0,0,0,.381-2.523c-.652-4.011-8.057-4.734-16.541-1.615a35.386,35.386,0,0,0-8.044,4.151,3.339,3.339,0,0,0-.014-1.452c-.766-2.983-6.515-2.422-12.831,1.26a32.679,32.679,0,0,0-4.271,2.964c-.486-1.183-2.978-1.112-5.75.2a12.344,12.344,0,0,0-3.588,2.507l-22.078,1.838h97.975Z" transform="translate(-189.596 -1861.155)" fill="#00aeef"/>
        </g>
        <g id="Group_12-2-3" data-name="Group 12-2" transform="translate(0 94.163)" opacity="0.2">
          <path id="Fill_10-3" data-name="Fill 10" d="M107.34,1926.8a2.634,2.634,0,0,0,.432-1.721c-.158-.958-1.092-1.535-2.491-1.7a2.952,2.952,0,0,0,.242-1.605c-.415-2.551-5.124-3.011-10.519-1.026a22.518,22.518,0,0,0-5.116,2.639,2.079,2.079,0,0,0-.01-.924c-.486-1.9-4.142-1.541-8.159.8A20.821,20.821,0,0,0,79,1925.152c-.31-.752-1.894-.707-3.658.131a7.875,7.875,0,0,0-2.281,1.594l-14.04,1.169H121.33Z" transform="translate(-59.025 -1919.518)" fill="#00aeef"/>
        </g>
      </g>
    </g>
  </g>
</svg>
