<svg xmlns="http://www.w3.org/2000/svg" xmlns:xlink="http://www.w3.org/1999/xlink" width="236.222" height="204.192" viewBox="0 0 236.222 204.192">
  <defs>
    <clipPath id="clip-path">
      <path id="SVGID" d="M-102.185,2060.15a21.108,21.108,0,0,1,29.024,6.975,21.109,21.109,0,0,1-6.975,29.024,21.108,21.108,0,0,1-29.024-6.977,21.107,21.107,0,0,1,6.975-29.022" transform="translate(112.271 -2057.04)" fill="none" clip-rule="evenodd"/>
    </clipPath>
    <linearGradient id="linear-gradient" x1="-0.745" y1="0.407" x2="3.67" y2="0.773" gradientUnits="objectBoundingBox">
      <stop offset="0" stop-color="#30acef"/>
      <stop offset="1" stop-color="#fff"/>
    </linearGradient>
    <clipPath id="clip-path-2">
      <path id="SVGID-2" data-name="SVGID" d="M-117.87,1976.1h0a63.524,63.524,0,0,1,87.1,20.932l8.256,13.481c12.871,21.016,36.575,32.012,44.528,34.941l-17.2,9.673,12.352,20.167-108.028,66.163-12.352-20.167-16.435,10.928c1.005-8.416,1.981-34.527-10.89-55.542l-8.256-13.481A63.525,63.525,0,0,1-117.87,1976.1" transform="translate(148.074 -1966.825)" fill="none" clip-rule="evenodd"/>
    </clipPath>
    <linearGradient id="linear-gradient-2" x1="1.713" y1="0.765" x2="0.067" y2="0.406" xlink:href="#linear-gradient"/>
    <clipPath id="clip-path-3">
      <path id="SVGID-3" data-name="SVGID" d="M-107.865,2118.217l2.152-1.318L14.049,2043.55a14.434,14.434,0,0,0,4.755-19.79h0A14.433,14.433,0,0,0-.986,2019L-122.9,2093.67a14.435,14.435,0,0,0-4.757,19.791h0l4.2,6.851a6.371,6.371,0,0,0,8.744,2.1Z" transform="translate(129.763 -2016.895)" fill="none" clip-rule="evenodd"/>
    </clipPath>
    <linearGradient id="linear-gradient-3" x1="1.716" y1="0.236" x2="-1.336" y2="0.899" xlink:href="#linear-gradient"/>
    <clipPath id="clip-path-4">
      <path id="SVGID-4" data-name="SVGID" d="M-112.9,2121.38l.017-.13c.968-9.083,1.564-34.376-10.969-54.84l-8.256-13.481c-13.3-21.708-13.1-53.712,1.388-73.837a63.08,63.08,0,0,1,6.089-4.867c-14.951,20.167-11.377,48.939,2.943,72.32l8.256,13.483c12.533,20.462,11.937,45.756,10.969,54.839-.029.224-.056.451-.076.677l0,.025h0" transform="translate(141.836 -1974.226)" fill="none" clip-rule="evenodd"/>
    </clipPath>
    <linearGradient id="linear-gradient-4" x1="2.74" y1="0.821" x2="-0.287" y2="0.387" xlink:href="#linear-gradient"/>
    <linearGradient id="linear-gradient-5" x1="0.29" y1="0.915" x2="1.082" y2="-0.648" xlink:href="#linear-gradient"/>
  </defs>
  <g id="Group_4444" data-name="Group 4444" transform="translate(-1083.777 -848.626)">
    <g id="Group_4367" data-name="Group 4367" transform="translate(1262.954 -1105.17)">
      <g id="Group_12-2" data-name="Group 12-2" transform="translate(-37.018 2009.123)" opacity="0.2">
        <path id="Fill_10" data-name="Fill 10" d="M-14.459,2000.515a3.977,3.977,0,0,0,.651-2.6c-.237-1.447-1.648-2.317-3.761-2.566a4.461,4.461,0,0,0,.366-2.423c-.624-3.852-7.736-4.547-15.88-1.552a34.025,34.025,0,0,0-7.723,3.986,3.208,3.208,0,0,0-.014-1.394c-.736-2.864-6.255-2.325-12.319,1.212a31.22,31.22,0,0,0-4.1,2.845c-.465-1.137-2.858-1.069-5.521.2a11.853,11.853,0,0,0-3.445,2.408l-21.2,1.764H6.661Z" transform="translate(87.403 -1989.514)" fill="#00aeef"/>
      </g>
      <g id="Group_12-2-2" data-name="Group 12-2" transform="translate(-153.852 2128.599)" opacity="0.2">
        <path id="Fill_10-2" data-name="Fill 10" d="M-130.952,2071.452a1.734,1.734,0,0,0,.283-1.135c-.1-.634-.72-1.013-1.644-1.123a1.929,1.929,0,0,0,.16-1.058c-.273-1.684-3.38-1.987-6.938-.678a14.868,14.868,0,0,0-3.375,1.741,1.415,1.415,0,0,0-.006-.608c-.322-1.251-2.734-1.016-5.384.53a13.622,13.622,0,0,0-1.791,1.242c-.2-.5-1.25-.467-2.413.087a5.141,5.141,0,0,0-1.5,1.052l-9.263.772h41.1Z" transform="translate(162.828 -2066.644)" fill="#00aeef"/>
      </g>
      <g id="Group_4357" data-name="Group 4357" transform="translate(-130.998 1953.796)">
        <g id="Group_4350" data-name="Group 4350" transform="translate(55.459 159.925)">
          <g id="Group_4349" data-name="Group 4349" clip-path="url(#clip-path)">
            <rect id="Rectangle_1733" data-name="Rectangle 1733" width="42.214" height="42.214" transform="matrix(0.853, -0.522, 0.522, 0.853, -7.913, 14.134)" fill="#192f77"/>
          </g>
        </g>
        <path id="Path_3238" data-name="Path 3238" d="M-131.358,1965.923h0a10.492,10.492,0,0,1,14.386,3.458l7.917,12.927-17.843,10.926-7.917-12.926a10.492,10.492,0,0,1,3.457-14.384Z" transform="translate(154.512 -1947.979)" fill-rule="evenodd" fill="url(#linear-gradient)"/>
        <g id="Group_4352" data-name="Group 4352" transform="translate(0 20.181)">
          <g id="Group_4351" data-name="Group 4351" clip-path="url(#clip-path-2)">
            <rect id="Rectangle_1734" data-name="Rectangle 1734" width="166.124" height="155.114" transform="matrix(0.853, -0.522, 0.522, 0.853, -40.629, 52.655)" fill="url(#linear-gradient-2)"/>
            <path id="Path_3239" data-name="Path 3239" d="M44.776,2100.015c-4.041,13.97-12.688,26.13-21.756,37.518a443.376,443.376,0,0,1-47.166,50.611c-7.908,7.239-16.2,14.3-25.957,18.767-11.334,5.219-24.039,6.643-36.515,7.03a237.416,237.416,0,0,1-50.137-3.833c.615-17.835,16.186-30.805,27.749-44.388,26.973-31.719,35.286-76.056,31.191-117.494a175.776,175.776,0,0,0-8.715-41.173,5.63,5.63,0,0,0,.314.563,24.1,24.1,0,0,0,33.144,7.96,24.089,24.089,0,0,0,7.96-33.126,24.081,24.081,0,0,0-33.126-7.96,24.1,24.1,0,0,0-11.035,25.393c-1.6-3.831-3.357-7.592-5.326-11.264-9.805-18.328-24.742-34.267-43.529-43.123l1.916-22.916c39.856,4.323,80.466,14.655,111.834,39.628,13.953,11.122,25.658,24.812,36.6,38.905,11.054,14.235,21.562,29.171,28.24,45.936S49.765,2082.67,44.776,2100.015Z" transform="translate(153.536 -1991.115)" opacity="0.05"/>
          </g>
        </g>
        <g id="Group_4354" data-name="Group 4354" transform="translate(28.363 97.741)">
          <g id="Group_4353" data-name="Group 4353" clip-path="url(#clip-path-3)">
            <rect id="Rectangle_1735" data-name="Rectangle 1735" width="171.747" height="28.786" transform="matrix(0.853, -0.522, 0.522, 0.853, -5.097, 90.263)" fill="url(#linear-gradient-3)"/>
          </g>
        </g>
        <g id="Group_4356" data-name="Group 4356" transform="translate(9.662 31.646)">
          <g id="Group_4355" data-name="Group 4355" clip-path="url(#clip-path-4)">
            <rect id="Rectangle_1736" data-name="Rectangle 1736" width="66.853" height="132.924" transform="matrix(0.853, -0.522, 0.522, 0.853, -39.8, 34.917)" fill="url(#linear-gradient-4)"/>
          </g>
        </g>
        <path id="Path_3240" data-name="Path 3240" d="M-70.212,1998.438a24.1,24.1,0,0,1-33.144-7.96,5.64,5.64,0,0,1-.314-.562,23.617,23.617,0,0,1-2.742-7.17,24.1,24.1,0,0,1,11.035-25.393,24.081,24.081,0,0,1,33.126,7.96A24.089,24.089,0,0,1-70.212,1998.438Z" transform="translate(170.677 -1953.796)" fill-rule="evenodd" fill="url(#linear-gradient-5)"/>
        <path id="Path_3242" data-name="Path 3242" d="M-88.571,1990.219l-1.008.054a2.6,2.6,0,0,1-2.736-2.451h0a2.6,2.6,0,0,1,2.451-2.737l1.008-.056a2.6,2.6,0,0,1,2.737,2.452h0A2.6,2.6,0,0,1-88.571,1990.219Zm1.264-28.3.339,17.35a2.6,2.6,0,0,1-2.455,2.646l-.163.009a2.6,2.6,0,0,1-2.729-2.354l-1.609-17.281a2.6,2.6,0,0,1,2.444-2.835l1.433-.079A2.6,2.6,0,0,1-87.307,1961.922Z" transform="translate(177.796 -1950.734)" fill="#fff"/>
      </g>
      <g id="Group_4366" data-name="Group 4366" transform="translate(-179.177 2067.525)">
        <g id="Group_4358" data-name="Group 4358" transform="translate(52.681 13.867)">
          <path id="Path_3243" data-name="Path 3243" d="M-145.146,2036.871l3.671,11.421a.349.349,0,0,0,.209.223l29.586,11.5-.143-2.644c-5.35-3.5-27.148-17.632-32.562-21.142C-144.742,2036-145.281,2036.453-145.146,2036.871Z" transform="translate(145.168 -2036.168)" fill="#192f77"/>
          <path id="Path_3244" data-name="Path 3244" d="M-116.807,2049.664l-4.046.788a3.748,3.748,0,0,1-2.788-.473l.143,2.644a4.918,4.918,0,0,0,4-.283l4-1.969A1.085,1.085,0,0,0-116.807,2049.664Z" transform="translate(156.986 -2028.774)" fill="#192f77"/>
        </g>
        <g id="Group_4365" data-name="Group 4365">
          <g id="Group_4364" data-name="Group 4364">
            <g id="Group_4363" data-name="Group 4363">
              <path id="Path_3245" data-name="Path 3245" d="M-176.536,2037.45l.976,2.173.13.3,3.8,8.488.13.3,1.238,2.759,13.046-4.331-15.555-9.949-.025-.023a1.6,1.6,0,0,0-1.066-.5,1.6,1.6,0,0,0-.655.088Z" transform="translate(180.627 -2022.036)" fill="#192f77"/>
              <path id="Path_3246" data-name="Path 3246" d="M-177.073,2061.193a3,3,0,0,0,2.229,1.946l6.949,1.453a50.489,50.489,0,0,0,12.045,1.565,50.428,50.428,0,0,0,6.212-.329c.6-.073,1.2-.15,1.8-.252.259-.037.511-.08.764-.124s.513-.088.767-.143c.511-.093,1.018-.2,1.526-.314.253-.061.5-.116.761-.178.3-.071.607-.141.9-.231.454-.111.915-.241,1.371-.384.75-.219,1.49-.461,2.235-.72l25.5-9.057,14.2-5.033,16.509-5.861c.657-.234,1.3-.491,1.933-.773.262-.113.517-.234.768-.359.7-.331,1.376-.7,2.021-1.086.567-.336,1.117-.685,1.633-1.047q.811-.558,1.532-1.138c.121-.1.235-.2.356-.3.35-.291.671-.59.979-.883.133-.124.26-.248.387-.378a13.245,13.245,0,0,0,1.848-2.291,1.642,1.642,0,0,0,.186-.3c.762-1.329.981-2.543.469-3.458-1.314-2.351-7.115-2.23-7.115-2.23s0,0-.011,0l-.012,0-.011-.006a4.294,4.294,0,0,0-.472-.192c-.226-.09-.525-.213-.849-.341-.161-.059-.322-.122-.5-.187-.064-.025-.127-.051-.191-.071-.652-.24-1.374-.488-2.021-.68a.831.831,0,0,0-.093-.027c-.307-.093-.592-.162-.841-.217a19.617,19.617,0,0,0-9.5.561,1.155,1.155,0,0,1-.113.037c-.105.037-.277.1-.52.186-2.689.945-13.582,4.8-24.5,8.665-.167.065-.333.123-.5.181l-24.807,8.8-12.919,4.587-.355.121-.237.085-.291.107-18.184,6.458a2.924,2.924,0,0,0-1.547,1.249c-.062.1-.113.2-.163.292A3,3,0,0,0-177.073,2061.193Z" transform="translate(180.237 -2027.216)" fill="#fcfcfc"/>
              <g id="Group_4361" data-name="Group 4361" transform="translate(32.082 7.704)" opacity="0.11">
                <g id="Group_4359" data-name="Group 4359" transform="translate(0 7.988)">
                  <path id="Path_3247" data-name="Path 3247" d="M-143.083,2039.453a.764.764,0,0,1-.933-.536l-.107-.614a.762.762,0,0,1,.538-.931.761.761,0,0,1,.931.537l.108.612A.762.762,0,0,1-143.083,2039.453Z" transform="translate(166.326 -2037.346)" fill="#192f77"/>
                  <path id="Path_3248" data-name="Path 3248" d="M-144.676,2040.033a.763.763,0,0,1-.933-.537l-.107-.612a.763.763,0,0,1,.538-.933.764.764,0,0,1,.932.538l.107.612A.763.763,0,0,1-144.676,2040.033Z" transform="translate(165.451 -2037.028)" fill="#192f77"/>
                  <path id="Path_3249" data-name="Path 3249" d="M-146.269,2040.611a.761.761,0,0,1-.931-.536l-.108-.612a.764.764,0,0,1,.538-.933.764.764,0,0,1,.932.538l.107.612A.762.762,0,0,1-146.269,2040.611Z" transform="translate(164.577 -2036.71)" fill="#192f77"/>
                  <path id="Path_3250" data-name="Path 3250" d="M-147.862,2041.192a.762.762,0,0,1-.931-.537l-.108-.612a.762.762,0,0,1,.538-.931.763.763,0,0,1,.932.536l.107.612A.763.763,0,0,1-147.862,2041.192Z" transform="translate(163.702 -2036.392)" fill="#192f77"/>
                  <path id="Path_3251" data-name="Path 3251" d="M-149.456,2041.772a.762.762,0,0,1-.931-.537l-.107-.612a.764.764,0,0,1,.536-.932.763.763,0,0,1,.933.538l.107.612A.764.764,0,0,1-149.456,2041.772Z" transform="translate(162.828 -2036.074)" fill="#192f77"/>
                  <path id="Path_3252" data-name="Path 3252" d="M-151.087,2042.367a.761.761,0,0,1-.931-.538l-.051-.635a.763.763,0,0,1,.538-.932.764.764,0,0,1,.933.538l.05.635A.764.764,0,0,1-151.087,2042.367Z" transform="translate(161.963 -2035.76)" fill="#192f77"/>
                  <path id="Path_3253" data-name="Path 3253" d="M-152.68,2042.946a.763.763,0,0,1-.931-.538l-.051-.635a.762.762,0,0,1,.537-.931.763.763,0,0,1,.933.538l.05.634A.763.763,0,0,1-152.68,2042.946Z" transform="translate(161.089 -2035.441)" fill="#192f77"/>
                  <path id="Path_3254" data-name="Path 3254" d="M-154.271,2043.526a.763.763,0,0,1-.932-.538l-.051-.635a.765.765,0,0,1,.538-.933.763.763,0,0,1,.933.538l.05.635A.762.762,0,0,1-154.271,2043.526Z" transform="translate(160.214 -2035.123)" fill="#192f77"/>
                  <path id="Path_3255" data-name="Path 3255" d="M-155.865,2044.1a.764.764,0,0,1-.932-.538l-.05-.635a.763.763,0,0,1,.536-.931.763.763,0,0,1,.932.537l.051.635A.763.763,0,0,1-155.865,2044.1Z" transform="translate(159.34 -2034.805)" fill="#192f77"/>
                  <path id="Path_3256" data-name="Path 3256" d="M-157.458,2044.686a.764.764,0,0,1-.933-.538l-.05-.635a.763.763,0,0,1,.538-.932.762.762,0,0,1,.931.537l.051.635A.764.764,0,0,1-157.458,2044.686Z" transform="translate(158.466 -2034.487)" fill="#192f77"/>
                </g>
                <g id="Group_4360" data-name="Group 4360" transform="translate(32.714)">
                  <path id="Path_3257" data-name="Path 3257" d="M-129.135,2034.293a.764.764,0,0,1-.974-.454l-.105-.629a.762.762,0,0,1,.454-.976.763.763,0,0,1,.974.455l.105.627A.763.763,0,0,1-129.135,2034.293Z" transform="translate(141.237 -2032.189)" fill="#192f77"/>
                  <path id="Path_3258" data-name="Path 3258" d="M-131.011,2034.963a.763.763,0,0,1-.932-.538l-.05-.635a.762.762,0,0,1,.536-.931.762.762,0,0,1,.933.536l.051.635A.764.764,0,0,1-131.011,2034.963Z" transform="translate(140.272 -2031.837)" fill="#192f77"/>
                  <path id="Path_3259" data-name="Path 3259" d="M-132.787,2035.608a.763.763,0,0,1-.932-.537l-.05-.635a.763.763,0,0,1,.536-.931.763.763,0,0,1,.933.538l.051.633A.763.763,0,0,1-132.787,2035.608Z" transform="translate(139.297 -2031.482)" fill="#192f77"/>
                  <path id="Path_3260" data-name="Path 3260" d="M-134.563,2036.253a.764.764,0,0,1-.933-.538l-.05-.635a.763.763,0,0,1,.536-.931.763.763,0,0,1,.932.538l.051.635A.762.762,0,0,1-134.563,2036.253Z" transform="translate(138.322 -2031.128)" fill="#192f77"/>
                  <path id="Path_3261" data-name="Path 3261" d="M-136.339,2036.9a.763.763,0,0,1-.933-.536l-.05-.635a.764.764,0,0,1,.536-.933.763.763,0,0,1,.932.538l.051.635A.761.761,0,0,1-136.339,2036.9Z" transform="translate(137.347 -2030.774)" fill="#192f77"/>
                </g>
                <path id="Path_3262" data-name="Path 3262" d="M-139.846,2038.382a.793.793,0,0,1-.97-.559l-.13-.694a.8.8,0,0,1,.559-.971.8.8,0,0,1,.971.559l.13.7A.794.794,0,0,1-139.846,2038.382Z" transform="translate(168.07 -2030.026)" fill="#192f77"/>
              </g>
              <path id="Path_3263" data-name="Path 3263" d="M-159.357,2046.56l-.27.488a6.567,6.567,0,0,1-3.546,3.005,10.083,10.083,0,0,1-5.485.356l-10.519-2.26,1.512-.869a6.391,6.391,0,0,1,2.855-.844Z" transform="translate(179.177 -2016.664)" fill="#192f77"/>
              <g id="Group_4362" data-name="Group 4362" transform="translate(91.302 0.531)" opacity="0.112" style="isolation: isolate">
                <path id="Path_3264" data-name="Path 3264" d="M-120.221,2031.664a.794.794,0,0,0,1.109.712l.725-.251,0-.017.025.028,4.325-1.522.006.011,4.407-1.521a37.2,37.2,0,0,0-4.322-1.545l-1.1.3v.006l-.025-.017-.726.2-2.855.787-.011.019-.3.08a1.926,1.926,0,0,0-1.276,1.837Z" transform="translate(120.235 -2027.559)" fill="#192f77"/>
              </g>
              <path id="Path_3265" data-name="Path 3265" d="M-79.259,2032.235c-1.743,3.05-6.362,6.673-11.645,8.549l-56.2,19.952a47.889,47.889,0,0,1-16.334,2.674c8.331-5.053,25.647-12.631,46.1-19.893A317.063,317.063,0,0,1-79.259,2032.235Z" transform="translate(187.818 -2024.461)" fill="#30acef"/>
              <path id="Path_3266" data-name="Path 3266" d="M-122.387,2043.384l-13.365,4.7a.519.519,0,0,1-.376-.011l-34.916-14.867,2.509-1.623c7.593,1.761,38.436,9,46.1,10.8A.52.52,0,0,1-122.387,2043.384Z" transform="translate(183.642 -2024.818)" fill="#192f77"/>
              <path id="Path_3267" data-name="Path 3267" d="M-172.286,2028.328l2.64,3.58a4.714,4.714,0,0,0,2.739,1.8l-2.509,1.623a5.444,5.444,0,0,1-3.061-3.214l-1.532-4.318A1.513,1.513,0,0,1-172.286,2028.328Z" transform="translate(182.014 -2026.944)" fill="#192f77"/>
            </g>
          </g>
        </g>
      </g>
    </g>
  </g>
</svg>
