<svg xmlns="http://www.w3.org/2000/svg" xmlns:xlink="http://www.w3.org/1999/xlink" width="282" height="159.307" viewBox="0 0 282 159.307">
  <defs>
    <linearGradient id="linear-gradient" x1="-0.504" y1="-1.215" x2="1.407" y2="2.361" gradientUnits="objectBoundingBox">
      <stop offset="0" stop-color="#30acef"/>
      <stop offset="1" stop-color="#fff"/>
    </linearGradient>
    <linearGradient id="linear-gradient-2" x1="-0.454" y1="1.235" x2="1.984" y2="-0.501" xlink:href="#linear-gradient"/>
    <linearGradient id="linear-gradient-3" x1="-2.261" y1="1.727" x2="1.596" y2="-0.034" xlink:href="#linear-gradient"/>
    <linearGradient id="linear-gradient-4" x1="-2.58" y1="2.513" x2="1.204" y2="0.04" xlink:href="#linear-gradient"/>
    <linearGradient id="linear-gradient-5" x1="-2.239" y1="2.063" x2="2.398" y2="-0.453" xlink:href="#linear-gradient"/>
    <linearGradient id="linear-gradient-6" x1="-1.136" y1="3.406" x2="0.834" y2="-0.046" xlink:href="#linear-gradient"/>
  </defs>
  <g id="Group_4446" data-name="Group 4446" transform="translate(-144 -1227.486)">
    <g id="Group_4375" data-name="Group 4375" transform="translate(59.672 -817.364)">
      <g id="Design" transform="translate(84.328 2081.923)">
        <path id="Path_3268" data-name="Path 3268" d="M325.533,2076.418l-49.355-7.093-44.45,7.3-47.782-7.306-45.909,7.935L84.328,2191.381l76.451-20.1,68.06,17.475,60.659-17.618,76.829,20.418Z" transform="translate(-84.328 -2069.323)" fill="url(#linear-gradient)"/>
        <g id="Group_4368" data-name="Group 4368" transform="translate(3.721 2.084)">
          <path id="Path_3269" data-name="Path 3269" d="M86.784,2187.375l72.789-19.116,23.086-97.56-44.707,7.735Z" transform="translate(-86.784 -2070.699)" fill="url(#linear-gradient-2)"/>
          <path id="Path_3270" data-name="Path 3270" d="M134.835,2168.259l67.971,17.434,2.936-107.675-47.82-7.319Z" transform="translate(-62.046 -2070.699)" fill="#e8f8fc"/>
          <path id="Path_3271" data-name="Path 3271" d="M179.7,2185.693l60.607-17.585L227.14,2070.7l-44.5,7.319Z" transform="translate(-38.945 -2070.699)" fill="url(#linear-gradient-3)"/>
          <path id="Path_3272" data-name="Path 3272" d="M224.19,2168.108l73.721,19.573-38.9-110.078-47.992-6.9Z" transform="translate(-22.823 -2070.699)" fill="#e8f8fc"/>
          <path id="Path_3273" data-name="Path 3273" d="M224.19,2168.108l73.721,19.573-38.9-110.078-47.992-6.9Z" transform="translate(-22.823 -2070.699)" fill="url(#linear-gradient-4)"/>
          <path id="Path_3274" data-name="Path 3274" d="M134.835,2168.259l67.971,17.434,2.936-107.675-47.82-7.319Z" transform="translate(-62.046 -2070.699)" fill="url(#linear-gradient-5)"/>
          <path id="Path_3275" data-name="Path 3275" d="M229.471,2089.787h0a5.1,5.1,0,0,1,1.226.423,1.849,1.849,0,0,0,.986.308h.006a.985.985,0,0,0,.745-.308.739.739,0,0,0,.186-.473.83.83,0,0,0-.1-.439.522.522,0,0,0-.327-.282h0a.1.1,0,0,1-.009-.045c0-.056.047-.189.306-.353a5.315,5.315,0,0,1,1.739-.869,11.265,11.265,0,0,1,1.469-.1,4.606,4.606,0,0,1,1.038.08.648.648,0,0,0,.2.026,1.679,1.679,0,0,0,.963-.444,3.537,3.537,0,0,0,.638-.682.42.42,0,0,0,.074-.219.457.457,0,0,0-.264-.4,1,1,0,0,0-.467-.109.773.773,0,0,0-.653.311,1.289,1.289,0,0,1-.813.19,2.455,2.455,0,0,1-.671-.072.491.491,0,0,0-.192-.028,11.027,11.027,0,0,0-1.406.217,11.7,11.7,0,0,1-1.232.207,1.028,1.028,0,0,0-.715.412,2.221,2.221,0,0,1-.617.512c-.614.3-1.441.756-1.734.9a1.175,1.175,0,0,0-.592.872.361.361,0,0,0,.221.366m-75.64-3.506c.27,0,.685-.1.885-.1h0a.68.68,0,0,0,.048.17.546.546,0,0,0,.439.241,4.961,4.961,0,0,0,.779.129h.011a.346.346,0,0,0,.27-.148.465.465,0,0,0,.071-.246,1.219,1.219,0,0,0-.2-.641.969.969,0,0,0-.245-.316,1.977,1.977,0,0,0-.467-.182,3.088,3.088,0,0,0-1.007-.151,3.12,3.12,0,0,0-.361.021,2.466,2.466,0,0,0-.5.044.624.624,0,0,0-.454.521.435.435,0,0,0-.009.082c.009.392.371.58.733.577m11.178,8.671a.627.627,0,0,0-.214.04.442.442,0,0,0-.342.383.479.479,0,0,0,.507.44.533.533,0,0,0,.211-.045.464.464,0,0,0,.279-.4.4.4,0,0,0-.12-.3.466.466,0,0,0-.321-.123m5.678,24.613h0a.588.588,0,0,0-.415.591.723.723,0,0,0,.092.394.457.457,0,0,0,.385.238h0a.573.573,0,0,0,.179-.031.582.582,0,0,0,.4-.545.6.6,0,0,0-.539-.654.321.321,0,0,0-.1.007Zm-48.775-18.917c-.1-.042-.53-.233-.532-.233l-.061-.018a3.29,3.29,0,0,0-.345-.016,1.819,1.819,0,0,0-.506.057.526.526,0,0,0-.383.28.323.323,0,0,0-.026.117.354.354,0,0,0,.151.286,1.5,1.5,0,0,0,.789.216,2.1,2.1,0,0,0,.594-.121,1.908,1.908,0,0,0,.25-.1.873.873,0,0,0,.1-.06.247.247,0,0,0,.109-.2.219.219,0,0,0-.141-.21m46.71,18.238a3.406,3.406,0,0,0-.667.088,1.966,1.966,0,0,0-.673.452c-.214.19-.394.371-.4.373a.219.219,0,0,0-.056.208.213.213,0,0,0,.155.148,4.673,4.673,0,0,0,.768.1c.171-.006.3.132.571.312a.481.481,0,0,0,.251.068,1.364,1.364,0,0,0,.486-.127c.068-.031.129-.057.174-.075a.055.055,0,0,1,.021-.007.823.823,0,0,1,.07.081.358.358,0,0,0,.264.152.3.3,0,0,0,.267-.2,1.044,1.044,0,0,0,.055-.285.748.748,0,0,0,.008-.082,1.2,1.2,0,0,0-.927-1.151,1.243,1.243,0,0,0-.371-.055m-44.206-19.517v0a.464.464,0,0,0-.171-.036.377.377,0,0,0-.329.217,3.456,3.456,0,0,0-.132.386c-.044.109-.067.125-.1.133a2.564,2.564,0,0,0-.488.176.979.979,0,0,0-.2.122.339.339,0,0,0-.139.25.255.255,0,0,0,.091.206.415.415,0,0,0,.15.079,1.084,1.084,0,0,0,.315.038,2.377,2.377,0,0,0,.576-.073c.183-.062.318-.073.451-.251a1.265,1.265,0,0,0,.1-.35,2.889,2.889,0,0,0,.042-.426,1.22,1.22,0,0,0-.009-.227.291.291,0,0,0-.167-.242m60.481,33.84h0c-.364-.171-.907-.249-1.048-.518a1.744,1.744,0,0,0-.567-.55,1.4,1.4,0,0,0-.683-.256.43.43,0,0,0-.173.027,1.182,1.182,0,0,1-.417.082.549.549,0,0,1-.353-.115c-.336-.251-.862-.561-1.018-.718a2,2,0,0,0-1.116-.411c-.055,0-.056-.019-.2-.033a.365.365,0,0,0-.223.08.547.547,0,0,0-.171-.362.618.618,0,0,0-.426-.165h-.039a.469.469,0,0,0,.2-.332,1.476,1.476,0,0,0-.077-.51.565.565,0,0,0-.512-.43c-.009,0-.009,0-.011,0l-.008-.009a5.812,5.812,0,0,0-.514-1.026,2.2,2.2,0,0,0-1.568-1.03.867.867,0,0,0-.2.018,3.325,3.325,0,0,1-.53.082c-.153-.014-.2-.014-.326-.26-.253-.589-.574-.733-.668-.939a.471.471,0,0,0-.433-.247,2.257,2.257,0,0,0-.3.029l-.089-.114a.214.214,0,0,0-.206-.073,2.726,2.726,0,0,0,.386-1.165.546.546,0,0,0-.015-.148.282.282,0,0,0-.05-.106.234.234,0,0,0-.177-.08.2.2,0,0,0-.109.026.5.5,0,0,0-.192.206c-.07.11-.136.243-.2.342a.583.583,0,0,0-.033.048,1.149,1.149,0,0,0-.332-.35.961.961,0,0,0-.562-.177,1.138,1.138,0,0,0-.53.123.511.511,0,0,0-.314.408v0l-.035-.085a.678.678,0,0,0-.654-.379.957.957,0,0,0-.6.2,2.568,2.568,0,0,1-.129-.291,2.349,2.349,0,0,0-.12-.247.344.344,0,0,0-.285-.2,1.343,1.343,0,0,0-1.029.786.9.9,0,0,0-.056.132,1.448,1.448,0,0,1,.014-.158,1.228,1.228,0,0,1,.139-.3,1.086,1.086,0,0,0,.167-.445.352.352,0,0,0-.261-.351.487.487,0,0,0-.136-.019,1.2,1.2,0,0,0-.657.291c-.088.065-.171.132-.238.176a.993.993,0,0,1-.082.058l-.02.012a2.15,2.15,0,0,0-1.009.851c-.259.4-.383.6-.557.7a.238.238,0,0,1-.123.029.25.25,0,0,1-.076-.01v-.007a.426.426,0,0,0-.129-.284,1.307,1.307,0,0,0-.782-.432.314.314,0,0,0-.277.139,2.958,2.958,0,0,1-.783.444.159.159,0,0,1-.083.022c-.115.026-.342-.239-.374-.355a1.3,1.3,0,0,1-.242-.8c0-.078,0-.156,0-.235a5.042,5.042,0,0,1,.242-1.369.489.489,0,0,0,.03-.153,1.3,1.3,0,0,0-.365-.8,1.09,1.09,0,0,0-.685-.437.341.341,0,0,0-.07.006,1.4,1.4,0,0,0-.467.21.678.678,0,0,1-.291.12l-.02,0a.419.419,0,0,1-.177-.07.8.8,0,0,0-.342-.079,1.191,1.191,0,0,0,.1-.279,1.406,1.406,0,0,0,.03-.27c0-.154,0-.3,0-.437a.673.673,0,0,1,.224-.562,1.175,1.175,0,0,0,.37-.866,1.336,1.336,0,0,0-.076-.511.483.483,0,0,0-.347-.336.671.671,0,0,0-.139-.012c-.307,0-.677.107-.935.1a.488.488,0,0,1-.1-.009c-.029,0-.059-.006-.089-.006a.77.77,0,0,0-.727.778,1,1,0,0,0,.029.256.55.55,0,0,1,.015.132.371.371,0,0,1-.082.228.339.339,0,0,1-.03.033.577.577,0,0,0-.321-.108.9.9,0,0,0-.579.261c-.167.144-.261.172-.3.168-.052.016-.2-.087-.454-.356a2.406,2.406,0,0,1-.9-1.417,8.983,8.983,0,0,1-.039-.943,1.927,1.927,0,0,1,.115-.677,1.836,1.836,0,0,0,.15-.694,1.218,1.218,0,0,0-.045-.411.548.548,0,0,0-.148-.256l0-.009a1.342,1.342,0,0,1,.448-.332,2.125,2.125,0,0,0,.951-.818,1.026,1.026,0,0,1,.32-.035c.12,0,.264.007.415.007a1.046,1.046,0,0,1,.842.262.7.7,0,0,0,.373.13.451.451,0,0,0,.412-.268.763.763,0,0,0,.079-.325c.006-.007.033-.176.335-.176a.53.53,0,0,1,.083,0,1.129,1.129,0,0,0,.159.008c.38,0,.8-.1.985-.1h.03c.035.058.1.176.17.288.1.129.191.306.453.329a.354.354,0,0,0,.235-.083.424.424,0,0,0,.068-.056,5.45,5.45,0,0,0,.194.966,1.143,1.143,0,0,0,.524.762c.061.019.089.091.127.274a.937.937,0,0,0,.092.288.439.439,0,0,0,.333.223.357.357,0,0,0,.053.006.481.481,0,0,0,.341-.162,1.687,1.687,0,0,0,.323-1,1.111,1.111,0,0,0-.036-.367c-.05-.152-.132-.5-.221-.824a2.855,2.855,0,0,0-.329-.832.485.485,0,0,1-.076-.3.468.468,0,0,1,.229-.43,5.049,5.049,0,0,0,.948-.717c.341-.3.67-.615.815-.761a3.636,3.636,0,0,1,.5-.333c.188-.134.42-.273.45-.582a.5.5,0,0,0-.074-.261,1.588,1.588,0,0,1-.258-.639.292.292,0,0,0,.218.093.638.638,0,0,0,.435-.235.747.747,0,0,0,.223-.463.365.365,0,0,0-.036-.179.4.4,0,0,1-.036-.171.138.138,0,0,1,.011-.057h.011a.552.552,0,0,0,.1.009.452.452,0,0,0,.345-.149.486.486,0,0,0,.121-.312.584.584,0,0,0-.055-.261.408.408,0,0,1,.224-.077.293.293,0,0,1,.07.012.9.9,0,0,0,.308.046,2.266,2.266,0,0,0,.6-.088.858.858,0,0,0,.486-.282.372.372,0,0,0,.065-.2.754.754,0,0,0-.151-.4.523.523,0,0,1-.1-.3.548.548,0,0,1,.22-.353.961.961,0,0,1,.394-.209c.114-.02.271-.02.421-.033a.882.882,0,0,0,.224-.042.364.364,0,0,0,.223-.218.793.793,0,0,1,.085-.1,3.479,3.479,0,0,0,.032.471.762.762,0,0,0,.109.323.428.428,0,0,0,.351.186,1.175,1.175,0,0,0,.638-.264c.089-.062.167-.121.223-.166.032-.023.058-.042.073-.055l.021-.012v0c.108-.036.879-.23,1.045-.278.033-.011.318-.052.571-.119a1.775,1.775,0,0,0,.373-.141.465.465,0,0,0,.256-.368.327.327,0,0,0-.018-.127,3.13,3.13,0,0,0-.377-.889.314.314,0,0,0-.247-.129.443.443,0,0,0-.317.177c-.067.079-.127.168-.194.258a.186.186,0,0,1-.135.094c-.026,0-.014,0-.021-.008a1.585,1.585,0,0,1-.015-.3.942.942,0,0,0-.029-.228.294.294,0,0,0-.274-.22.386.386,0,0,0-.224.077,2.05,2.05,0,0,0-.289.242l-.011.009a.92.92,0,0,1-.112-.156l-.011-.019a.712.712,0,0,0,.182-.427.735.735,0,0,0-.121-.411.778.778,0,0,0-.673-.4,1.479,1.479,0,0,0-.712.236,1.684,1.684,0,0,1-.411.2l.018-.016c.248-.253.621-.4.927-.738.014-.012.023-.023.082-.023a.906.906,0,0,1,.336.1,1.608,1.608,0,0,1,.188.109.222.222,0,0,0,.22.01c0,.026,0,.052-.006.079a1.441,1.441,0,0,0,.032.377.362.362,0,0,0,.339.3,1.326,1.326,0,0,0,.547-.182,1.438,1.438,0,0,0,.242-.162.426.426,0,0,0,.151-.223.34.34,0,0,0,.044-.007,1.065,1.065,0,0,0,.521-.2c.232-.193.485-.179.757-.318a1.3,1.3,0,0,0,.314-.361c.085-.114.144-.147.162-.139s.039,0,.045.08a.353.353,0,0,1-.183.259,1.57,1.57,0,0,0-.5.742,2,2,0,0,1-.214.486.511.511,0,0,0-.176.352.376.376,0,0,0,.141.3.494.494,0,0,0,.324.106c.035,0,.07-.006.108-.007a1.092,1.092,0,0,1,.191-.014c.112,0,.23.011.359.011a1.178,1.178,0,0,0,.389-.056.3.3,0,0,1,.079-.014c.074,0,.136.061.189.159a.285.285,0,0,0,.248.148.487.487,0,0,0,.317-.145.557.557,0,0,0,.065-.059.1.1,0,0,1,.026,0,1.082,1.082,0,0,1,.188-.017c.121,0,.186.035.186.043a.335.335,0,0,0,.276.173.319.319,0,0,0,.283-.2.638.638,0,0,0,.056-.254.682.682,0,0,0-.061-.322c-.124-.257-.273-.49-.376-.76a.617.617,0,0,0-.579-.459.95.95,0,0,0-.28.045.332.332,0,0,1-.1.016c-.044,0-.055-.008-.106-.044s-.112-.111-.214-.185c-.018-.012-.041-.027-.056-.035.112-.212.2-.327.312-.583a3.693,3.693,0,0,1,.208-.327,1.043,1.043,0,0,0,.191-.483.453.453,0,0,0-.377-.444,1.622,1.622,0,0,1-.483-.185.281.281,0,0,1-.127-.2,1.518,1.518,0,0,0-.438-.62,2.86,2.86,0,0,0-.285-.237.6.6,0,0,0-.307-.124,2.37,2.37,0,0,1-.394-.026.643.643,0,0,1-.162-.047l-.012-.009a3.406,3.406,0,0,0-.656-1.1c-.089-.109-.326-.44-.548-.748-.114-.154-.224-.306-.315-.424a1.7,1.7,0,0,0-.221-.262.359.359,0,0,0-.23-.085c-.3.03-.447.235-.753.672-.268.407-.47.5-.576.493a.3.3,0,0,1-.135-.035c-.158-.077-.236-.106-.282-.138a1.136,1.136,0,0,1-.241-.282c-.035-.05-.036-.069-.036-.074a.549.549,0,0,1,.091-.091.47.47,0,0,0,.183-.322.349.349,0,0,0-.036-.16.9.9,0,0,0-.6-.377,6.219,6.219,0,0,0-.721-.124,1.122,1.122,0,0,1-.462-.274,1.561,1.561,0,0,0-.824-.353c-.094-.007-.189-.011-.286-.01-.559,0-1.153.111-1.276.108a.371.371,0,0,0-.294.148,2.462,2.462,0,0,0-.232.9,1.511,1.511,0,0,0-.021.19,1.017,1.017,0,0,0,.048.36.229.229,0,0,0,.012.053,2.6,2.6,0,0,0-.279.086.494.494,0,0,0-.133.071.283.283,0,0,0-.109.21.3.3,0,0,0,.115.235,1.019,1.019,0,0,0,.189.124,1.99,1.99,0,0,1,.48.5c.1.139.183.266.229.336a1.086,1.086,0,0,1-.03.14.651.651,0,0,1-.188.319,1.608,1.608,0,0,1-.4.276.125.125,0,0,1-.014-.024.568.568,0,0,0-.5-.3.43.43,0,0,0-.262.084.363.363,0,0,0-.148.281.5.5,0,0,0,.033.174,2.011,2.011,0,0,0,.235.4.407.407,0,0,1,.092.239,2.043,2.043,0,0,0,.094.518,2,2,0,0,1,.079.48.175.175,0,0,1-.026.108.2.2,0,0,1-.156.062c-.082,0-.192-.035-.344-.038a.761.761,0,0,0-.1.009.274.274,0,0,1-.067-.127.452.452,0,0,0,.133-.348,2.976,2.976,0,0,0-.092-.673.2.2,0,0,0-.168-.155.232.232,0,0,0-.217.1s-.035.058-.088.134a.958.958,0,0,0-.082-.209.474.474,0,0,1-.071-.249.612.612,0,0,0-.155-.46.588.588,0,0,0-.436-.17,1.1,1.1,0,0,0-.264.038.532.532,0,0,1-.127.013,10.116,10.116,0,0,1-1.257-.306,3.645,3.645,0,0,1-1.451-.552,1.193,1.193,0,0,0-.63-.2,1.55,1.55,0,0,0-.5.12c-.021-.065-.045-.2-.086-.326a.571.571,0,0,0-.379-.43c-.223-.055-.388-.04-.4-.056s0,.008-.023-.029a1.026,1.026,0,0,1-.055-.266,1.845,1.845,0,0,1-.008-.194.559.559,0,0,1,.182-.418,6.666,6.666,0,0,1,.789-.638,6.377,6.377,0,0,0,.848-.768.77.77,0,0,1,.536-.253,2.937,2.937,0,0,1,.4-.028c.156,0,.279.011.389.011a.546.546,0,0,0,.253-.054.339.339,0,0,0,.158-.288c0-.033.011-.1.024-.191l.074.059c.062.051.12.09.156.12h0c-.153.15-.258.238-.276.43a.3.3,0,0,0,.238.3,1.086,1.086,0,0,0,.28.028,1.519,1.519,0,0,0,.612-.195c.156-.079.285-.157.317-.176a1.534,1.534,0,0,1,.156-.066.909.909,0,0,1,.3-.07.127.127,0,0,1,.056.007l0,0c.061.117.1.251.159.391l.006.009a.585.585,0,0,0-.348-.12.6.6,0,0,0-.464.244.286.286,0,0,0-.065.167c.02.23.158.266.254.327a.908.908,0,0,0,.37.085.427.427,0,0,0,.376-.188.374.374,0,0,0,.047-.168.486.486,0,0,0-.036-.168.446.446,0,0,0,.309.107.94.94,0,0,0,.486-.167.621.621,0,0,0,.317-.481.543.543,0,0,0-.286-.469,3.878,3.878,0,0,0-.686-.339.9.9,0,0,1-.42-.292c-.064-.077-.109-.135-.156-.182l.529-.212a2.345,2.345,0,0,0,.385-.127.643.643,0,0,0,.43-.548.765.765,0,0,0-.015-.157.814.814,0,0,0-.411-.529c-.062-.035-.123-.06-.167-.08a2,2,0,0,1,.285-.159.554.554,0,0,1,.2-.023,2.935,2.935,0,0,1,.3.017c.088.012.148.023.15.023s.062.008.127.008a.784.784,0,0,0,.256-.045.336.336,0,0,0,.145-.1.557.557,0,0,0,.055.092.326.326,0,0,0,.248.1.716.716,0,0,0,.145-.023,1.045,1.045,0,0,1,.192-.033c.092,0,.108.026.258.135a.049.049,0,0,1,0,.027.759.759,0,0,1-.091.281.63.63,0,0,1-.08.121.178.178,0,0,1-.042.039,2.239,2.239,0,0,0-.235.132.41.41,0,0,0-.2.3.277.277,0,0,0,.162.253.78.78,0,0,0,.241.058c.457.048.785.048.792.048a.224.224,0,0,0,.165-.077,3.521,3.521,0,0,0,.462-.687l0-.01.174.111a1.076,1.076,0,0,0,.165.077,1.422,1.422,0,0,0-.88.759,1.06,1.06,0,0,1-.1.169c-.015.007,0,.011-.07.015a1.036,1.036,0,0,1-.277-.049,1.967,1.967,0,0,0-.55-.087.67.67,0,0,0-.638.344,1.036,1.036,0,0,0-.094.445,1.63,1.63,0,0,0,.042.45.592.592,0,0,0,.083.194.293.293,0,0,0,.244.144.318.318,0,0,0,.123-.025c.156-.081.359-.082.647-.192a.469.469,0,0,1,.151-.014c.3,0,.821.082,1.119.082a.8.8,0,0,0,.147-.011.277.277,0,0,1,.07.032,3.219,3.219,0,0,1,.262.2.622.622,0,0,0,.351.17.3.3,0,0,0,.1-.02c.071.05.242.213.4.349a.341.341,0,0,0,.215.082.323.323,0,0,0,.224-.1,1,1,0,0,0,.083-.1.38.38,0,0,1,.082.062.9.9,0,0,1,.242.275.257.257,0,0,0,.155.146.426.426,0,0,0,.135.017h.042c.221,0,.751.045.751.045a.228.228,0,0,0,.159-.048.223.223,0,0,0,.079-.148l.008-.033a.351.351,0,0,1,.058-.13c.027-.031.029-.036.074-.038a.205.205,0,0,1,.052.007.986.986,0,0,1,.333.181c.056.042.111.082.165.118a.4.4,0,0,0,.226.084.275.275,0,0,0,.227-.127.321.321,0,0,0,.044-.173c0-.025,0-.048,0-.073-.014-.174,0-.342-.023-.531a.89.89,0,0,0-.3-.575,3.276,3.276,0,0,0-.586-.394c-.091-.053-.17-.1-.227-.135-.023-.021-.047-.032-.058-.044v0a.582.582,0,0,1-.065-.152,1.563,1.563,0,0,1,.72.279,1.453,1.453,0,0,0,.776.4.529.529,0,0,0,.332-.118,5.606,5.606,0,0,0,.7-.468c.142-.168.436-.6.439-.6a.212.212,0,0,0,.023-.2.205.205,0,0,0-.156-.121s-.3-.047-.612-.122a4.569,4.569,0,0,1-.439-.127,1.262,1.262,0,0,1-.145-.07l-.033-.021a1.758,1.758,0,0,0-.5-.444,1.241,1.241,0,0,0-.554-.228.869.869,0,0,0-.277.069.586.586,0,0,1-.191.045c-.053-.012-.044.024-.1-.112a5.46,5.46,0,0,1-.132-.692,2.141,2.141,0,0,0-.064-.3.37.37,0,0,0-.227-.257c-.118-.035-.562-.111-1.042-.206-.233-.049-.473-.1-.66-.144a2.282,2.282,0,0,1-.348-.105,7.82,7.82,0,0,0-.762-.334,5.455,5.455,0,0,1-.791-.38,3.005,3.005,0,0,0-1.312-.611c-.326,0-1.407.163-1.787.163a.643.643,0,0,1-.08,0,.858.858,0,0,0-.17-.01,7.991,7.991,0,0,0-1.163.162.3.3,0,0,0-.264.3c.009.215.1.366.089.451-.021.047.041.018-.112.077l-.2.05c.017-.077.038-.179.064-.292a2,2,0,0,0,.029-.237.777.777,0,0,0-.186-.566.617.617,0,0,0-.177-.129h.024a2.4,2.4,0,0,1,.282.014c.535.051,1.291.13,1.834.127.089,0,.17,0,.247-.009a1.122,1.122,0,0,0,.615-.185.7.7,0,0,0,.23-.3.281.281,0,0,0,.021-.092.268.268,0,0,0-.114-.22,1.8,1.8,0,0,0-.582-.229,2.748,2.748,0,0,0-.639-.106.512.512,0,0,0-.085.007c-.079.012-.5.023-.915.026s-.87,0-1.054-.018c-.208-.018-.442-.024-.667-.023a6.049,6.049,0,0,0-.61.029h-.026c-.167.018-.373-.194-.632-.379-.094-.063-.291-.238-.5-.4a1.768,1.768,0,0,0-.656-.37,8.525,8.525,0,0,1-.915-.247c-.174-.051-.4-.106-.577-.159a1.919,1.919,0,0,1-.2-.07h0l-.014-.021a.194.194,0,0,0-.167-.086.208.208,0,0,0-.162.072.252.252,0,0,0-.059.1.959.959,0,0,0-.047.279.592.592,0,0,0,.271.567c.286.156.76.443,1.119.612a5.254,5.254,0,0,0,.691.2.779.779,0,0,1,.442.229,2.424,2.424,0,0,0,1.027.658l.048.01.841.091c-.214.111-.491.216-.729.326a1.807,1.807,0,0,0-.353.2.491.491,0,0,0-.211.361.381.381,0,0,0,.053.209.735.735,0,0,1,.065.37.812.812,0,0,0,.315.6,1.773,1.773,0,0,0,.6.386c-.023,0-.039,0-.061,0a.8.8,0,0,0-.462.2c-.073.052-.129.1-.171.127-.011-.022-.023-.054-.035-.086a2.051,2.051,0,0,0-.66-.79,5.173,5.173,0,0,0-.55-.721.763.763,0,0,0-.212-.154c.241-.033.482-.065.621-.083a.52.52,0,0,0,.411-.518.418.418,0,0,0-.354-.452.675.675,0,0,1-.238-.1.757.757,0,0,0-.4-.136.4.4,0,0,0-.086.006.3.3,0,0,0,.076-.2.342.342,0,0,0-.018-.128.776.776,0,0,0-.75-.5.6.6,0,0,0-.585.375.423.423,0,0,0-.024.118.458.458,0,0,0,.332.408,1.316,1.316,0,0,0,.506.1h.056c-.1.05-.212.109-.317.172a2.547,2.547,0,0,0-.332.241.517.517,0,0,0-.2.348.269.269,0,0,0,.017.111.59.59,0,0,0,.538.331.5.5,0,0,0-.124.229.986.986,0,0,0-.014.131,2.762,2.762,0,0,0,.235.892,2.9,2.9,0,0,1,.153.88.42.42,0,0,1-.021.147,3.514,3.514,0,0,0-.6.194.127.127,0,0,1-.048.01h0s-.021-.018-.038-.082a.893.893,0,0,1-.023-.256c.008-.322-.05-.6-.044-.725a.126.126,0,0,1,0-.041l0,0a.266.266,0,0,0,.038-.128.225.225,0,0,0-.109-.2.251.251,0,0,0-.124-.032,4.99,4.99,0,0,1-.5.073.566.566,0,0,1-.159-.016.9.9,0,0,0-.209-.023.757.757,0,0,0-.354.082.4.4,0,0,0-.217.317.409.409,0,0,0,.314.371.31.31,0,0,1,.2.3.177.177,0,0,1-.106.17,2.036,2.036,0,0,1-.547.05c-.532,0-1.227-.06-1.539-.059-.244,0-.517.037-.727.037a.839.839,0,0,1-.238-.023c-.052-.019-.044-.024-.045-.024a.038.038,0,0,1,0-.01s0,0,.015-.019a.731.731,0,0,1,.441-.161l.162,0a1.7,1.7,0,0,0,1.478-.588.683.683,0,0,0,.123-.351.541.541,0,0,0-.427-.511,1.964,1.964,0,0,0-.568-.082c-.242,0-.4-.078-.745-.5a.214.214,0,0,1-.064-.145.442.442,0,0,1,.109-.22.692.692,0,0,0,.192-.377.289.289,0,0,0-.018-.118.315.315,0,0,0-.092-.134h0a.519.519,0,0,0,.117-.016c.27-.111.317-.321.41-.479a1.833,1.833,0,0,1,.1-.193h0a4.891,4.891,0,0,1,.592-.07.645.645,0,0,1,.217.029c.045.017.045.028.048.031a.957.957,0,0,0,.118.253.326.326,0,0,0,.254.118c.088,0,.132-.014.215-.014a.836.836,0,0,1,.089,0l.053,0a.884.884,0,0,0,.623-.324,1.093,1.093,0,0,0,.273-.468.221.221,0,0,0,.008-.065.684.684,0,0,0-.763-.609,1.351,1.351,0,0,0-.158.014c-.08.009-.212.015-.373.015-.279,0-.636-.011-.968-.01a5.712,5.712,0,0,0-.6.03.8.8,0,0,0-.464.167h0a.735.735,0,0,0-.167.5c-.006.194.018.394.015.478a.339.339,0,0,0-.048.173.426.426,0,0,0,.091.276.341.341,0,0,0,.058.064c-.023,0-.045,0-.07,0-.208,0-.43.056-.615.053l-.009,0c.023-.019.055-.047.1-.083a.563.563,0,0,0,.248-.347c.026-.173.179-.786.179-.789a.19.19,0,0,0-.009-.13.548.548,0,0,0-.471-.358.5.5,0,0,0-.248.073c-.232.144-.3.193-.347.183a.262.262,0,0,1-.082-.011h0a1.329,1.329,0,0,1-.147-.224.535.535,0,0,0-.459-.273.688.688,0,0,0-.151.02,1.276,1.276,0,0,0-.753.569.606.606,0,0,1-.3.125h0c-.126-.08-.68-.461-.68-.461a.187.187,0,0,0-.085-.034c.226-.024.5-.126.66-.123a.254.254,0,0,1,.052.006.494.494,0,0,0,.345.124.709.709,0,0,0,.324-.083.389.389,0,0,0,.221-.318v-.056c0-.064.038-.26.045-.448a.828.828,0,0,0-.047-.319.371.371,0,0,0-.318-.232c-.017,0-.036,0-.058,0-.462.023-.874.4-1.31.57a.539.539,0,0,0-.358.475.4.4,0,0,0,.277.4c-.124-.008-.306-.021-.489-.042a3.2,3.2,0,0,1-.426-.072c-.041-.011-.076-.023-.1-.03a.853.853,0,0,0-.874-.547,1.706,1.706,0,0,0-.173.01,6.087,6.087,0,0,0-1.085.28l-.462.151c-.062.02-.117.036-.155.045a.252.252,0,0,1-.044.012.267.267,0,0,0-.183.071.249.249,0,0,0-.076.18.453.453,0,0,0,.018.132.8.8,0,0,0-.268.059.558.558,0,0,0-.3.354.422.422,0,0,0-.017.1.3.3,0,0,0,.123.257,1.165,1.165,0,0,0,.633.1l.035,0c.171,0,.4,0,.614-.018a1.334,1.334,0,0,0,.56-.115,1.768,1.768,0,0,1,.6-.147h.017a.887.887,0,0,0,.062.285.137.137,0,0,0-.044,0,1,1,0,0,0-.109,0,.946.946,0,0,0-.538.16.484.484,0,0,1-.289.1.747.747,0,0,1-.13-.014,2.058,2.058,0,0,0-.407-.033c-.27,0-.438.047-.682.048-.061,0-.127,0-.206-.009-.2-.016-.359-.034-.509-.034a.768.768,0,0,0-.391.088.547.547,0,0,0-.248.352,3.8,3.8,0,0,1-.185.55.962.962,0,0,1-.106.181l-.023.021a.567.567,0,0,0-.279.091.4.4,0,0,0-.179.3.352.352,0,0,0,.215.315,1.181,1.181,0,0,0,.462.094c.324.038.289.073.348.143a.663.663,0,0,0,.165.194.649.649,0,0,0,.382.1c.036,0,.073,0,.112,0a7.95,7.95,0,0,0,.944-.1.908.908,0,0,0,.689-.469c.018-.043.036-.079.053-.11.176.288.591.909.592.917l.03.032c.006,0,.276.277.485.435a.107.107,0,0,1-.076.038.1.1,0,0,1-.073-.032,1.729,1.729,0,0,0-.683-.248.946.946,0,0,1-.439-.159,1.091,1.091,0,0,0-.591-.227,4.622,4.622,0,0,0-.7-.047,3.064,3.064,0,0,0-.477.032.317.317,0,0,1-.061,0,1.851,1.851,0,0,1-.411-.068,2.038,2.038,0,0,0-.4-.08.6.6,0,0,0-.289.107c-.111.073-.236.167-.338.25-.059-.117-.133-.253-.189-.351a.3.3,0,0,0-.253-.152.543.543,0,0,0-.347.2c-.036.033-.071.067-.1.087l-.012.01a2.1,2.1,0,0,0-.8-.238.963.963,0,0,0-.341.068,1.714,1.714,0,0,0-.438.261c-.07.043-.088.064-.3.069-.047,0-.1,0-.173-.006-.561-.037-.7-.143-.983-.152a.754.754,0,0,0-.141.017l-.238.047a.219.219,0,0,0-.173.232s.012.068-.154.186c-.1.068-.189.141-.259.185a.28.28,0,0,1-.08.045l-.018.009c0-.009-.015-.018-.033-.041a.855.855,0,0,0-.518-.408c-.009,0-.074-.049-.183-.1a.991.991,0,0,0-.451-.1,1.426,1.426,0,0,0-.367.053.982.982,0,0,1-.236.029,2.747,2.747,0,0,1-.662-.106,3.046,3.046,0,0,0-.5-.117,15.974,15.974,0,0,1-1.831-.176,3.981,3.981,0,0,0-.935-.086,4.429,4.429,0,0,0-.615.037,9.2,9.2,0,0,1-1,.05l-.254-.2c-.085-.059-.168-.12-.247-.171a.532.532,0,0,0-.267-.1,1.093,1.093,0,0,0-.262.06.744.744,0,0,1-.232.046c-.065,0-.082-.01-.1-.029a1.7,1.7,0,0,0-.621-.439.2.2,0,0,0-.167.006.22.22,0,0,0-.112.129,1.723,1.723,0,0,1-.1.238.555.555,0,0,1-.209.247,3.786,3.786,0,0,1-.809.206h-.017a.262.262,0,0,0-.147-.036,2.465,2.465,0,0,0-.718.213c-.25.1-.468.2-.468.2l-.059.039s-.145.139-.309.277a2.656,2.656,0,0,1-.242.185c-.035.023-.064.039-.083.05h0a2.192,2.192,0,0,0-.5-.061.833.833,0,0,0-.223.028.3.3,0,0,0-.218.264.284.284,0,0,0,.023.115,1.527,1.527,0,0,0,.106.379.709.709,0,0,0,.691.315.787.787,0,0,1,.48.114,1.032,1.032,0,0,0,.37.214,1.982,1.982,0,0,1,.251.045.565.565,0,0,1,.224.18.586.586,0,0,1,.12.173.1.1,0,0,0-.029,0,1.531,1.531,0,0,1-.853-.32l-.227-.238a.2.2,0,0,0-.242-.036l-.4.221a4.869,4.869,0,0,0-1.291.4.214.214,0,0,0-.108.276,2.366,2.366,0,0,0,.583.79,2.5,2.5,0,0,0,1.319.325h0a1.665,1.665,0,0,0-.486.307c-.132.122-.261.2-.38.3a.581.581,0,0,0-.256.438.659.659,0,0,0,.05.26,1.862,1.862,0,0,0,.28.447.351.351,0,0,0-.141-.022H124.5a.773.773,0,0,0-.27.029c-.08.03-.112.053-.306.124a.267.267,0,0,0-.177.241.344.344,0,0,0,.1.238,1.175,1.175,0,0,0,.247.2.644.644,0,0,0,.306.1.45.45,0,0,0,.347-.226.721.721,0,0,0,.138-.371.6.6,0,0,0,0-.088c.074.088.144.173.192.242a.474.474,0,0,1,.062.094l.015.032a.291.291,0,0,0,.3.248,1.048,1.048,0,0,0,.506-.192,1.006,1.006,0,0,0,.354-.345.54.54,0,0,1-.02.112,1.032,1.032,0,0,0-.027.194.619.619,0,0,0,.283.554.8.8,0,0,0,.274.12.215.215,0,0,0,.227-.111,1.906,1.906,0,0,1,.106-.176c.011-.017.023-.032.033-.047.055.054.123.126.183.191.106.117.2.224.2.224a.2.2,0,0,0,.282.018,1.221,1.221,0,0,1,.148-.1.556.556,0,0,1,.218-.09c0,.011,0,.015,0,.02s-.024.076-.111.149a2.172,2.172,0,0,1-.308.206c-.1.058-.38.194-.653.322a6.905,6.905,0,0,0-.674.353,5.445,5.445,0,0,1-.554.324c-.114.061-.229.116-.324.158-.045.016-.086.033-.117.042l-.032.009h0a.358.358,0,0,0-.3.2.608.608,0,0,0-.083.294.49.49,0,0,0,.08.292.37.37,0,0,0,.317.16.567.567,0,0,0,.068,0,8.517,8.517,0,0,0,1.694-.641.164.164,0,0,1,.038-.014l.029.005a.531.531,0,0,0,.15.024,1.416,1.416,0,0,0,.665-.259c.35-.207.632-.4.847-.538a2.282,2.282,0,0,1,.262-.158.35.35,0,0,1,.1-.04l.014.017a1.06,1.06,0,0,0,.507.453.58.58,0,0,0,.159.024c.43-.023.679-.4.82-.483a1.068,1.068,0,0,0,.356-.726.374.374,0,0,0-.036-.183.263.263,0,0,0-.232-.143.292.292,0,0,0-.074.012,1.033,1.033,0,0,1-.114.009.694.694,0,0,0,.229-.426.775.775,0,0,1,.192-.514c-.021.059-.044.127-.073.206a.786.786,0,0,0-.061.26.335.335,0,0,0,.351.37,1.147,1.147,0,0,0,.671-.318c.086-.079.1-.071.236-.1a1.329,1.329,0,0,0,.582-.263,3.194,3.194,0,0,0,.445-.412c.092-.086.061-.065.115-.073l.012.006a1.611,1.611,0,0,1,.3.183.878.878,0,0,0,.464.185.412.412,0,0,0,.254-.086.1.1,0,0,1,.039,0,1.848,1.848,0,0,1,.489.133,2.143,2.143,0,0,0,.638.155,4.063,4.063,0,0,1,.926.293c.194.077.383.154.545.215a1.428,1.428,0,0,0,.411.11.974.974,0,0,1,.438.2.748.748,0,0,1,.323.554.921.921,0,0,0,.188.624.541.541,0,0,0,.417.147h.1a1.036,1.036,0,0,1,.386.123.665.665,0,0,1,.162.118.088.088,0,0,1,.027.035c0,.084-.041.344-.048.609a1.092,1.092,0,0,0,.342,1c.159.1.318.227.467.338a.873.873,0,0,0,.479.23.292.292,0,0,0,.162-.042.441.441,0,0,0,.18-.4,1.533,1.533,0,0,0-.026-.318.987.987,0,0,0,.076.1.445.445,0,0,0,.3.166.548.548,0,0,1,.067.052.881.881,0,0,1,.262.523.215.215,0,0,1-.012.057.745.745,0,0,0-.05.258.771.771,0,0,0,.692.834c.048-.013.239.107.394.28.082.081.161.168.229.243a.631.631,0,0,0,.248.186.372.372,0,0,1,.135.113.333.333,0,0,1,.055.089l.012.027h0a5.476,5.476,0,0,0,.086.615,5.287,5.287,0,0,1,.074.677c-.009.306-.17,1.657-.223,2.181,0,.033-.006.065-.006.1a3.524,3.524,0,0,0,.706,1.962,5.17,5.17,0,0,1,.509.865,2.688,2.688,0,0,0,.47.745,2.943,2.943,0,0,1,.271.368.686.686,0,0,0,.548.355.534.534,0,0,0,.073,0h.036c.085,0,.156.032.27.17a3.208,3.208,0,0,1,.368.676c.142.318.288.759.429,1.137a4.816,4.816,0,0,0,.211.5.655.655,0,0,0,.288.335.829.829,0,0,1,.248.17.335.335,0,0,1,.1.162l-.008.01a1.541,1.541,0,0,0-.394.756.356.356,0,0,0,.094.256.386.386,0,0,0,.271.1,2.551,2.551,0,0,0,.424-.065c.014.009.029-.023.153.163a5.53,5.53,0,0,0,.4.53c.112.136.151.232.144.274v.015a.448.448,0,0,0-.008.07.511.511,0,0,0,.274.456,1.442,1.442,0,0,0,.315.127l.011.015c.055.059.142.2.254.34a.683.683,0,0,0,.483.293.5.5,0,0,0,.353-.162.547.547,0,0,0,.158-.358,1.074,1.074,0,0,0-.373-.7c-.179-.188-.385-.353-.46-.435-.041-.023-.061-.171-.089-.426a1.432,1.432,0,0,0-.436-.871,1.871,1.871,0,0,1-.412-.591c.3.379.659.756.862.984a7.536,7.536,0,0,1,.6.974c.112.193.214.376.312.517a1.409,1.409,0,0,0,.144.183.323.323,0,0,0,.214.121,1.977,1.977,0,0,1,.339.348c.117.141.212.279.244.324.015.03.052.115.091.219a1.248,1.248,0,0,1,.089.364l0,.02a.476.476,0,0,0-.064.23,1.648,1.648,0,0,0,.526,1.147c.3.207,1.382.83,1.542.929.032.027.164.233.306.418a.956.956,0,0,0,.7.435,1.257,1.257,0,0,1,.718.123c.033.039.118.171.227.3a.684.684,0,0,0,.468.273.432.432,0,0,0,.348-.189,2.4,2.4,0,0,1,.258-.33c.048-.037.067-.055.224-.058a.363.363,0,0,1,.268.135c.085.092.171.233.277.369a5.73,5.73,0,0,0,.473.522,1.166,1.166,0,0,0,.674.382.4.4,0,0,0,.062,0h.017a.655.655,0,0,1,.258.11.958.958,0,0,0,.435.169.394.394,0,0,0,.221-.069c.008,0,.008,0,.024,0a1.1,1.1,0,0,1,.421.213c.155.088.585.384.559.772l0,.047c0,.029,0,.063,0,.1a1.012,1.012,0,0,0,.638.965,3.408,3.408,0,0,1,.688.68,1.147,1.147,0,0,0,.488.316c.077.033.15.061.2.086a.413.413,0,0,1,.058.029l.011.009c.024.026.064.1.124.182a.448.448,0,0,0,.348.183.7.7,0,0,0,.364-.123.894.894,0,0,0,.4-.659h.009a.34.34,0,0,1,.23.064,1.312,1.312,0,0,1,.188.415c.032.094.062.19.091.274a.646.646,0,0,0,.141.231h0a1.251,1.251,0,0,1,.1.27,1.99,1.99,0,0,1,.056.522,1.135,1.135,0,0,1-.053.333,5.25,5.25,0,0,0-.171.755c-.015.074-.029.134-.038.173a.435.435,0,0,0-.2.162c-.088.112-.164.253-.245.375a.777.777,0,0,1-.191.233,3.011,3.011,0,0,0-.579.51,1.336,1.336,0,0,0-.407.691.491.491,0,0,0,0,.068,4.971,4.971,0,0,0,.174.567,2.126,2.126,0,0,1,.12.577.339.339,0,0,1-.006.064,1.855,1.855,0,0,1-.265.418,1.352,1.352,0,0,0-.279.712.946.946,0,0,0,.017.205,1.31,1.31,0,0,0,.6.729c.235.164.377.3.37.407a4.181,4.181,0,0,0,.332,1.074,5.616,5.616,0,0,1,.332.963,2.5,2.5,0,0,0,.418.86,1.465,1.465,0,0,1,.294.8,1.249,1.249,0,0,0,.562.988,2.44,2.44,0,0,0,.726.389,1.387,1.387,0,0,1,.3.231,2.629,2.629,0,0,0,.486.388,1.593,1.593,0,0,1,.613.732,1.908,1.908,0,0,1,.114.8c0,.094-.009.163-.011.212,0,.115-.171,1.618-.321,2.462a4.1,4.1,0,0,0-.048.5c-.011.394.032.726.021.936,0,.145-.032.206-.044.211-.164.174-.459.336-.494.7a.526.526,0,0,0,.123.345l.014.02a.728.728,0,0,1-.136.136.986.986,0,0,0-.12.106.319.319,0,0,0-.1.221,2.6,2.6,0,0,0,.1.459,2.241,2.241,0,0,1,.08.544.407.407,0,0,1-.03.154c-.186.359-.323.842-.444,1.1a2.189,2.189,0,0,0-.38.929,1.027,1.027,0,0,0,.009.191.291.291,0,0,1,.006.063c-.014.063.012.025-.091.109a.611.611,0,0,0-.264.5.584.584,0,0,0,.2.489c.073.082.062.026.071.147a.874.874,0,0,1-.012.1,2.217,2.217,0,0,1-.177.532,1.372,1.372,0,0,0-.145.548,2.915,2.915,0,0,0,.088.668c.045.194.086.386.08.386a1.3,1.3,0,0,1-.126.323,3.606,3.606,0,0,1-.342.55c-.259.342-.494.565-.521.91a.722.722,0,0,0,.006.1,1.206,1.206,0,0,0,.171.42c.03.058.059.112.076.147a.22.22,0,0,1,.014.035c-.026.047-.106.18-.186.314a1.45,1.45,0,0,0-.209.615.774.774,0,0,0,0,.085.483.483,0,0,0,.356.427l.108.039a1.3,1.3,0,0,1-.12.126.557.557,0,0,0-.192.354.354.354,0,0,0,.115.277,2.079,2.079,0,0,0,.339.253c.056.059.074.055.079.211,0,.036-.008.082-.015.135a1.118,1.118,0,0,0-.014.144c-.02.627.609.856.591.889.053.067.144.2.254.314a.736.736,0,0,0,.412.256.244.244,0,0,0,.1.158.226.226,0,0,0,.123.039c.044.014.229.112.412.2a1.721,1.721,0,0,0,.642.211,4.854,4.854,0,0,0,1.177-.227c0-.006.291-.059.536-.109.129-.029.258-.059.368-.1a.517.517,0,0,0,.306-.2.257.257,0,0,0,.036-.12.254.254,0,0,0-.133-.229,1.782,1.782,0,0,0-.529-.109,2.152,2.152,0,0,1-.515-.106,2.019,2.019,0,0,1-.557-.481,1.981,1.981,0,0,1-.373-.551,1.224,1.224,0,0,1-.027-.321.651.651,0,0,1,.168-.5c.327-.212,1.029-.862,1.188-.995a1.294,1.294,0,0,0,.28-.44,1.575,1.575,0,0,0,.136-.512.329.329,0,0,0-.1-.275.518.518,0,0,0-.274-.092c-.13-.014-.276-.014-.386-.024a.989.989,0,0,1-.1-.018v-.01c0-.021.029-.141.3-.352a2.86,2.86,0,0,0,.535-.581,2.424,2.424,0,0,1,.271-.362,2.341,2.341,0,0,0,.691-.841.6.6,0,0,0,.052-.206.254.254,0,0,0-.082-.2.26.26,0,0,0-.186-.074c-.148.007-.244.051-.318.05a.138.138,0,0,1-.036-.052,1.147,1.147,0,0,1-.1-.357c.065.017.142.047.227.079a4.4,4.4,0,0,0,.544.185.946.946,0,0,0,.177.026.386.386,0,0,0,.274-.1.349.349,0,0,0,.1-.242,3.441,3.441,0,0,0-.071-.439c0-.022,0-.053,0-.083a.842.842,0,0,1,.056-.28l.012-.025a1.119,1.119,0,0,0,.424.069,7.654,7.654,0,0,0,1.36-.13c.162-.059.2-.141.286-.24.226-.291.527-.824.641-.979a.918.918,0,0,0,.189-.48.5.5,0,0,0-.212-.434.343.343,0,0,1-.064-.068,1.88,1.88,0,0,0,.576.129,1.274,1.274,0,0,0,.957-.49c.535-.567.989-.928,1.077-1.444a1.477,1.477,0,0,1,.268-.731.436.436,0,0,0,.232.089.382.382,0,0,0,.283-.138,1.174,1.174,0,0,0,.177-.3,1.42,1.42,0,0,1,.341-.518,2.05,2.05,0,0,0,.423-.565.836.836,0,0,0,.088-.367c0-.373-.147-.712-.132-.913a.261.261,0,0,1,.112-.229,14.088,14.088,0,0,1,1.347-.827s.053-.029.168-.079a3.94,3.94,0,0,1,.53-.182,4.92,4.92,0,0,1,.686-.094.8.8,0,0,0,.639-.318,12.817,12.817,0,0,1,.6-1.223,2.281,2.281,0,0,0,.515-1.086.506.506,0,0,0-.041-.232.232.232,0,0,1,0-.03,3.091,3.091,0,0,1,.17-.677,3.473,3.473,0,0,0,.186-.75c0-.02,0-.042,0-.065a3.865,3.865,0,0,1-.121-.736.828.828,0,0,1,.306-.627,8.687,8.687,0,0,0,.926-.986,2.615,2.615,0,0,0,.509-.8c.006-.056.144-.373.277-.7a3.4,3.4,0,0,0,.274-1.011l0-.076a1.957,1.957,0,0,0-.848-1.392m-19.3-28.185.018-.02-.018.022Zm-.4.639c.109-.128.226-.259.317-.351a.831.831,0,0,1,.092-.083.728.728,0,0,0,.126.01c.185,0,.433-.039.627-.039a.953.953,0,0,1,.135.011c-.094.044-.251.107-.424.181-.191.089-.3.122-.429.17a.77.77,0,0,0-.358.286.991.991,0,0,1-.359.224c-.03.017-.065.033-.1.049.071-.094.217-.274.371-.458m-.592-1.28a.935.935,0,0,1,.085.187l-.008-.006a.334.334,0,0,1-.092-.214.307.307,0,0,1,.015.033m-.188,2.006a.437.437,0,0,0-.065.067.929.929,0,0,1-.383.256.332.332,0,0,0,.048-.083l.018-.014a2.649,2.649,0,0,1,.382-.226m-1-2.281a.262.262,0,0,0,.108-.015l-.065-.2.071.191v.008a1.79,1.79,0,0,1,.345-.021c.12,0,.25.007.361.018-.051.027-.056.065-.074.077a1.172,1.172,0,0,0-.124.345,2.345,2.345,0,0,0-.07.462.766.766,0,0,0,.064.375.033.033,0,0,1,.006.021.337.337,0,0,1-.136.184.816.816,0,0,1-.132.087h0a1.261,1.261,0,0,1-.062-.465c0-.051,0-.1.011-.15a.832.832,0,0,0,.008-.1.873.873,0,0,0-.454-.825.856.856,0,0,0,.148.015m-.453-.1h-.041a.818.818,0,0,0-.1.006c-.58.071-.838.61-.945.677a.776.776,0,0,0-.194.448,4.019,4.019,0,0,0-.05.514,2.15,2.15,0,0,0,.015.394,1.1,1.1,0,0,1-.055.485c-.045.087-.048.079-.077.082h-.015s-.014.007-.047-.084a1.242,1.242,0,0,1-.032-.369,3.327,3.327,0,0,1,.048-.464c.008-.049.011-.1.014-.15.006-.225-.023-.519-.015-.781a1.192,1.192,0,0,1,.071-.412c.1-.257.512-.408.818-.45h.048a2.216,2.216,0,0,1,.5.094l.053.012m-3.083-1.017,0,0c.026-.025.233-.074.551-.215l-.08-.191.082.193a4.679,4.679,0,0,0,.7-.443,1.38,1.38,0,0,1,.409-.234,2.282,2.282,0,0,0,.985.722.842.842,0,0,1-.08.162.852.852,0,0,1-.086.114l-.009.009a8.305,8.305,0,0,0-.839-.106c-.118-.011-.091-.018-.118-.04-.012-.013-.021-.041-.055-.086a.278.278,0,0,0-.232-.121.3.3,0,0,0-.1.016,3.846,3.846,0,0,0-.818.308.452.452,0,0,1-.217.054.221.221,0,0,1-.109-.021.369.369,0,0,1,.017-.12m3.16-10.031-.059.017a.445.445,0,0,1-.1.016c-.05,0-.03,0-.062-.027a.367.367,0,0,0-.044-.044c.089.009.183.021.264.038m-1.656-2.06a2.319,2.319,0,0,0,.241-.013,1.875,1.875,0,0,1,.208-.009,2.919,2.919,0,0,1,.53.047c.024,0,.048.008.07.012,0,.032-.009.065-.014.1a1.038,1.038,0,0,1-.053.179l-.023.042c-.067.031-.192.058-.333.112a.657.657,0,0,0-.394.406l-.009.024a1.459,1.459,0,0,0,.018-.167.658.658,0,0,0-.211-.539,1.136,1.136,0,0,0-.306-.22,1.169,1.169,0,0,0,.276.024m-3.034-1.528-.011-.082.012.082Zm-31.622,4.758a.345.345,0,0,1-.241.133h-.029c-.044,0-.1-.008-.141-.011a.807.807,0,0,0,.151-.112.385.385,0,0,1,.285-.12h.047a.413.413,0,0,1-.073.109m16.989,7.933-.011-.009h.009l.05.034a.161.161,0,0,1-.048-.026m.735.688a.538.538,0,0,1,.059.248,2.288,2.288,0,0,1-.059-.248m3.789,10.06c0-.038.009-.079.114-.167l.038-.029a1.174,1.174,0,0,1,.082.231c.039.141.071.315.126.476l0,.008c-.236-.23-.383-.443-.364-.52m2.984-24.075h-.03a3.54,3.54,0,0,0-.441.038c-.354.047-.919.159-1.151.159a.236.236,0,0,1-.059,0l-.045-.011a1.487,1.487,0,0,0-.376-.258c-.414-.223-.612-.218-.816-.338a2.641,2.641,0,0,0,.309-.2,1.021,1.021,0,0,1,.155-.094.122.122,0,0,1,.048-.021,1.049,1.049,0,0,1,.118.247.688.688,0,0,0,.285.4,1.28,1.28,0,0,0,.541.093,1.612,1.612,0,0,0,.565-.088,2.1,2.1,0,0,1,.577-.067,2.394,2.394,0,0,1,.5.041c.086.017.223.047.371.074,0,.031-.008.057-.009.084a.8.8,0,0,0,.012.156.772.772,0,0,0-.556-.209m26.588,41.955c-.053.071-.047.111-.347.184a.624.624,0,0,1-.174.018.324.324,0,0,1-.064,0,.268.268,0,0,1,.089-.038,2.427,2.427,0,0,0,.511-.188.155.155,0,0,1-.015.028m.683,1.13H178.5l.009-.006,0,.006m-22.836-43.253c-.1,0-.332-.051-.568-.051a.778.778,0,0,0-.482.141.5.5,0,0,0-.188.394.584.584,0,0,0,.479.624.666.666,0,0,0,.077,0,4.353,4.353,0,0,0,.621-.109,2.829,2.829,0,0,0,.132.424.662.662,0,0,0,.562.474.6.6,0,0,0,.294-.09,1.508,1.508,0,0,0,.507-.452c.036-.052.064-.1.08-.119a.285.285,0,0,0,.156-.167.513.513,0,0,0,.026-.159,1.335,1.335,0,0,0-.344-.934.887.887,0,0,0-.532-.126,2.02,2.02,0,0,0-.783.142c-.008,0-.02,0-.038,0M210.3,2108.6c-.018.008-.326-.064-.586-.068a.762.762,0,0,0-.427.106.3.3,0,0,0-.132.236.591.591,0,0,0,.236.418,1.634,1.634,0,0,0,.359.255.792.792,0,0,1,.215.193.838.838,0,0,0,.345.261.623.623,0,0,0,.189.028.875.875,0,0,0,.409-.1.531.531,0,0,0,.276-.45.814.814,0,0,0-.029-.238.845.845,0,0,0-.856-.64m55.21,15.332h-.023a.362.362,0,0,0-.276.138,1.272,1.272,0,0,0-.347.759.545.545,0,0,0,.045.258l-.006-.006a1,1,0,0,0-.724-.446.669.669,0,0,0-.25.049.463.463,0,0,0-.188.164,1.45,1.45,0,0,0-.264.709.481.481,0,0,0,.085.321.425.425,0,0,0,.362.175c.236,0,.6.05.871.054a1.085,1.085,0,0,0,.262-.024.459.459,0,0,0,.151-.07.288.288,0,0,0,.108-.206.34.34,0,0,0-.055-.182c-.052-.075-.135-.229-.245-.392a.6.6,0,0,0,.406.136c.023,0,.041,0,.064,0a.714.714,0,0,0,.751-.646.783.783,0,0,0-.729-.79m10.59,31.537a1.606,1.606,0,0,0-.685.28c-.111.065-.217.126-.3.167a.9.9,0,0,1-.1.044l-.008,0c-.2-.056-.621-.244-.623-.244a.24.24,0,0,0-.27.054.542.542,0,0,0,.1.917c.12.1.165.162.158.229a.531.531,0,0,1-.006.054.541.541,0,0,0-.03.156.438.438,0,0,0,.192.39.683.683,0,0,0,.364.1,1.8,1.8,0,0,0,.648-.127.794.794,0,0,0,.3-.291,3.393,3.393,0,0,0,.568-1.355.474.474,0,0,0-.012-.136.314.314,0,0,0-.306-.238m-10.4-29.633a.242.242,0,0,0-.18-.056.238.238,0,0,0-.167.1,5.571,5.571,0,0,1-.392.5.485.485,0,0,1-.067.058c-.038-.016-.135-.08-.273-.144a.637.637,0,0,0-.276-.063,1.206,1.206,0,0,0-.726.291.908.908,0,0,0-.376.583.338.338,0,0,0,.036.174.471.471,0,0,0,.392.221c.2.027.421.02.6.044s.265.076.288.138a2.213,2.213,0,0,0,.189.377.447.447,0,0,0,.356.2l.023,0a1.362,1.362,0,0,0,.324-.049,1.266,1.266,0,0,0,.682-.476,1.318,1.318,0,0,0,.308-.73.626.626,0,0,0-.024-.216,3.114,3.114,0,0,0-.721-.947m12.079,18.984a1.946,1.946,0,0,1-.43-.8l0-.015c0-.018,0-.035,0-.053a.511.511,0,0,0-.188-.416c-.318-.256-.789-.324-.989-.526a1.665,1.665,0,0,1-.294-.8,10,10,0,0,0-.22-1.123,5.742,5.742,0,0,0-1.063-1.625,3.573,3.573,0,0,1-.418-1c-.053-.178-.1-.339-.144-.471a.887.887,0,0,0-.073-.172.467.467,0,0,0-.08-.109,1.492,1.492,0,0,0,.5-.547c.164-.269.309-.566.377-.633a.9.9,0,0,1,.529-.151.477.477,0,0,1,.2.042c.036.023.045.03.055.07a1.9,1.9,0,0,0,.927,1.364,3.041,3.041,0,0,0,1.144.489.367.367,0,0,0,.382-.268.49.49,0,0,0,.011-.1,2.364,2.364,0,0,0-.168-.8,1.277,1.277,0,0,0-.523-.709,1.677,1.677,0,0,1-.5-.529,1.584,1.584,0,0,1-.283-.635.667.667,0,0,0-.379-.576,2.539,2.539,0,0,1-.442-.289c-.192-.152-.4-.966-1.2-1.174-.592-.141-.716-.361-1.438-.791a3.677,3.677,0,0,0-1.675-.376,2.753,2.753,0,0,0-.576.045.883.883,0,0,0-.224.074c-.015.008-.032.019-.053.031a1.8,1.8,0,0,0-.333-.177,2.467,2.467,0,0,0-.726-.139.4.4,0,0,1-.144-.035c-.014-.009-.017-.006-.038-.054a.591.591,0,0,0-.538-.455.955.955,0,0,0-.679.374c-.077.082-.145.147-.2.209a.415.415,0,0,0-.142.274.289.289,0,0,0,.1.221,1.52,1.52,0,0,0,.6.2c.261.057.457.093.564.126h0a.579.579,0,0,1-.059.082,1.838,1.838,0,0,0-.46.909.359.359,0,0,0,.282.385,1.152,1.152,0,0,0,.135.012c.264,0,.627-.083.823-.077l.023,0a.327.327,0,0,0,.038.162.44.44,0,0,0,.277.2,3.8,3.8,0,0,0,.53.124,1.354,1.354,0,0,1,1.062.637,3.473,3.473,0,0,1,.253.347,1.909,1.909,0,0,1,.1.167.923.923,0,0,0-.394.2.688.688,0,0,0-.276.444.312.312,0,0,0,.258.312.7.7,0,0,0,.156.015c.256,0,.618-.059.8-.053h0a3.181,3.181,0,0,0,.265.539,1.128,1.128,0,0,0,.657.573,1.053,1.053,0,0,0-.094.188,4.39,4.39,0,0,0-.315,1.361,1.136,1.136,0,0,0,.124.654.47.47,0,0,1,.056.283,5.336,5.336,0,0,1-.5,1.466.284.284,0,0,1-.048.086.327.327,0,0,1-.08-.04c-.171-.1-.427-.378-.679-.561a7.794,7.794,0,0,1-1.277-.833c-.008-.006-.017-.018-.017-.065a1.848,1.848,0,0,1,.214-.57,2.063,2.063,0,0,0,.255-.718.506.506,0,0,0-.059-.257.814.814,0,0,0-.717-.292,4.3,4.3,0,0,0-.665.056c-.1.014-.182.027-.247.038a.224.224,0,0,1-.044.006l-.191-.218a.705.705,0,0,0-.489-.279.375.375,0,0,0-.332.2,1.305,1.305,0,0,0-.12.38c-.077-.1-.162-.206-.254-.323a1.664,1.664,0,0,0-.118-.125.3.3,0,0,0-.208-.094.267.267,0,0,0-.247.167.381.381,0,0,0-.018.116c0,.078,0,.159,0,.252a.642.642,0,0,1-.144.426,2.2,2.2,0,0,0-.351.427c-.062.126-.065.2-.161.433a.346.346,0,0,1-.076.129c-.014.007-.009.009-.009.009l-.006,0c-.029.02-.259-.118-.457-.4a.717.717,0,0,0-.553-.356,1.215,1.215,0,0,0-.613.28,1.488,1.488,0,0,0-.48.682c-.111.252-.22.521-.256.571h0a3.048,3.048,0,0,1-.565.264,2.277,2.277,0,0,0-.707.394,1.685,1.685,0,0,0-.315.736,5.005,5.005,0,0,0-.092.538c-.091.017-.271.035-.447.053a1.424,1.424,0,0,0-.7.214.527.527,0,0,1-.345.086c-.18,0-.389-.05-.592-.054a.936.936,0,0,0-.476.182c-.474.285-1.153.854-1.4,1.021a1.312,1.312,0,0,0-.421,1.012,1.239,1.239,0,0,0,.127.671,2.259,2.259,0,0,1,.3.668.769.769,0,0,0-.283.639,1.555,1.555,0,0,0,.374,1.05c.311.394.3.5.3.639,0,.039-.006.087-.009.148a1.113,1.113,0,0,0,0,.155.9.9,0,0,0,.218.478c.1.136.229.278.385.514a.156.156,0,0,1,.033.1c.006.063-.114.221-.306.371a1.97,1.97,0,0,0-.526.5.492.492,0,0,0-.049.2c.006.45.4.8.611,1.041a.83.83,0,0,0,.592.2,2.758,2.758,0,0,0,.951-.177,3.67,3.67,0,0,0,.651-.342,1.829,1.829,0,0,1,.417-.223c.1-.015.476-.035.806-.047s.638-.018.639-.018a.248.248,0,0,0,.2-.108s.465-.736.77-1.106a.4.4,0,0,1,.33-.1,1.873,1.873,0,0,1,.451.071c.127.037.211.07.211.07a.248.248,0,0,0,.227-.029.344.344,0,0,1,.058-.035,4.672,4.672,0,0,1,1.31-.448,2.074,2.074,0,0,1,.4-.056.272.272,0,0,1,.094.015s0,0,0,.014a.629.629,0,0,0,.345.435,4.48,4.48,0,0,1,1.138.482c.029.027.045.065.045.163a4.4,4.4,0,0,1-.2.726.2.2,0,0,0-.009.053.319.319,0,0,0,.194.3.654.654,0,0,0,.273.058,1.175,1.175,0,0,0,.433-.077.5.5,0,0,0,.347-.333c.024-.13.159-.315.488-.545-.011.079-.021.169-.026.265a1.246,1.246,0,0,0,.048.429.55.55,0,0,0,.092.161.3.3,0,0,0,.217.1.344.344,0,0,0,.217-.077.693.693,0,0,1,.07.156.39.39,0,0,0,.206.238,1.671,1.671,0,0,1,.273.174.285.285,0,0,1,.1.239,5.894,5.894,0,0,0-.009.62.6.6,0,0,0,.179.451.669.669,0,0,0,.292.1.891.891,0,0,1,.763.445c.1.212.22.382.462.4a.562.562,0,0,0,.433-.256c.079-.106.15-.218.2-.286h.012a1.155,1.155,0,0,1,.579.318.335.335,0,0,0,.262.124,1.338,1.338,0,0,0,.626-.282,2.635,2.635,0,0,1,.7-.338,3.576,3.576,0,0,0,.615-.2.8.8,0,0,0,.283-.335,14.235,14.235,0,0,1,.768-1.674A5.588,5.588,0,0,0,279,2149.67a8.9,8.9,0,0,0-.4-3.611,10.976,10.976,0,0,0-.818-1.239m-13.746-7.027a.357.357,0,0,0,.264.113h.009a1.228,1.228,0,0,0,.645-.278,2.953,2.953,0,0,0,.267-.2,1.847,1.847,0,0,0,.329-.092.933.933,0,0,0,.32-.175.527.527,0,0,0,.2-.374.738.738,0,0,0-.277-.544.965.965,0,0,0-.586-.245.6.6,0,0,0-.5.254c-.115.169-.3.354-.453.547a1.176,1.176,0,0,0-.329.659c0,.023,0,.047,0,.081a.4.4,0,0,0,.111.259m-1-6.01c.032,0,.071,0,.106-.007.485-.045,1.519-.183,1.684-.18a.6.6,0,0,0,.471-.323,1,1,0,0,0,.192-.463.333.333,0,0,0-.044-.173.272.272,0,0,0-.224-.123,13.631,13.631,0,0,0-1.6.294h-.024a3.517,3.517,0,0,1-.467-.064c-.167-.026-.311-.054-.311-.054a.24.24,0,0,0-.223.074.709.709,0,0,0-.212.456.494.494,0,0,0,.186.41.754.754,0,0,0,.465.15m30.286,9.5h0a.413.413,0,0,0-.161-.034.9.9,0,0,0-.509.211,5.7,5.7,0,0,0-.866.942.224.224,0,0,0-.033.178.22.22,0,0,0,.123.143.686.686,0,0,0,.271.058h0a1.46,1.46,0,0,0,.915-.41,1.251,1.251,0,0,0,.479-.744.343.343,0,0,0-.223-.344M291.433,2154a.568.568,0,0,0-.279.075c-.055.026-.064.028-.083.028a.372.372,0,0,1-.177-.079,1.759,1.759,0,0,1-.279-.2,2.993,2.993,0,0,1-.192-.382c-.091-.189-.155-.42-.23-.627a1.146,1.146,0,0,0-.159-.291.456.456,0,0,0-.347-.177.636.636,0,0,0-.306.085.421.421,0,0,0-.2.37,1.381,1.381,0,0,0,.27.812.921.921,0,0,1,.106.341,2.231,2.231,0,0,1,.035.479c0,.035-.006.065-.006.082a3.053,3.053,0,0,1-.258.186.622.622,0,0,0-.315.427.394.394,0,0,0,.174.321,1.278,1.278,0,0,0,.718.188.345.345,0,0,1,.079.006,1.523,1.523,0,0,0-.218.531c-.05-.058-.124-.141-.206-.226a2.122,2.122,0,0,0-.22-.217.483.483,0,0,0-.3-.149.27.27,0,0,0-.261.187c-.012.026-.062.068-.18.127a2.424,2.424,0,0,0-.482.3,1.025,1.025,0,0,0-.259.388c-.041.072-.129.189-.5.424-.773.5-1.722.977-2.01,1.562a.751.751,0,0,0-.071.289.625.625,0,0,0,.333.57,1.869,1.869,0,0,0,.776.212c.258.024.374.059.527.065l.02,0a.514.514,0,0,0,.353-.152c.091-.089.18-.2.338-.376a10.581,10.581,0,0,1,1.539-1.39,2.034,2.034,0,0,0,.7-1.321.425.425,0,0,0,.238.138.631.631,0,0,0,.165.024.682.682,0,0,0,.573-.333c.112-.162.194-.345.274-.488a1.851,1.851,0,0,1,.576-.758.5.5,0,0,0,.253-.412.7.7,0,0,0-.136-.42.5.5,0,0,0-.376-.227m-5.452-8.573a.524.524,0,0,0,.494-.447l-.227-.041.227.038a.608.608,0,0,0,.012-.117c.024-.362-.273-.759-1.019-.948a1.7,1.7,0,0,0-.385-.073.38.38,0,0,0-.191.04.284.284,0,0,0-.145.226.38.38,0,0,0,.068.213c.1.155.256.33.35.511a1.046,1.046,0,0,0,.8.6Zm-81.211-37.95c-.227.014-.356.167-.485.387a.32.32,0,0,0-.047.155.306.306,0,0,0,.165.274.478.478,0,0,0,.242.059.466.466,0,0,0,.439-.25.435.435,0,0,0,.042-.186.469.469,0,0,0-.064-.262.339.339,0,0,0-.294-.176m58.209,26.32a1.081,1.081,0,0,0,.189.625,1.181,1.181,0,0,0,.988.512c.041,0,.065,0,.074,0a.229.229,0,0,0,.215-.221,4.012,4.012,0,0,0-.058-.674,1.484,1.484,0,0,0-.5-1.006c-.062-.041-.126-.088-.18-.128.029,0,.056,0,.08,0a.98.98,0,0,0,.53-.13.512.512,0,0,0,.251-.416.529.529,0,0,0-.038-.218c-.147-.3-.456-.311-.7-.324a4.279,4.279,0,0,0-.762.077l-.024,0a.737.737,0,0,1-.286-.088,1.42,1.42,0,0,1-.162-.088.242.242,0,0,0-.209-.025.587.587,0,0,0-.373.426c-.047.169-.061.345-.111.582-.059.3-.282.535-.311.881a.484.484,0,0,0,.211.427.421.421,0,0,0,.25.083,1.157,1.157,0,0,0,.68-.349c.086-.074.17-.145.236-.191a1.605,1.605,0,0,1,.009.242m23.478-36.609a.568.568,0,0,1,.08-.192,2.131,2.131,0,0,1,.35-.581,1.61,1.61,0,0,1,1.032-.207c1.05,0,.944.059,1.463.062.124,0,.28-.006.5-.015a3.18,3.18,0,0,0,1.383-.416,5.882,5.882,0,0,1,1.21-.563,8.113,8.113,0,0,1,1.789-.4.459.459,0,0,1,.189.027.9.9,0,0,0,.407.092.776.776,0,0,0,.321-.072.4.4,0,0,0,.218-.324.528.528,0,0,0-.138-.345c-.138-.159-.323-.326-.473-.48a1.876,1.876,0,0,1-.148-.164,2.032,2.032,0,0,0,.421-.147.909.909,0,0,0,.477-.521.653.653,0,0,0,.041-.2c0-.412-.244-.819-.218-1.074a.256.256,0,0,1,.064-.173.632.632,0,0,0,.177-.4.827.827,0,0,0-.324-.643,1.528,1.528,0,0,0-.633-.327,2.606,2.606,0,0,0-.529-.037c-.371,0-.841.027-1.239.029a2.388,2.388,0,0,1-.707-.061,2.515,2.515,0,0,0-1.053-.379.511.511,0,0,0-.323.1,2.863,2.863,0,0,0-.435.606c-.067.111-.13.22-.173.3-.052-.02-.126-.073-.217-.238a1.243,1.243,0,0,0-.926-.451,7.731,7.731,0,0,0-1.106-.061c-.133,0-.255,0-.332,0-.479,0-.976.109-1.451.159-.27.03-.462.077-.585.074a.388.388,0,0,1-.327-.155,5.378,5.378,0,0,0-1.006-.668.818.818,0,0,0-.42-.144,4.9,4.9,0,0,0-.57-.027,7.9,7.9,0,0,0-1.1.078,12.543,12.543,0,0,1-1.424.1c-.038-.016-.1-.045-.179-.089a7.013,7.013,0,0,1-.6-.373,6.885,6.885,0,0,0-.76-.446,1.531,1.531,0,0,0-.582-.19c-.182,0-.789.114-1.279.117a1.016,1.016,0,0,1-.426-.058,1.753,1.753,0,0,0-.86-.445c.2-.041.438-.112.683-.183.35-.106.665-.208.665-.208a.241.241,0,0,0,.15-.136.217.217,0,0,0-.014-.191,1.9,1.9,0,0,0-.25-.313,1.038,1.038,0,0,0-.715-.341,3.864,3.864,0,0,1-.748-.116,4.173,4.173,0,0,0-.694-.126.37.37,0,0,0-.245.078.419.419,0,0,0-.088.1.708.708,0,0,1-.1-.017,4.351,4.351,0,0,0-.9-.191.72.72,0,0,0-.439.138c-.077.057-.209.139-.335.232a.625.625,0,0,0-.3.425.356.356,0,0,0,.138.288.894.894,0,0,0,.3.146,3.8,3.8,0,0,0,.962.119c.267.006.353.05.353.073a.343.343,0,0,1,.044.153,3.282,3.282,0,0,0-.1.394,1.289,1.289,0,0,1-.183.353,1.084,1.084,0,0,1-.288.307s0,0-.026,0c-.05.006-.188-.037-.382-.042a1.075,1.075,0,0,0-.535.152,2.136,2.136,0,0,1-.85.11h-.227a3.358,3.358,0,0,0-.338.013.628.628,0,0,0-.194.046c-.03-.029-.067-.067-.1-.1a.553.553,0,0,0-.391-.2.367.367,0,0,0-.164.036,3.894,3.894,0,0,0-.553.421,1.26,1.26,0,0,1-.43.265.652.652,0,0,1-.48-.584,2.685,2.685,0,0,0-.062-.668.918.918,0,0,0-.238-.511.616.616,0,0,0-.241-.089,5.505,5.505,0,0,0-.957-.072,2.579,2.579,0,0,0-.423.028c-.167.022-.532.061-.88.121-.177.031-.353.065-.5.106a.884.884,0,0,0-.394.206,1.466,1.466,0,0,1-.8.277.973.973,0,0,1-.359-.158,2.315,2.315,0,0,0-.807-.287,15.748,15.748,0,0,0-1.922-.114,1.944,1.944,0,0,0-.445.033h-.018a.621.621,0,0,1-.173-.031,3.837,3.837,0,0,0,.3-.32,1.215,1.215,0,0,0,.309-.651.49.49,0,0,0-.192-.417,3.9,3.9,0,0,0-1.75-.389,5.956,5.956,0,0,0-.909-.088,3.414,3.414,0,0,0-.553.047,2.118,2.118,0,0,0-.562.184l-.039.018a.117.117,0,0,0-.045-.069.283.283,0,0,0-.077-.059c-.055-.031-.167-.085-.386-.194a2.835,2.835,0,0,0-1.265-.374,1.051,1.051,0,0,0-.554.141.648.648,0,0,0-.174.127c-.067.08-.026.038-.058.063a2.8,2.8,0,0,1-.409.2c-.68.294-1.076.446-1.233.494h0a3.5,3.5,0,0,1-.656-.13c-.136-.036-.268-.075-.368-.114-.05-.016-.092-.031-.126-.044-.012,0-.023-.015-.03-.017v0a.4.4,0,0,0-.267-.077,3,3,0,0,0-1.019.309c-.414.2-.691.414-.913.4a.658.658,0,0,1-.115-.012,2.919,2.919,0,0,0-.685-.07,2.507,2.507,0,0,0-1.026.194,4.41,4.41,0,0,0-1.235.582,2.842,2.842,0,0,1-.736.372c-.186.067-.345.11-.412.131-.156-.011-.742-.046-1.092-.044a3.4,3.4,0,0,0-.485.024.73.73,0,0,0-.241.075.343.343,0,0,0-.189.285.492.492,0,0,0,.162.339,3.329,3.329,0,0,0,.876.543l.018.012c-.079-.04-.17-.073-.276-.115-.27-.1-.414-.127-.476-.151s-.126-.07-.327-.291a1.106,1.106,0,0,0-.809-.4.821.821,0,0,0-.657.329,1.54,1.54,0,0,0-.221.662.781.781,0,0,1-.048.2c-.129.032-.238.07-.286.077a.379.379,0,0,1-.014-.088c-.009-.166-.009-.4-.026-.612a1.606,1.606,0,0,0-.05-.286.456.456,0,0,0-.071-.141.269.269,0,0,0-.22-.1c-.223.024-.27.146-.361.262a4.645,4.645,0,0,1-.332.45.637.637,0,0,0-.161.409c.011.338.18.5.158.765a.722.722,0,0,1-.017.139,2.861,2.861,0,0,0-.085.538.716.716,0,0,0,.027.265.316.316,0,0,0,.176.181c-.289.315-.62.741-.723.876-.076.041-.241.123-.417.206-.062.029-.129.057-.194.086a2.454,2.454,0,0,1,.429-.392,1.574,1.574,0,0,0,.636-1.007.379.379,0,0,0-.074-.253,3.091,3.091,0,0,1-.147-1,.642.642,0,0,1,.014-.133,1.836,1.836,0,0,0,.279-.636.511.511,0,0,0-.289-.468,11.916,11.916,0,0,0-1.068-.7.487.487,0,0,0-.183-.039,1.024,1.024,0,0,0-.67.421,3.441,3.441,0,0,1-.426.436,1.59,1.59,0,0,0-.351.352.265.265,0,0,1-.212.114.72.72,0,0,0-.61.677.8.8,0,0,0,.477.722,2.907,2.907,0,0,1,.506.333.759.759,0,0,1,.092.106l0,.014h-.038a1.332,1.332,0,0,1-.374-.075,1.82,1.82,0,0,1-.217-.076,2.562,2.562,0,0,0-.974-.309c-.244.011-.66-.225-1.066-.292a3.093,3.093,0,0,0-.459-.029,1.368,1.368,0,0,0-.95.259c-.083.092-.2.245-.336.368a.609.609,0,0,1-.3.191.053.053,0,0,1-.029-.007,2.333,2.333,0,0,1-.247-.182.554.554,0,0,0-.358-.13,1.1,1.1,0,0,0-.4.1.667.667,0,0,1-.262.047c-.156,0-.327-.038-.523-.041a.645.645,0,0,0-.5.207c-.042.05-.079.1-.1.126-.082-.029-.245-.092-.5-.187a1.413,1.413,0,0,0-.491-.106.886.886,0,0,0-.551.224,1.073,1.073,0,0,1-.5.223,2.032,2.032,0,0,1-.433.044c-.233,0-.432-.033-.626-.033a.625.625,0,0,0-.536.235c-.068.091-.136.2-.208.294.021-.059.05-.115.076-.176a1.4,1.4,0,0,0,.182-.512.385.385,0,0,0-.106-.282.946.946,0,0,0-.636-.172,3.163,3.163,0,0,0-.512.051.779.779,0,0,0-.41.191.669.669,0,0,0-.135.428,1.9,1.9,0,0,0,.1.687.625.625,0,0,1,.026.1.348.348,0,0,0-.289-.15.481.481,0,0,0-.092.007,2.251,2.251,0,0,0-.317.1.323.323,0,0,0,.067-.182.386.386,0,0,0-.251-.337,4.191,4.191,0,0,0-1.4-.513,8.265,8.265,0,0,1-2.257-.469,13.528,13.528,0,0,0-1.528-.652,17.147,17.147,0,0,0-3.133-.389,4.044,4.044,0,0,0-.7.057c-.548.106-1.547.382-2.436.649-.447.135-.867.271-1.182.379-.164.056-.294.1-.4.146a1.013,1.013,0,0,0-.253.127,3.558,3.558,0,0,0-.4.528,3.93,3.93,0,0,1-.612.706,8.119,8.119,0,0,1-2.315,1.772,3.932,3.932,0,0,0-1.254.628,3.521,3.521,0,0,0-.445.377.683.683,0,0,0-.227.388,2.438,2.438,0,0,0,.121.546,2.276,2.276,0,0,1,.106.456.4.4,0,0,0-.033.16,1.339,1.339,0,0,0,.174.627,1.215,1.215,0,0,0,.554.563,1.94,1.94,0,0,0,.726.136,1.774,1.774,0,0,0,.332-.029l-.011,0a.864.864,0,0,0-.511.4,2.354,2.354,0,0,0-.209.826.789.789,0,0,0,.1.456c.038.058.085.118.133.18a2.31,2.31,0,0,0-.441-.043,1.257,1.257,0,0,0-.839.27c-.3.252-.75.721-.912.886a4.609,4.609,0,0,0-.467.082,1.927,1.927,0,0,0-.208.058.294.294,0,0,0,0-.055,1.9,1.9,0,0,0-.906-1.245,1.879,1.879,0,0,1-.465-.567,3.406,3.406,0,0,0-.488-.677h0a4.957,4.957,0,0,0,.148-.6.612.612,0,0,0-.132-.407,1.233,1.233,0,0,0-.462-.359,1.86,1.86,0,0,1-.388-.212.612.612,0,0,0-.379-.133,1.072,1.072,0,0,0-.779.529c-.018.024-.027.027-.027.027a2.505,2.505,0,0,0-.4-.091.448.448,0,0,0-.185.038.582.582,0,0,0-.364.553,1.177,1.177,0,0,0,.182.644c.042.063.1.153.159.259a1,1,0,0,0-.221-.026,1.033,1.033,0,0,0-.224.026.867.867,0,0,0-.532.383.808.808,0,0,1-.108.138l-.011.012a.908.908,0,0,0-.42.1.516.516,0,0,0-.277.444.782.782,0,0,0,.014.167,3.789,3.789,0,0,1,.109.464v.014s0,.006-.024.021a.432.432,0,0,0-.215.371.81.81,0,0,0,.168.495.7.7,0,0,0,.459.309.433.433,0,0,0,.108.009,2.5,2.5,0,0,0,1.032-.419,1.372,1.372,0,0,0,.865-1.073,2.942,2.942,0,0,0-.052-.689c.03.018.061.036.092.053l.1-.2-.1.2c.194.091.451.173.653.253.045.018.089.035.126.053a4.69,4.69,0,0,0-.5.412,1.846,1.846,0,0,0-.485.644.37.37,0,0,0-.018.1c.02.326.265.44.447.562.056.032.111.062.161.088a.567.567,0,0,0-.045.2.346.346,0,0,0,.347.363.637.637,0,0,0,.417-.242c.091-.08.148-.115.2-.112.245-.007.856.214,1.265.242-.3.066-.629.15-.95.212a1.506,1.506,0,0,0-.571.242.88.88,0,0,1-.457.142,1.326,1.326,0,0,0-.448.111.4.4,0,0,0-.256.333.353.353,0,0,0,.182.3,1,1,0,0,0,.345.12,2.664,2.664,0,0,1,.81.31c.256.15.4.34.4.43,0,.065,0,.136,0,.2a2.576,2.576,0,0,1-.274,1.053v0a.624.624,0,0,1-.292.047c-.294,0-.692-.066-1.01-.072-.3,0-.857-.085-1.335-.086a1.662,1.662,0,0,0-.671.1,1.128,1.128,0,0,0-.468,1.028,3.292,3.292,0,0,0,.082.834.7.7,0,0,1,.026.23.483.483,0,0,1-.191.381.784.784,0,0,0-.232.559.708.708,0,0,0,.189.538,1.97,1.97,0,0,1,.239.354c.1.144.141.294.364.381a.416.416,0,0,0,.135.016c.158,0,.327-.036.471-.035.126,0,.188.032.2.052a3.318,3.318,0,0,1,.232.4,2.137,2.137,0,0,0,.13.218.11.11,0,0,0,.021.026.1.1,0,0,0-.032.017,7.052,7.052,0,0,0-.716.548c-.1.084-.185.156-.248.2a.649.649,0,0,1-.062.042.466.466,0,0,0-.224.1,2.487,2.487,0,0,0-.727,1.109,3.509,3.509,0,0,0-.177,1.041c-.03.281-.064.38-.188.445a7.408,7.408,0,0,0-1.721,1.21,5.33,5.33,0,0,0-.621,1.156,9.265,9.265,0,0,1-.636,1.246,1.292,1.292,0,0,0-.238.708,3.992,3.992,0,0,0,.229,1.057,3.749,3.749,0,0,1,.13.909,1.29,1.29,0,0,1-.238.728,4.22,4.22,0,0,0-.448.806c-.038.087-.071.147-.083.17h0a.316.316,0,0,0-.12.059.264.264,0,0,0-.1.189.4.4,0,0,0,.077.215,1.085,1.085,0,0,1,.25.508.387.387,0,0,1,0,.095c0,.161-.076.364-.088.609a.921.921,0,0,0,.55.862,2.233,2.233,0,0,1,1.219,1.3,6.048,6.048,0,0,0,1.241,1.652s.709.781,1.08,1.132a.694.694,0,0,0,.459.242.415.415,0,0,0,.354-.2,1.161,1.161,0,0,0,.136-.328c.018-.065.065-.112.244-.161a2.926,2.926,0,0,1,.71-.053c.409,0,.742.088,1.166.1a2.8,2.8,0,0,0,.448-.032,4.91,4.91,0,0,0,1.45-.637,2.34,2.34,0,0,1,.93-.353.52.52,0,0,1,.312.1,1.028,1.028,0,0,1,.371.557,2.106,2.106,0,0,0,.294.684.7.7,0,0,0,.548.26,1.509,1.509,0,0,0,.939-.42c.048-.039.088-.076.118-.1a2.048,2.048,0,0,0,.279.222c.27.175.373.326.361.409a.5.5,0,0,1-.177.294,1.432,1.432,0,0,0-.362.935,3.437,3.437,0,0,1-.167.936,2.02,2.02,0,0,0-.189.654.574.574,0,0,0,.135.4,1.7,1.7,0,0,0,.341.276,4.09,4.09,0,0,1,.736,1.135c.28.534.521,1.057.662,1.266a.7.7,0,0,1,.047.369c-.006.194-.035.435-.044.684a1.8,1.8,0,0,0,.12.823,2.853,2.853,0,0,1,.348.868.2.2,0,0,1-.083.15,2.745,2.745,0,0,0-1.1,1.937c-.009.091-.012.18-.015.264a4.314,4.314,0,0,0,.291,1.842c.155.34.538,1.267.747,1.639a4.7,4.7,0,0,1,.412,1.616c0,.08,0,.168,0,.26-.006.176-.026.363-.033.545a1.33,1.33,0,0,0,.138.762,6.132,6.132,0,0,0,.689,1.158,1.737,1.737,0,0,1,.315.676,3.381,3.381,0,0,1,.088.434l.009.042a1.774,1.774,0,0,1,.052.213,3.792,3.792,0,0,1,.073.611,2.72,2.72,0,0,0,.1.727,1.025,1.025,0,0,0,.465.57,1.375,1.375,0,0,0,.685.253h.011a.649.649,0,0,0,.5-.226.275.275,0,0,1,.117-.056,3.778,3.778,0,0,1,1.089-.1,3.857,3.857,0,0,1,.408.024c.047,0,.085,0,.129,0a3.084,3.084,0,0,0,1.781-.75,17.176,17.176,0,0,0,1.735-1.948c.133-.148.368-.376.574-.62a1.477,1.477,0,0,0,.418-.8.506.506,0,0,0-.008-.111,3.926,3.926,0,0,1-.092-.575c.012-.109.018-.125.1-.178.164-.091.459-.235.723-.4s.52-.312.6-.618a.371.371,0,0,0,.009-.089,9.415,9.415,0,0,0-.324-1.772c-.006-.006-.006-.012,0-.027a2.781,2.781,0,0,1,.559-.952,2.378,2.378,0,0,1,.785-.54c.164-.08.324-.155.456-.224a1.176,1.176,0,0,0,.342-.221,4.6,4.6,0,0,0,.83-1.765,2.637,2.637,0,0,0,.032-.324c.012-.418-.048-.838-.036-1.119a.669.669,0,0,1,.047-.253.861.861,0,0,0,.109-.385,1.281,1.281,0,0,0-.436-.889,1.582,1.582,0,0,1-.215-.834c-.015-.181-.02-.356-.03-.506a1,1,0,0,0-.08-.391.734.734,0,0,1-.02-.263,2.385,2.385,0,0,1,.083-.541.858.858,0,0,1,.073-.189.125.125,0,0,1,.021-.032.973.973,0,0,0,.318-.268c.3-.359.7-.991.957-1.3.179-.219.52-.667.873-1.066a2.758,2.758,0,0,1,.838-.742,1.981,1.981,0,0,0,.91-.6,1.835,1.835,0,0,0,.545-.909,6,6,0,0,1,.671-1.167c.167-.258.338-.512.47-.727a1.913,1.913,0,0,0,.265-.543c.014-.1.124-.416.227-.74a4.313,4.313,0,0,0,.229-.974.588.588,0,0,0-.08-.356.455.455,0,0,0-.383-.165,7.279,7.279,0,0,0-1.983.615,2.95,2.95,0,0,1-1.288.415c-.032,0-.065,0-.1-.006-.147-.015-.18-.05-.2-.075a.271.271,0,0,1-.035-.18c0-.126.041-.285.048-.445,0-.032,0-.06,0-.093a1.454,1.454,0,0,0-.117-.365.374.374,0,0,0,.07.045.722.722,0,0,0,.3.054,3.434,3.434,0,0,0,.924-.169,3.316,3.316,0,0,0,.709-.282,9.023,9.023,0,0,1,2.043-.928,1.293,1.293,0,0,0,.694-.3,1.459,1.459,0,0,1,.588-.287,3.991,3.991,0,0,0,1.674-1.124,7.727,7.727,0,0,0,1.219-1.782c.094-.218.454-.425.5-.863a.624.624,0,0,0-.073-.314,3.076,3.076,0,0,0-1.563-1.165c-.012,0-.015,0-.045-.036a1.636,1.636,0,0,1-.114-.3.635.635,0,0,0-.083-.2.328.328,0,0,0-.277-.156.39.39,0,0,0-.294.129c-.167.2-.176.336-.439.488a6.471,6.471,0,0,0-.6.421,1.148,1.148,0,0,1-.356.2c0-.018,0-.041,0-.061a.869.869,0,0,0-.3-.681,6.3,6.3,0,0,1-.456-.464.336.336,0,0,1-.083-.273.743.743,0,0,0-.176-.436c-.285-.371-.78-.856-.791-1.084,0-.015,0-.031,0-.046a.716.716,0,0,1,.189-.4.546.546,0,0,1,.251-.18l.012.02c.188.4.32,1.16.968,1.533a5.681,5.681,0,0,1,.723.506,3.073,3.073,0,0,0,.585.4.39.39,0,0,0,.144.027,1.439,1.439,0,0,0,.635-.263c.1-.06.189-.112.258-.15a.744.744,0,0,1,.089-.038,5.807,5.807,0,0,1,.354.506,1.646,1.646,0,0,0,.618.621,4.59,4.59,0,0,0,1.054.177c.4.033.773.048.892.048.044,0,.144,0,.268,0a3.755,3.755,0,0,0,.63-.04.849.849,0,0,0,.589-.312c.08-.132.126-.163.147-.169a.312.312,0,0,1,.135-.015,3.517,3.517,0,0,1,.311.447c.15.212.259.432.517.536.186.059.374.076.489.127s.15.074.155.3a.45.45,0,0,1,0,.057.953.953,0,0,0-.011.132,1.854,1.854,0,0,0,.167.86.792.792,0,0,0,.529.474.335.335,0,0,0,.067,0,1.312,1.312,0,0,0,.741-.407c-.015.387-.047.88-.08,1.112,0,.026-.006.053-.008.08a11.8,11.8,0,0,0,.4,2.085l.006.02s.579,1.533.744,1.9c.092.2.3.538.485.9a2.329,2.329,0,0,1,.321.848,3.776,3.776,0,0,0,.05.785,1.121,1.121,0,0,0,.121.35.4.4,0,0,0,.345.225.5.5,0,0,0,.38-.21c.242-.3.454-.826.682-1.171l.085-.141c-.045.093-.074.194-.117.309a3.536,3.536,0,0,0-.132.81,1.991,1.991,0,0,0,.058.6.632.632,0,0,0,.347.445.564.564,0,0,0,.217.042.742.742,0,0,0,.62-.409,1.434,1.434,0,0,0,.2-.653.575.575,0,0,0-.071-.333,3.622,3.622,0,0,1-.171-.544,1.412,1.412,0,0,0-.147-.348.442.442,0,0,0-.368-.227.451.451,0,0,0-.212.052h0a.572.572,0,0,0-.2.2,8.517,8.517,0,0,0,.5-1.545,8.834,8.834,0,0,0,.2-1.783c.006-.223.173-.455.765-.742.71-.358,1.165-1.212,1.654-1.607a4.332,4.332,0,0,0,.623-.791.847.847,0,0,1,.777-.333,4.373,4.373,0,0,0,.953-.037.852.852,0,0,0,.438-.324,1.482,1.482,0,0,1,.185-.18l.024-.017a.59.59,0,0,1,.047.154,2.948,2.948,0,0,0,.491.982c.2.3.423.564.464.631a2.166,2.166,0,0,1,.27,1.1,1.1,1.1,0,0,1-.011.118c-.012.1-.017.209-.021.315a3.155,3.155,0,0,0,.042.735,1.092,1.092,0,0,0,.1.288.365.365,0,0,0,.306.19.531.531,0,0,0,.37-.206,4.418,4.418,0,0,0,.494-.707,1.939,1.939,0,0,1,.177-.112.871.871,0,0,1,.318-.127.328.328,0,0,1,.009.1l0,.043c-.012.117-.02.237-.024.353-.027.7.042,1.4.023,1.79a2.276,2.276,0,0,0,.315.994c.051.1.108.2.162.285a.068.068,0,0,0-.032,0,.539.539,0,0,0-.406.318,1.236,1.236,0,0,0-.108.458,1.142,1.142,0,0,0,.132.6c.145.2.306.23.382.305s.2.2.28.622a10.878,10.878,0,0,0,.75,2.189,2.377,2.377,0,0,0,.579.661c.236.2.479.4.585.507a.493.493,0,0,0,.351.15.58.58,0,0,0,.571-.539.512.512,0,0,0-.062-.26,3.5,3.5,0,0,1-.494-1.018,4.607,4.607,0,0,0-.567-1.578c-.35-.641-.657-.812-.815-1.147a4.858,4.858,0,0,0-.682-.881.278.278,0,0,0,.2-.122.4.4,0,0,0,.039-.141,3.643,3.643,0,0,1,.192-.682,4.321,4.321,0,0,0,.215-.856c.094.071.233.185.391.32a2.927,2.927,0,0,1,.6.785,4.923,4.923,0,0,1,.232.483l.039.062s.13.144.27.323a2.147,2.147,0,0,1,.3.448.347.347,0,0,0,.342.239.993.993,0,0,0,.526-.194,1.125,1.125,0,0,0,.394-.415c.159-.3.145-.324.435-.417a3.967,3.967,0,0,0,.582-.162.944.944,0,0,0,.518-.633,4.863,4.863,0,0,0,.314-1.188,1.518,1.518,0,0,0-.261-.928,9.529,9.529,0,0,0-1.138-1.639,2.126,2.126,0,0,1-.412-.686c-.059-.138-.1-.267-.133-.353.233-.227.813-.8,1.041-1.048.055-.061.086-.067.118-.067a.2.2,0,0,1,.165.2.075.075,0,0,1,0,.026,1.174,1.174,0,0,1-.2.427,2.407,2.407,0,0,0-.33.889,1.651,1.651,0,0,0-.017.17.8.8,0,0,0,.7.92.457.457,0,0,0,.388-.187c.094-.121.255-.334.4-.539.067-.1.136-.2.186-.292a.672.672,0,0,0,.108-.282.317.317,0,0,0-.114-.251c-.124-.121-.168-.059-.208-.415l0-.039a.594.594,0,0,1,.192-.4.5.5,0,0,1,.267-.152.532.532,0,0,0,.3.07,5.65,5.65,0,0,0,2.219-.65c.745-.45,1.183-1.333,1.533-1.612.2-.168.629-.525,1.024-.921a2.363,2.363,0,0,0,.8-1.23.35.35,0,0,0,0-.079,5.74,5.74,0,0,0-.241-2.066,9.617,9.617,0,0,0-.868-1.406,3.765,3.765,0,0,1,.38-.164,2.192,2.192,0,0,0,.75-.437.833.833,0,0,0,.274-.541.611.611,0,0,0-.573-.636.483.483,0,0,0-.1.013,5.18,5.18,0,0,1-.833.148.271.271,0,0,1-.059,0c-.064.015-.224-.217-.574-.552-.05-.048-.05-.071-.05-.1a.3.3,0,0,1,.158-.213l.02-.009a.379.379,0,0,0,.068.006,1.266,1.266,0,0,0,.662-.339c.2-.155.389-.33.52-.452a2.179,2.179,0,0,0-.112.533.6.6,0,0,0,.048.291.366.366,0,0,0,.289.213.269.269,0,0,0,.065.006,1.839,1.839,0,0,0,.857-.391c.129-.091.253-.179.345-.241.009,0,.014-.007.023-.012a1.345,1.345,0,0,1,.086.492.4.4,0,0,1-.032.15,1.523,1.523,0,0,0-.132.556.877.877,0,0,0,.027.274.317.317,0,0,0,.3.229.416.416,0,0,0,.082-.009,1.282,1.282,0,0,0,.394-.253c.026-.022.055-.045.079-.065a.68.68,0,0,1,.212.462.621.621,0,0,1-.056.219c-.124.32-.383.483-.429.847a.615.615,0,0,0,.327.515.971.971,0,0,0,.542.2c.386-.013.574-.259.814-.389a2.112,2.112,0,0,0,.685-1.511.939.939,0,0,0-.094-.49c-.108-.185-.279-.446-.424-.689a2.525,2.525,0,0,1-.226-.457c.083-.042.274-.1.451-.174a.638.638,0,0,0,.438-.518.834.834,0,0,1,.514-.656,2.164,2.164,0,0,0,.506-.415c.058-.059.112-.112.156-.151a1.207,1.207,0,0,0,.3.173,1.607,1.607,0,0,0,.548.108.692.692,0,0,0,.566-.231,23.521,23.521,0,0,1,2.109-1.966,4.034,4.034,0,0,0,1.3-2.124c.061-.2.129-.388.191-.563,0,.07,0,.139,0,.209,0,.109-.014.223-.029.338-.017.156-.033.35-.042.559-.011.282-.014.586-.006.841,0,.126.009.241.02.335a.68.68,0,0,0,.064.251,1.158,1.158,0,0,0,.271.316.754.754,0,0,0,.477.215.507.507,0,0,0,.185-.035.46.46,0,0,0,.233-.436,3.83,3.83,0,0,0-.059-.649c-.035-.2-.068-.407-.065-.426a.173.173,0,0,1,.029-.059.779.779,0,0,1,.3-.281.332.332,0,0,0,.221-.213.675.675,0,0,0,.035-.207,2.54,2.54,0,0,0-.276-1.163,2.592,2.592,0,0,0-.271-.375l-.008-.012a1.133,1.133,0,0,0,.153-.168.828.828,0,0,0,.153-.389.339.339,0,0,0-.1-.263c-.009-.019-.02-.083-.044-.16a.363.363,0,0,0-.353-.268.489.489,0,0,0-.173.031c-.021.012-.242.011-.45.038a.857.857,0,0,0-.238.077.823.823,0,0,0-.7-.436.7.7,0,0,0-.1.007c-.48.077-.7.3-.965.3a.426.426,0,0,1,0-.088c0-.079.017-.175.02-.267a.424.424,0,0,0-.02-.172.272.272,0,0,0-.256-.18.487.487,0,0,0-.279.114c-.091.071-.179.154-.255.216a.516.516,0,0,1-.07.05.274.274,0,0,1,.064-.088,3.443,3.443,0,0,1,1.121-.62,5.107,5.107,0,0,0,1.306-1.009c.211-.2.42-.4.591-.532a1.2,1.2,0,0,1,.32-.211,1.8,1.8,0,0,1,.2-.008c.413,0,1.129.072,1.847.072.147,0,.292-.006.441-.012a6.659,6.659,0,0,0,1.385-.33c.026,0,.021,0,.056.022a2.564,2.564,0,0,0,1.4.562c.039,0,.079,0,.121-.007a.914.914,0,0,0,.448-.124c.124-.082.218-.183.538-.434a11.077,11.077,0,0,0,1.592-1.2,1.278,1.278,0,0,1,.765-.4.181.181,0,0,1,.032,0c0,.064,0,.131,0,.2l-.006.157a.9.9,0,0,0,.044.385.428.428,0,0,0,.42.251.759.759,0,0,0,.088-.007c-.159.114-.285.21-.37.262a7.85,7.85,0,0,1-.954.42,2.674,2.674,0,0,0-1.1.747c-.411.532-.747.816-.773,1.454,0,.05-.006.1,0,.15.035.632.5,1.294.465,1.737a.537.537,0,0,1-.079.263,5.358,5.358,0,0,0-.577,1.533.208.208,0,0,0,.145.241.235.235,0,0,0,.279-.1,5.8,5.8,0,0,1,.365-.475,5.29,5.29,0,0,1,.916-.875,8.685,8.685,0,0,0,1.569-1.646,1.753,1.753,0,0,1,.554-.274,1.861,1.861,0,0,0,.367-.184.526.526,0,0,0,.233-.392,5.034,5.034,0,0,1,.391-1.15.645.645,0,0,0,.05-.218.544.544,0,0,0-.08-.3c-.029-.055-.027-.049-.029-.068m-64.075-4.163a3.54,3.54,0,0,0,1.139-.21.807.807,0,0,0-.1.433c0,.039,0,.081,0,.121,0,.061-.009.119-.014.151a1.117,1.117,0,0,1-.262.078.567.567,0,0,1-.332-.156.9.9,0,0,0-.515-.237.388.388,0,0,0-.276.118.783.783,0,0,0-.076.079,1.406,1.406,0,0,1-.407.207v-.006c0-.1,0-.17,0-.241v-.053a.806.806,0,0,0-.079-.449,2.673,2.673,0,0,0,.924.167m-3.252,2.632c.05-.112.055-.095.139-.11a.767.767,0,0,1,.42.185.824.824,0,0,1,.159.168.313.313,0,0,1,.039.083l-.014.006a.328.328,0,0,1-.118.019.95.95,0,0,1-.448-.132c-.138-.079-.189-.174-.18-.2l0-.015-.206-.067Zm-1.542,10.156a4.427,4.427,0,0,0,.906-1.255c.2-.343.367-.38.486-.385a.4.4,0,0,1,.064,0,2.369,2.369,0,0,1,.32.476c.13.241.255.509.3.632a.365.365,0,0,0,.344.244.908.908,0,0,0,.436-.161c.111-.074.218-.153.255-.173a1.366,1.366,0,0,0,.6-.792c0-.019.035-.074.161-.126a.99.99,0,0,1,.27-.071.455.455,0,0,1-.121.054.565.565,0,0,0-.194.1.325.325,0,0,0-.117.227.431.431,0,0,0,.218.35,2.209,2.209,0,0,0,.427.219,12.575,12.575,0,0,1,1.445,1.07.762.762,0,0,1,.37.618c-.011.11-.038.124-.047.127a7.11,7.11,0,0,1-1.406.146,1.584,1.584,0,0,1-.238-.013c-.25-.009-.733-.463-1.359-.592a3.358,3.358,0,0,0-.533-.05,1.333,1.333,0,0,0-1.147.444c-.021.06-.214.129-.479.123-.223,0-.459-.033-.642-.033a1.112,1.112,0,0,0-.55.2,2.758,2.758,0,0,0,.052-.37.5.5,0,0,0-.185-.476,1.186,1.186,0,0,1,.362-.541m-3.205-11.6a1.349,1.349,0,0,0,.406-.848,1.083,1.083,0,0,0-.021-.246c.033,0,.077-.008.133-.011.3-.019.606-.039.851-.041.129,0,.245.008.324.015a3.927,3.927,0,0,1-.564.446,10.482,10.482,0,0,1-.982.6.97.97,0,0,0-.168.108l.02-.026m-5.768,3.245a.8.8,0,0,1,.191-.291c.041-.039.077-.077.112-.106a3.665,3.665,0,0,0,.185.645,2.058,2.058,0,0,1,.142.566l0,.031a.916.916,0,0,0-.052.267.614.614,0,0,0,.092.361.435.435,0,0,0,.368.189.492.492,0,0,0,.1-.009c.324-.054,1.877-.445,1.88-.445l.045-.014a1.014,1.014,0,0,0,.579-.748.713.713,0,0,0-.011-.127.219.219,0,0,0,0-.034.932.932,0,0,1,.264-.458c.151-.177.314-.319.394-.411a1.387,1.387,0,0,0,.383-.753.531.531,0,0,0-.388-.525c-.183-.066-.344-.115-.438-.159a.2.2,0,0,1-.067-.043.182.182,0,0,1,.029-.057,1.846,1.846,0,0,1,.2-.222.971.971,0,0,1,.685-.271,1.48,1.48,0,0,0,.851-.4.884.884,0,0,0-.177.515,1.017,1.017,0,0,0,.18.617,3.954,3.954,0,0,1,.214.513,1.15,1.15,0,0,0,.168.3.466.466,0,0,0,.488.158,6.241,6.241,0,0,1,1.138-.4.311.311,0,0,1,.056,0,2.59,2.59,0,0,0,.321.015c.392,0,.9-.052,1.053-.062a1.017,1.017,0,0,1,.177.2.926.926,0,0,1,.1.18c-.27.058-.685.029-1.359.073-.354.026-.73.04-1.032.064a2.9,2.9,0,0,0-.389.056.535.535,0,0,0-.165.064.285.285,0,0,0-.147.231.271.271,0,0,0,.082.2,2.541,2.541,0,0,0,.415.293c.053.037.1.075.138.106a.247.247,0,0,1-.1.018c-.15.012-.411-.144-.767-.194-.023,0-.05,0-.071,0a.854.854,0,0,0-.686.484,3.5,3.5,0,0,0-.323.7,1.054,1.054,0,0,0-.056.318c0,.132,0,.253,0,.342a.655.655,0,0,1,0,.068.462.462,0,0,1-.092-.03,2.827,2.827,0,0,0-1.013-.223.878.878,0,0,0-.438.092,9.443,9.443,0,0,1-1.066.423.228.228,0,0,1-.083.021.761.761,0,0,0-.586-.278h-.039c-.545,0-.545,0-.545,0h-.032l-.238.035a.767.767,0,0,1-.212-.433c0-.028,0-.058,0-.088.006-.191.07-.408.082-.612a.407.407,0,0,0-.2-.4.692.692,0,0,0-.289-.052,1.846,1.846,0,0,0-.367.045.507.507,0,0,0,.33-.357m3.913,10.063a10.521,10.521,0,0,0-1.1-.81,2.111,2.111,0,0,1-.957-.839,1.844,1.844,0,0,0-.548-.6c-.176-.144-.242-.223-.236-.34l0-.024a.165.165,0,0,1,.012-.063l.012,0a1.078,1.078,0,0,1,.539.38c.359.432,1.182.978,1.418,1.278.351.4.75.543.809.854a.982.982,0,0,0,.05.167m-8.382-5.685v0c-.047.094-.048.107-.155.13-.027,0-.059.007-.088.014a1.135,1.135,0,0,0,.244-.149m14.63,30.009a1.484,1.484,0,0,1-.247.314.5.5,0,0,1-.1.072h-.009a.292.292,0,0,1-.044-.118,1.2,1.2,0,0,1-.023-.344,2.143,2.143,0,0,1,.127-.691.124.124,0,0,1,.021-.018.8.8,0,0,1,.37-.086h.015a.488.488,0,0,1,.161.023l.015.007a.249.249,0,0,1,.008.079,1.782,1.782,0,0,1-.3.76m.87-19c-.029.048-.035.05-.035.05a.236.236,0,0,1-.1.013,1.866,1.866,0,0,0-.426.03.682.682,0,0,0-.556-.345.528.528,0,0,0-.171.027c-.241.069-.567.1-.894.221a.365.365,0,0,0,.011-.07.308.308,0,0,0-.039-.167.636.636,0,0,0-.453-.234,3.269,3.269,0,0,0-.559-.039c-.323,0-.659.016-.892.016-.438.01-.859-.358-1.359-.493a.733.733,0,0,0-.144-.017,1.336,1.336,0,0,0-.81.377,6.988,6.988,0,0,0-.686.686c-.161.173-.233.184-.312.185-.12.011-.309-.108-.612-.122a1.323,1.323,0,0,1-.545-.278c-.208-.153-.373-.306-.373-.3l-.05-.035s-.183-.089-.4-.181a2.126,2.126,0,0,0-.686-.19.421.421,0,0,1-.145-.069,5.206,5.206,0,0,1-.423-.321c-.068-.059-.139-.112-.2-.158a.513.513,0,0,0-.235-.093.527.527,0,0,1-.132-.11.264.264,0,0,1-.067-.123l.009-.006a.708.708,0,0,1,.248-.049.41.41,0,0,0,.236-.107.427.427,0,0,0,.114-.287,2.819,2.819,0,0,0-.126-.684c-.179-.708-.641-.987-1.042-.976a1.439,1.439,0,0,0-.617.153l-.044.014a10.233,10.233,0,0,1-1.515.063c-.444,0-.815-.009-.888-.009a1.325,1.325,0,0,0-.368.09,14.414,14.414,0,0,0-1.509.614c-.356.179-.982.4-1.215.526l-.032,0c-.138,0-.483-.07-.812-.074.044-.087.085-.177.132-.264a1.336,1.336,0,0,1,.074-.127.71.71,0,0,0,.259.044,7.42,7.42,0,0,0,.894-.147,1.119,1.119,0,0,0,.627-.386,2.518,2.518,0,0,1,.45-.426,1.3,1.3,0,0,0,.211-.161.361.361,0,0,0,.117-.239.414.414,0,0,0-.089-.244.942.942,0,0,1-.088-.154.017.017,0,0,1,0-.017.646.646,0,0,1,.2-.28c.133-.138.315-.294.465-.459.076-.091.2-.111.4-.128a.978.978,0,0,0,.329-.069.528.528,0,0,0,.291-.32c.074-.211.121-.466.189-.656a.773.773,0,0,1,.094-.2.021.021,0,0,1,.015-.013,7.946,7.946,0,0,0,1.1.3,1.558,1.558,0,0,0,.726-.319c.224-.15.444-.318.5-.344v0a.4.4,0,0,1,.1-.015.642.642,0,0,1,.291.073.247.247,0,0,1,.144.188,1.556,1.556,0,0,0,.483.782,3.022,3.022,0,0,0,.538.442c.123.074.415.188.729.318.151.065.3.13.426.188a.949.949,0,0,1,.613.98c.045.239.168.455.435.471a.459.459,0,0,0,.42-.438c0-.041,0-.077.008-.114.006-.224-.041-.474-.041-.621h.05a1.678,1.678,0,0,0,.6-.123.231.231,0,0,0,.133-.17v-.01a7.024,7.024,0,0,0,.483.835c.038.057.171.389.292.71s.247.65.315.8a.375.375,0,0,0,.348.212,1.362,1.362,0,0,0,.768-.4c.067-.067.214-.141.37-.254a.844.844,0,0,0,.354-.562c0-.026,0-.047,0-.067a.861.861,0,0,0-.324-.643,2.9,2.9,0,0,0-.239-.2c.033-.02.074-.038.111-.056a1.584,1.584,0,0,0,.385-.231,1.589,1.589,0,0,1,.418-.3l0,0a2.9,2.9,0,0,1,.061.774c0,.174-.006.35-.006.5a1.225,1.225,0,0,0,.041.373.622.622,0,0,0,.258.265c.151.1.344.194.514.291a1.1,1.1,0,0,1,.315.225,1.18,1.18,0,0,0,.915.365.619.619,0,0,0,.4-.115h.023a3.661,3.661,0,0,1,.741.186.4.4,0,0,0,.151.021,4.756,4.756,0,0,0,.994-.21c.141-.046.277-.1.354-.13,0,.018,0,.041,0,.07s0,.054,0,.089a4.012,4.012,0,0,1-.613,1.985,2.446,2.446,0,0,0-.388.6m3.925,10.022c-.108-.126-.135-.211-.3-.283h0a1.645,1.645,0,0,1-.341-.381,2.7,2.7,0,0,1-.368-.72,7.148,7.148,0,0,0-.807-1.833,21.086,21.086,0,0,1-.783-2.134c-.3-.673-.567-1.556-.844-2.215a2.176,2.176,0,0,0-.108-.23,1.967,1.967,0,0,1,.473-.1.141.141,0,0,1,.036,0,13.877,13.877,0,0,1,.568,1.583.736.736,0,0,0,.388.588c.133.1.144.068.165.234a5.388,5.388,0,0,0,.239,1.1c.062.192.129.374.188.522a1.119,1.119,0,0,0,.208.352c.065.059.294.3.506.542a3.276,3.276,0,0,1,.45.616,5.316,5.316,0,0,1,.354,1.379c.048.366.1.8.177,1.177.012.052.026.1.041.158-.082-.13-.162-.253-.239-.356m4.611-17.127a.3.3,0,0,0,.256.149c.1,0,.142-.023.164-.02s.014,0,.033.015c.185.139.258.4.429.725a.707.707,0,0,0,.429.34.723.723,0,0,1,.224.106c-.033.036-.092.1-.154.164a.64.64,0,0,0-.224.411.409.409,0,0,0,.147.321,1.88,1.88,0,0,1,.291.778c.067.333.1.668.121.831a.978.978,0,0,1-.323.125,2.5,2.5,0,0,1-.548.07.905.905,0,0,1-.106-.008c-.233-.037-1.112-.382-1.421-.488a1.287,1.287,0,0,1-.139-.659.677.677,0,0,1,.032-.2c.035,0,.07,0,.1.006a.762.762,0,0,0,.5-.18c.135-.109.262-.249.453-.437a.521.521,0,0,0,.17-.347.459.459,0,0,0-.2-.377,3.165,3.165,0,0,0-.956-.374l-.006-.007a2.57,2.57,0,0,1-.474-.639c-.182-.3-.351-.626-.448-.794a.4.4,0,0,1-.05-.223,1.114,1.114,0,0,1,.506-.779l0,0s.021,0,.044,0c.15-.008.471.124.8.13a.7.7,0,0,0,.414-.12c.333-.231.66-.506.8-.619a1.455,1.455,0,0,1,.462.123.691.691,0,0,1,.318.212,2.472,2.472,0,0,0,.3.477,1.978,1.978,0,0,1,.129.188l0,.014a1.5,1.5,0,0,1-.467.083.463.463,0,0,1-.336-.1.527.527,0,0,0-.41-.187,1,1,0,0,0-.9.9,1.1,1.1,0,0,0-.011.133.477.477,0,0,0,.042.256m14.636-14.414a.892.892,0,0,1-.362.082c-.2,0-.3-.08-.309-.141a.492.492,0,0,0-.421-.388.62.62,0,0,1,.106-.038,3.455,3.455,0,0,1,.721-.154.225.225,0,0,1,.109.018c0,.006,0-.011.009.042a1.079,1.079,0,0,0,.136.445c.021.046.042.083.055.109a.241.241,0,0,1-.044.024m2.757-1.09-.008.007a.142.142,0,0,1-.092.03c-.05-.012-.1.008-.133-.222a.923.923,0,0,0-.155-.564.773.773,0,0,0-.235-.178c.133.065.255.125.35.177a1.228,1.228,0,0,1,.129.082l.027.024h0a1.255,1.255,0,0,1,.132.547.369.369,0,0,1-.015.1m-37.9,16.738a.64.64,0,0,0-.526.312,1.12,1.12,0,0,0-.173.55.646.646,0,0,0,.618.7.77.77,0,0,0,.6-.4l-.186-.112.186.111a.659.659,0,0,0,.1-.335.889.889,0,0,0-.18-.549.594.594,0,0,0-.445-.277m-16.487-18.1c.041,0,.086-.008.135-.008.215,0,.47.046.707.047a.754.754,0,0,0,.385-.091.485.485,0,0,0,.214-.4.108.108,0,0,0,0-.032l-.217.006.217-.012c0-.107,0-.217,0-.324a2.359,2.359,0,0,1,.17-.935,1.533,1.533,0,0,1,.2-.267.592.592,0,0,0,.192-.349.28.28,0,0,0-.153-.259.476.476,0,0,0-.242-.055h-.076c-.052,0-.05,0-.061-.006a.458.458,0,0,1-.094-.179.651.651,0,0,1-.03-.2.968.968,0,0,1,.361-.616c.123-.116.438-.473.81-.837a3.761,3.761,0,0,1,1-.787,1.379,1.379,0,0,0,.932-1.069.457.457,0,0,0-.286-.448,2.831,2.831,0,0,0-1.042-.238,1.339,1.339,0,0,0-.941.366c-.247.235-.441.458-.613.6a.619.619,0,0,1-.639.2c-.2-.049-.335-.233-.462-.512a4.844,4.844,0,0,0-.415-.875,2.167,2.167,0,0,1-.268-1.042,2.243,2.243,0,0,0-.091-.529.439.439,0,0,0-.417-.336.354.354,0,0,0-.1.011c-.306.061-.433.083-.489.095a3.536,3.536,0,0,0-.653-.06,1.605,1.605,0,0,0-.4.045,2.539,2.539,0,0,0-.5.2.261.261,0,0,0,.014-.079.363.363,0,0,0-.209-.318.754.754,0,0,0-.283-.1c-.6-.073-1.557-.377-2.357-.42-.052,0-.1,0-.148,0-.582.011-.96.2-1.46.214a4.376,4.376,0,0,0-2.4.468,2.348,2.348,0,0,1-.745.335c-.112.031-.217.055-.3.08a.809.809,0,0,0-.117.032.319.319,0,0,0-.15.1,4.989,4.989,0,0,0-.429.738,2.144,2.144,0,0,1-.179.286l0,0a1.885,1.885,0,0,1-.164-.319,1.17,1.17,0,0,0-.136-.235.394.394,0,0,0-.306-.153.492.492,0,0,0-.279.1.938.938,0,0,0-.294.8v.027a1.1,1.1,0,0,1-.129.6.806.806,0,0,1-.66.254.94.94,0,0,1-.442-.083,1.755,1.755,0,0,0-1.136-.27c-.141,0-.3.006-.483.021a5.089,5.089,0,0,0-1.354.281,2.091,2.091,0,0,0-.5.256.574.574,0,0,0-.264.427.366.366,0,0,0,.05.211.086.086,0,0,1,.012.047c0,.008,0,.029-.061.066a.377.377,0,0,1-.192.06.294.294,0,0,1-.048,0,.365.365,0,0,0-.288-.11,1.213,1.213,0,0,0-.632.24.86.86,0,0,0-.392.606.268.268,0,0,0,.006.067c0,.027,0,.063,0,.095a.676.676,0,0,1-.086.321c-.053.072-.085.093-.156.1a.368.368,0,0,1-.064-.006.773.773,0,0,0-.194-.024.866.866,0,0,0-.835.769,1.105,1.105,0,0,1-.415.233c-.111.039-.218.073-.3.1-.045.009-.082.018-.108.025l-.021,0H169.6a3.986,3.986,0,0,0-.551.036,1.188,1.188,0,0,0-.3.08.357.357,0,0,0-.229.308.394.394,0,0,0,.159.309.787.787,0,0,0,.583.21.573.573,0,0,1,.074,0,.992.992,0,0,1,.265.028c.074.008.236.173.365.368.147.2.224.4.433.518a.61.61,0,0,0,.261.059.764.764,0,0,0,.617-.336,1.582,1.582,0,0,0,.108-.208.537.537,0,0,0,.223.191.833.833,0,0,0,.344.058c.353,0,.8-.116.935-.112h.012c.1.013.435.068.785.144a3.591,3.591,0,0,1,.818.24,6.411,6.411,0,0,0,.729.3.987.987,0,0,1,.515.356,4.023,4.023,0,0,1,.164,1.041c.02.217.032.426.055.6a.942.942,0,0,0,.1.428.276.276,0,0,0,.217.108.443.443,0,0,0,.077-.014,1.324,1.324,0,0,0-.073.38.953.953,0,0,0,.088.451.406.406,0,0,0,.347.258,2.2,2.2,0,0,1,.274.008c-.041.053-.091.118-.136.185a.838.838,0,0,0-.2.447.429.429,0,0,0,0,.05,5.336,5.336,0,0,0,.438,1.245.961.961,0,0,0,.459.312l.052.02a.423.423,0,0,0-.03.13.368.368,0,0,0,.042.176c.05.091.127.291.226.486a1.1,1.1,0,0,0,.435.506,3.894,3.894,0,0,1,.58.409,1.879,1.879,0,0,1,.429.444.333.333,0,0,0,.323.217,1.116,1.116,0,0,0,.5-.172c.039-.019.074-.04.108-.058.017.066.036.144.062.224a.54.54,0,0,0,.441.409c.048,0,.092.006.138.006h.017a1.13,1.13,0,0,0,.8-.422,1.5,1.5,0,0,0,.351-1.106c.011-.1.02-.2.029-.245l.027.006a.751.751,0,0,0,.233.036.517.517,0,0,0,.4-.171.626.626,0,0,0,.141-.4v-.07c-.014-.221-.086-.412-.077-.5a.132.132,0,0,1,.008-.043.29.29,0,0,1,.139-.05,1.984,1.984,0,0,0,.73-.33c.183-.124.309-.194.373-.186.185,0,.66.071,1.009.07a1.257,1.257,0,0,0,.251-.023.387.387,0,0,0,.254-.151c.056-.089.189-.308.342-.509a2.108,2.108,0,0,1,.224-.257.434.434,0,0,1,.083-.065.047.047,0,0,1,.024-.012v0c.273-.034,1.007-.1,1.678-.235a4.766,4.766,0,0,0,.988-.361,3.323,3.323,0,0,1,.542-.227h0a2.58,2.58,0,0,0,.28.016,1.474,1.474,0,0,0,.315-.031.467.467,0,0,0,.164-.067.288.288,0,0,0,.133-.231.3.3,0,0,0-.048-.163.71.71,0,0,0,.13.01.9.9,0,0,0,.232-.032.728.728,0,0,0,.585-.694.661.661,0,0,0-.1-.394,6.1,6.1,0,0,1-.23-.639.3.3,0,0,1-.026-.117.11.11,0,0,1,.039-.08.536.536,0,0,1,.279-.092m-13.882.963a.506.506,0,0,0-.139-.015.48.48,0,0,0-.159.019c.027-.044.051-.077.068-.1a.179.179,0,0,1,.055-.006.657.657,0,0,1,.347.1Zm.7.907a1.734,1.734,0,0,1-.045.216c-.035-.018-.064-.029-.088-.04a1.773,1.773,0,0,0,.089-.329.358.358,0,0,1,.044.148Zm11.346-.594a.692.692,0,0,1,.08-.225c.011-.021.021-.037.03-.054a.705.705,0,0,1,.159.051c.1.05.127.1.123.121v.017a.372.372,0,0,0,0,.068,1.066,1.066,0,0,0,.008.17.836.836,0,0,0-.4-.148m5.8,4.083a1.222,1.222,0,0,1,.356-.1c.174-.025.33-.033.33-.033a.217.217,0,0,0,.138-.058,3.053,3.053,0,0,0,.25-.251,1.032,1.032,0,0,0,.283-.564.356.356,0,0,0-.1-.273,2.123,2.123,0,0,0-1.106-.486.385.385,0,0,0-.071-.008c-.383.029-.554.241-1.015.236-.409,0-.729.124-.866.118-.07,0-.067,0-.1-.038a1.634,1.634,0,0,0-1.107-.373.907.907,0,0,0-.226.024.352.352,0,0,0-.236.167.658.658,0,0,1-.112.143.514.514,0,0,0-.129.324.943.943,0,0,0,.1.407,3.489,3.489,0,0,0,.286.539.544.544,0,0,0,.429.264l.064,0a2.1,2.1,0,0,1,.28-.023,1.4,1.4,0,0,1,.33.035.456.456,0,0,1,.085.036l.006,0a.667.667,0,0,0,.656.52h.011a1.083,1.083,0,0,0,.364-.068c.232-.079.451-.144.636-.219a.962.962,0,0,0,.464-.325m32.043,44.458a.884.884,0,0,0-.462-.642l-.08.2.08-.2a.676.676,0,0,0-.208-.041.592.592,0,0,0-.429.183c-.283.3-.4.776-.674,1.091a6.536,6.536,0,0,1-.592.624,1.757,1.757,0,0,1-.227.174.352.352,0,0,1-.067.035.222.222,0,0,0-.059-.006,1.211,1.211,0,0,0-.635.242.931.931,0,0,0-.391,1.121,2.464,2.464,0,0,1,.154.906,1.1,1.1,0,0,1-.221.688.669.669,0,0,0-.156.438c-.006.476.233,1.086.214,1.44,0,.035-.006.065-.009.094a1.359,1.359,0,0,0-.032.246.842.842,0,0,0,.221.643.982.982,0,0,0,.7.25h.018a1.15,1.15,0,0,0,.8-.242,2,2,0,0,0,.485-.754c.291-.671.357-1.31.612-1.792a7.206,7.206,0,0,0,.4-1.1c.112-.382.215-.749.268-.853a5.732,5.732,0,0,0,.43-1.716c0-.049,0-.1,0-.144a3.839,3.839,0,0,0-.139-.88m35.017-.911.024,0a.541.541,0,0,0,.526-.483c0-.026,0-.044,0-.067a.572.572,0,0,0-.165-.436.581.581,0,0,0-.4-.158.588.588,0,0,0-.585.431.681.681,0,0,0-.015.124.589.589,0,0,0,.606.586m-95.426-18.83a.873.873,0,0,0-.289-.552.884.884,0,0,0-.589-.315.475.475,0,0,0-.079,0h-.011a1.127,1.127,0,0,1-.462-.2,2.819,2.819,0,0,1-.524-.424,1.847,1.847,0,0,0-1.312-.414,3.747,3.747,0,0,0-.763.176c-.279.083-.526.166-.526.166a.217.217,0,0,0-.147.181.637.637,0,0,0-.006.079.477.477,0,0,0,.176.416.654.654,0,0,0,.38.094c.155,0,.323-.019.491-.018.226,0,.509-.013.765-.012a2.733,2.733,0,0,1,.417.03.536.536,0,0,1,.115.033l.02.012a2.251,2.251,0,0,0,.571.486,5.16,5.16,0,0,1,.52.373,1.1,1.1,0,0,0,.712.233.9.9,0,0,0,.286-.041.368.368,0,0,0,.247-.245l-.208-.049.208.047a.272.272,0,0,0,.009-.068m-1.471,1.1h0a.579.579,0,0,0-.414.585.722.722,0,0,0,.094.4.453.453,0,0,0,.383.234h.006a.531.531,0,0,0,.171-.029.573.573,0,0,0,.4-.543.6.6,0,0,0-.533-.658.446.446,0,0,0-.108.014m.574-3.51a.513.513,0,0,0-.545-.484.285.285,0,0,0-.089.007.466.466,0,0,0-.423.44.436.436,0,0,0,.126.327.511.511,0,0,0,.358.146h0a.786.786,0,0,0,.144-.015l-.033-.208.038.208a.477.477,0,0,0,.421-.42m93.752,20.238a.363.363,0,0,0,.2-.252l-.223-.035.224.029c0-.018.008-.042.009-.064a.933.933,0,0,0-.314-.627.949.949,0,0,0-.573-.313,5.1,5.1,0,0,1-.667-.153c-.294-.076-.559-.152-.559-.152a.225.225,0,0,0-.168.012c-.112.063-.27.1-.426.19-.012-.012-.03-.023-.044-.035a1.6,1.6,0,0,0-.823-.209.761.761,0,0,1-.224-.035.1.1,0,0,1-.07-.068.608.608,0,0,0-.532-.462.534.534,0,0,0-.121.015,2.73,2.73,0,0,1,.309-1.238.841.841,0,0,0,.177-.482.578.578,0,0,0-.1-.368.494.494,0,0,0-.473-.191h0a.218.218,0,0,1-.1-.059c-.194-.159-.465-.638-.891-1a7.568,7.568,0,0,1-1.419-1.372,13.141,13.141,0,0,0-1.471-1.426,1.753,1.753,0,0,0-1.127-.534.6.6,0,0,0-.147.015.376.376,0,0,0-.315.341.77.77,0,0,0,.173.438,4.95,4.95,0,0,0,.515.582c.168.169.332.323.344.34.076.093.373.4.662.771a2.093,2.093,0,0,1,.509.938,3.15,3.15,0,0,0,.391,1.251,4.387,4.387,0,0,0,.583.953c.126.123.43.351.735.613a2.663,2.663,0,0,1,.63.671.683.683,0,0,0,.494.466.959.959,0,0,0,.389.728,1.823,1.823,0,0,0,.933.223,2.2,2.2,0,0,0,.267-.015,2.919,2.919,0,0,0,.459-.077,1.3,1.3,0,0,0,.155-.05l.023.023a1.332,1.332,0,0,0,1.042.538c.067,0,.132,0,.2-.009.032,0,.062,0,.091,0,.294,0,.692.132,1.006.139a.563.563,0,0,0,.262-.048m7.1-6.531a2.657,2.657,0,0,0-.6,1.426.737.737,0,0,0,.05.33.417.417,0,0,0,.273.25.4.4,0,0,0,.127.02c.4-.032.551-.356.7-.662a2.967,2.967,0,0,0,.247-1,1.158,1.158,0,0,0-.02-.285.4.4,0,0,0-.189-.262.37.37,0,0,0-.164-.042.6.6,0,0,0-.429.229m6.509-21.615c-.144.3-.277.589-.388.792a1.208,1.208,0,0,1-.142.217l-.012.015a1.2,1.2,0,0,0-.279.076,3.808,3.808,0,0,0-1.232.69.413.413,0,0,1-.135.016c-.294,0-.812-.159-1.179-.165a.483.483,0,0,0-.411.166,5.882,5.882,0,0,1-.741.708,1.379,1.379,0,0,1-.351.109.584.584,0,0,0-.465.546,1.031,1.031,0,0,0,.014.2,2.956,2.956,0,0,0,.289.864c.136.229.273.442.579.464a.838.838,0,0,0,.58-.23,1.034,1.034,0,0,0,.3-.734v-.019a1.625,1.625,0,0,1,.2.076,1.246,1.246,0,0,0,.439.117l.076,0a.959.959,0,0,0,.667-.558.619.619,0,0,0,.218.1.952.952,0,0,0,.28.044.741.741,0,0,0,.571-.25.75.75,0,0,0,.158-.315,4.791,4.791,0,0,1,.474-.192,2.67,2.67,0,0,0,.621-.276,4,4,0,0,1,.477-.252,3.1,3.1,0,0,0,.311-.179.572.572,0,0,0,.236-.288c.036-.162.044-.473.082-.8a2.71,2.71,0,0,1,.068-.418.646.646,0,0,1,.035-.1,1.392,1.392,0,0,0,.221-.1.48.48,0,0,0,.229-.4,1.309,1.309,0,0,0-.158-.585,7.614,7.614,0,0,1-.271-.769c-.021-.062-.042-.119-.068-.177a3.524,3.524,0,0,1,.545-.1,5.552,5.552,0,0,0,1.216-.247h.029a1.727,1.727,0,0,0,.515-.065.591.591,0,0,0,.479-.512.574.574,0,0,0-.012-.146.846.846,0,0,0-.588-.569,2.164,2.164,0,0,0-.709-.12,1.023,1.023,0,0,0-.174.009c-.041-.036-.129-.124-.22-.214a.788.788,0,0,0-.52-.246.44.44,0,0,0-.147.019.841.841,0,0,0-.506.48,1.5,1.5,0,0,0-.127.391c-.083.046-.268.13-.436.219-.208.124-.47.236-.515.566a.422.422,0,0,0,.127.312.829.829,0,0,0,.171.146,1.419,1.419,0,0,0-.224.751,3.111,3.111,0,0,1-.2.925m-13.98,20.267a2.3,2.3,0,0,0-.186.329c-.021.046-.042.08-.056.1a.055.055,0,0,1-.015.023,1.528,1.528,0,0,1-.617.244,1.025,1.025,0,0,0-.648.73c-.041-.029-.1-.064-.142-.1a.934.934,0,0,0-.461-.2.342.342,0,0,0-.267.114.764.764,0,0,0-.147.5,4.954,4.954,0,0,0,.282,1.655,2.556,2.556,0,0,0,.7,1.039,1.409,1.409,0,0,0,.751.412,3.169,3.169,0,0,1,.88.1,2.477,2.477,0,0,0,.7.1,1.417,1.417,0,0,0,.527-.073.507.507,0,0,0,.35-.439.33.33,0,0,1,0-.038c-.009-.176-.02-.366-.012-.556a1.243,1.243,0,0,1,.314-.874c.174-.174.362-.321.521-.5a1.046,1.046,0,0,0,.3-.673,1.147,1.147,0,0,0-.051-.386,8.955,8.955,0,0,1-.4-1.044c0-.038,0-.043.041-.083a3.993,3.993,0,0,1,.433-.32.629.629,0,0,0,.317-.474.255.255,0,0,0-.05-.175.273.273,0,0,0-.2-.094.612.612,0,0,0-.229.063.419.419,0,0,1-.12.03l-.009,0c-.015,0-.02,0-.068-.072a1.769,1.769,0,0,1-.108-.715.328.328,0,0,0-.335-.341,1.081,1.081,0,0,0-.876.76.337.337,0,0,0-.008.068.862.862,0,0,0,.064.329l.018.049a1.232,1.232,0,0,1-.214.007,1.115,1.115,0,0,0-.977.487m3.858-11.661a2.135,2.135,0,0,0-.279.888.774.774,0,0,0,.065.36.4.4,0,0,0,.347.22h.055c.364-.059.547-.341.729-.635a2.233,2.233,0,0,0,.3-.935.628.628,0,0,0-.059-.324.382.382,0,0,0-.338-.2c-.029,0-.059.005-.091.008a1.182,1.182,0,0,0-.73.616m-.759,4.975a.981.981,0,0,0,.077.394,2.428,2.428,0,0,0,.6.786c.109.105.2.2.264.267.021.026.036.053.05.066-.229.237-.874.694-1.027,1.252,0,.021-.008.047-.009.08a.254.254,0,0,0,.256.281h0a.738.738,0,0,0,.412-.187,6.877,6.877,0,0,0,1.144-1.148.556.556,0,0,1,.433-.2,3.058,3.058,0,0,0,.309-.04.492.492,0,0,0,.338-.222l.139-.249a.2.2,0,0,0,.008-.194.208.208,0,0,0-.15-.122,6.56,6.56,0,0,1-.826-.244.621.621,0,0,0-.241-.047,1.389,1.389,0,0,0-.309.04.925.925,0,0,1,.039-.137.992.992,0,0,1,.4-.547.8.8,0,0,0,.414-.609.986.986,0,0,0-.015-.185,1.159,1.159,0,0,0-.4-.73.821.821,0,0,0-.488-.2.368.368,0,0,0-.358.249c-.076.312,0,.529-.218.7-.167.127-.35.232-.515.365a.8.8,0,0,0-.336.586" transform="translate(-69.653 -2066.398)" fill="url(#linear-gradient-6)"/>
        </g>
        <g id="Group_4369" data-name="Group 4369" transform="translate(223.009 15.357)">
          <ellipse id="Ellipse_385" data-name="Ellipse 385" cx="4.625" cy="1.035" rx="4.625" ry="1.035" transform="translate(0.087 10.666)" opacity="0.05"/>
          <path id="Path_3276" data-name="Path 3276" d="M235.8,2082.279a1.409,1.409,0,0,0-1.421,1.481,1.571,1.571,0,0,0,1.554,1.486,1.415,1.415,0,0,0,1.428-1.486A1.572,1.572,0,0,0,235.8,2082.279Zm-.121-2.818a4.1,4.1,0,0,0-4.136,4.3c.123,2.978,4.644,7.429,4.644,7.429s4.143-4.451,4.007-7.429A4.56,4.56,0,0,0,235.683,2079.46Zm.3,6.819a2.666,2.666,0,0,1-2.627-2.519,2.394,2.394,0,0,1,2.409-2.506,2.66,2.66,0,0,1,2.633,2.506A2.4,2.4,0,0,1,235.978,2086.279Z" transform="translate(-231.544 -2079.46)" fill="#007eb8"/>
        </g>
        <g id="Group_4370" data-name="Group 4370" transform="translate(94.483 75.631)">
          <ellipse id="Ellipse_386" data-name="Ellipse 386" cx="6.786" cy="1.518" rx="6.786" ry="1.518" transform="translate(0.127 15.65)" opacity="0.05"/>
          <path id="Path_3277" data-name="Path 3277" d="M152.952,2123.384a2.07,2.07,0,0,0-2.087,2.173,2.307,2.307,0,0,0,2.283,2.183,2.075,2.075,0,0,0,2.093-2.183A2.305,2.305,0,0,0,152.952,2123.384Zm-.18-4.134a6.015,6.015,0,0,0-6.067,6.307c.18,4.372,6.814,10.9,6.814,10.9s6.081-6.53,5.881-10.9A6.691,6.691,0,0,0,152.772,2119.25Zm.435,10.006a3.916,3.916,0,0,1-3.855-3.7,3.512,3.512,0,0,1,3.536-3.675,3.9,3.9,0,0,1,3.861,3.675A3.518,3.518,0,0,1,153.206,2129.255Z" transform="translate(-146.699 -2119.25)" fill="#007eb8"/>
        </g>
        <g id="Group_4371" data-name="Group 4371" transform="translate(101.055 6.188)">
          <ellipse id="Ellipse_387" data-name="Ellipse 387" cx="6.786" cy="1.518" rx="6.786" ry="1.518" transform="translate(0.127 15.651)" opacity="0.05"/>
          <path id="Path_3278" data-name="Path 3278" d="M157.29,2077.542a2.071,2.071,0,0,0-2.087,2.174,2.307,2.307,0,0,0,2.283,2.181,2.075,2.075,0,0,0,2.093-2.181A2.305,2.305,0,0,0,157.29,2077.542Zm-.18-4.134a6.017,6.017,0,0,0-6.067,6.308c.18,4.37,6.814,10.9,6.814,10.9s6.081-6.53,5.881-10.9A6.692,6.692,0,0,0,157.11,2073.408Zm.435,10.006a3.915,3.915,0,0,1-3.855-3.7,3.512,3.512,0,0,1,3.536-3.675,3.9,3.9,0,0,1,3.861,3.675A3.517,3.517,0,0,1,157.544,2083.413Z" transform="translate(-151.037 -2073.408)" fill="#007eb8"/>
        </g>
      </g>
      <g id="Group_12-2" data-name="Group 12-2" transform="translate(102.535 2085.111)" opacity="0.2">
        <path id="Fill_10" data-name="Fill 10" d="M133.355,2077.009a2.021,2.021,0,0,0,.33-1.318c-.121-.734-.836-1.177-1.909-1.3a2.268,2.268,0,0,0,.186-1.229c-.318-1.954-3.925-2.306-8.057-.786a17.286,17.286,0,0,0-3.919,2.021,1.615,1.615,0,0,0-.006-.707c-.374-1.453-3.174-1.178-6.25.615a15.934,15.934,0,0,0-2.08,1.444c-.236-.575-1.451-.542-2.8.1a6.037,6.037,0,0,0-1.748,1.222l-10.754.9h47.722Z" transform="translate(-96.347 -2071.428)" fill="#00aeef"/>
      </g>
      <g id="Group_12-2-2" data-name="Group 12-2" transform="translate(190.485 2044.85)" opacity="0.2">
        <path id="Fill_10-2" data-name="Fill 10" d="M176.511,2048.184a1.209,1.209,0,0,0,.2-.788c-.071-.439-.5-.7-1.139-.779a1.359,1.359,0,0,0,.111-.735c-.189-1.167-2.345-1.377-4.813-.47a10.38,10.38,0,0,0-2.34,1.208.948.948,0,0,0,0-.423c-.223-.868-1.9-.7-3.733.368a9.271,9.271,0,0,0-1.242.862c-.142-.344-.866-.324-1.674.059a3.568,3.568,0,0,0-1.044.73l-6.423.535h28.5Z" transform="translate(-154.406 -2044.85)" fill="#00aeef"/>
      </g>
      <g id="Group_12-2-3" data-name="Group 12-2" transform="translate(300.228 2072.135)" opacity="0.2">
        <path id="Fill_10-3" data-name="Fill 10" d="M263.859,2068.443a2.017,2.017,0,0,0,.33-1.318c-.12-.735-.836-1.176-1.909-1.3a2.257,2.257,0,0,0,.186-1.229c-.317-1.955-3.925-2.307-8.056-.787a17.251,17.251,0,0,0-3.919,2.022,1.613,1.613,0,0,0-.008-.707c-.373-1.453-3.174-1.18-6.25.613a16.13,16.13,0,0,0-2.08,1.443c-.236-.576-1.45-.541-2.8.1a6.022,6.022,0,0,0-1.747,1.221l-10.755.9h47.722Z" transform="translate(-226.851 -2062.862)" fill="#00aeef"/>
      </g>
      <g id="Group_4372" data-name="Group 4372" transform="translate(186.272 2093.041)">
        <path id="Path_3279" data-name="Path 3279" d="M152.089,2119.854a.48.48,0,0,1-.2-.045.464.464,0,0,1-.217-.619c.024-.049.6-1.238,1.753-3.295a.464.464,0,0,1,.809.454c-1.139,2.028-1.721,3.231-1.727,3.243A.461.461,0,0,1,152.089,2119.854Z" transform="translate(-151.625 -2056.586)" fill="#00aeef"/>
        <path id="Path_3280" data-name="Path 3280" d="M155.716,2130.436a.475.475,0,0,1-.251-.073.463.463,0,0,1-.138-.641c1.3-2.016,2.681-4.049,4.114-6.038a.464.464,0,0,1,.753.543c-1.425,1.977-2.8,3.995-4.089,6A.46.46,0,0,1,155.716,2130.436Zm8.509-11.811a.456.456,0,0,1-.289-.1.464.464,0,0,1-.071-.653c1.527-1.9,3.116-3.778,4.719-5.573a.463.463,0,0,1,.691.618c-1.592,1.781-3.169,3.645-4.688,5.537A.461.461,0,0,1,164.224,2118.624Zm9.7-10.845a.463.463,0,0,1-.327-.791c1.733-1.734,3.519-3.422,5.311-5.014a.463.463,0,0,1,.615.692c-1.778,1.581-3.552,3.255-5.27,4.976A.465.465,0,0,1,173.925,2107.78Zm10.877-9.659a.464.464,0,0,1-.286-.828c1.934-1.513,3.917-2.963,5.9-4.31a.463.463,0,1,1,.521.766c-1.963,1.335-3.931,2.772-5.849,4.274A.468.468,0,0,1,184.8,2098.121Zm12.029-8.167a.463.463,0,0,1-.233-.864c2.116-1.229,4.285-2.381,6.452-3.429a.464.464,0,0,1,.4.835c-2.145,1.038-4.3,2.18-6.391,3.4A.459.459,0,0,1,196.831,2089.953Zm13.085-6.321a.463.463,0,0,1-.167-.895c2.268-.885,4.593-1.685,6.909-2.377a.464.464,0,0,1,.267.889c-2.292.685-4.594,1.476-6.841,2.351A.46.46,0,0,1,209.917,2083.633Zm13.92-4.153a.463.463,0,0,1-.1-.917c2.371-.5,4.794-.906,7.2-1.207a.455.455,0,0,1,.518.4.465.465,0,0,1-.4.517c-2.386.3-4.784.7-7.129,1.193A.394.394,0,0,1,223.836,2079.479Zm36.126-.234a.518.518,0,0,1-.083-.007c-2.39-.438-4.8-.794-7.162-1.056a.466.466,0,0,1-.411-.512.472.472,0,0,1,.512-.411c2.384.267,4.817.624,7.226,1.067a.463.463,0,0,1-.082.919Zm-21.715-1.572a.464.464,0,0,1-.02-.927c2.406-.1,4.835-.112,7.306-.024a.465.465,0,0,1,.447.48.444.444,0,0,1-.48.447c-2.445-.088-4.85-.079-7.235.023Z" transform="translate(-149.757 -2076.662)" fill="#00aeef"/>
        <path id="Path_3281" data-name="Path 3281" d="M232.818,2080.673a.458.458,0,0,1-.127-.018q-1.8-.514-3.567-.959a.465.465,0,0,1-.335-.563.46.46,0,0,1,.562-.336q1.784.45,3.595.968a.463.463,0,0,1-.127.909Z" transform="translate(-111.905 -2075.571)" fill="#00aeef"/>
      </g>
      <g id="Group_4373" data-name="Group 4373" transform="translate(179.772 2077.583)">
        <path id="Path_3282" data-name="Path 3282" d="M149.737,2119.14a.616.616,0,0,1-.613-.57s-.108-1.351-.279-3.7a.619.619,0,0,1,1.235-.088c.168,2.337.274,3.687.274,3.687a.616.616,0,0,1-.567.666Z" transform="translate(-146.557 -2041.872)" fill="#00aeef"/>
        <path id="Path_3283" data-name="Path 3283" d="M149.737,2132.787a.616.616,0,0,1-.615-.577c-.145-2.195-.3-4.64-.454-7.261a.615.615,0,0,1,.58-.653.621.621,0,0,1,.653.58c.155,2.616.309,5.06.454,7.252a.617.617,0,0,1-.576.656Zm-.86-14.515a.618.618,0,0,1-.617-.587c-.124-2.361-.244-4.8-.353-7.266a.618.618,0,1,1,1.235-.053c.108,2.464.227,4.9.351,7.255a.618.618,0,0,1-.583.649Zm-.638-14.528a.618.618,0,0,1-.618-.6c-.083-2.448-.153-4.886-.2-7.274a.619.619,0,0,1,.6-.632h.014a.619.619,0,0,1,.618.606c.048,2.383.118,4.816.2,7.259a.619.619,0,0,1-.6.638Zm-.285-14.536a.617.617,0,0,1-.618-.618l0-.455c0-2.466.032-4.762.092-6.83a.608.608,0,0,1,.635-.6.618.618,0,0,1,.6.636c-.061,2.055-.091,4.34-.091,6.787l0,.461A.618.618,0,0,1,147.954,2089.208Zm.517-14.523c-.02,0-.041,0-.061,0a.619.619,0,0,1-.556-.675c.389-3.916.992-6.312,1.848-7.329a.619.619,0,0,1,.947.8c-.468.555-1.119,2.161-1.563,6.654A.619.619,0,0,1,148.47,2074.685Z" transform="translate(-147.334 -2066.458)" fill="#00aeef"/>
        <path id="Path_3284" data-name="Path 3284" d="M153.622,2074.166a.619.619,0,0,1-.582-.411c-.457-1.286-.9-2.439-1.319-3.428a.617.617,0,1,1,1.136-.482c.429,1.01.882,2.186,1.347,3.494a.62.62,0,0,1-.582.826Z" transform="translate(-145.101 -2064.907)" fill="#00aeef"/>
      </g>
      <g id="Group_4374" data-name="Group 4374" transform="translate(193.947 2054.147)">
        <path id="Path_3285" data-name="Path 3285" d="M157.154,2073.476a.469.469,0,0,1-.27-.086.464.464,0,0,1-.106-.647c.032-.047.821-1.141,2.321-2.931a.463.463,0,1,1,.709.6c-1.474,1.76-2.269,2.865-2.277,2.875A.466.466,0,0,1,157.154,2073.476Z" transform="translate(-156.691 -2041.381)" fill="#00aeef"/>
        <path id="Path_3286" data-name="Path 3286" d="M266.9,2085.162a.462.462,0,0,1-.357-.168c-1.557-1.892-3.142-3.728-4.71-5.456a.463.463,0,1,1,.686-.623c1.578,1.739,3.172,3.587,4.738,5.49a.464.464,0,0,1-.062.653A.472.472,0,0,1,266.9,2085.162Zm-105.016-10.328a.463.463,0,0,1-.33-.788c1.7-1.728,3.477-3.407,5.285-4.991a.463.463,0,1,1,.61.7c-1.791,1.569-3.552,3.233-5.234,4.945A.466.466,0,0,1,161.883,2074.833Zm95.289-.364a.47.47,0,0,1-.326-.133c-1.745-1.721-3.522-3.366-5.284-4.89a.463.463,0,1,1,.606-.7c1.777,1.536,3.569,3.195,5.329,4.929a.464.464,0,0,1-.326.793Zm-84.4-9.151a.463.463,0,0,1-.277-.834c1.974-1.467,4-2.841,6.02-4.081a.463.463,0,1,1,.485.789c-2,1.227-4,2.584-5.952,4.035A.456.456,0,0,1,172.77,2065.319Zm73.462-.284a.46.46,0,0,1-.277-.091c-1.968-1.459-3.97-2.813-5.952-4.028a.463.463,0,1,1,.485-.789c2,1.227,4.029,2.6,6.02,4.072a.464.464,0,0,1-.276.836Zm-61.137-7.253a.462.462,0,0,1-.2-.879,64.76,64.76,0,0,1,6.718-2.808.463.463,0,0,1,.306.874,63.828,63.828,0,0,0-6.621,2.767A.452.452,0,0,1,185.1,2057.781Zm48.808-.259a.452.452,0,0,1-.2-.047,61.621,61.621,0,0,0-6.632-2.728.463.463,0,1,1,.3-.875,62.476,62.476,0,0,1,6.732,2.769.464.464,0,0,1-.2.881Zm-35.187-4.5a.463.463,0,0,1-.1-.916,53.978,53.978,0,0,1,7.209-1.061.463.463,0,1,1,.073.924,53.209,53.209,0,0,0-7.086,1.043A.427.427,0,0,1,198.717,2053.02Zm21.536-.153a.5.5,0,0,1-.094-.009,52.149,52.149,0,0,0-7.1-.946.463.463,0,1,1,.059-.924,52.782,52.782,0,0,1,7.226.962.463.463,0,0,1-.092.916Z" transform="translate(-154.257 -2050.987)" fill="#00aeef"/>
        <path id="Path_3287" data-name="Path 3287" d="M236.389,2080.625a.462.462,0,0,1-.376-.192q-1.1-1.52-2.2-2.975a.464.464,0,0,1,.741-.558q1.1,1.462,2.21,2.989a.464.464,0,0,1-.376.736Z" transform="translate(-117.034 -2037.741)" fill="#00aeef"/>
      </g>
      <path id="Path_3288" data-name="Path 3288" d="M366.327,2190.468,289.5,2170.054l-60.663,17.622L160.785,2170.2,84.328,2190.3l52.866-112.33H102.532l10.763-.9a5.99,5.99,0,0,1,1.742-1.224c1.347-.643,2.559-.668,2.805-.1a17.217,17.217,0,0,1,2.077-1.447c3.077-1.792,5.87-2.063,6.252-.6a1.674,1.674,0,0,1,0,.7,17.3,17.3,0,0,1,3.919-2.027c4.139-1.521,7.747-1.162,8.056.791a2.254,2.254,0,0,1-.185,1.236c1.074.123,1.792.556,1.915,1.3,0,.062.012.1.012.16l4.82-.827c-.038.7-.074,1.409-.086,2.1a3.1,3.1,0,0,0-.012.335c-.014.173-.014.346-.014.506a74.073,74.073,0,0,0,1.212,16.238,51.748,51.748,0,0,0,2.2,7.934c.062.16.124.334.185.495,4.14,10.924,12.1,19.809,21.824,26.457a79.25,79.25,0,0,0,11.813,6.673q3.227,1.484,6.538,2.682c.148.049.3.111.457.161.951.345,1.915.666,2.878.976,3.387,1.075,6.823,1.977,10.283,2.731a178.471,178.471,0,0,0,24.393,3.35c1.174.1,2.336.184,3.51.259q4.115.277,8.242.481c1.273.074,2.545.136,3.831.2l2.916.148c1.927.086,3.855.185,5.784.283q13.031.686,26.037,1.78,5.153.427,10.281.927c3.436.321,6.858.681,10.281,1.05q28.028,3.04,55.795,8c.729.112,1.447.247,2.175.383Z" transform="translate(0 13.683)" opacity="0.05"/>
    </g>
  </g>
</svg>
