<svg xmlns="http://www.w3.org/2000/svg" xmlns:xlink="http://www.w3.org/1999/xlink" width="267.904" height="166.188" viewBox="0 0 267.904 166.188">
  <defs>
    <linearGradient id="linear-gradient" x1="0.864" y1="1.753" x2="-0.042" y2="-1.369" gradientUnits="objectBoundingBox">
      <stop offset="0" stop-color="#30acef"/>
      <stop offset="1" stop-color="#fff"/>
    </linearGradient>
    <linearGradient id="linear-gradient-2" x1="0.43" y1="1.077" x2="0.69" y2="-1.076" xlink:href="#linear-gradient"/>
    <linearGradient id="linear-gradient-3" x1="1.245" y1="-0.855" x2="0.547" y2="0.415" xlink:href="#linear-gradient"/>
    <linearGradient id="linear-gradient-4" x1="0.831" y1="-0.259" x2="1.261" y2="-1.246" xlink:href="#linear-gradient"/>
    <linearGradient id="linear-gradient-5" x1="1.756" y1="-0.606" x2="-0.776" y2="1.624" xlink:href="#linear-gradient"/>
    <linearGradient id="linear-gradient-6" x1="1" y1="-3.824" x2="2.857" y2="3.773" xlink:href="#linear-gradient"/>
    <linearGradient id="linear-gradient-7" x1="0.872" y1="1.715" x2="-0.436" y2="-2.554" xlink:href="#linear-gradient"/>
    <linearGradient id="linear-gradient-8" x1="1.387" y1="-0.449" x2="0.688" y2="0.821" xlink:href="#linear-gradient"/>
    <linearGradient id="linear-gradient-9" x1="0.956" y1="0.1" x2="1.386" y2="-0.887" xlink:href="#linear-gradient"/>
    <linearGradient id="linear-gradient-10" x1="0.678" y1="1.285" x2="0.049" y2="-1.489" xlink:href="#linear-gradient"/>
    <linearGradient id="linear-gradient-12" x1="5.131" y1="-1.072" x2="4.432" y2="0.198" xlink:href="#linear-gradient"/>
    <linearGradient id="linear-gradient-13" x1="4.264" y1="-0.45" x2="4.695" y2="-1.438" xlink:href="#linear-gradient"/>
    <linearGradient id="linear-gradient-14" x1="0.099" y1="0.793" x2="1.562" y2="-0.276" xlink:href="#linear-gradient"/>
  </defs>
  <g id="Group_4687" data-name="Group 4687" transform="translate(-5428.98 -5031.27)">
    <g id="Group_4660" data-name="Group 4660" transform="translate(5447.67 5144.245)">
      <rect id="Rectangle_1941" data-name="Rectangle 1941" width="106.194" height="37.45" rx="2.115" fill="url(#linear-gradient)"/>
      <g id="Group_4659" data-name="Group 4659" transform="translate(10.866 11.22)">
        <path id="Path_3514" data-name="Path 3514" d="M5459.578,5089.9a3.7,3.7,0,0,1-.359,1.055c-.018.041-.2.021-.3,0-1.523-.31-3.043-.642-4.567-.931a1.8,1.8,0,0,0-1.275.321c-.6.371-1.2.739-1.793,1.12a1.079,1.079,0,0,1-1.267-.023c-.549-.353-1.116-.671-1.659-1.038a2.446,2.446,0,0,0-1.916-.385c-1.362.271-2.721.557-4.078.845a.356.356,0,0,1-.443-.2,2.62,2.62,0,0,1-.119-.256c-.264-.678-.195-.837.457-1.011a27.035,27.035,0,0,1,5-.895c1.116-.085,2.232-.15,2.873-.192a34.113,34.113,0,0,1,8.932,1.214C5459.268,5089.587,5459.611,5089.6,5459.578,5089.9Z" transform="translate(-5441.656 -5079.505)" fill="#fff"/>
        <path id="Path_3515" data-name="Path 3515" d="M5456.133,5093.323a2.1,2.1,0,0,1-1.246,1.053,3.328,3.328,0,0,1-3.089-.343,5.555,5.555,0,0,1-.968-1.046.246.246,0,0,1,.083-.42c.335-.187.656-.4,1-.611a2.611,2.611,0,0,1,.158.26,1.732,1.732,0,0,0,2.448.694.927.927,0,0,0,.093-1.49,2.483,2.483,0,0,0-.69-.41c-.487-.212-1-.369-1.479-.595a2.464,2.464,0,0,1-1.495-1.815,2.273,2.273,0,0,1,1.5-2.722,2.81,2.81,0,0,1,3.154.767c.578.653.562.762-.124,1.192-.174.109-.354.214-.554.338-.118-.184-.2-.327-.29-.457a1.443,1.443,0,0,0-1.9-.354.9.9,0,0,0-.155,1.27,2.89,2.89,0,0,0,.892.636c.556.278,1.163.445,1.7.762A2.437,2.437,0,0,1,5456.133,5093.323Z" transform="translate(-5429.552 -5082.984)" fill="#fff"/>
        <path id="Path_3516" data-name="Path 3516" d="M5459.3,5094.4a1.9,1.9,0,0,1-2.629-.477c-.445-.618-.816-1.3-1.222-1.951-.063-.105-.138-.206-.2-.308l-.1.026.017,1.053c.01.5.011.99.029,1.486.007.239-.071.347-.3.336-.307-.013-.613-.013-.917-.006-.211,0-.3-.091-.3-.317,0-.1,0-.213,0-.317l-.133-7.819c-.007-.47,0-.471.43-.47l.589,0c.44,0,.443.006.451.47.027,1.428.047,2.854.076,4.281,0,.146.029.293.06.543.143-.194.231-.308.31-.426.409-.616.824-1.224,1.215-1.852a.6.6,0,0,1,.6-.32c.409.024.823.013,1.31.015-.081.148-.119.234-.172.311-.532.731-1.062,1.465-1.607,2.187a.466.466,0,0,0-.033.623c.248.365.458.756.7,1.13.422.665.864.8,1.516.456.151-.082.235-.062.317.092.061.113.128.222.191.333C5459.776,5094.012,5459.763,5094.079,5459.3,5094.4Z" transform="translate(-5425.833 -5083.064)" fill="#fff"/>
        <path id="Path_3517" data-name="Path 3517" d="M5469.545,5087.284c0-.222-.08-.325-.291-.317-.295.006-.588,0-.884-.008-.209-.013-.3.075-.287.305.008.168-.015.333-.029.574a3.189,3.189,0,0,1-.255-.237,2.525,2.525,0,0,0-3.993.421,4.139,4.139,0,0,0,.14,4.1c.833,1.262,2.96,1.736,3.987.328a1.717,1.717,0,0,1,.212-.188c.015.275.036.458.036.643,0,.213.084.3.279.291.294-.006.587-.006.882.007.229.011.3-.1.3-.334Q5469.585,5090.078,5469.545,5087.284Zm-2.11,4.475a1.6,1.6,0,0,1-1.772.031,1.957,1.957,0,0,1-.852-1.768c-.024-1.546,1.188-2.416,2.409-1.709a1.821,1.821,0,0,1,.6.588A2.2,2.2,0,0,1,5467.435,5091.759Z" transform="translate(-5412.798 -5081.519)" fill="#fff"/>
        <path id="Path_3518" data-name="Path 3518" d="M5474.072,5090.478q2.013.01,4.022.027c.212,0,.374-.024.341-.318a4.051,4.051,0,0,0-.7-2.108,3.1,3.1,0,0,0-5.563,1.975,3.125,3.125,0,0,0,2.1,3.107,3.94,3.94,0,0,0,1.967.145,3.031,3.031,0,0,0,1.977-1.227c-.34-.215-.639-.417-.947-.587a.293.293,0,0,0-.255.065,2.182,2.182,0,0,1-1.934.467,1.833,1.833,0,0,1-1.318-.973C5473.551,5090.634,5473.644,5090.477,5474.072,5090.478Zm1.271-2.383a1.533,1.533,0,0,1,1.528,1.448l-3.144-.021A1.522,1.522,0,0,1,5475.343,5088.1Z" transform="translate(-5401.023 -5081.438)" fill="#fff"/>
        <path id="Path_3519" data-name="Path 3519" d="M5462.16,5086.844a3.66,3.66,0,0,1-.1.368q-1.622,4.2-3.248,8.4c-.075.2-.175.3-.384.287-.272-.019-.546-.016-.818-.008s-.312-.112-.214-.363c.319-.817.615-1.649.942-2.461a.98.98,0,0,0-.023-.835c-.76-1.7-1.5-3.414-2.253-5.123-.032-.071-.055-.151-.11-.3.53,0,1.007-.007,1.484.022.083,0,.192.175.239.292.43,1.118.849,2.239,1.274,3.362.051.138.117.274.21.5.078-.184.136-.288.175-.4.385-1.143.771-2.282,1.143-3.429.076-.237.186-.335.423-.323C5461.3,5086.853,5461.7,5086.842,5462.16,5086.844Z" transform="translate(-5422.623 -5081.509)" fill="#fff"/>
        <path id="Path_3520" data-name="Path 3520" d="M5474.971,5092.833c.012.331-.1.439-.393.41a5.077,5.077,0,0,0-.751,0c-.247.012-.324-.106-.326-.36-.009-1.039-.029-2.076-.05-3.112a3.065,3.065,0,0,0-.081-.63,1.146,1.146,0,0,0-2.2-.3,4.213,4.213,0,0,0-.242,1.291c-.025.893.007,1.793.037,2.689.013.313-.088.424-.372.4a6.359,6.359,0,0,0-.784-.007c-.208,0-.3-.082-.3-.313q-.041-2.813-.094-5.624c0-.236.087-.315.291-.305.294.008.588.014.882,0,.222-.007.288.1.284.324,0,.18.021.359.033.542l.083.024c.067-.077.133-.16.2-.245a2.023,2.023,0,0,1,3.607,1.048,13.175,13.175,0,0,1,.125,1.8C5474.95,5091.25,5474.94,5092.042,5474.971,5092.833Z" transform="translate(-5404.691 -5081.466)" fill="#fff"/>
        <path id="Path_3521" data-name="Path 3521" d="M5472.1,5092.867c0,.255-.063.375-.312.356a7.337,7.337,0,0,0-.816,0c-.246.01-.326-.1-.328-.357-.011-.989-.024-1.979-.052-2.97a3.963,3.963,0,0,0-.106-.8,1.094,1.094,0,0,0-.942-.957,1.062,1.062,0,0,0-1.173.563,3.142,3.142,0,0,0-.3,1.229c-.033.966.009,1.934.036,2.9.008.271-.068.392-.331.375a8.479,8.479,0,0,0-.849-.007c-.2,0-.273-.1-.274-.3q-.046-2.829-.1-5.659c0-.219.086-.288.276-.281.293.009.587.017.881,0,.235-.011.313.1.3.34-.009.168,0,.341.006.515l.107.031c.072-.1.145-.2.221-.289a2.024,2.024,0,0,1,3.109,0,3.027,3.027,0,0,1,.571,1.784C5472.069,5090.51,5472.066,5091.69,5472.1,5092.867Z" transform="translate(-5408.508 -5081.491)" fill="#fff"/>
        <path id="Path_3522" data-name="Path 3522" d="M5466.128,5092.653a3.4,3.4,0,0,1-3.577.265,3.269,3.269,0,0,1-1.692-3.3,2.962,2.962,0,0,1,2.382-2.751c.244-.039.5-.06.742-.091a3.7,3.7,0,0,1,2.052.686.267.267,0,0,1,.1.427,5.491,5.491,0,0,0-.318.609c-.1.233-.214.228-.407.1a2.148,2.148,0,0,0-1.919-.287,1.676,1.676,0,0,0-1.177,1.754,1.829,1.829,0,0,0,1.353,1.755,2.16,2.16,0,0,0,1.785-.294c.208-.13.328-.115.438.124a5.014,5.014,0,0,0,.32.585C5466.329,5092.421,5466.314,5092.53,5466.128,5092.653Z" transform="translate(-5416.111 -5081.551)" fill="#fff"/>
        <path id="Path_3523" data-name="Path 3523" d="M5462.687,5092.708a2.824,2.824,0,0,1-3.627-.2,2,2,0,0,1-.213-.269c-.252-.372-.239-.446.132-.672.212-.13.428-.257.671-.4a1.377,1.377,0,0,0,1.6.845.585.585,0,0,0,.554-.5.618.618,0,0,0-.448-.663c-.431-.205-.887-.361-1.3-.6a3.431,3.431,0,0,1-.92-.725,1.659,1.659,0,0,1,.029-1.958,2.369,2.369,0,0,1,3.486-.078c.3.35.285.426-.082.652a2.582,2.582,0,0,0-.252.16c-.233.187-.418.235-.657-.064a.833.833,0,0,0-1.034-.184.676.676,0,0,0-.343.477.724.724,0,0,0,.285.529,12.475,12.475,0,0,0,1.181.536,5.856,5.856,0,0,1,.688.341A1.75,1.75,0,0,1,5462.687,5092.708Z" transform="translate(-5418.994 -5081.565)" fill="#fff"/>
        <path id="Path_3524" data-name="Path 3524" d="M5478.438,5088.447a2.7,2.7,0,0,0-.8.038,1.369,1.369,0,0,0-.879,1.437q.011,1.47.052,2.938c.007.284-.065.415-.346.395a7.363,7.363,0,0,0-.817-.008c-.207,0-.3-.077-.3-.308q-.041-2.815-.1-5.626c0-.227.077-.319.288-.309.284.014.569.014.85.007.2-.007.276.089.276.3,0,.315.008.627.014.941l.114.027c.053-.133.1-.27.164-.4a1.533,1.533,0,0,1,1.475-.992c.221.012.319.105.316.348,0,.305,0,.613.013.92C5478.772,5088.421,5478.654,5088.458,5478.438,5088.447Z" transform="translate(-5396.927 -5081.413)" fill="#fff"/>
        <path id="Path_3525" data-name="Path 3525" d="M5446.3,5088.864c0,.77-.576,1.119-1.119.8-.658-.385-1.3-.8-1.944-1.206-.3-.19-.606-.383-.913-.571a1.54,1.54,0,0,1-.142-.09c-.233-.184-.216-.442.057-.94.246-.455.407-.562.665-.4,1.013.623,2.024,1.243,3.02,1.9A1.662,1.662,0,0,1,5446.3,5088.864Z" transform="translate(-5441.17 -5082.072)" fill="#fff"/>
        <path id="Path_3526" data-name="Path 3526" d="M5450.783,5088.093c-.827.521-1.654,1.042-2.487,1.556a.742.742,0,0,1-1.185-.646.778.778,0,0,1,.4-.708c.949-.6,1.9-1.187,2.848-1.787a.354.354,0,0,1,.542.117c.042.055.083.112.12.17C5451.489,5087.531,5451.466,5087.662,5450.783,5088.093Z" transform="translate(-5434.393 -5082.018)" fill="#fff"/>
        <path id="Path_3527" data-name="Path 3527" d="M5449.142,5086.352c-.48.924-.957,1.847-1.446,2.765-.238.452-.578.591-.945.421a.885.885,0,0,1-.487-.736,3.979,3.979,0,0,1,.177-.514c.519-1.007,1.049-2,1.56-3.014a.375.375,0,0,1,.54-.212,1.825,1.825,0,0,1,.269.131C5449.442,5085.548,5449.483,5085.695,5449.142,5086.352Z" transform="translate(-5435.52 -5083.893)" fill="#fff"/>
        <path id="Path_3528" data-name="Path 3528" d="M5446.476,5088.726a.8.8,0,0,1-.42.8.6.6,0,0,1-.732-.1,1.325,1.325,0,0,1-.251-.326c-.562-1.013-1.11-2.032-1.679-3.036a.448.448,0,0,1,.107-.663c.088-.067.175-.137.268-.194.536-.336.682-.29,1.005.3.5.924,1.014,1.842,1.516,2.768A4,4,0,0,1,5446.476,5088.726Z" transform="translate(-5439.474 -5083.926)" fill="#fff"/>
        <path id="Path_3529" data-name="Path 3529" d="M5446.633,5088.595c.006.541-.288.883-.729.87s-.706-.346-.719-.876c-.013-.587-.02-1.178-.03-1.765s-.023-1.2-.029-1.8a.6.6,0,0,1,.071-.33,1.268,1.268,0,0,1,1.291.04.624.624,0,0,1,.083.329Q5446.611,5086.828,5446.633,5088.595Z" transform="translate(-5437.033 -5084.537)" fill="#fff"/>
      </g>
    </g>
    <g id="Group_4663" data-name="Group 4663" transform="translate(5445.833 5031.27)">
      <rect id="Rectangle_1942" data-name="Rectangle 1942" width="130.216" height="45.922" rx="2.594" fill="url(#linear-gradient-2)"/>
      <g id="Group_4662" data-name="Group 4662" transform="translate(13.32 14.711)">
        <path id="Path_3530" data-name="Path 3530" d="M5454.5,5044.268c.373,3.208-.893,5.937-3.73,6.945-3.8,1.355-7.83-1.2-8.711-5.47a6.832,6.832,0,0,1,4.993-8.02,6.03,6.03,0,0,1,5.467,1.473c.257.229.369.4.046.667a4.731,4.731,0,0,0-.687.739c-.183.234-.3.2-.521.017a4.339,4.339,0,0,0-5.454-.354,5.227,5.227,0,0,0-1.886,5.47,4.866,4.866,0,0,0,4.083,3.857,4.2,4.2,0,0,0,3.362-.968,3.885,3.885,0,0,0,1.264-2.415c.054-.294-.063-.346-.3-.346-1.08,0-2.156-.02-3.234-.01-.313,0-.448-.08-.425-.441a7.8,7.8,0,0,0-.018-1.1c-.025-.321.094-.392.368-.385.833.023,1.666.016,2.5.021s1.688.017,2.536.013C5454.364,5043.956,5454.472,5044.028,5454.5,5044.268Z" transform="translate(-5441.92 -5037.58)" fill="#fff"/>
        <path id="Path_3531" data-name="Path 3531" d="M5451.861,5039.735a4.181,4.181,0,0,0-4.133,4.5,4.4,4.4,0,0,0,4.267,4.515,4.165,4.165,0,0,0,4.09-4.486A4.414,4.414,0,0,0,5451.861,5039.735Zm.072,7.23a2.6,2.6,0,0,1-2.375-2.754,2.436,2.436,0,0,1,2.324-2.678,2.594,2.594,0,0,1,2.378,2.753A2.444,2.444,0,0,1,5451.933,5046.966Z" transform="translate(-5434.191 -5034.708)" fill="#fff"/>
        <path id="Path_3532" data-name="Path 3532" d="M5455.859,5039.762a4.2,4.2,0,0,0-4.115,4.483,4.41,4.41,0,0,0,4.259,4.529,4.186,4.186,0,0,0,4.123-4.47A4.449,4.449,0,0,0,5455.859,5039.762Zm.349,7.228a2.481,2.481,0,0,1-2.58-2.216,2.667,2.667,0,0,1,1.667-3.142c1.518-.438,2.953.852,2.977,2.675A2.471,2.471,0,0,1,5456.208,5046.99Z" transform="translate(-5428.84 -5034.673)" fill="#fff"/>
        <path id="Path_3533" data-name="Path 3533" d="M5463.575,5040.14c-.213-.212-.627-.062-.951-.068-.664-.015-.664-.007-.711.719a3.088,3.088,0,0,0-3.045-.882,4.069,4.069,0,0,0-3.054,3.614,4.577,4.577,0,0,0,1.793,4.49,3.15,3.15,0,0,0,4.32-.126c.022-.024.071-.017.125-.027,0,.293.027.574.011.85a2.15,2.15,0,0,1-3.96,1.363c-.432-.6-.432-.6-1.094-.291-.952.436-.952.436-.284,1.369a3.879,3.879,0,0,0,6.33.126,4.909,4.909,0,0,0,.734-2.783c-.021-2.433-.068-4.864-.117-7.3C5463.664,5040.838,5463.814,5040.375,5463.575,5040.14Zm-2.93,6.758a2.4,2.4,0,0,1-3.045-2.263,2.808,2.808,0,0,1,.894-2.549,1.921,1.921,0,0,1,2.187-.313,2.559,2.559,0,0,1,1.4,2.153c.018.134.018.265.023.351A2.558,2.558,0,0,1,5460.645,5046.9Z" transform="translate(-5423.5 -5034.634)" fill="#fff"/>
        <path id="Path_3534" data-name="Path 3534" d="M5461.884,5050.4c.01.4-.091.508-.444.471a5.751,5.751,0,0,0-1.021-.007c-.283.02-.367-.074-.372-.389-.021-2-.062-4-.094-6.006s-.059-3.976-.108-5.963c-.009-.352.082-.456.4-.431.394.033.79.019,1.183.013.176,0,.258.063.243.255a1.761,1.761,0,0,0,0,.221C5461.741,5042.51,5461.8,5046.454,5461.884,5050.4Z" transform="translate(-5418.052 -5036.926)" fill="#fff"/>
        <path id="Path_3535" data-name="Path 3535" d="M5468.733,5046.713a7.048,7.048,0,0,1-.823-.6c-.27-.231-.431-.238-.669.081a2.178,2.178,0,0,1-3.6-.165c-.173-.269-.14-.371.135-.494,1.5-.652,3-1.326,4.5-1.993.742-.331.742-.331.384-1.147-.982-2.234-3.136-3.165-5.1-2.2a4.534,4.534,0,0,0-2.147,5.052,4.346,4.346,0,0,0,4.452,3.587,3.779,3.779,0,0,0,2.933-1.72C5468.917,5046.944,5468.943,5046.841,5468.733,5046.713Zm-5.625-2.824a2.341,2.341,0,0,1,2.266-2.31,1.7,1.7,0,0,1,1.286.693c.123.167.157.277-.075.377-1.078.466-2.147.948-3.221,1.431C5463.17,5044.168,5463.107,5044.141,5463.108,5043.889Z" transform="translate(-5416.126 -5034.597)" fill="#fff"/>
        <path id="Path_3536" data-name="Path 3536" d="M5450.77,5051.213c-3.8,1.355-7.83-1.2-8.711-5.47a6.832,6.832,0,0,1,4.993-8.02,6.03,6.03,0,0,1,5.467,1.473c.257.229.369.4.046.667a4.731,4.731,0,0,0-.687.739c-.183.234-.3.2-.521.017a4.339,4.339,0,0,0-5.454-.354,5.227,5.227,0,0,0-1.886,5.47,4.866,4.866,0,0,0,4.083,3.857,4.2,4.2,0,0,0,3.362-.968,3.885,3.885,0,0,0,1.264-2.415c.054-.294-.063-.346-.3-.346-1.08,0-2.156-.02-3.234-.01-.313,0-.448-.08-.425-.441a7.8,7.8,0,0,0-.018-1.1c-.025-.321.094-.392.368-.385.833.023,1.666.016,2.5.021s1.688.017,2.536.013c.217,0,.325.071.353.311C5454.873,5047.476,5453.607,5050.2,5450.77,5051.213Z" transform="translate(-5441.92 -5037.58)" fill="#fff"/>
        <path id="Path_3537" data-name="Path 3537" d="M5463.575,5040.14c-.213-.212-.627-.062-.951-.068-.664-.015-.664-.007-.711.719a3.088,3.088,0,0,0-3.045-.882,4.069,4.069,0,0,0-3.054,3.614,4.577,4.577,0,0,0,1.793,4.49,3.15,3.15,0,0,0,4.32-.126c.022-.024.071-.017.125-.027,0,.293.027.574.011.85a2.15,2.15,0,0,1-3.96,1.363c-.432-.6-.432-.6-1.094-.291-.952.436-.952.436-.284,1.369a3.879,3.879,0,0,0,6.33.126,4.909,4.909,0,0,0,.734-2.783c-.021-2.433-.068-4.864-.117-7.3C5463.664,5040.838,5463.814,5040.375,5463.575,5040.14Zm-2.93,6.758a2.4,2.4,0,0,1-3.045-2.263,2.808,2.808,0,0,1,.894-2.549,1.921,1.921,0,0,1,2.187-.313,2.559,2.559,0,0,1,1.4,2.153c.018.134.018.265.023.351A2.558,2.558,0,0,1,5460.645,5046.9Z" transform="translate(-5423.5 -5034.634)" fill="#fff"/>
        <path id="Path_3538" data-name="Path 3538" d="M5451.861,5039.735a4.181,4.181,0,0,0-4.133,4.5,4.4,4.4,0,0,0,4.267,4.515,4.165,4.165,0,0,0,4.09-4.486A4.414,4.414,0,0,0,5451.861,5039.735Zm.072,7.23a2.6,2.6,0,0,1-2.375-2.754,2.436,2.436,0,0,1,2.324-2.678,2.594,2.594,0,0,1,2.378,2.753A2.444,2.444,0,0,1,5451.933,5046.966Z" transform="translate(-5434.191 -5034.708)" fill="#fff"/>
        <path id="Path_3539" data-name="Path 3539" d="M5455.859,5039.762a4.2,4.2,0,0,0-4.115,4.483,4.41,4.41,0,0,0,4.259,4.529,4.186,4.186,0,0,0,4.123-4.47A4.449,4.449,0,0,0,5455.859,5039.762Zm.349,7.228a2.481,2.481,0,0,1-2.58-2.216,2.667,2.667,0,0,1,1.667-3.142c1.518-.438,2.953.852,2.977,2.675A2.471,2.471,0,0,1,5456.208,5046.99Z" transform="translate(-5428.84 -5034.673)" fill="#fff"/>
        <path id="Path_3540" data-name="Path 3540" d="M5468.733,5046.713a7.048,7.048,0,0,1-.823-.6c-.27-.231-.431-.238-.669.081a2.178,2.178,0,0,1-3.6-.165c-.173-.269-.14-.371.135-.494,1.5-.652,3-1.326,4.5-1.993.742-.331.742-.331.384-1.147-.982-2.234-3.136-3.165-5.1-2.2a4.534,4.534,0,0,0-2.147,5.052,4.346,4.346,0,0,0,4.452,3.587,3.779,3.779,0,0,0,2.933-1.72C5468.917,5046.944,5468.943,5046.841,5468.733,5046.713Zm-5.625-2.824a2.341,2.341,0,0,1,2.266-2.31,1.7,1.7,0,0,1,1.286.693c.123.167.157.277-.075.377-1.078.466-2.147.948-3.221,1.431C5463.17,5044.168,5463.107,5044.141,5463.108,5043.889Z" transform="translate(-5416.126 -5034.597)" fill="#fff"/>
        <path id="Path_3541" data-name="Path 3541" d="M5461.884,5050.4c.01.4-.091.508-.444.471a5.751,5.751,0,0,0-1.021-.007c-.283.02-.367-.074-.372-.389-.021-2-.062-4-.094-6.006s-.059-3.976-.108-5.963c-.009-.352.082-.456.4-.431.394.033.79.019,1.183.013.176,0,.258.063.243.255a1.761,1.761,0,0,0,0,.221C5461.741,5042.51,5461.8,5046.454,5461.884,5050.4Z" transform="translate(-5418.052 -5036.926)" fill="#fff"/>
        <g id="Group_4661" data-name="Group 4661" transform="translate(59.182 1.434)">
          <path id="Path_3542" data-name="Path 3542" d="M5481.429,5040.433c0-.132.011-.286-.171-.286a2.972,2.972,0,0,0-1.206.059c-.207.1-.031.625-.056.957,0,.029-.01.054-.042.222a2.3,2.3,0,0,0-.133-.231,3.355,3.355,0,0,0-4.568-.72,5.131,5.131,0,0,0-1.311,6.212c1.28,2.677,4.17,3.166,6.045,1.023.019-.021.068-.018.112-.024a6.663,6.663,0,0,1-.047,1.554,2.339,2.339,0,0,1-1.752,2.057,2.431,2.431,0,0,1-2.652-.855c-.173-.212-.174-.635-.461-.648a2.1,2.1,0,0,0-.756.294,2.731,2.731,0,0,1-.263.112c-.238.069-.285.2-.171.451a3.535,3.535,0,0,0,.942,1.281,4.21,4.21,0,0,0,3.215.925,3.734,3.734,0,0,0,3.364-3.673C5481.618,5046.242,5481.454,5043.335,5481.429,5040.433Zm-1.7,5.649a2.3,2.3,0,0,1-2.7,1.408,2.9,2.9,0,0,1-2.034-2.478c-.023-.206-.033-.41-.047-.615a3.263,3.263,0,0,1,.65-2.159,2.348,2.348,0,0,1,4.082.61A3.762,3.762,0,0,1,5479.729,5046.082Z" transform="translate(-5459.147 -5036.012)" fill="#fff"/>
          <path id="Path_3543" data-name="Path 3543" d="M5484.628,5044.988a2.938,2.938,0,0,0-3.271-2.984,3.119,3.119,0,0,0-2.306,1.383l-.068-4c-.02-1.11-.02-1.095-1.063-1.122-.349-.01-.457.072-.448.475.077,3.64.128,7.278.2,10.917.007.391-.145.905.091,1.145s.7.042,1.068.083c.3.038.356-.093.347-.394q-.057-2.162-.075-4.329a2.8,2.8,0,0,1,.932-2.236,1.849,1.849,0,0,1,3.08,1.236,4.955,4.955,0,0,1,.066.746c.025,1.253.035,2.5.07,3.756.008.409-.159.961.1,1.18.242.206.732.055,1.11.079.228.014.306-.062.3-.317C5484.71,5048.729,5484.717,5046.857,5484.628,5044.988Z" transform="translate(-5453.764 -5038.106)" fill="#fff"/>
          <path id="Path_3544" data-name="Path 3544" d="M5473.763,5038.238c-2.018,0-4.037-.013-6.057-.043-.323,0-.412.093-.4.44.048,1.962.072,3.923.1,5.88.03,1.682.055,3.364.09,5.042.007.395-.14.908.081,1.154.245.272.725.051,1.1.1.294.039.363-.088.354-.392-.037-1.518-.04-3.034-.093-4.554-.013-.411.106-.48.451-.47,1.119.031,2.235.024,3.355.031,1.028.007,1.017.006,1.006-1.083,0-.326-.078-.427-.39-.423-1.348.009-2.7-.022-4.051-.008-.331,0-.4-.11-.407-.447,0-1.12-.022-2.241-.055-3.36-.009-.286.061-.375.333-.371,1.322.022,2.646.022,3.969.032,1.037.007,1.023.007,1.017-1.117C5474.164,5038.306,5474.059,5038.238,5473.763,5038.238Z" transform="translate(-5467.303 -5038.195)" fill="#fff"/>
          <path id="Path_3545" data-name="Path 3545" d="M5488.457,5044.217a9.794,9.794,0,0,0-1.877-.644,4.849,4.849,0,0,1-1.132-.4.83.83,0,0,1-.08-1.5,1.884,1.884,0,0,1,2.495.238c.506.694.9.437,1.382.192a.611.611,0,0,1,.15-.067c.281-.066.288-.216.138-.458a3.46,3.46,0,0,0-2.988-1.688,3.764,3.764,0,0,0-2.165.6,2.333,2.333,0,0,0,.208,3.942,6.174,6.174,0,0,0,1.473.554,5.874,5.874,0,0,1,1.678.571,1.111,1.111,0,0,1,.6.991,1,1,0,0,1-.653.871,2.2,2.2,0,0,1-2.771-.746c-.154-.213-.167-.613-.444-.625-.235-.007-.47.2-.7.307a1.019,1.019,0,0,1-.147.072c-.342.087-.367.265-.2.6a3.731,3.731,0,0,0,5.216,1.558,2.348,2.348,0,0,0,1.224-2.241A2.41,2.41,0,0,0,5488.457,5044.217Z" transform="translate(-5445.972 -5035.93)" fill="#fff"/>
          <path id="Path_3546" data-name="Path 3546" d="M5485.63,5048.978c-.067-.228-.132-.321-.395-.247-.825.229-1.376-.213-1.413-1.139-.049-1.192-.06-2.385-.081-3.577-.02-1.017-.017-1.017.911-1.01,1.063.007,1.063.007.992-1.133v-.042c.017-.211-.076-.284-.265-.282-.436.007-.874-.019-1.308,0-.278.011-.4-.07-.382-.392.016-.351-.007-.706-.014-1.061-.022-1.27-.022-1.261-1.206-1.244-.276,0-.343.1-.332.385.031.617.009,1.237.044,1.854.018.338-.059.454-.392.448-1.1-.021-1.094-.007-.981,1.19.018.189.074.26.247.256.285-.007.573.018.857,0,.238-.018.3.083.3.328,0,.768.021,1.535.034,2.3h0c.012.75.009,1.5.039,2.254a2.335,2.335,0,0,0,1.539,2.332,3.253,3.253,0,0,0,1.934-.027c.169-.047.216-.128.15-.311C5485.813,5049.568,5485.716,5049.274,5485.63,5048.978Z" transform="translate(-5449.381 -5037.33)" fill="#fff"/>
          <path id="Path_3547" data-name="Path 3547" d="M5472.169,5038.339c-.228-.257-.675-.049-1.019-.1s-.423.1-.417.461c.076,3.639.129,7.28.195,10.919.007.395-.143.906.089,1.147s.7.044,1.065.086c.29.035.361-.081.354-.389-.044-1.958-.071-3.92-.1-5.878-.027-1.724-.053-3.448-.089-5.173C5472.236,5039.042,5472.373,5038.57,5472.169,5038.339Z" transform="translate(-5462.735 -5038.18)" fill="#fff"/>
          <path id="Path_3548" data-name="Path 3548" d="M5473.624,5040.04c-.229-.238-.679-.04-1.026-.086s-.4.1-.394.438c.05,2.33.085,4.659.125,6.985,0,.382-.1.9.079,1.11.234.27.721.053,1.094.1.271.034.346-.075.337-.364-.034-1.312-.051-2.626-.072-3.936-.014-1.046-.028-2.094-.055-3.14C5473.7,5040.771,5473.851,5040.281,5473.624,5040.04Z" transform="translate(-5460.778 -5035.895)" fill="#fff"/>
        </g>
        <path id="Path_3549" data-name="Path 3549" d="M5473.071,5038.167a1.073,1.073,0,0,0-1.025,1.117,1.169,1.169,0,0,0,1.083,1.17,1.081,1.081,0,0,0,1.04-1.153A1.12,1.12,0,0,0,5473.071,5038.167Z" transform="translate(-5401.805 -5036.797)" fill="#fff"/>
      </g>
    </g>
    <g id="Group_4669" data-name="Group 4669" transform="translate(5428.98 5142.432)">
      <g id="Group_4664" data-name="Group 4664" transform="translate(20.815 3.407)">
        <circle id="Ellipse_412" data-name="Ellipse 412" cx="18.638" cy="18.638" r="18.638" fill="#fff" opacity="0.21"/>
      </g>
      <g id="Group_4665" data-name="Group 4665" transform="translate(39.511 6.315)" opacity="0.2">
        <path id="Path_3550" data-name="Path 3550" d="M5445.932,5082.719a1.176,1.176,0,0,1,1.286-1.058,17.069,17.069,0,0,1,15.343,18.6,1.178,1.178,0,0,1-2.346-.226A14.715,14.715,0,0,0,5446.992,5084,1.173,1.173,0,0,1,5445.932,5082.719Z" transform="translate(-5445.926 -5081.655)" fill="#fff" opacity="0.76"/>
      </g>
      <path id="Path_3551" data-name="Path 3551" d="M5437.742,5097.544a19.228,19.228,0,1,1,17.3,20.977A19.251,19.251,0,0,1,5437.742,5097.544Zm37.108,3.564a18.05,18.05,0,1,0-19.693,16.239A18.071,18.071,0,0,0,5474.85,5101.108Z" transform="translate(-5417.429 -5077.336)" fill="url(#linear-gradient-3)"/>
      <g id="Group_4668" data-name="Group 4668">
        <g id="Group_4667" data-name="Group 4667">
          <circle id="Ellipse_413" data-name="Ellipse 413" cx="18.638" cy="18.638" r="18.638" transform="translate(19.117 38.816) rotate(-84.511)" fill="none"/>
          <g id="Group_4666" data-name="Group 4666" transform="translate(17.407)">
            <path id="Path_3552" data-name="Path 3552" d="M5443.392,5116.6a.471.471,0,0,1,.063.094,21.8,21.8,0,1,0-3.569-4.346l2.264,2.745Zm-3.621-17.558a18.638,18.638,0,1,1,16.769,20.334A18.64,18.64,0,0,1,5439.771,5099.042Z" transform="translate(-5436.278 -5078.778)" fill="url(#linear-gradient-4)"/>
            <path id="Path_3553" data-name="Path 3553" d="M5436.55,5098.883a22.044,22.044,0,1,1,19.834,24.052,21.829,21.829,0,0,1-12.961-5.86l-.049-.06c-.02-.03-.029-.046-.039-.06l-3.53-4.284A21.825,21.825,0,0,1,5436.55,5098.883Zm43.3,4.163a21.456,21.456,0,0,0-42.715-4.106,21.238,21.238,0,0,0,3.16,13.4l3.493,4.235c.024.031.045.064.066.1a21.238,21.238,0,0,0,12.586,5.672A21.475,21.475,0,0,0,5479.85,5103.046Zm-40.2-3.864a18.933,18.933,0,1,1,17.036,20.655A18.954,18.954,0,0,1,5439.645,5099.182Zm37.105,3.564a18.343,18.343,0,1,0-20.014,16.5A18.364,18.364,0,0,0,5476.75,5102.746Z" transform="translate(-5436.446 -5078.946)" fill="url(#linear-gradient-5)"/>
          </g>
          <path id="Path_3554" data-name="Path 3554" d="M5439.491,5096.932l.921-.756a.835.835,0,0,1,1.172.112l-2.264-2.745-.038-.046a.834.834,0,0,0-1.171-.113l-1.116.921A20.257,20.257,0,0,1,5439.491,5096.932Z" transform="translate(-5418.306 -5059.974)" fill="#192f77"/>
          <path id="Path_3555" data-name="Path 3555" d="M5440.159,5094.694a.833.833,0,0,0-1.171-.112l-.921.756a23.571,23.571,0,0,1,2.154,2.915l1.07-.881a.831.831,0,0,0,.174-1.078.512.512,0,0,0-.062-.095Z" transform="translate(-5416.879 -5058.38)" fill="#192f77"/>
          <path id="Path_3556" data-name="Path 3556" d="M5435.579,5113.545l16.877-13.766c.062-.049,0-.223-.136-.479a23.547,23.547,0,0,0-2.154-2.914,20.2,20.2,0,0,0-2.5-2.627c-.173-.126-.3-.183-.349-.138l-16.878,13.766a3.957,3.957,0,0,0-.54,5.613A4.063,4.063,0,0,0,5435.579,5113.545Z" transform="translate(-5428.98 -5059.426)" fill="url(#linear-gradient-6)"/>
        </g>
      </g>
    </g>
    <g id="Group_12-2" data-name="Group 12-2" transform="translate(5619.156 5055.882)" opacity="0.2">
      <path id="Fill_10" data-name="Fill 10" d="M5544.208,5046.9a1.837,1.837,0,0,0,.3-1.2c-.106-.665-.76-1.068-1.734-1.183a2.055,2.055,0,0,0,.167-1.118c-.287-1.778-3.569-2.1-7.329-.716a15.565,15.565,0,0,0-3.562,1.84,1.484,1.484,0,0,0-.007-.644c-.34-1.321-2.887-1.073-5.684.558a14.537,14.537,0,0,0-1.893,1.312c-.215-.521-1.32-.49-2.55.091a5.545,5.545,0,0,0-1.587,1.113l-9.784.814h43.41Z" transform="translate(-5510.544 -5041.826)" fill="#00aeef"/>
    </g>
    <g id="Group_12-2-2" data-name="Group 12-2" transform="translate(5431.886 5120.621)" opacity="0.2">
      <path id="Fill_10-2" data-name="Fill 10" d="M5438.775,5074.043a1.612,1.612,0,0,1-.266-1.051c.1-.585.668-.937,1.524-1.039a1.813,1.813,0,0,1-.15-.98c.254-1.56,3.131-1.839,6.428-.627a13.671,13.671,0,0,1,3.126,1.611,1.336,1.336,0,0,1,0-.565c.3-1.158,2.534-.938,4.985.491a12.735,12.735,0,0,1,1.66,1.152c.188-.46,1.156-.432,2.237.078a4.94,4.94,0,0,1,1.4.975l8.577.717h-38.071Z" transform="translate(-5430.226 -5069.592)" fill="#00aeef"/>
    </g>
    <g id="Group_4674" data-name="Group 4674" transform="translate(5563.198 5097.139)">
      <rect id="Rectangle_1943" data-name="Rectangle 1943" width="133.686" height="48.066" rx="2.689" fill="url(#linear-gradient-7)"/>
      <g id="Group_4673" data-name="Group 4673" transform="translate(16.592 13.739)">
        <path id="Path_3557" data-name="Path 3557" d="M5498.889,5070.381a.6.6,0,0,1,.007.5,1.064,1.064,0,0,1-.834.971.63.63,0,0,1-.531.006,1.275,1.275,0,0,1-.986-1.321,1.224,1.224,0,0,1,1.114-1.212A1.2,1.2,0,0,1,5498.889,5070.381Z" transform="translate(-5489.821 -5060.202)" fill="#fff"/>
        <path id="Path_3558" data-name="Path 3558" d="M5502.569,5071.762a3.743,3.743,0,0,0-2.8-3.4l-.131-.02a2.156,2.156,0,0,0-1.264-.007l-.129.021a3.447,3.447,0,0,0-2.62,2.865l-.015.143a3.777,3.777,0,0,0,1.139,3.5,3.186,3.186,0,0,0,3.738.724,3.462,3.462,0,0,0,2.094-3.168A1.9,1.9,0,0,0,5502.569,5071.762Zm-3.451,2.8a2.474,2.474,0,0,1-2.356-2.5,2.338,2.338,0,0,1,2.284-2.492,2.478,2.478,0,0,1,2.34,2.516A2.34,2.34,0,0,1,5499.119,5074.56Z" transform="translate(-5491.15 -5061.645)" fill="#fff"/>
        <g id="Group_4670" data-name="Group 4670">
          <path id="Path_3559" data-name="Path 3559" d="M5504.123,5069.428a.6.6,0,0,0-.532,0,1.019,1.019,0,0,0-.833.9.831.831,0,0,0,.013.667,1.088,1.088,0,0,0,.862.9.708.708,0,0,0,.533.009,1.164,1.164,0,0,0,.912-1.253A1.215,1.215,0,0,0,5504.123,5069.428Z" transform="translate(-5481.632 -5060.147)" fill="#fff"/>
          <path id="Path_3560" data-name="Path 3560" d="M5521.609,5071.484l0-.13a11.174,11.174,0,0,1,1.366-2.985c-1.438-.011-2.808-.024-4.174-.024a1.356,1.356,0,0,1-.756-.22,15.967,15.967,0,0,0-5.091-2.123l-.129-.024a4.254,4.254,0,0,0-1.1-.231l-.139-.019a.824.824,0,0,0-.475-.077l-.129-.018a.627.627,0,0,0-.142-.049,19.557,19.557,0,0,0-4.849-.038.616.616,0,0,0-.38.049l-.021.007a.931.931,0,0,0-.465.073l-.2.025a4.373,4.373,0,0,0-1.089.219l-.13.023a15.461,15.461,0,0,0-5.32,2.252.783.783,0,0,1-.45.178c-1.427-.018-2.852-.022-4.276-.031l0,.083a8.579,8.579,0,0,1,1.5,3.276,1.706,1.706,0,0,1-.112,1.113,4.269,4.269,0,0,0-.367,1.324l-.015.145a7.935,7.935,0,0,0,.841,5.377c2.486,4.63,8.336,5.345,11.587,1.421.176-.209.246-.264.415.023.363.621.772,1.215,1.143,1.833.17.279.261.256.415-.008.42-.722.861-1.431,1.3-2.161a7.205,7.205,0,0,0,4.4,2.83l.14.021a.949.949,0,0,0,.548.078,3.149,3.149,0,0,0,1.147.015,3.644,3.644,0,0,0,.456-.021,6.861,6.861,0,0,0,5.6-4.9A7.93,7.93,0,0,0,5521.609,5071.484Zm-8.1,10.057a6.455,6.455,0,0,1-3.265-6.154,5.841,5.841,0,0,1,4.443-5.413c.086-.02.17-.048.255-.076l.134-.016,1.53.012.13.017a6.321,6.321,0,0,1,2.7,1.333,6.482,6.482,0,0,1,2.057,3.482c.021.092.053.181.078.272l.019.143a10.592,10.592,0,0,1,.033,1.82l-.014.146a6.6,6.6,0,0,1-1.558,3.3A5.328,5.328,0,0,1,5513.51,5081.541Zm-13.7.139a6.393,6.393,0,0,1-3.818-6.506,5.853,5.853,0,0,1,4.592-5.36,5.957,5.957,0,0,1,6.713,5.146c.017.094.044.185.066.278l.016.14a6.681,6.681,0,0,1-.991,4.128A5.382,5.382,0,0,1,5499.81,5081.68Zm4.125-15.675-.006-.012h0Z" transform="translate(-5493.66 -5065.413)" fill="#fff"/>
          <path id="Path_3561" data-name="Path 3561" d="M5505.872,5068.394a.039.039,0,0,0-.059-.009,2.178,2.178,0,0,0-1.265-.014l-.124.021a3.492,3.492,0,0,0-2.693,3.2,2.627,2.627,0,0,0,.018.99,3.712,3.712,0,0,0,2.8,3.234l.127.022a2.1,2.1,0,0,0,1.2.012l.126-.019a3.463,3.463,0,0,0,2.7-3.116,2.4,2.4,0,0,0-.019-1.161A3.681,3.681,0,0,0,5505.872,5068.394Zm-.615,6.206a2.475,2.475,0,0,1-2.346-2.506,2.346,2.346,0,0,1,2.261-2.482,2.478,2.478,0,0,1,2.365,2.489A2.341,2.341,0,0,1,5505.257,5074.6Z" transform="translate(-5482.965 -5061.592)" fill="#fff"/>
        </g>
        <path id="Path_3562" data-name="Path 3562" d="M5504.159,5073.324a3.112,3.112,0,0,1-1.146-.016c.074-.021.149-.043.223-.057a1.608,1.608,0,0,1,.7,0A1.536,1.536,0,0,1,5504.159,5073.324Z" transform="translate(-5481.209 -5055.026)" fill="#fff"/>
        <path id="Path_3563" data-name="Path 3563" d="M5501.67,5065.567a.283.283,0,0,1-.133.064.6.6,0,0,1-.312-.054l-.013,0,.32-.026Z" transform="translate(-5483.606 -5065.234)" fill="#fff"/>
        <path id="Path_3564" data-name="Path 3564" d="M5517.282,5071.41a1.41,1.41,0,0,1-.008-.577A.531.531,0,0,1,5517.282,5071.41Z" transform="translate(-5462.25 -5058.196)" fill="#fff"/>
        <path id="Path_3565" data-name="Path 3565" d="M5503.174,5073.249l-.317.025-.14-.021a.294.294,0,0,1,.14-.066.59.59,0,0,1,.3.053Z" transform="translate(-5481.603 -5055.068)" fill="#fff"/>
        <path id="Path_3566" data-name="Path 3566" d="M5498.865,5065.563l-.086.033-.039.014h-.007a.236.236,0,0,1-.241-.058l.2-.026Z" transform="translate(-5487.227 -5065.262)" fill="#fff"/>
        <path id="Path_3567" data-name="Path 3567" d="M5505.7,5068.148a.152.152,0,0,1-.06.007c-.079-.007,0-.118-.027-.161,0-.007.011-.031.027-.052l.014-.023.042.1Z" transform="translate(-5477.753 -5062.076)" fill="#fff"/>
        <path id="Path_3568" data-name="Path 3568" d="M5501.316,5065.526a.154.154,0,0,1-.166.07l-.016,0a.829.829,0,0,1-.119-.042l.172-.042Z" transform="translate(-5483.866 -5065.287)" fill="#fff"/>
        <path id="Path_3569" data-name="Path 3569" d="M5502.114,5065.68a.177.177,0,0,1-.137.07c-.054.005-.111-.007-.178-.007l.021-.034c.049-.067.118-.029.165-.053Z" transform="translate(-5482.826 -5065.09)" fill="#fff"/>
        <path id="Path_3570" data-name="Path 3570" d="M5494.146,5069.543l-.006-.029-.044-.214.015-.145a.225.225,0,0,1,.065.148A.756.756,0,0,1,5494.146,5069.543Z" transform="translate(-5493.085 -5060.429)" fill="#fff"/>
        <path id="Path_3571" data-name="Path 3571" d="M5499.177,5065.475c-.119.113-.261.071-.4.055l.021-.007A.63.63,0,0,1,5499.177,5065.475Z" transform="translate(-5486.847 -5065.342)" fill="#fff"/>
        <path id="Path_3572" data-name="Path 3572" d="M5498.319,5065.667l-.019.01a.33.33,0,0,1-.192.046.223.223,0,0,1-.138-.069l.13-.023Z" transform="translate(-5487.923 -5065.124)" fill="#fff"/>
        <path id="Path_3573" data-name="Path 3573" d="M5505.078,5070.651a1.164,1.164,0,0,1-.912,1.253.708.708,0,0,1-.533-.009,1.088,1.088,0,0,1-.862-.9.831.831,0,0,1-.013-.667,1.019,1.019,0,0,1,.833-.9.6.6,0,0,1,.532,0A1.215,1.215,0,0,1,5505.078,5070.651Z" transform="translate(-5481.632 -5060.147)" fill="#fff"/>
        <path id="Path_3574" data-name="Path 3574" d="M5510.927,5074.425l-.014.146C5510.969,5074.529,5510.96,5074.479,5510.927,5074.425Zm-.052-1.964.02.143C5510.927,5072.552,5510.936,5072.5,5510.875,5072.461Zm-2.193.376a3.68,3.68,0,0,0-2.81-3.157.038.038,0,0,0-.059-.01,2.178,2.178,0,0,0-1.265-.015l-.124.021a3.492,3.492,0,0,0-2.693,3.2,2.625,2.625,0,0,0,.018.989,3.712,3.712,0,0,0,2.8,3.234l.127.022a2.093,2.093,0,0,0,1.2.012l.126-.019a3.462,3.462,0,0,0,2.7-3.115A2.407,2.407,0,0,0,5508.682,5072.837Zm-3.425,3.047a2.475,2.475,0,0,1-2.346-2.506,2.346,2.346,0,0,1,2.261-2.482,2.479,2.479,0,0,1,2.365,2.489A2.34,2.34,0,0,1,5505.257,5075.884Zm.654-8.527.131.018C5506.006,5067.311,5505.958,5067.322,5505.912,5067.357Zm-1.664,0,.135-.014C5504.332,5067.311,5504.286,5067.3,5504.248,5067.361Z" transform="translate(-5482.965 -5062.877)" fill="#fff"/>
        <path id="Path_3575" data-name="Path 3575" d="M5498.889,5070.381a.6.6,0,0,1,.007.5,1.064,1.064,0,0,1-.834.971.63.63,0,0,1-.531.006,1.275,1.275,0,0,1-.986-1.321,1.224,1.224,0,0,1,1.114-1.212A1.2,1.2,0,0,1,5498.889,5070.381Z" transform="translate(-5489.821 -5060.202)" fill="#fff"/>
        <path id="Path_3576" data-name="Path 3576" d="M5502.569,5071.762a3.743,3.743,0,0,0-2.8-3.4l-.131-.02a2.156,2.156,0,0,0-1.264-.007l-.129.021a3.447,3.447,0,0,0-2.62,2.865l-.015.143a3.777,3.777,0,0,0,1.139,3.5,3.186,3.186,0,0,0,3.738.724,3.462,3.462,0,0,0,2.094-3.168A1.9,1.9,0,0,0,5502.569,5071.762Zm-3.451,2.8a2.474,2.474,0,0,1-2.356-2.5,2.338,2.338,0,0,1,2.284-2.492,2.478,2.478,0,0,1,2.34,2.516A2.34,2.34,0,0,1,5499.119,5074.56Z" transform="translate(-5491.15 -5061.645)" fill="#fff"/>
        <path id="Path_3577" data-name="Path 3577" d="M5499.554,5069.766l-.016-.14C5499.6,5069.668,5499.591,5069.716,5499.554,5069.766Z" transform="translate(-5485.835 -5059.801)" fill="#fff"/>
        <path id="Path_3578" data-name="Path 3578" d="M5506.839,5066.209a21.393,21.393,0,0,1,3.542.992c.157.063.313.125.467.192a.087.087,0,0,1,0,.143,7.149,7.149,0,0,0-6.391,6.2c-.014.08-.041.156-.061.234-.082-.021.013-.164-.1-.159a8.82,8.82,0,0,0-1.388-3.263,7.181,7.181,0,0,0-5.615-3.151c-.088,0-.178-.012-.267-.019l-.043-.049a15.584,15.584,0,0,1,3.3-1,18.521,18.521,0,0,1,6.149-.141,2.563,2.563,0,0,0,.265.01C5506.755,5066.153,5506.8,5066.145,5506.839,5066.209Z" transform="translate(-5489.235 -5064.639)" fill="#fff"/>
        <path id="Path_3579" data-name="Path 3579" d="M5503.054,5067.375l-.135.014c-.059-.01-.114-.021-.228-.046C5502.854,5067.284,5502.958,5067.27,5503.054,5067.375Z" transform="translate(-5481.637 -5062.904)" fill="#fff"/>
        <path id="Path_3580" data-name="Path 3580" d="M5502.934,5066.737l0-.143c.079,0,.184.022.18.1C5503.1,5066.8,5503,5066.741,5502.934,5066.737Z" transform="translate(-5481.317 -5063.84)" fill="#fff"/>
        <path id="Path_3581" data-name="Path 3581" d="M5500.124,5069.351c.175-.05.044.121.1.159l-.023.1C5500.088,5069.553,5500.133,5069.444,5500.124,5069.351Z" transform="translate(-5485.056 -5060.181)" fill="#fff"/>
        <path id="Path_3582" data-name="Path 3582" d="M5501.287,5066.139l-.132-.015c.084-.107.187-.086.361-.041Z" transform="translate(-5483.683 -5064.568)" fill="#fff"/>
        <path id="Path_3583" data-name="Path 3583" d="M5505.651,5069.814l-.02-.143.035-.258C5505.729,5069.6,5505.748,5069.713,5505.651,5069.814Z" transform="translate(-5477.72 -5060.086)" fill="#fff"/>
        <path id="Path_3584" data-name="Path 3584" d="M5505.7,5070.755l-.056-.244.014-.146C5505.755,5070.462,5505.74,5070.574,5505.7,5070.755Z" transform="translate(-5477.7 -5058.817)" fill="#fff"/>
        <path id="Path_3585" data-name="Path 3585" d="M5499.554,5069.907l-.016-.14.042-.246C5499.635,5069.7,5499.656,5069.81,5499.554,5069.907Z" transform="translate(-5485.835 -5059.943)" fill="#fff"/>
        <path id="Path_3586" data-name="Path 3586" d="M5503.805,5067.352l-.172.041-.131-.018C5503.584,5067.261,5503.695,5067.31,5503.805,5067.352Z" transform="translate(-5480.555 -5062.894)" fill="#fff"/>
        <path id="Path_3587" data-name="Path 3587" d="M5518.127,5071.453a.22.22,0,0,1-.135-.207A.3.3,0,0,1,5518.127,5071.453Z" transform="translate(-5461.262 -5057.646)" fill="#fff"/>
        <path id="Path_3588" data-name="Path 3588" d="M5518.156,5071.453c-.055.019-.108.073-.161.005s.016-.141.026-.212A.3.3,0,0,1,5518.156,5071.453Z" transform="translate(-5461.291 -5057.646)" fill="#fff"/>
        <g id="Group_4671" data-name="Group 4671" transform="translate(54.997 3.197)">
          <path id="Path_3589" data-name="Path 3589" d="M5527.448,5071.775q-.042-2.312-.083-4.628c0-.116.071-.333-.122-.33a3.949,3.949,0,0,0-1.411.064q.036,2.438.071,4.876a4.2,4.2,0,0,0-1.435-1.076c-1.979-.689-3.921.81-4.015,3.11l-.01.14a5.527,5.527,0,0,0,.847,3.885,2.752,2.752,0,0,0,4.534.207c.074-.1.149-.193.246-.314.111.443-.044.858.122,1.245a6.215,6.215,0,0,0,1.3.014c.147-.111.063-.277.062-.415C5527.525,5076.293,5527.486,5074.035,5527.448,5071.775Zm-2,5.122a1.681,1.681,0,0,1-3-.222,4.358,4.358,0,0,1-.035-3.814,1.677,1.677,0,0,1,3.021-.089,4.166,4.166,0,0,1,.517,2.054A3.842,3.842,0,0,1,5525.448,5076.9Z" transform="translate(-5513.063 -5066.784)" fill="#fff"/>
          <path id="Path_3590" data-name="Path 3590" d="M5535.649,5068.491a3.463,3.463,0,0,0-3.977,2.7,6.088,6.088,0,0,0-.135,2.166,3.772,3.772,0,0,0,3.371,3.733,3.484,3.484,0,0,0,4.007-2.721,5.618,5.618,0,0,0,.162-1.55C5539.038,5070.332,5537.793,5068.759,5535.649,5068.491Zm1.368,6.25a1.89,1.89,0,0,1-3.265.118,4.189,4.189,0,0,1-.043-4.244,1.9,1.9,0,0,1,3.266.25,4.149,4.149,0,0,1,.47,1.945A3.973,3.973,0,0,1,5537.017,5074.741Z" transform="translate(-5498.274 -5064.557)" fill="#fff"/>
          <path id="Path_3591" data-name="Path 3591" d="M5531.991,5071.947a7.1,7.1,0,0,1-1.118-.65.858.858,0,0,1-.421-.863.8.8,0,0,1,.739-.647,2.321,2.321,0,0,1,.456-.033,3.912,3.912,0,0,1,1.637.382c.081.039.171.157.27.029a5.991,5.991,0,0,0,.013-1.309.336.336,0,0,0-.13-.072,4.559,4.559,0,0,0-3.4.049,2.063,2.063,0,0,0-.326,3.539,6.992,6.992,0,0,0,1.263.8,5.256,5.256,0,0,1,1,.622.98.98,0,0,1-.127,1.635,3.713,3.713,0,0,1-.527.208c-.095.008-.19.013-.287.018a5.151,5.151,0,0,1-2.177-.649c.007.476.021.872.015,1.27a.266.266,0,0,0,.2.3,4.029,4.029,0,0,0,1.375.308,3.01,3.01,0,0,0,.993.007,2.839,2.839,0,0,0,1.858-.7,2.318,2.318,0,0,0,.091-3.283A5.1,5.1,0,0,0,5531.991,5071.947Z" transform="translate(-5501.796 -5064.529)" fill="#fff"/>
          <path id="Path_3592" data-name="Path 3592" d="M5539.274,5068.541a2.164,2.164,0,0,0-2.291,1c-.069.1-.088.263-.242.29,0-.139.009-.276.006-.411-.011-.78-.011-.793-.748-.779-.219,0-.473-.137-.657.107l.135,8.019c.154.233.374.117.55.107.321-.015.664.139.962-.094q-.027-2.221-.056-4.443a.881.881,0,0,0,.052-.435c.344-1.509.848-1.894,2.291-1.733.176.018.194-.057.194-.2,0-.386,0-.771.007-1.155C5539.482,5068.655,5539.451,5068.564,5539.274,5068.541Z" transform="translate(-5493.155 -5064.488)" fill="#fff"/>
          <path id="Path_3593" data-name="Path 3593" d="M5528.533,5067.125a.539.539,0,0,0-.531-.018.912.912,0,0,0-.667,1.058.968.968,0,0,0,.88.876.9.9,0,0,0,.941-.752A1,1,0,0,0,5528.533,5067.125Z" transform="translate(-5503.833 -5066.437)" fill="#fff"/>
          <path id="Path_3594" data-name="Path 3594" d="M5528.892,5068.625c-.247-.265-.75-.072-1.139-.088-.116,0-.29-.1-.339.125q.068,4.009.134,8.017c.03.168.156.112.245.116.317.01.637-.017.951.016.292.028.355-.088.348-.389-.048-2.2-.076-4.4-.12-6.6C5528.965,5069.413,5529.119,5068.87,5528.892,5068.625Z" transform="translate(-5503.713 -5064.521)" fill="#fff"/>
          <path id="Path_3595" data-name="Path 3595" d="M5523.563,5072.506a7.453,7.453,0,0,0-.089-1.48,2.624,2.624,0,0,0-1.936-2.532,5.015,5.015,0,0,0-3.308.381.285.285,0,0,0-.192.306c.018.392.018.785.025,1.234a6.489,6.489,0,0,1,1.377-.618,1.851,1.851,0,0,1,2.583,1.406l0,.465a8.778,8.778,0,0,0-2.366.146c-.219.062-.441.12-.66.177a2.289,2.289,0,0,0-1.718,2.133,1.413,1.413,0,0,0,.008.578,2.279,2.279,0,0,0,1.945,2.161l.113.012a1.3,1.3,0,0,0,.842,0h0a1.345,1.345,0,0,0,.723-.169.479.479,0,0,0,.319-.154l.283-.19a.228.228,0,0,0,.174-.136c.147-.158.291-.318.435-.48.158.1.061.267.087.4.042.214-.058.448.078.652.353.013.709.014,1.064.042.241.021.3-.082.291-.33C5523.6,5075.178,5523.591,5073.843,5523.563,5072.506Zm-1.783,2.215c-.155.191-.314.383-.472.573-.248.1-.439.34-.728.343l-.077.006c-.257,0-.512,0-.766-.009a1.171,1.171,0,0,1-.622-.34.3.3,0,0,0-.135-.207,1.335,1.335,0,0,1,.714-2.013c.2-.069.407-.118.609-.177a1.117,1.117,0,0,0,.455-.053l.028-.013c.343,0,.685.019,1.026.013.179,0,.232.063.249.258A4.149,4.149,0,0,1,5521.78,5074.721Z" transform="translate(-5517.248 -5064.684)" fill="#fff"/>
          <path id="Path_3596" data-name="Path 3596" d="M5531.186,5068.535c-.461,0-.921.016-1.38.022-.114.037-.126.161-.168.254-.385.856-.766,1.713-1.15,2.57l-.836,1.867c-.314-.711-.583-1.34-.869-1.96-.421-.915-.771-1.865-1.254-2.75a9.38,9.38,0,0,0-1.53-.045c-.308-.01-.107.165-.056.277q1.33,2.865,2.667,5.729c.345.742.694,1.481,1.07,2.279.407-.9.79-1.744,1.168-2.586q1.2-2.685,2.4-5.375C5531.291,5068.707,5531.493,5068.542,5531.186,5068.535Z" transform="translate(-5508.486 -5064.521)" fill="#fff"/>
        </g>
        <g id="Group_4672" data-name="Group 4672" transform="translate(31.841 3.575)">
          <path id="Path_3597" data-name="Path 3597" d="M5520.55,5070.582c-.892-2.486-3.693-3.023-5.217-1.026-.047.064-.06.193-.215.159l-.021-1.062c.008-.163-.106-.123-.185-.126-.292,0-.584.014-.876-.011-.265-.023-.342.065-.335.356.07,3.647.128,7.291.192,10.936,0,.082.016.163.024.246a4.474,4.474,0,0,0,1.407.084c.155.009.113-.147.113-.249-.007-.523-.015-1.044-.024-1.566l-.045-2.586a1.683,1.683,0,0,1,.136.107,2.857,2.857,0,0,0,4.989-.876A6.086,6.086,0,0,0,5520.55,5070.582Zm-1.516,3.646a1.727,1.727,0,0,1-1.669,1.339,1.854,1.854,0,0,1-1.76-1.359c-.114-.3-.176-.632-.262-.948l-.016-.14a6.128,6.128,0,0,1,.136-1.754,1.874,1.874,0,0,1,2.3-1.548,1.8,1.8,0,0,1,1.221,1.225A4.811,4.811,0,0,1,5519.034,5074.229Z" transform="translate(-5498.814 -5065.095)" fill="#fff"/>
          <path id="Path_3598" data-name="Path 3598" d="M5514.02,5068.376a2.163,2.163,0,0,0-2.314,1.021c-.048.08-.065.206-.184.224-.089-.38.061-.765-.11-1.124h0a4.259,4.259,0,0,0-1.3.007c-.021.031-.052.062-.052.1q.064,3.951.129,7.907c0,.087-.017.206.13.185a6.851,6.851,0,0,0,1.375,0c.113-.053.061-.165.057-.249-.021-1.463-.045-2.921-.07-4.384l.017-.224a.262.262,0,0,0,.036-.072c.126-1.226.967-2.137,2.291-1.77.153.042.172-.033.174-.161.007-.412.014-.823.029-1.235C5514.228,5068.439,5514.159,5068.394,5514.02,5068.376Z" transform="translate(-5503.671 -5065.09)" fill="#fff"/>
          <path id="Path_3599" data-name="Path 3599" d="M5513.457,5067.012a.554.554,0,0,0-.531.006.928.928,0,0,0-.607,1.04.973.973,0,0,0,.765.871.841.841,0,0,0,.995-.593.8.8,0,0,0-.008-.741A.767.767,0,0,0,5513.457,5067.012Z" transform="translate(-5500.669 -5066.947)" fill="#fff"/>
          <path id="Path_3600" data-name="Path 3600" d="M5513.951,5068.736c0-.1.058-.226-.08-.288-.368-.011-.736-.006-1.1-.042-.289-.024-.392.058-.378.4.041,1,.043,2.009.059,3.015.025,1.5.053,3,.074,4.5.006.2-.021.379.267.358.4-.028.81-.018,1.218-.024.142-.053.071-.187.071-.28Q5514.021,5072.558,5513.951,5068.736Z" transform="translate(-5500.562 -5065.007)" fill="#fff"/>
          <path id="Path_3601" data-name="Path 3601" d="M5512.254,5076.739c-.158.05-.32.1-.478.147l-.206.021h-.078l-.217-.017a.923.923,0,0,1-.651-.672c-.049-.2-.091-.392-.134-.589-.025-1.479-.045-2.959-.069-4.437.292-.007.581-.019.872-.019.974,0,.967.007.911-1.072-.014-.222-.078-.273-.272-.278a8.352,8.352,0,0,1-1.474-.049.481.481,0,0,1-.06-.114c-.005-.062-.011-.124-.015-.185v0l-.021-1.928c0-.09.018-.2-.1-.241a.3.3,0,0,0-.009.058,6.829,6.829,0,0,0-1.347.514l.006,1.871a5.625,5.625,0,0,1-1.322.056c-.1.009-.253-.047-.247.15.014.382-.107.821.074,1.127.123.207.52.05.8.075a1.538,1.538,0,0,0,.342,0c.25-.035.321.072.321.343.011,1.305.041,2.614.062,3.919a5.272,5.272,0,0,0,.188,1.43,1.7,1.7,0,0,0,1.176,1.262,3.266,3.266,0,0,0,1.989-.039c.21-.035.109-.22.1-.323C5512.352,5077.411,5512.511,5077.044,5512.254,5076.739Z" transform="translate(-5507.317 -5066.473)" fill="#fff"/>
          <path id="Path_3602" data-name="Path 3602" d="M5510.637,5068.408Z" transform="translate(-5502.897 -5065)" fill="#fff"/>
        </g>
        <path id="Path_3603" data-name="Path 3603" d="M5505.078,5070.651a1.164,1.164,0,0,1-.912,1.253.708.708,0,0,1-.533-.009,1.088,1.088,0,0,1-.862-.9.831.831,0,0,1-.013-.667,1.019,1.019,0,0,1,.833-.9.6.6,0,0,1,.532,0A1.215,1.215,0,0,1,5505.078,5070.651Z" transform="translate(-5481.632 -5060.147)" fill="#fff"/>
        <path id="Path_3604" data-name="Path 3604" d="M5508.661,5071.552a3.681,3.681,0,0,0-2.81-3.158c-.086.07-.187.034-.308.047h0l-.049.009.045-.012c.1-.019.191.026.255-.054a2.178,2.178,0,0,0-1.265-.014.142.142,0,0,0,.091.057.307.307,0,0,1-.214-.037,3.492,3.492,0,0,0-2.693,3.2,3.1,3.1,0,0,1,.018.99,3.711,3.711,0,0,0,2.8,3.234.321.321,0,0,1,.2-.028.157.157,0,0,0-.069.05,2.1,2.1,0,0,0,1.2.012.133.133,0,0,0-.1-.058.332.332,0,0,1,.228.039,3.464,3.464,0,0,0,2.7-3.116C5508.663,5072.326,5508.653,5071.939,5508.661,5071.552Zm-4.01-3.125a.349.349,0,0,0,.072-.022c.014-.007.018.005,0,.033A.21.21,0,0,0,5504.65,5068.428Zm1.085,7.365a.206.206,0,0,0-.081.019c-.017.007-.018-.006,0-.033A.274.274,0,0,0,5505.735,5075.792Zm-.5-1.193a2.476,2.476,0,0,1-2.346-2.506,2.347,2.347,0,0,1,2.262-2.482,2.478,2.478,0,0,1,2.365,2.489A2.341,2.341,0,0,1,5505.235,5074.6Z" transform="translate(-5482.944 -5061.592)" fill="#fff"/>
        <path id="Path_3605" data-name="Path 3605" d="M5504.761,5070.847a1.784,1.784,0,0,1-.02-1.163A2.391,2.391,0,0,1,5504.761,5070.847Z" transform="translate(-5479.025 -5059.724)" fill="#fff"/>
        <path id="Path_3606" data-name="Path 3606" d="M5501.75,5070.691a2.625,2.625,0,0,1-.018-.989A1.533,1.533,0,0,1,5501.75,5070.691Z" transform="translate(-5482.965 -5059.702)" fill="#fff"/>
        <path id="Path_3607" data-name="Path 3607" d="M5503.7,5068.342a.242.242,0,0,1-.307.046h0l0,0-.062-.027.318-.026A.038.038,0,0,1,5503.7,5068.342Z" transform="translate(-5480.793 -5061.539)" fill="#fff"/>
        <path id="Path_3608" data-name="Path 3608" d="M5503.3,5068.362c-.2.074-.322.089-.44-.021l.123-.021Z" transform="translate(-5481.405 -5061.541)" fill="#fff"/>
        <path id="Path_3609" data-name="Path 3609" d="M5503.352,5071.539l-.306.039-.128-.021C5503.038,5071.448,5503.167,5071.47,5503.352,5071.539Z" transform="translate(-5481.335 -5057.333)" fill="#fff"/>
        <path id="Path_3610" data-name="Path 3610" d="M5503.792,5071.566l-.126.019-.315-.045C5503.544,5071.471,5503.669,5071.453,5503.792,5071.566Z" transform="translate(-5480.758 -5057.328)" fill="#fff"/>
        <path id="Path_3611" data-name="Path 3611" d="M5498.889,5070.381a.6.6,0,0,1,.007.5,1.064,1.064,0,0,1-.834.971.63.63,0,0,1-.531.006,1.275,1.275,0,0,1-.986-1.321,1.224,1.224,0,0,1,1.114-1.212A1.2,1.2,0,0,1,5498.889,5070.381Z" transform="translate(-5489.821 -5060.202)" fill="#fff"/>
        <path id="Path_3612" data-name="Path 3612" d="M5502.569,5071.762a3.743,3.743,0,0,0-2.8-3.4.277.277,0,0,1-.2.027.078.078,0,0,0,.073-.047,2.156,2.156,0,0,0-1.264-.007c.053.082.133.03.224.068-.136-.036-.249.014-.354-.048a3.447,3.447,0,0,0-2.62,2.865.456.456,0,0,1,.035.219.263.263,0,0,0-.049-.077,3.777,3.777,0,0,0,1.139,3.5,3.186,3.186,0,0,0,3.738.724,3.462,3.462,0,0,0,2.094-3.168A1.444,1.444,0,0,1,5502.569,5071.762Zm-3.451,2.8a2.474,2.474,0,0,1-2.356-2.5,2.338,2.338,0,0,1,2.284-2.492,2.478,2.478,0,0,1,2.34,2.516A2.34,2.34,0,0,1,5499.119,5074.56Z" transform="translate(-5491.15 -5061.645)" fill="#fff"/>
        <path id="Path_3613" data-name="Path 3613" d="M5498.614,5070.412a.713.713,0,0,1-.013-.66A1.873,1.873,0,0,1,5498.614,5070.412Z" transform="translate(-5487.182 -5059.636)" fill="#fff"/>
        <path id="Path_3614" data-name="Path 3614" d="M5497.142,5068.322c-.187.07-.315.088-.438-.02l.129-.02C5496.917,5068.292,5497,5068.3,5497.142,5068.322Z" transform="translate(-5489.609 -5061.593)" fill="#fff"/>
        <path id="Path_3615" data-name="Path 3615" d="M5495.609,5069.936l-.034-.273.015-.143C5495.707,5069.651,5495.645,5069.8,5495.609,5069.936Z" transform="translate(-5491.114 -5059.945)" fill="#fff"/>
        <path id="Path_3616" data-name="Path 3616" d="M5497.562,5068.305c-.086.1-.189.083-.358.034l.227-.054Z" transform="translate(-5488.944 -5061.589)" fill="#fff"/>
        <path id="Path_3617" data-name="Path 3617" d="M5505.078,5070.651a1.164,1.164,0,0,1-.912,1.253.708.708,0,0,1-.533-.009,1.088,1.088,0,0,1-.862-.9.831.831,0,0,1-.013-.667,1.019,1.019,0,0,1,.833-.9.6.6,0,0,1,.532,0A1.215,1.215,0,0,1,5505.078,5070.651Z" transform="translate(-5481.632 -5060.147)" fill="#fff"/>
        <path id="Path_3618" data-name="Path 3618" d="M5503.607,5071.089l-.48-.007C5503.307,5070.971,5503.454,5071.056,5503.607,5071.089Z" transform="translate(-5481.057 -5057.938)" fill="#fff"/>
        <path id="Path_3619" data-name="Path 3619" d="M5498.9,5070.884a1.064,1.064,0,0,1-.834.971.63.63,0,0,1-.531.006,1.275,1.275,0,0,1-.986-1.321,1.224,1.224,0,0,1,1.114-1.212,1.2,1.2,0,0,1,1.229,1.053A.6.6,0,0,1,5498.9,5070.884Z" transform="translate(-5489.821 -5060.202)" fill="#fff"/>
        <path id="Path_3620" data-name="Path 3620" d="M5496.983,5070.988l.5,0,.005.037-.5,0Z" transform="translate(-5489.238 -5057.988)" fill="#fff"/>
        <path id="Path_3621" data-name="Path 3621" d="M5505.042,5070.618a1.164,1.164,0,0,1-.913,1.252,1.128,1.128,0,0,0-.532-.009,1.089,1.089,0,0,1-.863-.9c0-.221,0-.445-.012-.667a1.018,1.018,0,0,1,.833-.895,2.8,2.8,0,0,0,.532,0A1.219,1.219,0,0,1,5505.042,5070.618Z" transform="translate(-5481.595 -5060.114)" fill="#fff"/>
        <path id="Path_3622" data-name="Path 3622" d="M5502.771,5070.443a.83.83,0,0,1-.013-.666A.639.639,0,0,1,5502.771,5070.443Z" transform="translate(-5481.632 -5059.6)" fill="#fff"/>
        <path id="Path_3623" data-name="Path 3623" d="M5503.611,5069.428a.426.426,0,0,1-.532,0A.6.6,0,0,1,5503.611,5069.428Z" transform="translate(-5481.12 -5060.147)" fill="#fff"/>
        <path id="Path_3624" data-name="Path 3624" d="M5503.629,5070.509a.708.708,0,0,1-.532-.01A.438.438,0,0,1,5503.629,5070.509Z" transform="translate(-5481.096 -5058.753)" fill="#fff"/>
        <path id="Path_3625" data-name="Path 3625" d="M5498.9,5070.884a1.064,1.064,0,0,1-.834.971,4.016,4.016,0,0,0-.531.006,1.275,1.275,0,0,1-.986-1.321,1.224,1.224,0,0,1,1.114-1.212,1.2,1.2,0,0,1,1.229,1.053A4.022,4.022,0,0,0,5498.9,5070.884Z" transform="translate(-5489.821 -5060.202)" fill="#fff"/>
        <path id="Path_3626" data-name="Path 3626" d="M5497.609,5070.281a.383.383,0,0,1-.009-.5A.593.593,0,0,1,5497.609,5070.281Z" transform="translate(-5488.534 -5059.6)" fill="#fff"/>
        <path id="Path_3627" data-name="Path 3627" d="M5497.5,5070.46a.633.633,0,0,1-.531.006A.445.445,0,0,1,5497.5,5070.46Z" transform="translate(-5489.258 -5058.807)" fill="#fff"/>
      </g>
    </g>
    <g id="Group_4680" data-name="Group 4680" transform="translate(5566.681 5093.026)">
      <g id="Group_4675" data-name="Group 4675" transform="translate(4.825 4.825)">
        <circle id="Ellipse_414" data-name="Ellipse 414" cx="24.321" cy="24.321" r="24.321" fill="#fff" opacity="0.21"/>
      </g>
      <g id="Group_4676" data-name="Group 4676" transform="translate(8.986 7.467)" opacity="0.2">
        <path id="Path_3628" data-name="Path 3628" d="M5493.085,5080.078a1.541,1.541,0,0,1-1.154-1.842,22.279,22.279,0,0,1,26.667-16.71,1.537,1.537,0,0,1-.69,3,19.2,19.2,0,0,0-22.981,14.4A1.538,1.538,0,0,1,5493.085,5080.078Z" transform="translate(-5491.892 -5060.959)" fill="#fff" opacity="0.76"/>
      </g>
      <path id="Path_3629" data-name="Path 3629" d="M5509.257,5109.041a25.089,25.089,0,1,1,30.065-18.841A25.119,25.119,0,0,1,5509.257,5109.041Zm10.882-47.41a23.553,23.553,0,1,0,17.687,28.227A23.578,23.578,0,0,0,5520.139,5061.631Z" transform="translate(-5485.725 -5055.442)" fill="url(#linear-gradient-8)"/>
      <g id="Group_4679" data-name="Group 4679" transform="translate(0 0)">
        <g id="Group_4678" data-name="Group 4678">
          <circle id="Ellipse_415" data-name="Ellipse 415" cx="24.321" cy="24.321" r="24.321" transform="translate(0 47.409) rotate(-77.072)" fill="none"/>
          <g id="Group_4677" data-name="Group 4677" transform="translate(0.377 0.377)">
            <path id="Path_3630" data-name="Path 3630" d="M5534.64,5108.454a.992.992,0,0,1,.134-.065,28.443,28.443,0,1,0-6.226,3.884l3.932-2.465Zm-23.331,1.72a24.322,24.322,0,1,1,29.146-18.264A24.322,24.322,0,0,1,5511.309,5110.174Z" transform="translate(-5487.981 -5057.699)" fill="url(#linear-gradient-9)"/>
            <path id="Path_3631" data-name="Path 3631" d="M5510.533,5114.726a28.766,28.766,0,1,1,34.473-21.6,28.479,28.479,0,0,1-9.771,15.781l-.086.054a.528.528,0,0,0-.085.042l-6.141,3.843A28.5,28.5,0,0,1,5510.533,5114.726Zm12.7-55.326a28,28,0,1,0-12.527,54.575,27.7,27.7,0,0,0,17.874-1.82l6.074-3.807a1.323,1.323,0,0,1,.133-.068,27.728,27.728,0,0,0,9.47-15.329A28.03,28.03,0,0,0,5523.234,5059.4Zm-11.794,51.366a24.705,24.705,0,1,1,29.611-18.55A24.732,24.732,0,0,1,5511.44,5110.766Zm10.884-47.408a23.937,23.937,0,1,0,17.974,28.688A23.963,23.963,0,0,0,5522.324,5063.357Z" transform="translate(-5488.199 -5057.918)" fill="url(#linear-gradient-10)"/>
          </g>
          <path id="Path_3632" data-name="Path 3632" d="M5510.345,5083.082l-.827-1.32a1.082,1.082,0,0,1,.341-1.5l-3.932,2.465-.066.041a1.085,1.085,0,0,0-.343,1.5l1,1.6A25.808,25.808,0,0,1,5510.345,5083.082Z" transform="translate(-5464.985 -5027.782)" fill="#192f77"/>
          <path id="Path_3633" data-name="Path 3633" d="M5507.575,5081.132a1.083,1.083,0,0,0-.341,1.5l.828,1.32a29.928,29.928,0,0,1,4.13-2.292l-.96-1.532a1.126,1.126,0,0,0-1.5-.344Z" transform="translate(-5462.7 -5028.647)" fill="#192f77"/>
          <path id="Path_3634" data-name="Path 3634" d="M5529.554,5104.639l-14.959-24.164c-.054-.085-.29-.043-.644.1a30.033,30.033,0,0,0-4.131,2.292,25.761,25.761,0,0,0-3.824,2.788c-.193.2-.285.351-.238.427l14.96,24.164a5.164,5.164,0,0,0,7.172,1.647A5.3,5.3,0,0,0,5529.554,5104.639Z" transform="translate(-5464.459 -5027.563)" fill="url(#linear-gradient-6)"/>
        </g>
      </g>
    </g>
    <g id="Group_4686" data-name="Group 4686" transform="translate(5505.358 5031.989)">
      <g id="Group_4681" data-name="Group 4681" transform="translate(6.662 6.663)">
        <circle id="Ellipse_416" data-name="Ellipse 416" cx="17.447" cy="17.447" r="17.447" fill="#fff" opacity="0.21"/>
      </g>
      <g id="Group_4682" data-name="Group 4682" transform="translate(15.489 9.232)" opacity="0.2">
        <path id="Path_3635" data-name="Path 3635" d="M5468.556,5039.59a1.1,1.1,0,0,1,.332-1.523,15.98,15.98,0,0,1,22.059,4.8,1.1,1.1,0,0,1-1.855,1.19,13.775,13.775,0,0,0-19.011-4.137A1.1,1.1,0,0,1,5468.556,5039.59Z" transform="translate(-5468.381 -5035.539)" fill="#fff" opacity="0.76"/>
      </g>
      <path id="Path_3636" data-name="Path 3636" d="M5467.212,5061.924a18,18,0,1,1,24.869,5.414A18.018,18.018,0,0,1,5467.212,5061.924Zm29.356-18.862a16.9,16.9,0,1,0-5.08,23.349A16.913,16.913,0,0,0,5496.568,5043.062Z" transform="translate(-5458.244 -5028.084)" fill="url(#linear-gradient-12)"/>
      <g id="Group_4685" data-name="Group 4685" transform="translate(0 0)">
        <g id="Group_4684" data-name="Group 4684" transform="translate(0)">
          <circle id="Ellipse_417" data-name="Ellipse 417" cx="17.447" cy="17.447" r="17.447" transform="translate(0 18.862) rotate(-32.722)" fill="none"/>
          <g id="Group_4683" data-name="Group 4683" transform="translate(3.479 3.479)">
            <path id="Path_3637" data-name="Path 3637" d="M5481.861,5073.8a.705.705,0,0,1,.1.032,20.423,20.423,0,1,0-5.143-1.132l3.254.71Zm-12.831-10.818a17.447,17.447,0,1,1,24.108,5.248A17.446,17.446,0,0,1,5469.03,5062.979Z" transform="translate(-5463.076 -5032.917)" fill="url(#linear-gradient-13)"/>
            <path id="Path_3638" data-name="Path 3638" d="M5466.5,5064.855a20.636,20.636,0,1,1,28.518,6.207,20.451,20.451,0,0,1-12.927,3.2l-.072-.017-.062-.023-5.08-1.108A20.419,20.419,0,0,1,5466.5,5064.855Zm34.258-22.01a20.084,20.084,0,0,0-33.794,21.712,19.878,19.878,0,0,0,10.083,8.031l5.026,1.092a.97.97,0,0,1,.1.033,19.9,19.9,0,0,0,12.544-3.115A20.1,20.1,0,0,0,5500.756,5042.845Zm-31.808,20.436a17.724,17.724,0,1,1,24.493,5.331A17.744,17.744,0,0,1,5468.948,5063.281Zm29.358-18.862a17.171,17.171,0,1,0-5.164,23.729A17.19,17.19,0,0,0,5498.306,5044.419Z" transform="translate(-5463.229 -5033.071)" fill="url(#linear-gradient-14)"/>
          </g>
          <path id="Path_3639" data-name="Path 3639" d="M5471.937,5052.544l.238-1.091a.779.779,0,0,1,.926-.594l-3.255-.71-.051-.01a.781.781,0,0,0-.928.594l-.286,1.326A18.833,18.833,0,0,1,5471.937,5052.544Z" transform="translate(-5452.626 -5006.889)" fill="#192f77"/>
          <path id="Path_3640" data-name="Path 3640" d="M5471.183,5050.448a.777.777,0,0,0-.925.594l-.238,1.092a22.049,22.049,0,0,1,3.269.9l.277-1.268a.774.774,0,0,0-.494-.893.79.79,0,0,0-.1-.032Z" transform="translate(-5450.708 -5006.478)" fill="#192f77"/>
          <path id="Path_3641" data-name="Path 3641" d="M5473.924,5072.505l4.441-19.9c.017-.073-.126-.167-.378-.274a21.841,21.841,0,0,0-3.269-.9,18.856,18.856,0,0,0-3.356-.487c-.2.007-.325.039-.339.1l-4.442,19.9a3.707,3.707,0,0,0,2.852,4.442A3.808,3.808,0,0,0,5473.924,5072.505Z" transform="translate(-5455.409 -5005.783)" fill="url(#linear-gradient-6)"/>
        </g>
      </g>
    </g>
  </g>
</svg>
