<svg xmlns="http://www.w3.org/2000/svg" width="10.174" height="18" viewBox="0 0 10.174 18">
    <path id="prefix__icons8-facebook-f" d="M19.826 5.522h1.957a.391.391 0 0 0 .391-.391V2.494a.39.39 0 0 0-.362-.39C21.189 2.06 19.973 2 19.1 2a3.69 3.69 0 0 0-3.97 4.057v2.6h-2.739a.391.391 0 0 0-.391.386v2.739a.391.391 0 0 0 .391.391h2.739v7.435a.391.391 0 0 0 .391.391h2.739a.391.391 0 0 0 .391-.391v-7.434h2.826a.391.391 0 0 0 .389-.348l.3-2.739a.391.391 0 0 0-.389-.434h-3.13V6.7a1.174 1.174 0 0 1 1.179-1.178z" transform="translate(-12 -2)" style="fill:#3a3f5c;opacity:.4"/>
</svg>
