<svg xmlns="http://www.w3.org/2000/svg" width="18" height="18" viewBox="0 0 18 18">
    <path id="prefix__icons8-instagram" d="M10.293 5A5.314 5.314 0 0 0 5 10.293v7.415A5.314 5.314 0 0 0 10.293 23h7.415A5.314 5.314 0 0 0 23 17.707v-7.414A5.314 5.314 0 0 0 17.707 5zm0 1.636h7.415a3.651 3.651 0 0 1 3.656 3.656v7.415a3.651 3.651 0 0 1-3.656 3.656h-7.415a3.651 3.651 0 0 1-3.656-3.656v-7.414a3.651 3.651 0 0 1 3.656-3.657zm8.54 1.79a.741.741 0 1 0 .741.742.738.738 0 0 0-.742-.742zM14 9.091A4.909 4.909 0 1 0 18.909 14 4.923 4.923 0 0 0 14 9.091zm0 1.636A3.273 3.273 0 1 1 10.727 14 3.259 3.259 0 0 1 14 10.727z" transform="translate(-5 -5)" style="fill:#3a3f5c;opacity:.4"/>
</svg>
