<svg xmlns="http://www.w3.org/2000/svg" width="18" height="14.625" viewBox="0 0 18 14.625">
    <path id="prefix__icons8-twitter" d="M18 3.726a6.814 6.814 0 0 1-2.1.6A3.991 3.991 0 0 0 17.549 2.3a6.843 6.843 0 0 1-2.323.9A3.927 3.927 0 0 0 12.451 2a3.68 3.68 0 0 0-3.677 3.674 2.774 2.774 0 0 0 .076.826 10.26 10.26 0 0 1-7.576-3.826A3.229 3.229 0 0 0 .75 4.549 3.761 3.761 0 0 0 2.4 7.625a5.334 5.334 0 0 1-1.65-.451v.076a3.64 3.64 0 0 0 2.924 3.6A3.853 3.853 0 0 1 2.7 11a2.056 2.056 0 0 1-.677-.076 3.56 3.56 0 0 0 3.451 2.552A7.5 7.5 0 0 1 .9 15.049a3.734 3.734 0 0 1-.9-.073 10.508 10.508 0 0 0 5.625 1.649 10.4 10.4 0 0 0 10.5-10.5v-.451A7.7 7.7 0 0 0 18 3.726" transform="translate(0 -2)" style="fill:#3a3f5c;opacity:.4"/>
</svg>
